G04 #@! TF.GenerationSoftware,KiCad,Pcbnew,7.0.8*
G04 #@! TF.CreationDate,2023-11-01T09:31:03+09:00*
G04 #@! TF.ProjectId,a5d27_handheld_console_pcb,61356432-375f-4686-916e-6468656c645f,rev?*
G04 #@! TF.SameCoordinates,Original*
G04 #@! TF.FileFunction,Legend,Top*
G04 #@! TF.FilePolarity,Positive*
%FSLAX46Y46*%
G04 Gerber Fmt 4.6, Leading zero omitted, Abs format (unit mm)*
G04 Created by KiCad (PCBNEW 7.0.8) date 2023-11-01 09:31:03*
%MOMM*%
%LPD*%
G01*
G04 APERTURE LIST*
G04 Aperture macros list*
%AMRotRect*
0 Rectangle, with rotation*
0 The origin of the aperture is its center*
0 $1 length*
0 $2 width*
0 $3 Rotation angle, in degrees counterclockwise*
0 Add horizontal line*
21,1,$1,$2,0,0,$3*%
G04 Aperture macros list end*
%ADD10C,0.175000*%
%ADD11C,0.200000*%
%ADD12C,0.100000*%
%ADD13C,0.300000*%
%ADD14R,1.200000X1.200000*%
%ADD15R,0.300000X1.000000*%
%ADD16R,0.300000X1.500000*%
%ADD17R,2.500000X3.000000*%
%ADD18R,3.000000X1.500000*%
%ADD19C,2.200000*%
%ADD20C,0.700000*%
%ADD21R,1.400000X1.050000*%
%ADD22RotRect,1.400000X2.100000X45.000000*%
%ADD23R,0.900000X0.800000*%
%ADD24R,2.100000X1.400000*%
%ADD25R,1.600000X1.800000*%
%ADD26R,3.500000X1.600000*%
%ADD27R,0.670000X0.300000*%
%ADD28R,1.800000X1.600000*%
%ADD29R,2.500000X1.700000*%
%ADD30R,1.200000X2.700000*%
%ADD31R,2.000000X3.000000*%
%ADD32R,2.300000X1.000000*%
%ADD33R,2.300000X3.300000*%
%ADD34R,1.050000X1.400000*%
%ADD35R,0.800000X0.900000*%
%ADD36C,1.800000*%
%ADD37R,2.000000X0.500000*%
%ADD38R,1.500000X3.000000*%
%ADD39R,1.100000X2.000000*%
%ADD40R,0.600000X0.522000*%
%ADD41C,1.524000*%
%ADD42R,2.000000X0.900000*%
%ADD43R,0.700000X0.700000*%
%ADD44C,3.000000*%
%ADD45C,3.500000*%
%ADD46C,3.200000*%
%ADD47C,0.900000*%
G04 APERTURE END LIST*
D10*
X109229999Y-169454733D02*
X108996666Y-169121400D01*
X108829999Y-169454733D02*
X108829999Y-168754733D01*
X108829999Y-168754733D02*
X109096666Y-168754733D01*
X109096666Y-168754733D02*
X109163333Y-168788066D01*
X109163333Y-168788066D02*
X109196666Y-168821400D01*
X109196666Y-168821400D02*
X109229999Y-168888066D01*
X109229999Y-168888066D02*
X109229999Y-168988066D01*
X109229999Y-168988066D02*
X109196666Y-169054733D01*
X109196666Y-169054733D02*
X109163333Y-169088066D01*
X109163333Y-169088066D02*
X109096666Y-169121400D01*
X109096666Y-169121400D02*
X108829999Y-169121400D01*
X109496666Y-168821400D02*
X109529999Y-168788066D01*
X109529999Y-168788066D02*
X109596666Y-168754733D01*
X109596666Y-168754733D02*
X109763333Y-168754733D01*
X109763333Y-168754733D02*
X109829999Y-168788066D01*
X109829999Y-168788066D02*
X109863333Y-168821400D01*
X109863333Y-168821400D02*
X109896666Y-168888066D01*
X109896666Y-168888066D02*
X109896666Y-168954733D01*
X109896666Y-168954733D02*
X109863333Y-169054733D01*
X109863333Y-169054733D02*
X109463333Y-169454733D01*
X109463333Y-169454733D02*
X109896666Y-169454733D01*
X110496666Y-168754733D02*
X110363333Y-168754733D01*
X110363333Y-168754733D02*
X110296666Y-168788066D01*
X110296666Y-168788066D02*
X110263333Y-168821400D01*
X110263333Y-168821400D02*
X110196666Y-168921400D01*
X110196666Y-168921400D02*
X110163333Y-169054733D01*
X110163333Y-169054733D02*
X110163333Y-169321400D01*
X110163333Y-169321400D02*
X110196666Y-169388066D01*
X110196666Y-169388066D02*
X110230000Y-169421400D01*
X110230000Y-169421400D02*
X110296666Y-169454733D01*
X110296666Y-169454733D02*
X110430000Y-169454733D01*
X110430000Y-169454733D02*
X110496666Y-169421400D01*
X110496666Y-169421400D02*
X110530000Y-169388066D01*
X110530000Y-169388066D02*
X110563333Y-169321400D01*
X110563333Y-169321400D02*
X110563333Y-169154733D01*
X110563333Y-169154733D02*
X110530000Y-169088066D01*
X110530000Y-169088066D02*
X110496666Y-169054733D01*
X110496666Y-169054733D02*
X110430000Y-169021400D01*
X110430000Y-169021400D02*
X110296666Y-169021400D01*
X110296666Y-169021400D02*
X110230000Y-169054733D01*
X110230000Y-169054733D02*
X110196666Y-169088066D01*
X110196666Y-169088066D02*
X110163333Y-169154733D01*
X123846666Y-147504733D02*
X123846666Y-148004733D01*
X123846666Y-148004733D02*
X123813333Y-148104733D01*
X123813333Y-148104733D02*
X123746666Y-148171400D01*
X123746666Y-148171400D02*
X123646666Y-148204733D01*
X123646666Y-148204733D02*
X123580000Y-148204733D01*
X124213333Y-148204733D02*
X124346666Y-148204733D01*
X124346666Y-148204733D02*
X124413333Y-148171400D01*
X124413333Y-148171400D02*
X124446666Y-148138066D01*
X124446666Y-148138066D02*
X124513333Y-148038066D01*
X124513333Y-148038066D02*
X124546666Y-147904733D01*
X124546666Y-147904733D02*
X124546666Y-147638066D01*
X124546666Y-147638066D02*
X124513333Y-147571400D01*
X124513333Y-147571400D02*
X124479999Y-147538066D01*
X124479999Y-147538066D02*
X124413333Y-147504733D01*
X124413333Y-147504733D02*
X124279999Y-147504733D01*
X124279999Y-147504733D02*
X124213333Y-147538066D01*
X124213333Y-147538066D02*
X124179999Y-147571400D01*
X124179999Y-147571400D02*
X124146666Y-147638066D01*
X124146666Y-147638066D02*
X124146666Y-147804733D01*
X124146666Y-147804733D02*
X124179999Y-147871400D01*
X124179999Y-147871400D02*
X124213333Y-147904733D01*
X124213333Y-147904733D02*
X124279999Y-147938066D01*
X124279999Y-147938066D02*
X124413333Y-147938066D01*
X124413333Y-147938066D02*
X124479999Y-147904733D01*
X124479999Y-147904733D02*
X124513333Y-147871400D01*
X124513333Y-147871400D02*
X124546666Y-147804733D01*
X74806666Y-201444733D02*
X74806666Y-201944733D01*
X74806666Y-201944733D02*
X74773333Y-202044733D01*
X74773333Y-202044733D02*
X74706666Y-202111400D01*
X74706666Y-202111400D02*
X74606666Y-202144733D01*
X74606666Y-202144733D02*
X74540000Y-202144733D01*
X75106666Y-201511400D02*
X75139999Y-201478066D01*
X75139999Y-201478066D02*
X75206666Y-201444733D01*
X75206666Y-201444733D02*
X75373333Y-201444733D01*
X75373333Y-201444733D02*
X75439999Y-201478066D01*
X75439999Y-201478066D02*
X75473333Y-201511400D01*
X75473333Y-201511400D02*
X75506666Y-201578066D01*
X75506666Y-201578066D02*
X75506666Y-201644733D01*
X75506666Y-201644733D02*
X75473333Y-201744733D01*
X75473333Y-201744733D02*
X75073333Y-202144733D01*
X75073333Y-202144733D02*
X75506666Y-202144733D01*
X109229999Y-171954733D02*
X108996666Y-171621400D01*
X108829999Y-171954733D02*
X108829999Y-171254733D01*
X108829999Y-171254733D02*
X109096666Y-171254733D01*
X109096666Y-171254733D02*
X109163333Y-171288066D01*
X109163333Y-171288066D02*
X109196666Y-171321400D01*
X109196666Y-171321400D02*
X109229999Y-171388066D01*
X109229999Y-171388066D02*
X109229999Y-171488066D01*
X109229999Y-171488066D02*
X109196666Y-171554733D01*
X109196666Y-171554733D02*
X109163333Y-171588066D01*
X109163333Y-171588066D02*
X109096666Y-171621400D01*
X109096666Y-171621400D02*
X108829999Y-171621400D01*
X109496666Y-171321400D02*
X109529999Y-171288066D01*
X109529999Y-171288066D02*
X109596666Y-171254733D01*
X109596666Y-171254733D02*
X109763333Y-171254733D01*
X109763333Y-171254733D02*
X109829999Y-171288066D01*
X109829999Y-171288066D02*
X109863333Y-171321400D01*
X109863333Y-171321400D02*
X109896666Y-171388066D01*
X109896666Y-171388066D02*
X109896666Y-171454733D01*
X109896666Y-171454733D02*
X109863333Y-171554733D01*
X109863333Y-171554733D02*
X109463333Y-171954733D01*
X109463333Y-171954733D02*
X109896666Y-171954733D01*
X110496666Y-171488066D02*
X110496666Y-171954733D01*
X110330000Y-171221400D02*
X110163333Y-171721400D01*
X110163333Y-171721400D02*
X110596666Y-171721400D01*
X156831933Y-213189999D02*
X156798600Y-213156666D01*
X156798600Y-213156666D02*
X156765266Y-213056666D01*
X156765266Y-213056666D02*
X156765266Y-212989999D01*
X156765266Y-212989999D02*
X156798600Y-212889999D01*
X156798600Y-212889999D02*
X156865266Y-212823333D01*
X156865266Y-212823333D02*
X156931933Y-212789999D01*
X156931933Y-212789999D02*
X157065266Y-212756666D01*
X157065266Y-212756666D02*
X157165266Y-212756666D01*
X157165266Y-212756666D02*
X157298600Y-212789999D01*
X157298600Y-212789999D02*
X157365266Y-212823333D01*
X157365266Y-212823333D02*
X157431933Y-212889999D01*
X157431933Y-212889999D02*
X157465266Y-212989999D01*
X157465266Y-212989999D02*
X157465266Y-213056666D01*
X157465266Y-213056666D02*
X157431933Y-213156666D01*
X157431933Y-213156666D02*
X157398600Y-213189999D01*
X157398600Y-213456666D02*
X157431933Y-213489999D01*
X157431933Y-213489999D02*
X157465266Y-213556666D01*
X157465266Y-213556666D02*
X157465266Y-213723333D01*
X157465266Y-213723333D02*
X157431933Y-213789999D01*
X157431933Y-213789999D02*
X157398600Y-213823333D01*
X157398600Y-213823333D02*
X157331933Y-213856666D01*
X157331933Y-213856666D02*
X157265266Y-213856666D01*
X157265266Y-213856666D02*
X157165266Y-213823333D01*
X157165266Y-213823333D02*
X156765266Y-213423333D01*
X156765266Y-213423333D02*
X156765266Y-213856666D01*
X156765266Y-214190000D02*
X156765266Y-214323333D01*
X156765266Y-214323333D02*
X156798600Y-214390000D01*
X156798600Y-214390000D02*
X156831933Y-214423333D01*
X156831933Y-214423333D02*
X156931933Y-214490000D01*
X156931933Y-214490000D02*
X157065266Y-214523333D01*
X157065266Y-214523333D02*
X157331933Y-214523333D01*
X157331933Y-214523333D02*
X157398600Y-214490000D01*
X157398600Y-214490000D02*
X157431933Y-214456666D01*
X157431933Y-214456666D02*
X157465266Y-214390000D01*
X157465266Y-214390000D02*
X157465266Y-214256666D01*
X157465266Y-214256666D02*
X157431933Y-214190000D01*
X157431933Y-214190000D02*
X157398600Y-214156666D01*
X157398600Y-214156666D02*
X157331933Y-214123333D01*
X157331933Y-214123333D02*
X157165266Y-214123333D01*
X157165266Y-214123333D02*
X157098600Y-214156666D01*
X157098600Y-214156666D02*
X157065266Y-214190000D01*
X157065266Y-214190000D02*
X157031933Y-214256666D01*
X157031933Y-214256666D02*
X157031933Y-214390000D01*
X157031933Y-214390000D02*
X157065266Y-214456666D01*
X157065266Y-214456666D02*
X157098600Y-214490000D01*
X157098600Y-214490000D02*
X157165266Y-214523333D01*
X76813333Y-201521400D02*
X76913333Y-201554733D01*
X76913333Y-201554733D02*
X77080000Y-201554733D01*
X77080000Y-201554733D02*
X77146666Y-201521400D01*
X77146666Y-201521400D02*
X77180000Y-201488066D01*
X77180000Y-201488066D02*
X77213333Y-201421400D01*
X77213333Y-201421400D02*
X77213333Y-201354733D01*
X77213333Y-201354733D02*
X77180000Y-201288066D01*
X77180000Y-201288066D02*
X77146666Y-201254733D01*
X77146666Y-201254733D02*
X77080000Y-201221400D01*
X77080000Y-201221400D02*
X76946666Y-201188066D01*
X76946666Y-201188066D02*
X76880000Y-201154733D01*
X76880000Y-201154733D02*
X76846666Y-201121400D01*
X76846666Y-201121400D02*
X76813333Y-201054733D01*
X76813333Y-201054733D02*
X76813333Y-200988066D01*
X76813333Y-200988066D02*
X76846666Y-200921400D01*
X76846666Y-200921400D02*
X76880000Y-200888066D01*
X76880000Y-200888066D02*
X76946666Y-200854733D01*
X76946666Y-200854733D02*
X77113333Y-200854733D01*
X77113333Y-200854733D02*
X77213333Y-200888066D01*
X77446667Y-200854733D02*
X77613333Y-201554733D01*
X77613333Y-201554733D02*
X77746667Y-201054733D01*
X77746667Y-201054733D02*
X77880000Y-201554733D01*
X77880000Y-201554733D02*
X78046667Y-200854733D01*
X78680000Y-201554733D02*
X78280000Y-201554733D01*
X78480000Y-201554733D02*
X78480000Y-200854733D01*
X78480000Y-200854733D02*
X78413333Y-200954733D01*
X78413333Y-200954733D02*
X78346667Y-201021400D01*
X78346667Y-201021400D02*
X78280000Y-201054733D01*
X78913334Y-200854733D02*
X79346667Y-200854733D01*
X79346667Y-200854733D02*
X79113334Y-201121400D01*
X79113334Y-201121400D02*
X79213334Y-201121400D01*
X79213334Y-201121400D02*
X79280000Y-201154733D01*
X79280000Y-201154733D02*
X79313334Y-201188066D01*
X79313334Y-201188066D02*
X79346667Y-201254733D01*
X79346667Y-201254733D02*
X79346667Y-201421400D01*
X79346667Y-201421400D02*
X79313334Y-201488066D01*
X79313334Y-201488066D02*
X79280000Y-201521400D01*
X79280000Y-201521400D02*
X79213334Y-201554733D01*
X79213334Y-201554733D02*
X79013334Y-201554733D01*
X79013334Y-201554733D02*
X78946667Y-201521400D01*
X78946667Y-201521400D02*
X78913334Y-201488066D01*
X203612074Y-141172074D02*
X203847777Y-141407777D01*
X203187810Y-141077793D02*
X203612074Y-141172074D01*
X203612074Y-141172074D02*
X203517793Y-140747810D01*
X209013333Y-227521400D02*
X208946666Y-227488066D01*
X208946666Y-227488066D02*
X208880000Y-227421400D01*
X208880000Y-227421400D02*
X208780000Y-227321400D01*
X208780000Y-227321400D02*
X208713333Y-227288066D01*
X208713333Y-227288066D02*
X208646666Y-227288066D01*
X208680000Y-227454733D02*
X208613333Y-227421400D01*
X208613333Y-227421400D02*
X208546666Y-227354733D01*
X208546666Y-227354733D02*
X208513333Y-227221400D01*
X208513333Y-227221400D02*
X208513333Y-226988066D01*
X208513333Y-226988066D02*
X208546666Y-226854733D01*
X208546666Y-226854733D02*
X208613333Y-226788066D01*
X208613333Y-226788066D02*
X208680000Y-226754733D01*
X208680000Y-226754733D02*
X208813333Y-226754733D01*
X208813333Y-226754733D02*
X208880000Y-226788066D01*
X208880000Y-226788066D02*
X208946666Y-226854733D01*
X208946666Y-226854733D02*
X208980000Y-226988066D01*
X208980000Y-226988066D02*
X208980000Y-227221400D01*
X208980000Y-227221400D02*
X208946666Y-227354733D01*
X208946666Y-227354733D02*
X208880000Y-227421400D01*
X208880000Y-227421400D02*
X208813333Y-227454733D01*
X208813333Y-227454733D02*
X208680000Y-227454733D01*
X209213333Y-226754733D02*
X209679999Y-226754733D01*
X209679999Y-226754733D02*
X209379999Y-227454733D01*
X164129999Y-259888066D02*
X164096666Y-259921400D01*
X164096666Y-259921400D02*
X163996666Y-259954733D01*
X163996666Y-259954733D02*
X163929999Y-259954733D01*
X163929999Y-259954733D02*
X163829999Y-259921400D01*
X163829999Y-259921400D02*
X163763333Y-259854733D01*
X163763333Y-259854733D02*
X163729999Y-259788066D01*
X163729999Y-259788066D02*
X163696666Y-259654733D01*
X163696666Y-259654733D02*
X163696666Y-259554733D01*
X163696666Y-259554733D02*
X163729999Y-259421400D01*
X163729999Y-259421400D02*
X163763333Y-259354733D01*
X163763333Y-259354733D02*
X163829999Y-259288066D01*
X163829999Y-259288066D02*
X163929999Y-259254733D01*
X163929999Y-259254733D02*
X163996666Y-259254733D01*
X163996666Y-259254733D02*
X164096666Y-259288066D01*
X164096666Y-259288066D02*
X164129999Y-259321400D01*
X164363333Y-259254733D02*
X164796666Y-259254733D01*
X164796666Y-259254733D02*
X164563333Y-259521400D01*
X164563333Y-259521400D02*
X164663333Y-259521400D01*
X164663333Y-259521400D02*
X164729999Y-259554733D01*
X164729999Y-259554733D02*
X164763333Y-259588066D01*
X164763333Y-259588066D02*
X164796666Y-259654733D01*
X164796666Y-259654733D02*
X164796666Y-259821400D01*
X164796666Y-259821400D02*
X164763333Y-259888066D01*
X164763333Y-259888066D02*
X164729999Y-259921400D01*
X164729999Y-259921400D02*
X164663333Y-259954733D01*
X164663333Y-259954733D02*
X164463333Y-259954733D01*
X164463333Y-259954733D02*
X164396666Y-259921400D01*
X164396666Y-259921400D02*
X164363333Y-259888066D01*
X165130000Y-259954733D02*
X165263333Y-259954733D01*
X165263333Y-259954733D02*
X165330000Y-259921400D01*
X165330000Y-259921400D02*
X165363333Y-259888066D01*
X165363333Y-259888066D02*
X165430000Y-259788066D01*
X165430000Y-259788066D02*
X165463333Y-259654733D01*
X165463333Y-259654733D02*
X165463333Y-259388066D01*
X165463333Y-259388066D02*
X165430000Y-259321400D01*
X165430000Y-259321400D02*
X165396666Y-259288066D01*
X165396666Y-259288066D02*
X165330000Y-259254733D01*
X165330000Y-259254733D02*
X165196666Y-259254733D01*
X165196666Y-259254733D02*
X165130000Y-259288066D01*
X165130000Y-259288066D02*
X165096666Y-259321400D01*
X165096666Y-259321400D02*
X165063333Y-259388066D01*
X165063333Y-259388066D02*
X165063333Y-259554733D01*
X165063333Y-259554733D02*
X165096666Y-259621400D01*
X165096666Y-259621400D02*
X165130000Y-259654733D01*
X165130000Y-259654733D02*
X165196666Y-259688066D01*
X165196666Y-259688066D02*
X165330000Y-259688066D01*
X165330000Y-259688066D02*
X165396666Y-259654733D01*
X165396666Y-259654733D02*
X165430000Y-259621400D01*
X165430000Y-259621400D02*
X165463333Y-259554733D01*
X166629999Y-206888066D02*
X166596666Y-206921400D01*
X166596666Y-206921400D02*
X166496666Y-206954733D01*
X166496666Y-206954733D02*
X166429999Y-206954733D01*
X166429999Y-206954733D02*
X166329999Y-206921400D01*
X166329999Y-206921400D02*
X166263333Y-206854733D01*
X166263333Y-206854733D02*
X166229999Y-206788066D01*
X166229999Y-206788066D02*
X166196666Y-206654733D01*
X166196666Y-206654733D02*
X166196666Y-206554733D01*
X166196666Y-206554733D02*
X166229999Y-206421400D01*
X166229999Y-206421400D02*
X166263333Y-206354733D01*
X166263333Y-206354733D02*
X166329999Y-206288066D01*
X166329999Y-206288066D02*
X166429999Y-206254733D01*
X166429999Y-206254733D02*
X166496666Y-206254733D01*
X166496666Y-206254733D02*
X166596666Y-206288066D01*
X166596666Y-206288066D02*
X166629999Y-206321400D01*
X166896666Y-206321400D02*
X166929999Y-206288066D01*
X166929999Y-206288066D02*
X166996666Y-206254733D01*
X166996666Y-206254733D02*
X167163333Y-206254733D01*
X167163333Y-206254733D02*
X167229999Y-206288066D01*
X167229999Y-206288066D02*
X167263333Y-206321400D01*
X167263333Y-206321400D02*
X167296666Y-206388066D01*
X167296666Y-206388066D02*
X167296666Y-206454733D01*
X167296666Y-206454733D02*
X167263333Y-206554733D01*
X167263333Y-206554733D02*
X166863333Y-206954733D01*
X166863333Y-206954733D02*
X167296666Y-206954733D01*
X167530000Y-206254733D02*
X167996666Y-206254733D01*
X167996666Y-206254733D02*
X167696666Y-206954733D01*
X217829999Y-239154733D02*
X217596666Y-238821400D01*
X217429999Y-239154733D02*
X217429999Y-238454733D01*
X217429999Y-238454733D02*
X217696666Y-238454733D01*
X217696666Y-238454733D02*
X217763333Y-238488066D01*
X217763333Y-238488066D02*
X217796666Y-238521400D01*
X217796666Y-238521400D02*
X217829999Y-238588066D01*
X217829999Y-238588066D02*
X217829999Y-238688066D01*
X217829999Y-238688066D02*
X217796666Y-238754733D01*
X217796666Y-238754733D02*
X217763333Y-238788066D01*
X217763333Y-238788066D02*
X217696666Y-238821400D01*
X217696666Y-238821400D02*
X217429999Y-238821400D01*
X218429999Y-238688066D02*
X218429999Y-239154733D01*
X218263333Y-238421400D02*
X218096666Y-238921400D01*
X218096666Y-238921400D02*
X218529999Y-238921400D01*
X219096666Y-238688066D02*
X219096666Y-239154733D01*
X218930000Y-238421400D02*
X218763333Y-238921400D01*
X218763333Y-238921400D02*
X219196666Y-238921400D01*
X174013333Y-214021400D02*
X173946666Y-213988066D01*
X173946666Y-213988066D02*
X173880000Y-213921400D01*
X173880000Y-213921400D02*
X173780000Y-213821400D01*
X173780000Y-213821400D02*
X173713333Y-213788066D01*
X173713333Y-213788066D02*
X173646666Y-213788066D01*
X173680000Y-213954733D02*
X173613333Y-213921400D01*
X173613333Y-213921400D02*
X173546666Y-213854733D01*
X173546666Y-213854733D02*
X173513333Y-213721400D01*
X173513333Y-213721400D02*
X173513333Y-213488066D01*
X173513333Y-213488066D02*
X173546666Y-213354733D01*
X173546666Y-213354733D02*
X173613333Y-213288066D01*
X173613333Y-213288066D02*
X173680000Y-213254733D01*
X173680000Y-213254733D02*
X173813333Y-213254733D01*
X173813333Y-213254733D02*
X173880000Y-213288066D01*
X173880000Y-213288066D02*
X173946666Y-213354733D01*
X173946666Y-213354733D02*
X173980000Y-213488066D01*
X173980000Y-213488066D02*
X173980000Y-213721400D01*
X173980000Y-213721400D02*
X173946666Y-213854733D01*
X173946666Y-213854733D02*
X173880000Y-213921400D01*
X173880000Y-213921400D02*
X173813333Y-213954733D01*
X173813333Y-213954733D02*
X173680000Y-213954733D01*
X174579999Y-213488066D02*
X174579999Y-213954733D01*
X174413333Y-213221400D02*
X174246666Y-213721400D01*
X174246666Y-213721400D02*
X174679999Y-213721400D01*
X217829999Y-248588066D02*
X217796666Y-248621400D01*
X217796666Y-248621400D02*
X217696666Y-248654733D01*
X217696666Y-248654733D02*
X217629999Y-248654733D01*
X217629999Y-248654733D02*
X217529999Y-248621400D01*
X217529999Y-248621400D02*
X217463333Y-248554733D01*
X217463333Y-248554733D02*
X217429999Y-248488066D01*
X217429999Y-248488066D02*
X217396666Y-248354733D01*
X217396666Y-248354733D02*
X217396666Y-248254733D01*
X217396666Y-248254733D02*
X217429999Y-248121400D01*
X217429999Y-248121400D02*
X217463333Y-248054733D01*
X217463333Y-248054733D02*
X217529999Y-247988066D01*
X217529999Y-247988066D02*
X217629999Y-247954733D01*
X217629999Y-247954733D02*
X217696666Y-247954733D01*
X217696666Y-247954733D02*
X217796666Y-247988066D01*
X217796666Y-247988066D02*
X217829999Y-248021400D01*
X218096666Y-248021400D02*
X218129999Y-247988066D01*
X218129999Y-247988066D02*
X218196666Y-247954733D01*
X218196666Y-247954733D02*
X218363333Y-247954733D01*
X218363333Y-247954733D02*
X218429999Y-247988066D01*
X218429999Y-247988066D02*
X218463333Y-248021400D01*
X218463333Y-248021400D02*
X218496666Y-248088066D01*
X218496666Y-248088066D02*
X218496666Y-248154733D01*
X218496666Y-248154733D02*
X218463333Y-248254733D01*
X218463333Y-248254733D02*
X218063333Y-248654733D01*
X218063333Y-248654733D02*
X218496666Y-248654733D01*
X218896666Y-248254733D02*
X218830000Y-248221400D01*
X218830000Y-248221400D02*
X218796666Y-248188066D01*
X218796666Y-248188066D02*
X218763333Y-248121400D01*
X218763333Y-248121400D02*
X218763333Y-248088066D01*
X218763333Y-248088066D02*
X218796666Y-248021400D01*
X218796666Y-248021400D02*
X218830000Y-247988066D01*
X218830000Y-247988066D02*
X218896666Y-247954733D01*
X218896666Y-247954733D02*
X219030000Y-247954733D01*
X219030000Y-247954733D02*
X219096666Y-247988066D01*
X219096666Y-247988066D02*
X219130000Y-248021400D01*
X219130000Y-248021400D02*
X219163333Y-248088066D01*
X219163333Y-248088066D02*
X219163333Y-248121400D01*
X219163333Y-248121400D02*
X219130000Y-248188066D01*
X219130000Y-248188066D02*
X219096666Y-248221400D01*
X219096666Y-248221400D02*
X219030000Y-248254733D01*
X219030000Y-248254733D02*
X218896666Y-248254733D01*
X218896666Y-248254733D02*
X218830000Y-248288066D01*
X218830000Y-248288066D02*
X218796666Y-248321400D01*
X218796666Y-248321400D02*
X218763333Y-248388066D01*
X218763333Y-248388066D02*
X218763333Y-248521400D01*
X218763333Y-248521400D02*
X218796666Y-248588066D01*
X218796666Y-248588066D02*
X218830000Y-248621400D01*
X218830000Y-248621400D02*
X218896666Y-248654733D01*
X218896666Y-248654733D02*
X219030000Y-248654733D01*
X219030000Y-248654733D02*
X219096666Y-248621400D01*
X219096666Y-248621400D02*
X219130000Y-248588066D01*
X219130000Y-248588066D02*
X219163333Y-248521400D01*
X219163333Y-248521400D02*
X219163333Y-248388066D01*
X219163333Y-248388066D02*
X219130000Y-248321400D01*
X219130000Y-248321400D02*
X219096666Y-248288066D01*
X219096666Y-248288066D02*
X219030000Y-248254733D01*
X219063333Y-220454733D02*
X219063333Y-219754733D01*
X219063333Y-219754733D02*
X219230000Y-219754733D01*
X219230000Y-219754733D02*
X219330000Y-219788066D01*
X219330000Y-219788066D02*
X219396667Y-219854733D01*
X219396667Y-219854733D02*
X219430000Y-219921400D01*
X219430000Y-219921400D02*
X219463333Y-220054733D01*
X219463333Y-220054733D02*
X219463333Y-220154733D01*
X219463333Y-220154733D02*
X219430000Y-220288066D01*
X219430000Y-220288066D02*
X219396667Y-220354733D01*
X219396667Y-220354733D02*
X219330000Y-220421400D01*
X219330000Y-220421400D02*
X219230000Y-220454733D01*
X219230000Y-220454733D02*
X219063333Y-220454733D01*
X220063333Y-219754733D02*
X219930000Y-219754733D01*
X219930000Y-219754733D02*
X219863333Y-219788066D01*
X219863333Y-219788066D02*
X219830000Y-219821400D01*
X219830000Y-219821400D02*
X219763333Y-219921400D01*
X219763333Y-219921400D02*
X219730000Y-220054733D01*
X219730000Y-220054733D02*
X219730000Y-220321400D01*
X219730000Y-220321400D02*
X219763333Y-220388066D01*
X219763333Y-220388066D02*
X219796667Y-220421400D01*
X219796667Y-220421400D02*
X219863333Y-220454733D01*
X219863333Y-220454733D02*
X219996667Y-220454733D01*
X219996667Y-220454733D02*
X220063333Y-220421400D01*
X220063333Y-220421400D02*
X220096667Y-220388066D01*
X220096667Y-220388066D02*
X220130000Y-220321400D01*
X220130000Y-220321400D02*
X220130000Y-220154733D01*
X220130000Y-220154733D02*
X220096667Y-220088066D01*
X220096667Y-220088066D02*
X220063333Y-220054733D01*
X220063333Y-220054733D02*
X219996667Y-220021400D01*
X219996667Y-220021400D02*
X219863333Y-220021400D01*
X219863333Y-220021400D02*
X219796667Y-220054733D01*
X219796667Y-220054733D02*
X219763333Y-220088066D01*
X219763333Y-220088066D02*
X219730000Y-220154733D01*
X159796667Y-213865266D02*
X160130000Y-213865266D01*
X160130000Y-213865266D02*
X160130000Y-214565266D01*
X159596666Y-214498600D02*
X159563333Y-214531933D01*
X159563333Y-214531933D02*
X159496666Y-214565266D01*
X159496666Y-214565266D02*
X159330000Y-214565266D01*
X159330000Y-214565266D02*
X159263333Y-214531933D01*
X159263333Y-214531933D02*
X159230000Y-214498600D01*
X159230000Y-214498600D02*
X159196666Y-214431933D01*
X159196666Y-214431933D02*
X159196666Y-214365266D01*
X159196666Y-214365266D02*
X159230000Y-214265266D01*
X159230000Y-214265266D02*
X159630000Y-213865266D01*
X159630000Y-213865266D02*
X159196666Y-213865266D01*
X152129999Y-262888066D02*
X152096666Y-262921400D01*
X152096666Y-262921400D02*
X151996666Y-262954733D01*
X151996666Y-262954733D02*
X151929999Y-262954733D01*
X151929999Y-262954733D02*
X151829999Y-262921400D01*
X151829999Y-262921400D02*
X151763333Y-262854733D01*
X151763333Y-262854733D02*
X151729999Y-262788066D01*
X151729999Y-262788066D02*
X151696666Y-262654733D01*
X151696666Y-262654733D02*
X151696666Y-262554733D01*
X151696666Y-262554733D02*
X151729999Y-262421400D01*
X151729999Y-262421400D02*
X151763333Y-262354733D01*
X151763333Y-262354733D02*
X151829999Y-262288066D01*
X151829999Y-262288066D02*
X151929999Y-262254733D01*
X151929999Y-262254733D02*
X151996666Y-262254733D01*
X151996666Y-262254733D02*
X152096666Y-262288066D01*
X152096666Y-262288066D02*
X152129999Y-262321400D01*
X152363333Y-262254733D02*
X152796666Y-262254733D01*
X152796666Y-262254733D02*
X152563333Y-262521400D01*
X152563333Y-262521400D02*
X152663333Y-262521400D01*
X152663333Y-262521400D02*
X152729999Y-262554733D01*
X152729999Y-262554733D02*
X152763333Y-262588066D01*
X152763333Y-262588066D02*
X152796666Y-262654733D01*
X152796666Y-262654733D02*
X152796666Y-262821400D01*
X152796666Y-262821400D02*
X152763333Y-262888066D01*
X152763333Y-262888066D02*
X152729999Y-262921400D01*
X152729999Y-262921400D02*
X152663333Y-262954733D01*
X152663333Y-262954733D02*
X152463333Y-262954733D01*
X152463333Y-262954733D02*
X152396666Y-262921400D01*
X152396666Y-262921400D02*
X152363333Y-262888066D01*
X153030000Y-262254733D02*
X153463333Y-262254733D01*
X153463333Y-262254733D02*
X153230000Y-262521400D01*
X153230000Y-262521400D02*
X153330000Y-262521400D01*
X153330000Y-262521400D02*
X153396666Y-262554733D01*
X153396666Y-262554733D02*
X153430000Y-262588066D01*
X153430000Y-262588066D02*
X153463333Y-262654733D01*
X153463333Y-262654733D02*
X153463333Y-262821400D01*
X153463333Y-262821400D02*
X153430000Y-262888066D01*
X153430000Y-262888066D02*
X153396666Y-262921400D01*
X153396666Y-262921400D02*
X153330000Y-262954733D01*
X153330000Y-262954733D02*
X153130000Y-262954733D01*
X153130000Y-262954733D02*
X153063333Y-262921400D01*
X153063333Y-262921400D02*
X153030000Y-262888066D01*
X177563333Y-208954733D02*
X177563333Y-208254733D01*
X177563333Y-208254733D02*
X177730000Y-208254733D01*
X177730000Y-208254733D02*
X177830000Y-208288066D01*
X177830000Y-208288066D02*
X177896667Y-208354733D01*
X177896667Y-208354733D02*
X177930000Y-208421400D01*
X177930000Y-208421400D02*
X177963333Y-208554733D01*
X177963333Y-208554733D02*
X177963333Y-208654733D01*
X177963333Y-208654733D02*
X177930000Y-208788066D01*
X177930000Y-208788066D02*
X177896667Y-208854733D01*
X177896667Y-208854733D02*
X177830000Y-208921400D01*
X177830000Y-208921400D02*
X177730000Y-208954733D01*
X177730000Y-208954733D02*
X177563333Y-208954733D01*
X178563333Y-208488066D02*
X178563333Y-208954733D01*
X178396667Y-208221400D02*
X178230000Y-208721400D01*
X178230000Y-208721400D02*
X178663333Y-208721400D01*
X222094733Y-218873333D02*
X222594733Y-218873333D01*
X222594733Y-218873333D02*
X222694733Y-218906666D01*
X222694733Y-218906666D02*
X222761400Y-218973333D01*
X222761400Y-218973333D02*
X222794733Y-219073333D01*
X222794733Y-219073333D02*
X222794733Y-219140000D01*
X222394733Y-218440000D02*
X222361400Y-218506667D01*
X222361400Y-218506667D02*
X222328066Y-218540000D01*
X222328066Y-218540000D02*
X222261400Y-218573333D01*
X222261400Y-218573333D02*
X222228066Y-218573333D01*
X222228066Y-218573333D02*
X222161400Y-218540000D01*
X222161400Y-218540000D02*
X222128066Y-218506667D01*
X222128066Y-218506667D02*
X222094733Y-218440000D01*
X222094733Y-218440000D02*
X222094733Y-218306667D01*
X222094733Y-218306667D02*
X222128066Y-218240000D01*
X222128066Y-218240000D02*
X222161400Y-218206667D01*
X222161400Y-218206667D02*
X222228066Y-218173333D01*
X222228066Y-218173333D02*
X222261400Y-218173333D01*
X222261400Y-218173333D02*
X222328066Y-218206667D01*
X222328066Y-218206667D02*
X222361400Y-218240000D01*
X222361400Y-218240000D02*
X222394733Y-218306667D01*
X222394733Y-218306667D02*
X222394733Y-218440000D01*
X222394733Y-218440000D02*
X222428066Y-218506667D01*
X222428066Y-218506667D02*
X222461400Y-218540000D01*
X222461400Y-218540000D02*
X222528066Y-218573333D01*
X222528066Y-218573333D02*
X222661400Y-218573333D01*
X222661400Y-218573333D02*
X222728066Y-218540000D01*
X222728066Y-218540000D02*
X222761400Y-218506667D01*
X222761400Y-218506667D02*
X222794733Y-218440000D01*
X222794733Y-218440000D02*
X222794733Y-218306667D01*
X222794733Y-218306667D02*
X222761400Y-218240000D01*
X222761400Y-218240000D02*
X222728066Y-218206667D01*
X222728066Y-218206667D02*
X222661400Y-218173333D01*
X222661400Y-218173333D02*
X222528066Y-218173333D01*
X222528066Y-218173333D02*
X222461400Y-218206667D01*
X222461400Y-218206667D02*
X222428066Y-218240000D01*
X222428066Y-218240000D02*
X222394733Y-218306667D01*
X72963894Y-131301710D02*
X73364587Y-131702404D01*
X73364587Y-131702404D02*
X73435298Y-131725974D01*
X73435298Y-131725974D02*
X73482439Y-131725974D01*
X73482439Y-131725974D02*
X73553149Y-131702404D01*
X73553149Y-131702404D02*
X73647430Y-131608123D01*
X73647430Y-131608123D02*
X73671000Y-131537412D01*
X73671000Y-131537412D02*
X73671000Y-131490272D01*
X73671000Y-131490272D02*
X73647430Y-131419561D01*
X73647430Y-131419561D02*
X73246736Y-131018867D01*
X73977413Y-131278140D02*
X73482438Y-130783165D01*
X73482438Y-130783165D02*
X73671000Y-130594604D01*
X73671000Y-130594604D02*
X73741711Y-130571033D01*
X73741711Y-130571033D02*
X73788851Y-130571033D01*
X73788851Y-130571033D02*
X73859562Y-130594604D01*
X73859562Y-130594604D02*
X73930273Y-130665314D01*
X73930273Y-130665314D02*
X73953843Y-130736025D01*
X73953843Y-130736025D02*
X73953843Y-130783165D01*
X73953843Y-130783165D02*
X73930273Y-130853876D01*
X73930273Y-130853876D02*
X73741711Y-131042438D01*
X154546666Y-258254733D02*
X154546666Y-258821400D01*
X154546666Y-258821400D02*
X154580000Y-258888066D01*
X154580000Y-258888066D02*
X154613333Y-258921400D01*
X154613333Y-258921400D02*
X154680000Y-258954733D01*
X154680000Y-258954733D02*
X154813333Y-258954733D01*
X154813333Y-258954733D02*
X154880000Y-258921400D01*
X154880000Y-258921400D02*
X154913333Y-258888066D01*
X154913333Y-258888066D02*
X154946666Y-258821400D01*
X154946666Y-258821400D02*
X154946666Y-258254733D01*
X155379999Y-258554733D02*
X155313333Y-258521400D01*
X155313333Y-258521400D02*
X155279999Y-258488066D01*
X155279999Y-258488066D02*
X155246666Y-258421400D01*
X155246666Y-258421400D02*
X155246666Y-258388066D01*
X155246666Y-258388066D02*
X155279999Y-258321400D01*
X155279999Y-258321400D02*
X155313333Y-258288066D01*
X155313333Y-258288066D02*
X155379999Y-258254733D01*
X155379999Y-258254733D02*
X155513333Y-258254733D01*
X155513333Y-258254733D02*
X155579999Y-258288066D01*
X155579999Y-258288066D02*
X155613333Y-258321400D01*
X155613333Y-258321400D02*
X155646666Y-258388066D01*
X155646666Y-258388066D02*
X155646666Y-258421400D01*
X155646666Y-258421400D02*
X155613333Y-258488066D01*
X155613333Y-258488066D02*
X155579999Y-258521400D01*
X155579999Y-258521400D02*
X155513333Y-258554733D01*
X155513333Y-258554733D02*
X155379999Y-258554733D01*
X155379999Y-258554733D02*
X155313333Y-258588066D01*
X155313333Y-258588066D02*
X155279999Y-258621400D01*
X155279999Y-258621400D02*
X155246666Y-258688066D01*
X155246666Y-258688066D02*
X155246666Y-258821400D01*
X155246666Y-258821400D02*
X155279999Y-258888066D01*
X155279999Y-258888066D02*
X155313333Y-258921400D01*
X155313333Y-258921400D02*
X155379999Y-258954733D01*
X155379999Y-258954733D02*
X155513333Y-258954733D01*
X155513333Y-258954733D02*
X155579999Y-258921400D01*
X155579999Y-258921400D02*
X155613333Y-258888066D01*
X155613333Y-258888066D02*
X155646666Y-258821400D01*
X155646666Y-258821400D02*
X155646666Y-258688066D01*
X155646666Y-258688066D02*
X155613333Y-258621400D01*
X155613333Y-258621400D02*
X155579999Y-258588066D01*
X155579999Y-258588066D02*
X155513333Y-258554733D01*
X179129999Y-217888066D02*
X179096666Y-217921400D01*
X179096666Y-217921400D02*
X178996666Y-217954733D01*
X178996666Y-217954733D02*
X178929999Y-217954733D01*
X178929999Y-217954733D02*
X178829999Y-217921400D01*
X178829999Y-217921400D02*
X178763333Y-217854733D01*
X178763333Y-217854733D02*
X178729999Y-217788066D01*
X178729999Y-217788066D02*
X178696666Y-217654733D01*
X178696666Y-217654733D02*
X178696666Y-217554733D01*
X178696666Y-217554733D02*
X178729999Y-217421400D01*
X178729999Y-217421400D02*
X178763333Y-217354733D01*
X178763333Y-217354733D02*
X178829999Y-217288066D01*
X178829999Y-217288066D02*
X178929999Y-217254733D01*
X178929999Y-217254733D02*
X178996666Y-217254733D01*
X178996666Y-217254733D02*
X179096666Y-217288066D01*
X179096666Y-217288066D02*
X179129999Y-217321400D01*
X179396666Y-217321400D02*
X179429999Y-217288066D01*
X179429999Y-217288066D02*
X179496666Y-217254733D01*
X179496666Y-217254733D02*
X179663333Y-217254733D01*
X179663333Y-217254733D02*
X179729999Y-217288066D01*
X179729999Y-217288066D02*
X179763333Y-217321400D01*
X179763333Y-217321400D02*
X179796666Y-217388066D01*
X179796666Y-217388066D02*
X179796666Y-217454733D01*
X179796666Y-217454733D02*
X179763333Y-217554733D01*
X179763333Y-217554733D02*
X179363333Y-217954733D01*
X179363333Y-217954733D02*
X179796666Y-217954733D01*
X180396666Y-217254733D02*
X180263333Y-217254733D01*
X180263333Y-217254733D02*
X180196666Y-217288066D01*
X180196666Y-217288066D02*
X180163333Y-217321400D01*
X180163333Y-217321400D02*
X180096666Y-217421400D01*
X180096666Y-217421400D02*
X180063333Y-217554733D01*
X180063333Y-217554733D02*
X180063333Y-217821400D01*
X180063333Y-217821400D02*
X180096666Y-217888066D01*
X180096666Y-217888066D02*
X180130000Y-217921400D01*
X180130000Y-217921400D02*
X180196666Y-217954733D01*
X180196666Y-217954733D02*
X180330000Y-217954733D01*
X180330000Y-217954733D02*
X180396666Y-217921400D01*
X180396666Y-217921400D02*
X180430000Y-217888066D01*
X180430000Y-217888066D02*
X180463333Y-217821400D01*
X180463333Y-217821400D02*
X180463333Y-217654733D01*
X180463333Y-217654733D02*
X180430000Y-217588066D01*
X180430000Y-217588066D02*
X180396666Y-217554733D01*
X180396666Y-217554733D02*
X180330000Y-217521400D01*
X180330000Y-217521400D02*
X180196666Y-217521400D01*
X180196666Y-217521400D02*
X180130000Y-217554733D01*
X180130000Y-217554733D02*
X180096666Y-217588066D01*
X180096666Y-217588066D02*
X180063333Y-217654733D01*
X182046666Y-200754733D02*
X182046666Y-201321400D01*
X182046666Y-201321400D02*
X182080000Y-201388066D01*
X182080000Y-201388066D02*
X182113333Y-201421400D01*
X182113333Y-201421400D02*
X182180000Y-201454733D01*
X182180000Y-201454733D02*
X182313333Y-201454733D01*
X182313333Y-201454733D02*
X182380000Y-201421400D01*
X182380000Y-201421400D02*
X182413333Y-201388066D01*
X182413333Y-201388066D02*
X182446666Y-201321400D01*
X182446666Y-201321400D02*
X182446666Y-200754733D01*
X183079999Y-200754733D02*
X182946666Y-200754733D01*
X182946666Y-200754733D02*
X182879999Y-200788066D01*
X182879999Y-200788066D02*
X182846666Y-200821400D01*
X182846666Y-200821400D02*
X182779999Y-200921400D01*
X182779999Y-200921400D02*
X182746666Y-201054733D01*
X182746666Y-201054733D02*
X182746666Y-201321400D01*
X182746666Y-201321400D02*
X182779999Y-201388066D01*
X182779999Y-201388066D02*
X182813333Y-201421400D01*
X182813333Y-201421400D02*
X182879999Y-201454733D01*
X182879999Y-201454733D02*
X183013333Y-201454733D01*
X183013333Y-201454733D02*
X183079999Y-201421400D01*
X183079999Y-201421400D02*
X183113333Y-201388066D01*
X183113333Y-201388066D02*
X183146666Y-201321400D01*
X183146666Y-201321400D02*
X183146666Y-201154733D01*
X183146666Y-201154733D02*
X183113333Y-201088066D01*
X183113333Y-201088066D02*
X183079999Y-201054733D01*
X183079999Y-201054733D02*
X183013333Y-201021400D01*
X183013333Y-201021400D02*
X182879999Y-201021400D01*
X182879999Y-201021400D02*
X182813333Y-201054733D01*
X182813333Y-201054733D02*
X182779999Y-201088066D01*
X182779999Y-201088066D02*
X182746666Y-201154733D01*
X213623859Y-151113149D02*
X213718140Y-151066008D01*
X213718140Y-151066008D02*
X213765281Y-151066008D01*
X213765281Y-151066008D02*
X213835991Y-151089579D01*
X213835991Y-151089579D02*
X213906702Y-151160289D01*
X213906702Y-151160289D02*
X213930272Y-151231000D01*
X213930272Y-151231000D02*
X213930272Y-151278140D01*
X213930272Y-151278140D02*
X213906702Y-151348851D01*
X213906702Y-151348851D02*
X213718140Y-151537413D01*
X213718140Y-151537413D02*
X213223166Y-151042438D01*
X213223166Y-151042438D02*
X213388157Y-150877446D01*
X213388157Y-150877446D02*
X213458868Y-150853876D01*
X213458868Y-150853876D02*
X213506008Y-150853876D01*
X213506008Y-150853876D02*
X213576719Y-150877446D01*
X213576719Y-150877446D02*
X213623859Y-150924587D01*
X213623859Y-150924587D02*
X213647430Y-150995298D01*
X213647430Y-150995298D02*
X213647430Y-151042438D01*
X213647430Y-151042438D02*
X213623859Y-151113149D01*
X213623859Y-151113149D02*
X213458868Y-151278140D01*
X222629999Y-206954733D02*
X222396666Y-206621400D01*
X222229999Y-206954733D02*
X222229999Y-206254733D01*
X222229999Y-206254733D02*
X222496666Y-206254733D01*
X222496666Y-206254733D02*
X222563333Y-206288066D01*
X222563333Y-206288066D02*
X222596666Y-206321400D01*
X222596666Y-206321400D02*
X222629999Y-206388066D01*
X222629999Y-206388066D02*
X222629999Y-206488066D01*
X222629999Y-206488066D02*
X222596666Y-206554733D01*
X222596666Y-206554733D02*
X222563333Y-206588066D01*
X222563333Y-206588066D02*
X222496666Y-206621400D01*
X222496666Y-206621400D02*
X222229999Y-206621400D01*
X223229999Y-206488066D02*
X223229999Y-206954733D01*
X223063333Y-206221400D02*
X222896666Y-206721400D01*
X222896666Y-206721400D02*
X223329999Y-206721400D01*
X223930000Y-206254733D02*
X223596666Y-206254733D01*
X223596666Y-206254733D02*
X223563333Y-206588066D01*
X223563333Y-206588066D02*
X223596666Y-206554733D01*
X223596666Y-206554733D02*
X223663333Y-206521400D01*
X223663333Y-206521400D02*
X223830000Y-206521400D01*
X223830000Y-206521400D02*
X223896666Y-206554733D01*
X223896666Y-206554733D02*
X223930000Y-206588066D01*
X223930000Y-206588066D02*
X223963333Y-206654733D01*
X223963333Y-206654733D02*
X223963333Y-206821400D01*
X223963333Y-206821400D02*
X223930000Y-206888066D01*
X223930000Y-206888066D02*
X223896666Y-206921400D01*
X223896666Y-206921400D02*
X223830000Y-206954733D01*
X223830000Y-206954733D02*
X223663333Y-206954733D01*
X223663333Y-206954733D02*
X223596666Y-206921400D01*
X223596666Y-206921400D02*
X223563333Y-206888066D01*
X212329999Y-253154733D02*
X212096666Y-252821400D01*
X211929999Y-253154733D02*
X211929999Y-252454733D01*
X211929999Y-252454733D02*
X212196666Y-252454733D01*
X212196666Y-252454733D02*
X212263333Y-252488066D01*
X212263333Y-252488066D02*
X212296666Y-252521400D01*
X212296666Y-252521400D02*
X212329999Y-252588066D01*
X212329999Y-252588066D02*
X212329999Y-252688066D01*
X212329999Y-252688066D02*
X212296666Y-252754733D01*
X212296666Y-252754733D02*
X212263333Y-252788066D01*
X212263333Y-252788066D02*
X212196666Y-252821400D01*
X212196666Y-252821400D02*
X211929999Y-252821400D01*
X212929999Y-252688066D02*
X212929999Y-253154733D01*
X212763333Y-252421400D02*
X212596666Y-252921400D01*
X212596666Y-252921400D02*
X213029999Y-252921400D01*
X213663333Y-253154733D02*
X213263333Y-253154733D01*
X213463333Y-253154733D02*
X213463333Y-252454733D01*
X213463333Y-252454733D02*
X213396666Y-252554733D01*
X213396666Y-252554733D02*
X213330000Y-252621400D01*
X213330000Y-252621400D02*
X213263333Y-252654733D01*
X95629999Y-206888066D02*
X95596666Y-206921400D01*
X95596666Y-206921400D02*
X95496666Y-206954733D01*
X95496666Y-206954733D02*
X95429999Y-206954733D01*
X95429999Y-206954733D02*
X95329999Y-206921400D01*
X95329999Y-206921400D02*
X95263333Y-206854733D01*
X95263333Y-206854733D02*
X95229999Y-206788066D01*
X95229999Y-206788066D02*
X95196666Y-206654733D01*
X95196666Y-206654733D02*
X95196666Y-206554733D01*
X95196666Y-206554733D02*
X95229999Y-206421400D01*
X95229999Y-206421400D02*
X95263333Y-206354733D01*
X95263333Y-206354733D02*
X95329999Y-206288066D01*
X95329999Y-206288066D02*
X95429999Y-206254733D01*
X95429999Y-206254733D02*
X95496666Y-206254733D01*
X95496666Y-206254733D02*
X95596666Y-206288066D01*
X95596666Y-206288066D02*
X95629999Y-206321400D01*
X95863333Y-206254733D02*
X96296666Y-206254733D01*
X96296666Y-206254733D02*
X96063333Y-206521400D01*
X96063333Y-206521400D02*
X96163333Y-206521400D01*
X96163333Y-206521400D02*
X96229999Y-206554733D01*
X96229999Y-206554733D02*
X96263333Y-206588066D01*
X96263333Y-206588066D02*
X96296666Y-206654733D01*
X96296666Y-206654733D02*
X96296666Y-206821400D01*
X96296666Y-206821400D02*
X96263333Y-206888066D01*
X96263333Y-206888066D02*
X96229999Y-206921400D01*
X96229999Y-206921400D02*
X96163333Y-206954733D01*
X96163333Y-206954733D02*
X95963333Y-206954733D01*
X95963333Y-206954733D02*
X95896666Y-206921400D01*
X95896666Y-206921400D02*
X95863333Y-206888066D01*
X96530000Y-206254733D02*
X96996666Y-206254733D01*
X96996666Y-206254733D02*
X96696666Y-206954733D01*
X62813333Y-225421400D02*
X62913333Y-225454733D01*
X62913333Y-225454733D02*
X63080000Y-225454733D01*
X63080000Y-225454733D02*
X63146666Y-225421400D01*
X63146666Y-225421400D02*
X63180000Y-225388066D01*
X63180000Y-225388066D02*
X63213333Y-225321400D01*
X63213333Y-225321400D02*
X63213333Y-225254733D01*
X63213333Y-225254733D02*
X63180000Y-225188066D01*
X63180000Y-225188066D02*
X63146666Y-225154733D01*
X63146666Y-225154733D02*
X63080000Y-225121400D01*
X63080000Y-225121400D02*
X62946666Y-225088066D01*
X62946666Y-225088066D02*
X62880000Y-225054733D01*
X62880000Y-225054733D02*
X62846666Y-225021400D01*
X62846666Y-225021400D02*
X62813333Y-224954733D01*
X62813333Y-224954733D02*
X62813333Y-224888066D01*
X62813333Y-224888066D02*
X62846666Y-224821400D01*
X62846666Y-224821400D02*
X62880000Y-224788066D01*
X62880000Y-224788066D02*
X62946666Y-224754733D01*
X62946666Y-224754733D02*
X63113333Y-224754733D01*
X63113333Y-224754733D02*
X63213333Y-224788066D01*
X63446667Y-224754733D02*
X63613333Y-225454733D01*
X63613333Y-225454733D02*
X63746667Y-224954733D01*
X63746667Y-224954733D02*
X63880000Y-225454733D01*
X63880000Y-225454733D02*
X64046667Y-224754733D01*
X64680000Y-225454733D02*
X64280000Y-225454733D01*
X64480000Y-225454733D02*
X64480000Y-224754733D01*
X64480000Y-224754733D02*
X64413333Y-224854733D01*
X64413333Y-224854733D02*
X64346667Y-224921400D01*
X64346667Y-224921400D02*
X64280000Y-224954733D01*
X65280000Y-224988066D02*
X65280000Y-225454733D01*
X65113334Y-224721400D02*
X64946667Y-225221400D01*
X64946667Y-225221400D02*
X65380000Y-225221400D01*
X72916753Y-152338800D02*
X72421778Y-151843826D01*
X72421778Y-151843826D02*
X72539629Y-151725974D01*
X72539629Y-151725974D02*
X72633910Y-151678834D01*
X72633910Y-151678834D02*
X72728191Y-151678834D01*
X72728191Y-151678834D02*
X72798902Y-151702404D01*
X72798902Y-151702404D02*
X72916753Y-151773115D01*
X72916753Y-151773115D02*
X72987464Y-151843826D01*
X72987464Y-151843826D02*
X73058174Y-151961677D01*
X73058174Y-151961677D02*
X73081744Y-152032387D01*
X73081744Y-152032387D02*
X73081744Y-152126668D01*
X73081744Y-152126668D02*
X73034604Y-152220949D01*
X73034604Y-152220949D02*
X72916753Y-152338800D01*
X73011034Y-151254570D02*
X73105315Y-151160289D01*
X73105315Y-151160289D02*
X73176025Y-151136719D01*
X73176025Y-151136719D02*
X73270306Y-151136719D01*
X73270306Y-151136719D02*
X73388157Y-151207429D01*
X73388157Y-151207429D02*
X73553149Y-151372421D01*
X73553149Y-151372421D02*
X73623860Y-151490272D01*
X73623860Y-151490272D02*
X73623860Y-151584553D01*
X73623860Y-151584553D02*
X73600289Y-151655264D01*
X73600289Y-151655264D02*
X73506009Y-151749545D01*
X73506009Y-151749545D02*
X73435298Y-151773115D01*
X73435298Y-151773115D02*
X73341017Y-151773115D01*
X73341017Y-151773115D02*
X73223166Y-151702404D01*
X73223166Y-151702404D02*
X73058174Y-151537413D01*
X73058174Y-151537413D02*
X72987464Y-151419561D01*
X72987464Y-151419561D02*
X72987464Y-151325281D01*
X72987464Y-151325281D02*
X73011034Y-151254570D01*
X73388157Y-150877446D02*
X74000983Y-151254570D01*
X74000983Y-151254570D02*
X73741711Y-150806736D01*
X73741711Y-150806736D02*
X74189545Y-151066008D01*
X74189545Y-151066008D02*
X73812421Y-150453182D01*
X74495958Y-150759595D02*
X74000983Y-150264621D01*
X74000983Y-150264621D02*
X74778801Y-150476753D01*
X74778801Y-150476753D02*
X74283826Y-149981778D01*
X223588504Y-141384206D02*
X223824206Y-141148504D01*
X223682785Y-141572768D02*
X223352802Y-140912802D01*
X223352802Y-140912802D02*
X224012768Y-141242785D01*
X216013333Y-230021400D02*
X215946666Y-229988066D01*
X215946666Y-229988066D02*
X215880000Y-229921400D01*
X215880000Y-229921400D02*
X215780000Y-229821400D01*
X215780000Y-229821400D02*
X215713333Y-229788066D01*
X215713333Y-229788066D02*
X215646666Y-229788066D01*
X215680000Y-229954733D02*
X215613333Y-229921400D01*
X215613333Y-229921400D02*
X215546666Y-229854733D01*
X215546666Y-229854733D02*
X215513333Y-229721400D01*
X215513333Y-229721400D02*
X215513333Y-229488066D01*
X215513333Y-229488066D02*
X215546666Y-229354733D01*
X215546666Y-229354733D02*
X215613333Y-229288066D01*
X215613333Y-229288066D02*
X215680000Y-229254733D01*
X215680000Y-229254733D02*
X215813333Y-229254733D01*
X215813333Y-229254733D02*
X215880000Y-229288066D01*
X215880000Y-229288066D02*
X215946666Y-229354733D01*
X215946666Y-229354733D02*
X215980000Y-229488066D01*
X215980000Y-229488066D02*
X215980000Y-229721400D01*
X215980000Y-229721400D02*
X215946666Y-229854733D01*
X215946666Y-229854733D02*
X215880000Y-229921400D01*
X215880000Y-229921400D02*
X215813333Y-229954733D01*
X215813333Y-229954733D02*
X215680000Y-229954733D01*
X216579999Y-229254733D02*
X216446666Y-229254733D01*
X216446666Y-229254733D02*
X216379999Y-229288066D01*
X216379999Y-229288066D02*
X216346666Y-229321400D01*
X216346666Y-229321400D02*
X216279999Y-229421400D01*
X216279999Y-229421400D02*
X216246666Y-229554733D01*
X216246666Y-229554733D02*
X216246666Y-229821400D01*
X216246666Y-229821400D02*
X216279999Y-229888066D01*
X216279999Y-229888066D02*
X216313333Y-229921400D01*
X216313333Y-229921400D02*
X216379999Y-229954733D01*
X216379999Y-229954733D02*
X216513333Y-229954733D01*
X216513333Y-229954733D02*
X216579999Y-229921400D01*
X216579999Y-229921400D02*
X216613333Y-229888066D01*
X216613333Y-229888066D02*
X216646666Y-229821400D01*
X216646666Y-229821400D02*
X216646666Y-229654733D01*
X216646666Y-229654733D02*
X216613333Y-229588066D01*
X216613333Y-229588066D02*
X216579999Y-229554733D01*
X216579999Y-229554733D02*
X216513333Y-229521400D01*
X216513333Y-229521400D02*
X216379999Y-229521400D01*
X216379999Y-229521400D02*
X216313333Y-229554733D01*
X216313333Y-229554733D02*
X216279999Y-229588066D01*
X216279999Y-229588066D02*
X216246666Y-229654733D01*
X83187811Y-142067742D02*
X82787117Y-141997032D01*
X82904968Y-142350585D02*
X82409993Y-141855610D01*
X82409993Y-141855610D02*
X82598555Y-141667048D01*
X82598555Y-141667048D02*
X82669266Y-141643478D01*
X82669266Y-141643478D02*
X82716406Y-141643478D01*
X82716406Y-141643478D02*
X82787117Y-141667048D01*
X82787117Y-141667048D02*
X82857828Y-141737759D01*
X82857828Y-141737759D02*
X82881398Y-141808470D01*
X82881398Y-141808470D02*
X82881398Y-141855610D01*
X82881398Y-141855610D02*
X82857828Y-141926321D01*
X82857828Y-141926321D02*
X82669266Y-142114883D01*
X83399943Y-141855610D02*
X82904968Y-141360635D01*
X83423513Y-140889231D02*
X83352802Y-140912801D01*
X83352802Y-140912801D02*
X83282092Y-140983512D01*
X83282092Y-140983512D02*
X83234951Y-141077793D01*
X83234951Y-141077793D02*
X83234951Y-141172074D01*
X83234951Y-141172074D02*
X83258521Y-141242785D01*
X83258521Y-141242785D02*
X83329232Y-141360636D01*
X83329232Y-141360636D02*
X83399943Y-141431346D01*
X83399943Y-141431346D02*
X83517794Y-141502057D01*
X83517794Y-141502057D02*
X83588505Y-141525627D01*
X83588505Y-141525627D02*
X83682785Y-141525627D01*
X83682785Y-141525627D02*
X83777066Y-141478487D01*
X83777066Y-141478487D02*
X83824207Y-141431346D01*
X83824207Y-141431346D02*
X83871347Y-141337065D01*
X83871347Y-141337065D02*
X83871347Y-141289925D01*
X83871347Y-141289925D02*
X83706356Y-141124933D01*
X83706356Y-141124933D02*
X83612075Y-141219214D01*
X84130620Y-141124933D02*
X83635645Y-140629959D01*
X83871347Y-140865661D02*
X84154190Y-140582818D01*
X84413462Y-140842091D02*
X83918488Y-140347116D01*
X84083479Y-140182125D02*
X84366322Y-139899282D01*
X84719875Y-140535678D02*
X84224900Y-140040703D01*
X228829999Y-240588066D02*
X228796666Y-240621400D01*
X228796666Y-240621400D02*
X228696666Y-240654733D01*
X228696666Y-240654733D02*
X228629999Y-240654733D01*
X228629999Y-240654733D02*
X228529999Y-240621400D01*
X228529999Y-240621400D02*
X228463333Y-240554733D01*
X228463333Y-240554733D02*
X228429999Y-240488066D01*
X228429999Y-240488066D02*
X228396666Y-240354733D01*
X228396666Y-240354733D02*
X228396666Y-240254733D01*
X228396666Y-240254733D02*
X228429999Y-240121400D01*
X228429999Y-240121400D02*
X228463333Y-240054733D01*
X228463333Y-240054733D02*
X228529999Y-239988066D01*
X228529999Y-239988066D02*
X228629999Y-239954733D01*
X228629999Y-239954733D02*
X228696666Y-239954733D01*
X228696666Y-239954733D02*
X228796666Y-239988066D01*
X228796666Y-239988066D02*
X228829999Y-240021400D01*
X229063333Y-239954733D02*
X229496666Y-239954733D01*
X229496666Y-239954733D02*
X229263333Y-240221400D01*
X229263333Y-240221400D02*
X229363333Y-240221400D01*
X229363333Y-240221400D02*
X229429999Y-240254733D01*
X229429999Y-240254733D02*
X229463333Y-240288066D01*
X229463333Y-240288066D02*
X229496666Y-240354733D01*
X229496666Y-240354733D02*
X229496666Y-240521400D01*
X229496666Y-240521400D02*
X229463333Y-240588066D01*
X229463333Y-240588066D02*
X229429999Y-240621400D01*
X229429999Y-240621400D02*
X229363333Y-240654733D01*
X229363333Y-240654733D02*
X229163333Y-240654733D01*
X229163333Y-240654733D02*
X229096666Y-240621400D01*
X229096666Y-240621400D02*
X229063333Y-240588066D01*
X230163333Y-240654733D02*
X229763333Y-240654733D01*
X229963333Y-240654733D02*
X229963333Y-239954733D01*
X229963333Y-239954733D02*
X229896666Y-240054733D01*
X229896666Y-240054733D02*
X229830000Y-240121400D01*
X229830000Y-240121400D02*
X229763333Y-240154733D01*
X109229999Y-174454733D02*
X108996666Y-174121400D01*
X108829999Y-174454733D02*
X108829999Y-173754733D01*
X108829999Y-173754733D02*
X109096666Y-173754733D01*
X109096666Y-173754733D02*
X109163333Y-173788066D01*
X109163333Y-173788066D02*
X109196666Y-173821400D01*
X109196666Y-173821400D02*
X109229999Y-173888066D01*
X109229999Y-173888066D02*
X109229999Y-173988066D01*
X109229999Y-173988066D02*
X109196666Y-174054733D01*
X109196666Y-174054733D02*
X109163333Y-174088066D01*
X109163333Y-174088066D02*
X109096666Y-174121400D01*
X109096666Y-174121400D02*
X108829999Y-174121400D01*
X109496666Y-173821400D02*
X109529999Y-173788066D01*
X109529999Y-173788066D02*
X109596666Y-173754733D01*
X109596666Y-173754733D02*
X109763333Y-173754733D01*
X109763333Y-173754733D02*
X109829999Y-173788066D01*
X109829999Y-173788066D02*
X109863333Y-173821400D01*
X109863333Y-173821400D02*
X109896666Y-173888066D01*
X109896666Y-173888066D02*
X109896666Y-173954733D01*
X109896666Y-173954733D02*
X109863333Y-174054733D01*
X109863333Y-174054733D02*
X109463333Y-174454733D01*
X109463333Y-174454733D02*
X109896666Y-174454733D01*
X110130000Y-173754733D02*
X110563333Y-173754733D01*
X110563333Y-173754733D02*
X110330000Y-174021400D01*
X110330000Y-174021400D02*
X110430000Y-174021400D01*
X110430000Y-174021400D02*
X110496666Y-174054733D01*
X110496666Y-174054733D02*
X110530000Y-174088066D01*
X110530000Y-174088066D02*
X110563333Y-174154733D01*
X110563333Y-174154733D02*
X110563333Y-174321400D01*
X110563333Y-174321400D02*
X110530000Y-174388066D01*
X110530000Y-174388066D02*
X110496666Y-174421400D01*
X110496666Y-174421400D02*
X110430000Y-174454733D01*
X110430000Y-174454733D02*
X110230000Y-174454733D01*
X110230000Y-174454733D02*
X110163333Y-174421400D01*
X110163333Y-174421400D02*
X110130000Y-174388066D01*
X212329999Y-248154733D02*
X212096666Y-247821400D01*
X211929999Y-248154733D02*
X211929999Y-247454733D01*
X211929999Y-247454733D02*
X212196666Y-247454733D01*
X212196666Y-247454733D02*
X212263333Y-247488066D01*
X212263333Y-247488066D02*
X212296666Y-247521400D01*
X212296666Y-247521400D02*
X212329999Y-247588066D01*
X212329999Y-247588066D02*
X212329999Y-247688066D01*
X212329999Y-247688066D02*
X212296666Y-247754733D01*
X212296666Y-247754733D02*
X212263333Y-247788066D01*
X212263333Y-247788066D02*
X212196666Y-247821400D01*
X212196666Y-247821400D02*
X211929999Y-247821400D01*
X212929999Y-247688066D02*
X212929999Y-248154733D01*
X212763333Y-247421400D02*
X212596666Y-247921400D01*
X212596666Y-247921400D02*
X213029999Y-247921400D01*
X213430000Y-247454733D02*
X213496666Y-247454733D01*
X213496666Y-247454733D02*
X213563333Y-247488066D01*
X213563333Y-247488066D02*
X213596666Y-247521400D01*
X213596666Y-247521400D02*
X213630000Y-247588066D01*
X213630000Y-247588066D02*
X213663333Y-247721400D01*
X213663333Y-247721400D02*
X213663333Y-247888066D01*
X213663333Y-247888066D02*
X213630000Y-248021400D01*
X213630000Y-248021400D02*
X213596666Y-248088066D01*
X213596666Y-248088066D02*
X213563333Y-248121400D01*
X213563333Y-248121400D02*
X213496666Y-248154733D01*
X213496666Y-248154733D02*
X213430000Y-248154733D01*
X213430000Y-248154733D02*
X213363333Y-248121400D01*
X213363333Y-248121400D02*
X213330000Y-248088066D01*
X213330000Y-248088066D02*
X213296666Y-248021400D01*
X213296666Y-248021400D02*
X213263333Y-247888066D01*
X213263333Y-247888066D02*
X213263333Y-247721400D01*
X213263333Y-247721400D02*
X213296666Y-247588066D01*
X213296666Y-247588066D02*
X213330000Y-247521400D01*
X213330000Y-247521400D02*
X213363333Y-247488066D01*
X213363333Y-247488066D02*
X213430000Y-247454733D01*
X212329999Y-239154733D02*
X212096666Y-238821400D01*
X211929999Y-239154733D02*
X211929999Y-238454733D01*
X211929999Y-238454733D02*
X212196666Y-238454733D01*
X212196666Y-238454733D02*
X212263333Y-238488066D01*
X212263333Y-238488066D02*
X212296666Y-238521400D01*
X212296666Y-238521400D02*
X212329999Y-238588066D01*
X212329999Y-238588066D02*
X212329999Y-238688066D01*
X212329999Y-238688066D02*
X212296666Y-238754733D01*
X212296666Y-238754733D02*
X212263333Y-238788066D01*
X212263333Y-238788066D02*
X212196666Y-238821400D01*
X212196666Y-238821400D02*
X211929999Y-238821400D01*
X212563333Y-238454733D02*
X212996666Y-238454733D01*
X212996666Y-238454733D02*
X212763333Y-238721400D01*
X212763333Y-238721400D02*
X212863333Y-238721400D01*
X212863333Y-238721400D02*
X212929999Y-238754733D01*
X212929999Y-238754733D02*
X212963333Y-238788066D01*
X212963333Y-238788066D02*
X212996666Y-238854733D01*
X212996666Y-238854733D02*
X212996666Y-239021400D01*
X212996666Y-239021400D02*
X212963333Y-239088066D01*
X212963333Y-239088066D02*
X212929999Y-239121400D01*
X212929999Y-239121400D02*
X212863333Y-239154733D01*
X212863333Y-239154733D02*
X212663333Y-239154733D01*
X212663333Y-239154733D02*
X212596666Y-239121400D01*
X212596666Y-239121400D02*
X212563333Y-239088066D01*
X213330000Y-239154733D02*
X213463333Y-239154733D01*
X213463333Y-239154733D02*
X213530000Y-239121400D01*
X213530000Y-239121400D02*
X213563333Y-239088066D01*
X213563333Y-239088066D02*
X213630000Y-238988066D01*
X213630000Y-238988066D02*
X213663333Y-238854733D01*
X213663333Y-238854733D02*
X213663333Y-238588066D01*
X213663333Y-238588066D02*
X213630000Y-238521400D01*
X213630000Y-238521400D02*
X213596666Y-238488066D01*
X213596666Y-238488066D02*
X213530000Y-238454733D01*
X213530000Y-238454733D02*
X213396666Y-238454733D01*
X213396666Y-238454733D02*
X213330000Y-238488066D01*
X213330000Y-238488066D02*
X213296666Y-238521400D01*
X213296666Y-238521400D02*
X213263333Y-238588066D01*
X213263333Y-238588066D02*
X213263333Y-238754733D01*
X213263333Y-238754733D02*
X213296666Y-238821400D01*
X213296666Y-238821400D02*
X213330000Y-238854733D01*
X213330000Y-238854733D02*
X213396666Y-238888066D01*
X213396666Y-238888066D02*
X213530000Y-238888066D01*
X213530000Y-238888066D02*
X213596666Y-238854733D01*
X213596666Y-238854733D02*
X213630000Y-238821400D01*
X213630000Y-238821400D02*
X213663333Y-238754733D01*
X213187810Y-131077793D02*
X214012768Y-131242785D01*
X213517794Y-130747810D02*
X213682785Y-131572768D01*
X63629999Y-213454733D02*
X63396666Y-213121400D01*
X63229999Y-213454733D02*
X63229999Y-212754733D01*
X63229999Y-212754733D02*
X63496666Y-212754733D01*
X63496666Y-212754733D02*
X63563333Y-212788066D01*
X63563333Y-212788066D02*
X63596666Y-212821400D01*
X63596666Y-212821400D02*
X63629999Y-212888066D01*
X63629999Y-212888066D02*
X63629999Y-212988066D01*
X63629999Y-212988066D02*
X63596666Y-213054733D01*
X63596666Y-213054733D02*
X63563333Y-213088066D01*
X63563333Y-213088066D02*
X63496666Y-213121400D01*
X63496666Y-213121400D02*
X63229999Y-213121400D01*
X64263333Y-212754733D02*
X63929999Y-212754733D01*
X63929999Y-212754733D02*
X63896666Y-213088066D01*
X63896666Y-213088066D02*
X63929999Y-213054733D01*
X63929999Y-213054733D02*
X63996666Y-213021400D01*
X63996666Y-213021400D02*
X64163333Y-213021400D01*
X64163333Y-213021400D02*
X64229999Y-213054733D01*
X64229999Y-213054733D02*
X64263333Y-213088066D01*
X64263333Y-213088066D02*
X64296666Y-213154733D01*
X64296666Y-213154733D02*
X64296666Y-213321400D01*
X64296666Y-213321400D02*
X64263333Y-213388066D01*
X64263333Y-213388066D02*
X64229999Y-213421400D01*
X64229999Y-213421400D02*
X64163333Y-213454733D01*
X64163333Y-213454733D02*
X63996666Y-213454733D01*
X63996666Y-213454733D02*
X63929999Y-213421400D01*
X63929999Y-213421400D02*
X63896666Y-213388066D01*
X64530000Y-212754733D02*
X64963333Y-212754733D01*
X64963333Y-212754733D02*
X64730000Y-213021400D01*
X64730000Y-213021400D02*
X64830000Y-213021400D01*
X64830000Y-213021400D02*
X64896666Y-213054733D01*
X64896666Y-213054733D02*
X64930000Y-213088066D01*
X64930000Y-213088066D02*
X64963333Y-213154733D01*
X64963333Y-213154733D02*
X64963333Y-213321400D01*
X64963333Y-213321400D02*
X64930000Y-213388066D01*
X64930000Y-213388066D02*
X64896666Y-213421400D01*
X64896666Y-213421400D02*
X64830000Y-213454733D01*
X64830000Y-213454733D02*
X64630000Y-213454733D01*
X64630000Y-213454733D02*
X64563333Y-213421400D01*
X64563333Y-213421400D02*
X64530000Y-213388066D01*
X222263333Y-249154733D02*
X222263333Y-248454733D01*
X222263333Y-248454733D02*
X222430000Y-248454733D01*
X222430000Y-248454733D02*
X222530000Y-248488066D01*
X222530000Y-248488066D02*
X222596667Y-248554733D01*
X222596667Y-248554733D02*
X222630000Y-248621400D01*
X222630000Y-248621400D02*
X222663333Y-248754733D01*
X222663333Y-248754733D02*
X222663333Y-248854733D01*
X222663333Y-248854733D02*
X222630000Y-248988066D01*
X222630000Y-248988066D02*
X222596667Y-249054733D01*
X222596667Y-249054733D02*
X222530000Y-249121400D01*
X222530000Y-249121400D02*
X222430000Y-249154733D01*
X222430000Y-249154733D02*
X222263333Y-249154733D01*
X222896667Y-248454733D02*
X223363333Y-248454733D01*
X223363333Y-248454733D02*
X223063333Y-249154733D01*
X170129999Y-221454733D02*
X169896666Y-221121400D01*
X169729999Y-221454733D02*
X169729999Y-220754733D01*
X169729999Y-220754733D02*
X169996666Y-220754733D01*
X169996666Y-220754733D02*
X170063333Y-220788066D01*
X170063333Y-220788066D02*
X170096666Y-220821400D01*
X170096666Y-220821400D02*
X170129999Y-220888066D01*
X170129999Y-220888066D02*
X170129999Y-220988066D01*
X170129999Y-220988066D02*
X170096666Y-221054733D01*
X170096666Y-221054733D02*
X170063333Y-221088066D01*
X170063333Y-221088066D02*
X169996666Y-221121400D01*
X169996666Y-221121400D02*
X169729999Y-221121400D01*
X170363333Y-220754733D02*
X170796666Y-220754733D01*
X170796666Y-220754733D02*
X170563333Y-221021400D01*
X170563333Y-221021400D02*
X170663333Y-221021400D01*
X170663333Y-221021400D02*
X170729999Y-221054733D01*
X170729999Y-221054733D02*
X170763333Y-221088066D01*
X170763333Y-221088066D02*
X170796666Y-221154733D01*
X170796666Y-221154733D02*
X170796666Y-221321400D01*
X170796666Y-221321400D02*
X170763333Y-221388066D01*
X170763333Y-221388066D02*
X170729999Y-221421400D01*
X170729999Y-221421400D02*
X170663333Y-221454733D01*
X170663333Y-221454733D02*
X170463333Y-221454733D01*
X170463333Y-221454733D02*
X170396666Y-221421400D01*
X170396666Y-221421400D02*
X170363333Y-221388066D01*
X171030000Y-220754733D02*
X171496666Y-220754733D01*
X171496666Y-220754733D02*
X171196666Y-221454733D01*
X187629999Y-244454733D02*
X187396666Y-244121400D01*
X187229999Y-244454733D02*
X187229999Y-243754733D01*
X187229999Y-243754733D02*
X187496666Y-243754733D01*
X187496666Y-243754733D02*
X187563333Y-243788066D01*
X187563333Y-243788066D02*
X187596666Y-243821400D01*
X187596666Y-243821400D02*
X187629999Y-243888066D01*
X187629999Y-243888066D02*
X187629999Y-243988066D01*
X187629999Y-243988066D02*
X187596666Y-244054733D01*
X187596666Y-244054733D02*
X187563333Y-244088066D01*
X187563333Y-244088066D02*
X187496666Y-244121400D01*
X187496666Y-244121400D02*
X187229999Y-244121400D01*
X188229999Y-243988066D02*
X188229999Y-244454733D01*
X188063333Y-243721400D02*
X187896666Y-244221400D01*
X187896666Y-244221400D02*
X188329999Y-244221400D01*
X188530000Y-243754733D02*
X188996666Y-243754733D01*
X188996666Y-243754733D02*
X188696666Y-244454733D01*
X183629999Y-214888066D02*
X183596666Y-214921400D01*
X183596666Y-214921400D02*
X183496666Y-214954733D01*
X183496666Y-214954733D02*
X183429999Y-214954733D01*
X183429999Y-214954733D02*
X183329999Y-214921400D01*
X183329999Y-214921400D02*
X183263333Y-214854733D01*
X183263333Y-214854733D02*
X183229999Y-214788066D01*
X183229999Y-214788066D02*
X183196666Y-214654733D01*
X183196666Y-214654733D02*
X183196666Y-214554733D01*
X183196666Y-214554733D02*
X183229999Y-214421400D01*
X183229999Y-214421400D02*
X183263333Y-214354733D01*
X183263333Y-214354733D02*
X183329999Y-214288066D01*
X183329999Y-214288066D02*
X183429999Y-214254733D01*
X183429999Y-214254733D02*
X183496666Y-214254733D01*
X183496666Y-214254733D02*
X183596666Y-214288066D01*
X183596666Y-214288066D02*
X183629999Y-214321400D01*
X183896666Y-214321400D02*
X183929999Y-214288066D01*
X183929999Y-214288066D02*
X183996666Y-214254733D01*
X183996666Y-214254733D02*
X184163333Y-214254733D01*
X184163333Y-214254733D02*
X184229999Y-214288066D01*
X184229999Y-214288066D02*
X184263333Y-214321400D01*
X184263333Y-214321400D02*
X184296666Y-214388066D01*
X184296666Y-214388066D02*
X184296666Y-214454733D01*
X184296666Y-214454733D02*
X184263333Y-214554733D01*
X184263333Y-214554733D02*
X183863333Y-214954733D01*
X183863333Y-214954733D02*
X184296666Y-214954733D01*
X184896666Y-214488066D02*
X184896666Y-214954733D01*
X184730000Y-214221400D02*
X184563333Y-214721400D01*
X184563333Y-214721400D02*
X184996666Y-214721400D01*
X89846666Y-246254733D02*
X89846666Y-246754733D01*
X89846666Y-246754733D02*
X89813333Y-246854733D01*
X89813333Y-246854733D02*
X89746666Y-246921400D01*
X89746666Y-246921400D02*
X89646666Y-246954733D01*
X89646666Y-246954733D02*
X89580000Y-246954733D01*
X90113333Y-246254733D02*
X90579999Y-246254733D01*
X90579999Y-246254733D02*
X90279999Y-246954733D01*
X209829999Y-241088066D02*
X209796666Y-241121400D01*
X209796666Y-241121400D02*
X209696666Y-241154733D01*
X209696666Y-241154733D02*
X209629999Y-241154733D01*
X209629999Y-241154733D02*
X209529999Y-241121400D01*
X209529999Y-241121400D02*
X209463333Y-241054733D01*
X209463333Y-241054733D02*
X209429999Y-240988066D01*
X209429999Y-240988066D02*
X209396666Y-240854733D01*
X209396666Y-240854733D02*
X209396666Y-240754733D01*
X209396666Y-240754733D02*
X209429999Y-240621400D01*
X209429999Y-240621400D02*
X209463333Y-240554733D01*
X209463333Y-240554733D02*
X209529999Y-240488066D01*
X209529999Y-240488066D02*
X209629999Y-240454733D01*
X209629999Y-240454733D02*
X209696666Y-240454733D01*
X209696666Y-240454733D02*
X209796666Y-240488066D01*
X209796666Y-240488066D02*
X209829999Y-240521400D01*
X210096666Y-240521400D02*
X210129999Y-240488066D01*
X210129999Y-240488066D02*
X210196666Y-240454733D01*
X210196666Y-240454733D02*
X210363333Y-240454733D01*
X210363333Y-240454733D02*
X210429999Y-240488066D01*
X210429999Y-240488066D02*
X210463333Y-240521400D01*
X210463333Y-240521400D02*
X210496666Y-240588066D01*
X210496666Y-240588066D02*
X210496666Y-240654733D01*
X210496666Y-240654733D02*
X210463333Y-240754733D01*
X210463333Y-240754733D02*
X210063333Y-241154733D01*
X210063333Y-241154733D02*
X210496666Y-241154733D01*
X211130000Y-240454733D02*
X210796666Y-240454733D01*
X210796666Y-240454733D02*
X210763333Y-240788066D01*
X210763333Y-240788066D02*
X210796666Y-240754733D01*
X210796666Y-240754733D02*
X210863333Y-240721400D01*
X210863333Y-240721400D02*
X211030000Y-240721400D01*
X211030000Y-240721400D02*
X211096666Y-240754733D01*
X211096666Y-240754733D02*
X211130000Y-240788066D01*
X211130000Y-240788066D02*
X211163333Y-240854733D01*
X211163333Y-240854733D02*
X211163333Y-241021400D01*
X211163333Y-241021400D02*
X211130000Y-241088066D01*
X211130000Y-241088066D02*
X211096666Y-241121400D01*
X211096666Y-241121400D02*
X211030000Y-241154733D01*
X211030000Y-241154733D02*
X210863333Y-241154733D01*
X210863333Y-241154733D02*
X210796666Y-241121400D01*
X210796666Y-241121400D02*
X210763333Y-241088066D01*
X191629999Y-202388066D02*
X191596666Y-202421400D01*
X191596666Y-202421400D02*
X191496666Y-202454733D01*
X191496666Y-202454733D02*
X191429999Y-202454733D01*
X191429999Y-202454733D02*
X191329999Y-202421400D01*
X191329999Y-202421400D02*
X191263333Y-202354733D01*
X191263333Y-202354733D02*
X191229999Y-202288066D01*
X191229999Y-202288066D02*
X191196666Y-202154733D01*
X191196666Y-202154733D02*
X191196666Y-202054733D01*
X191196666Y-202054733D02*
X191229999Y-201921400D01*
X191229999Y-201921400D02*
X191263333Y-201854733D01*
X191263333Y-201854733D02*
X191329999Y-201788066D01*
X191329999Y-201788066D02*
X191429999Y-201754733D01*
X191429999Y-201754733D02*
X191496666Y-201754733D01*
X191496666Y-201754733D02*
X191596666Y-201788066D01*
X191596666Y-201788066D02*
X191629999Y-201821400D01*
X191863333Y-201754733D02*
X192296666Y-201754733D01*
X192296666Y-201754733D02*
X192063333Y-202021400D01*
X192063333Y-202021400D02*
X192163333Y-202021400D01*
X192163333Y-202021400D02*
X192229999Y-202054733D01*
X192229999Y-202054733D02*
X192263333Y-202088066D01*
X192263333Y-202088066D02*
X192296666Y-202154733D01*
X192296666Y-202154733D02*
X192296666Y-202321400D01*
X192296666Y-202321400D02*
X192263333Y-202388066D01*
X192263333Y-202388066D02*
X192229999Y-202421400D01*
X192229999Y-202421400D02*
X192163333Y-202454733D01*
X192163333Y-202454733D02*
X191963333Y-202454733D01*
X191963333Y-202454733D02*
X191896666Y-202421400D01*
X191896666Y-202421400D02*
X191863333Y-202388066D01*
X192930000Y-201754733D02*
X192596666Y-201754733D01*
X192596666Y-201754733D02*
X192563333Y-202088066D01*
X192563333Y-202088066D02*
X192596666Y-202054733D01*
X192596666Y-202054733D02*
X192663333Y-202021400D01*
X192663333Y-202021400D02*
X192830000Y-202021400D01*
X192830000Y-202021400D02*
X192896666Y-202054733D01*
X192896666Y-202054733D02*
X192930000Y-202088066D01*
X192930000Y-202088066D02*
X192963333Y-202154733D01*
X192963333Y-202154733D02*
X192963333Y-202321400D01*
X192963333Y-202321400D02*
X192930000Y-202388066D01*
X192930000Y-202388066D02*
X192896666Y-202421400D01*
X192896666Y-202421400D02*
X192830000Y-202454733D01*
X192830000Y-202454733D02*
X192663333Y-202454733D01*
X192663333Y-202454733D02*
X192596666Y-202421400D01*
X192596666Y-202421400D02*
X192563333Y-202388066D01*
X93129999Y-202954733D02*
X92896666Y-202621400D01*
X92729999Y-202954733D02*
X92729999Y-202254733D01*
X92729999Y-202254733D02*
X92996666Y-202254733D01*
X92996666Y-202254733D02*
X93063333Y-202288066D01*
X93063333Y-202288066D02*
X93096666Y-202321400D01*
X93096666Y-202321400D02*
X93129999Y-202388066D01*
X93129999Y-202388066D02*
X93129999Y-202488066D01*
X93129999Y-202488066D02*
X93096666Y-202554733D01*
X93096666Y-202554733D02*
X93063333Y-202588066D01*
X93063333Y-202588066D02*
X92996666Y-202621400D01*
X92996666Y-202621400D02*
X92729999Y-202621400D01*
X93763333Y-202254733D02*
X93429999Y-202254733D01*
X93429999Y-202254733D02*
X93396666Y-202588066D01*
X93396666Y-202588066D02*
X93429999Y-202554733D01*
X93429999Y-202554733D02*
X93496666Y-202521400D01*
X93496666Y-202521400D02*
X93663333Y-202521400D01*
X93663333Y-202521400D02*
X93729999Y-202554733D01*
X93729999Y-202554733D02*
X93763333Y-202588066D01*
X93763333Y-202588066D02*
X93796666Y-202654733D01*
X93796666Y-202654733D02*
X93796666Y-202821400D01*
X93796666Y-202821400D02*
X93763333Y-202888066D01*
X93763333Y-202888066D02*
X93729999Y-202921400D01*
X93729999Y-202921400D02*
X93663333Y-202954733D01*
X93663333Y-202954733D02*
X93496666Y-202954733D01*
X93496666Y-202954733D02*
X93429999Y-202921400D01*
X93429999Y-202921400D02*
X93396666Y-202888066D01*
X94063333Y-202321400D02*
X94096666Y-202288066D01*
X94096666Y-202288066D02*
X94163333Y-202254733D01*
X94163333Y-202254733D02*
X94330000Y-202254733D01*
X94330000Y-202254733D02*
X94396666Y-202288066D01*
X94396666Y-202288066D02*
X94430000Y-202321400D01*
X94430000Y-202321400D02*
X94463333Y-202388066D01*
X94463333Y-202388066D02*
X94463333Y-202454733D01*
X94463333Y-202454733D02*
X94430000Y-202554733D01*
X94430000Y-202554733D02*
X94030000Y-202954733D01*
X94030000Y-202954733D02*
X94463333Y-202954733D01*
X215129999Y-228454733D02*
X214896666Y-228121400D01*
X214729999Y-228454733D02*
X214729999Y-227754733D01*
X214729999Y-227754733D02*
X214996666Y-227754733D01*
X214996666Y-227754733D02*
X215063333Y-227788066D01*
X215063333Y-227788066D02*
X215096666Y-227821400D01*
X215096666Y-227821400D02*
X215129999Y-227888066D01*
X215129999Y-227888066D02*
X215129999Y-227988066D01*
X215129999Y-227988066D02*
X215096666Y-228054733D01*
X215096666Y-228054733D02*
X215063333Y-228088066D01*
X215063333Y-228088066D02*
X214996666Y-228121400D01*
X214996666Y-228121400D02*
X214729999Y-228121400D01*
X215729999Y-227988066D02*
X215729999Y-228454733D01*
X215563333Y-227721400D02*
X215396666Y-228221400D01*
X215396666Y-228221400D02*
X215829999Y-228221400D01*
X216030000Y-227754733D02*
X216463333Y-227754733D01*
X216463333Y-227754733D02*
X216230000Y-228021400D01*
X216230000Y-228021400D02*
X216330000Y-228021400D01*
X216330000Y-228021400D02*
X216396666Y-228054733D01*
X216396666Y-228054733D02*
X216430000Y-228088066D01*
X216430000Y-228088066D02*
X216463333Y-228154733D01*
X216463333Y-228154733D02*
X216463333Y-228321400D01*
X216463333Y-228321400D02*
X216430000Y-228388066D01*
X216430000Y-228388066D02*
X216396666Y-228421400D01*
X216396666Y-228421400D02*
X216330000Y-228454733D01*
X216330000Y-228454733D02*
X216130000Y-228454733D01*
X216130000Y-228454733D02*
X216063333Y-228421400D01*
X216063333Y-228421400D02*
X216030000Y-228388066D01*
X212513333Y-223521400D02*
X212446666Y-223488066D01*
X212446666Y-223488066D02*
X212380000Y-223421400D01*
X212380000Y-223421400D02*
X212280000Y-223321400D01*
X212280000Y-223321400D02*
X212213333Y-223288066D01*
X212213333Y-223288066D02*
X212146666Y-223288066D01*
X212180000Y-223454733D02*
X212113333Y-223421400D01*
X212113333Y-223421400D02*
X212046666Y-223354733D01*
X212046666Y-223354733D02*
X212013333Y-223221400D01*
X212013333Y-223221400D02*
X212013333Y-222988066D01*
X212013333Y-222988066D02*
X212046666Y-222854733D01*
X212046666Y-222854733D02*
X212113333Y-222788066D01*
X212113333Y-222788066D02*
X212180000Y-222754733D01*
X212180000Y-222754733D02*
X212313333Y-222754733D01*
X212313333Y-222754733D02*
X212380000Y-222788066D01*
X212380000Y-222788066D02*
X212446666Y-222854733D01*
X212446666Y-222854733D02*
X212480000Y-222988066D01*
X212480000Y-222988066D02*
X212480000Y-223221400D01*
X212480000Y-223221400D02*
X212446666Y-223354733D01*
X212446666Y-223354733D02*
X212380000Y-223421400D01*
X212380000Y-223421400D02*
X212313333Y-223454733D01*
X212313333Y-223454733D02*
X212180000Y-223454733D01*
X213113333Y-222754733D02*
X212779999Y-222754733D01*
X212779999Y-222754733D02*
X212746666Y-223088066D01*
X212746666Y-223088066D02*
X212779999Y-223054733D01*
X212779999Y-223054733D02*
X212846666Y-223021400D01*
X212846666Y-223021400D02*
X213013333Y-223021400D01*
X213013333Y-223021400D02*
X213079999Y-223054733D01*
X213079999Y-223054733D02*
X213113333Y-223088066D01*
X213113333Y-223088066D02*
X213146666Y-223154733D01*
X213146666Y-223154733D02*
X213146666Y-223321400D01*
X213146666Y-223321400D02*
X213113333Y-223388066D01*
X213113333Y-223388066D02*
X213079999Y-223421400D01*
X213079999Y-223421400D02*
X213013333Y-223454733D01*
X213013333Y-223454733D02*
X212846666Y-223454733D01*
X212846666Y-223454733D02*
X212779999Y-223421400D01*
X212779999Y-223421400D02*
X212746666Y-223388066D01*
X109229999Y-166954733D02*
X108996666Y-166621400D01*
X108829999Y-166954733D02*
X108829999Y-166254733D01*
X108829999Y-166254733D02*
X109096666Y-166254733D01*
X109096666Y-166254733D02*
X109163333Y-166288066D01*
X109163333Y-166288066D02*
X109196666Y-166321400D01*
X109196666Y-166321400D02*
X109229999Y-166388066D01*
X109229999Y-166388066D02*
X109229999Y-166488066D01*
X109229999Y-166488066D02*
X109196666Y-166554733D01*
X109196666Y-166554733D02*
X109163333Y-166588066D01*
X109163333Y-166588066D02*
X109096666Y-166621400D01*
X109096666Y-166621400D02*
X108829999Y-166621400D01*
X109496666Y-166321400D02*
X109529999Y-166288066D01*
X109529999Y-166288066D02*
X109596666Y-166254733D01*
X109596666Y-166254733D02*
X109763333Y-166254733D01*
X109763333Y-166254733D02*
X109829999Y-166288066D01*
X109829999Y-166288066D02*
X109863333Y-166321400D01*
X109863333Y-166321400D02*
X109896666Y-166388066D01*
X109896666Y-166388066D02*
X109896666Y-166454733D01*
X109896666Y-166454733D02*
X109863333Y-166554733D01*
X109863333Y-166554733D02*
X109463333Y-166954733D01*
X109463333Y-166954733D02*
X109896666Y-166954733D01*
X110530000Y-166254733D02*
X110196666Y-166254733D01*
X110196666Y-166254733D02*
X110163333Y-166588066D01*
X110163333Y-166588066D02*
X110196666Y-166554733D01*
X110196666Y-166554733D02*
X110263333Y-166521400D01*
X110263333Y-166521400D02*
X110430000Y-166521400D01*
X110430000Y-166521400D02*
X110496666Y-166554733D01*
X110496666Y-166554733D02*
X110530000Y-166588066D01*
X110530000Y-166588066D02*
X110563333Y-166654733D01*
X110563333Y-166654733D02*
X110563333Y-166821400D01*
X110563333Y-166821400D02*
X110530000Y-166888066D01*
X110530000Y-166888066D02*
X110496666Y-166921400D01*
X110496666Y-166921400D02*
X110430000Y-166954733D01*
X110430000Y-166954733D02*
X110263333Y-166954733D01*
X110263333Y-166954733D02*
X110196666Y-166921400D01*
X110196666Y-166921400D02*
X110163333Y-166888066D01*
X63376373Y-141879181D02*
X63140670Y-142114883D01*
X63140670Y-142114883D02*
X62645696Y-141619908D01*
X63282092Y-141454916D02*
X63447083Y-141289925D01*
X63777067Y-141478487D02*
X63541364Y-141714189D01*
X63541364Y-141714189D02*
X63046390Y-141219214D01*
X63046390Y-141219214D02*
X63282092Y-140983512D01*
X63894917Y-140842091D02*
X63729926Y-141007082D01*
X63989198Y-141266355D02*
X63494224Y-140771380D01*
X63494224Y-140771380D02*
X63729926Y-140535678D01*
X63847777Y-140417827D02*
X64130620Y-140134984D01*
X64484173Y-140771380D02*
X63989198Y-140276405D01*
X214394733Y-243873333D02*
X214961400Y-243873333D01*
X214961400Y-243873333D02*
X215028066Y-243840000D01*
X215028066Y-243840000D02*
X215061400Y-243806666D01*
X215061400Y-243806666D02*
X215094733Y-243740000D01*
X215094733Y-243740000D02*
X215094733Y-243606666D01*
X215094733Y-243606666D02*
X215061400Y-243540000D01*
X215061400Y-243540000D02*
X215028066Y-243506666D01*
X215028066Y-243506666D02*
X214961400Y-243473333D01*
X214961400Y-243473333D02*
X214394733Y-243473333D01*
X214394733Y-242806667D02*
X214394733Y-243140000D01*
X214394733Y-243140000D02*
X214728066Y-243173333D01*
X214728066Y-243173333D02*
X214694733Y-243140000D01*
X214694733Y-243140000D02*
X214661400Y-243073333D01*
X214661400Y-243073333D02*
X214661400Y-242906667D01*
X214661400Y-242906667D02*
X214694733Y-242840000D01*
X214694733Y-242840000D02*
X214728066Y-242806667D01*
X214728066Y-242806667D02*
X214794733Y-242773333D01*
X214794733Y-242773333D02*
X214961400Y-242773333D01*
X214961400Y-242773333D02*
X215028066Y-242806667D01*
X215028066Y-242806667D02*
X215061400Y-242840000D01*
X215061400Y-242840000D02*
X215094733Y-242906667D01*
X215094733Y-242906667D02*
X215094733Y-243073333D01*
X215094733Y-243073333D02*
X215061400Y-243140000D01*
X215061400Y-243140000D02*
X215028066Y-243173333D01*
X190129999Y-244454733D02*
X189896666Y-244121400D01*
X189729999Y-244454733D02*
X189729999Y-243754733D01*
X189729999Y-243754733D02*
X189996666Y-243754733D01*
X189996666Y-243754733D02*
X190063333Y-243788066D01*
X190063333Y-243788066D02*
X190096666Y-243821400D01*
X190096666Y-243821400D02*
X190129999Y-243888066D01*
X190129999Y-243888066D02*
X190129999Y-243988066D01*
X190129999Y-243988066D02*
X190096666Y-244054733D01*
X190096666Y-244054733D02*
X190063333Y-244088066D01*
X190063333Y-244088066D02*
X189996666Y-244121400D01*
X189996666Y-244121400D02*
X189729999Y-244121400D01*
X190729999Y-243988066D02*
X190729999Y-244454733D01*
X190563333Y-243721400D02*
X190396666Y-244221400D01*
X190396666Y-244221400D02*
X190829999Y-244221400D01*
X191396666Y-243754733D02*
X191263333Y-243754733D01*
X191263333Y-243754733D02*
X191196666Y-243788066D01*
X191196666Y-243788066D02*
X191163333Y-243821400D01*
X191163333Y-243821400D02*
X191096666Y-243921400D01*
X191096666Y-243921400D02*
X191063333Y-244054733D01*
X191063333Y-244054733D02*
X191063333Y-244321400D01*
X191063333Y-244321400D02*
X191096666Y-244388066D01*
X191096666Y-244388066D02*
X191130000Y-244421400D01*
X191130000Y-244421400D02*
X191196666Y-244454733D01*
X191196666Y-244454733D02*
X191330000Y-244454733D01*
X191330000Y-244454733D02*
X191396666Y-244421400D01*
X191396666Y-244421400D02*
X191430000Y-244388066D01*
X191430000Y-244388066D02*
X191463333Y-244321400D01*
X191463333Y-244321400D02*
X191463333Y-244154733D01*
X191463333Y-244154733D02*
X191430000Y-244088066D01*
X191430000Y-244088066D02*
X191396666Y-244054733D01*
X191396666Y-244054733D02*
X191330000Y-244021400D01*
X191330000Y-244021400D02*
X191196666Y-244021400D01*
X191196666Y-244021400D02*
X191130000Y-244054733D01*
X191130000Y-244054733D02*
X191096666Y-244088066D01*
X191096666Y-244088066D02*
X191063333Y-244154733D01*
X97629999Y-206888066D02*
X97596666Y-206921400D01*
X97596666Y-206921400D02*
X97496666Y-206954733D01*
X97496666Y-206954733D02*
X97429999Y-206954733D01*
X97429999Y-206954733D02*
X97329999Y-206921400D01*
X97329999Y-206921400D02*
X97263333Y-206854733D01*
X97263333Y-206854733D02*
X97229999Y-206788066D01*
X97229999Y-206788066D02*
X97196666Y-206654733D01*
X97196666Y-206654733D02*
X97196666Y-206554733D01*
X97196666Y-206554733D02*
X97229999Y-206421400D01*
X97229999Y-206421400D02*
X97263333Y-206354733D01*
X97263333Y-206354733D02*
X97329999Y-206288066D01*
X97329999Y-206288066D02*
X97429999Y-206254733D01*
X97429999Y-206254733D02*
X97496666Y-206254733D01*
X97496666Y-206254733D02*
X97596666Y-206288066D01*
X97596666Y-206288066D02*
X97629999Y-206321400D01*
X97863333Y-206254733D02*
X98296666Y-206254733D01*
X98296666Y-206254733D02*
X98063333Y-206521400D01*
X98063333Y-206521400D02*
X98163333Y-206521400D01*
X98163333Y-206521400D02*
X98229999Y-206554733D01*
X98229999Y-206554733D02*
X98263333Y-206588066D01*
X98263333Y-206588066D02*
X98296666Y-206654733D01*
X98296666Y-206654733D02*
X98296666Y-206821400D01*
X98296666Y-206821400D02*
X98263333Y-206888066D01*
X98263333Y-206888066D02*
X98229999Y-206921400D01*
X98229999Y-206921400D02*
X98163333Y-206954733D01*
X98163333Y-206954733D02*
X97963333Y-206954733D01*
X97963333Y-206954733D02*
X97896666Y-206921400D01*
X97896666Y-206921400D02*
X97863333Y-206888066D01*
X98896666Y-206254733D02*
X98763333Y-206254733D01*
X98763333Y-206254733D02*
X98696666Y-206288066D01*
X98696666Y-206288066D02*
X98663333Y-206321400D01*
X98663333Y-206321400D02*
X98596666Y-206421400D01*
X98596666Y-206421400D02*
X98563333Y-206554733D01*
X98563333Y-206554733D02*
X98563333Y-206821400D01*
X98563333Y-206821400D02*
X98596666Y-206888066D01*
X98596666Y-206888066D02*
X98630000Y-206921400D01*
X98630000Y-206921400D02*
X98696666Y-206954733D01*
X98696666Y-206954733D02*
X98830000Y-206954733D01*
X98830000Y-206954733D02*
X98896666Y-206921400D01*
X98896666Y-206921400D02*
X98930000Y-206888066D01*
X98930000Y-206888066D02*
X98963333Y-206821400D01*
X98963333Y-206821400D02*
X98963333Y-206654733D01*
X98963333Y-206654733D02*
X98930000Y-206588066D01*
X98930000Y-206588066D02*
X98896666Y-206554733D01*
X98896666Y-206554733D02*
X98830000Y-206521400D01*
X98830000Y-206521400D02*
X98696666Y-206521400D01*
X98696666Y-206521400D02*
X98630000Y-206554733D01*
X98630000Y-206554733D02*
X98596666Y-206588066D01*
X98596666Y-206588066D02*
X98563333Y-206654733D01*
X150129999Y-262888066D02*
X150096666Y-262921400D01*
X150096666Y-262921400D02*
X149996666Y-262954733D01*
X149996666Y-262954733D02*
X149929999Y-262954733D01*
X149929999Y-262954733D02*
X149829999Y-262921400D01*
X149829999Y-262921400D02*
X149763333Y-262854733D01*
X149763333Y-262854733D02*
X149729999Y-262788066D01*
X149729999Y-262788066D02*
X149696666Y-262654733D01*
X149696666Y-262654733D02*
X149696666Y-262554733D01*
X149696666Y-262554733D02*
X149729999Y-262421400D01*
X149729999Y-262421400D02*
X149763333Y-262354733D01*
X149763333Y-262354733D02*
X149829999Y-262288066D01*
X149829999Y-262288066D02*
X149929999Y-262254733D01*
X149929999Y-262254733D02*
X149996666Y-262254733D01*
X149996666Y-262254733D02*
X150096666Y-262288066D01*
X150096666Y-262288066D02*
X150129999Y-262321400D01*
X150363333Y-262254733D02*
X150796666Y-262254733D01*
X150796666Y-262254733D02*
X150563333Y-262521400D01*
X150563333Y-262521400D02*
X150663333Y-262521400D01*
X150663333Y-262521400D02*
X150729999Y-262554733D01*
X150729999Y-262554733D02*
X150763333Y-262588066D01*
X150763333Y-262588066D02*
X150796666Y-262654733D01*
X150796666Y-262654733D02*
X150796666Y-262821400D01*
X150796666Y-262821400D02*
X150763333Y-262888066D01*
X150763333Y-262888066D02*
X150729999Y-262921400D01*
X150729999Y-262921400D02*
X150663333Y-262954733D01*
X150663333Y-262954733D02*
X150463333Y-262954733D01*
X150463333Y-262954733D02*
X150396666Y-262921400D01*
X150396666Y-262921400D02*
X150363333Y-262888066D01*
X151063333Y-262321400D02*
X151096666Y-262288066D01*
X151096666Y-262288066D02*
X151163333Y-262254733D01*
X151163333Y-262254733D02*
X151330000Y-262254733D01*
X151330000Y-262254733D02*
X151396666Y-262288066D01*
X151396666Y-262288066D02*
X151430000Y-262321400D01*
X151430000Y-262321400D02*
X151463333Y-262388066D01*
X151463333Y-262388066D02*
X151463333Y-262454733D01*
X151463333Y-262454733D02*
X151430000Y-262554733D01*
X151430000Y-262554733D02*
X151030000Y-262954733D01*
X151030000Y-262954733D02*
X151463333Y-262954733D01*
X156798600Y-204056666D02*
X156765266Y-204156666D01*
X156765266Y-204156666D02*
X156765266Y-204323333D01*
X156765266Y-204323333D02*
X156798600Y-204389999D01*
X156798600Y-204389999D02*
X156831933Y-204423333D01*
X156831933Y-204423333D02*
X156898600Y-204456666D01*
X156898600Y-204456666D02*
X156965266Y-204456666D01*
X156965266Y-204456666D02*
X157031933Y-204423333D01*
X157031933Y-204423333D02*
X157065266Y-204389999D01*
X157065266Y-204389999D02*
X157098600Y-204323333D01*
X157098600Y-204323333D02*
X157131933Y-204189999D01*
X157131933Y-204189999D02*
X157165266Y-204123333D01*
X157165266Y-204123333D02*
X157198600Y-204089999D01*
X157198600Y-204089999D02*
X157265266Y-204056666D01*
X157265266Y-204056666D02*
X157331933Y-204056666D01*
X157331933Y-204056666D02*
X157398600Y-204089999D01*
X157398600Y-204089999D02*
X157431933Y-204123333D01*
X157431933Y-204123333D02*
X157465266Y-204189999D01*
X157465266Y-204189999D02*
X157465266Y-204356666D01*
X157465266Y-204356666D02*
X157431933Y-204456666D01*
X156765266Y-204756666D02*
X157465266Y-204756666D01*
X157465266Y-204756666D02*
X157465266Y-205023333D01*
X157465266Y-205023333D02*
X157431933Y-205090000D01*
X157431933Y-205090000D02*
X157398600Y-205123333D01*
X157398600Y-205123333D02*
X157331933Y-205156666D01*
X157331933Y-205156666D02*
X157231933Y-205156666D01*
X157231933Y-205156666D02*
X157165266Y-205123333D01*
X157165266Y-205123333D02*
X157131933Y-205090000D01*
X157131933Y-205090000D02*
X157098600Y-205023333D01*
X157098600Y-205023333D02*
X157098600Y-204756666D01*
X156765266Y-205456666D02*
X157465266Y-205456666D01*
X156765266Y-205856666D02*
X157165266Y-205556666D01*
X157465266Y-205856666D02*
X157065266Y-205456666D01*
X156765266Y-206556666D02*
X157098600Y-206323333D01*
X156765266Y-206156666D02*
X157465266Y-206156666D01*
X157465266Y-206156666D02*
X157465266Y-206423333D01*
X157465266Y-206423333D02*
X157431933Y-206490000D01*
X157431933Y-206490000D02*
X157398600Y-206523333D01*
X157398600Y-206523333D02*
X157331933Y-206556666D01*
X157331933Y-206556666D02*
X157231933Y-206556666D01*
X157231933Y-206556666D02*
X157165266Y-206523333D01*
X157165266Y-206523333D02*
X157131933Y-206490000D01*
X157131933Y-206490000D02*
X157098600Y-206423333D01*
X157098600Y-206423333D02*
X157098600Y-206156666D01*
X156765266Y-207223333D02*
X156765266Y-206823333D01*
X156765266Y-207023333D02*
X157465266Y-207023333D01*
X157465266Y-207023333D02*
X157365266Y-206956666D01*
X157365266Y-206956666D02*
X157298600Y-206890000D01*
X157298600Y-206890000D02*
X157265266Y-206823333D01*
X216813333Y-201521400D02*
X216913333Y-201554733D01*
X216913333Y-201554733D02*
X217080000Y-201554733D01*
X217080000Y-201554733D02*
X217146666Y-201521400D01*
X217146666Y-201521400D02*
X217180000Y-201488066D01*
X217180000Y-201488066D02*
X217213333Y-201421400D01*
X217213333Y-201421400D02*
X217213333Y-201354733D01*
X217213333Y-201354733D02*
X217180000Y-201288066D01*
X217180000Y-201288066D02*
X217146666Y-201254733D01*
X217146666Y-201254733D02*
X217080000Y-201221400D01*
X217080000Y-201221400D02*
X216946666Y-201188066D01*
X216946666Y-201188066D02*
X216880000Y-201154733D01*
X216880000Y-201154733D02*
X216846666Y-201121400D01*
X216846666Y-201121400D02*
X216813333Y-201054733D01*
X216813333Y-201054733D02*
X216813333Y-200988066D01*
X216813333Y-200988066D02*
X216846666Y-200921400D01*
X216846666Y-200921400D02*
X216880000Y-200888066D01*
X216880000Y-200888066D02*
X216946666Y-200854733D01*
X216946666Y-200854733D02*
X217113333Y-200854733D01*
X217113333Y-200854733D02*
X217213333Y-200888066D01*
X217446667Y-200854733D02*
X217613333Y-201554733D01*
X217613333Y-201554733D02*
X217746667Y-201054733D01*
X217746667Y-201054733D02*
X217880000Y-201554733D01*
X217880000Y-201554733D02*
X218046667Y-200854733D01*
X218680000Y-201554733D02*
X218280000Y-201554733D01*
X218480000Y-201554733D02*
X218480000Y-200854733D01*
X218480000Y-200854733D02*
X218413333Y-200954733D01*
X218413333Y-200954733D02*
X218346667Y-201021400D01*
X218346667Y-201021400D02*
X218280000Y-201054733D01*
X218946667Y-200921400D02*
X218980000Y-200888066D01*
X218980000Y-200888066D02*
X219046667Y-200854733D01*
X219046667Y-200854733D02*
X219213334Y-200854733D01*
X219213334Y-200854733D02*
X219280000Y-200888066D01*
X219280000Y-200888066D02*
X219313334Y-200921400D01*
X219313334Y-200921400D02*
X219346667Y-200988066D01*
X219346667Y-200988066D02*
X219346667Y-201054733D01*
X219346667Y-201054733D02*
X219313334Y-201154733D01*
X219313334Y-201154733D02*
X218913334Y-201554733D01*
X218913334Y-201554733D02*
X219346667Y-201554733D01*
X202846666Y-200958600D02*
X202746666Y-200925266D01*
X202746666Y-200925266D02*
X202580000Y-200925266D01*
X202580000Y-200925266D02*
X202513333Y-200958600D01*
X202513333Y-200958600D02*
X202480000Y-200991933D01*
X202480000Y-200991933D02*
X202446666Y-201058600D01*
X202446666Y-201058600D02*
X202446666Y-201125266D01*
X202446666Y-201125266D02*
X202480000Y-201191933D01*
X202480000Y-201191933D02*
X202513333Y-201225266D01*
X202513333Y-201225266D02*
X202580000Y-201258600D01*
X202580000Y-201258600D02*
X202713333Y-201291933D01*
X202713333Y-201291933D02*
X202780000Y-201325266D01*
X202780000Y-201325266D02*
X202813333Y-201358600D01*
X202813333Y-201358600D02*
X202846666Y-201425266D01*
X202846666Y-201425266D02*
X202846666Y-201491933D01*
X202846666Y-201491933D02*
X202813333Y-201558600D01*
X202813333Y-201558600D02*
X202780000Y-201591933D01*
X202780000Y-201591933D02*
X202713333Y-201625266D01*
X202713333Y-201625266D02*
X202546666Y-201625266D01*
X202546666Y-201625266D02*
X202446666Y-201591933D01*
X202213333Y-201625266D02*
X202046666Y-200925266D01*
X202046666Y-200925266D02*
X201913333Y-201425266D01*
X201913333Y-201425266D02*
X201779999Y-200925266D01*
X201779999Y-200925266D02*
X201613333Y-201625266D01*
X200979999Y-200925266D02*
X201379999Y-200925266D01*
X201179999Y-200925266D02*
X201179999Y-201625266D01*
X201179999Y-201625266D02*
X201246666Y-201525266D01*
X201246666Y-201525266D02*
X201313333Y-201458600D01*
X201313333Y-201458600D02*
X201379999Y-201425266D01*
X200313332Y-200925266D02*
X200713332Y-200925266D01*
X200513332Y-200925266D02*
X200513332Y-201625266D01*
X200513332Y-201625266D02*
X200579999Y-201525266D01*
X200579999Y-201525266D02*
X200646666Y-201458600D01*
X200646666Y-201458600D02*
X200713332Y-201425266D01*
X63629999Y-221454733D02*
X63396666Y-221121400D01*
X63229999Y-221454733D02*
X63229999Y-220754733D01*
X63229999Y-220754733D02*
X63496666Y-220754733D01*
X63496666Y-220754733D02*
X63563333Y-220788066D01*
X63563333Y-220788066D02*
X63596666Y-220821400D01*
X63596666Y-220821400D02*
X63629999Y-220888066D01*
X63629999Y-220888066D02*
X63629999Y-220988066D01*
X63629999Y-220988066D02*
X63596666Y-221054733D01*
X63596666Y-221054733D02*
X63563333Y-221088066D01*
X63563333Y-221088066D02*
X63496666Y-221121400D01*
X63496666Y-221121400D02*
X63229999Y-221121400D01*
X64263333Y-220754733D02*
X63929999Y-220754733D01*
X63929999Y-220754733D02*
X63896666Y-221088066D01*
X63896666Y-221088066D02*
X63929999Y-221054733D01*
X63929999Y-221054733D02*
X63996666Y-221021400D01*
X63996666Y-221021400D02*
X64163333Y-221021400D01*
X64163333Y-221021400D02*
X64229999Y-221054733D01*
X64229999Y-221054733D02*
X64263333Y-221088066D01*
X64263333Y-221088066D02*
X64296666Y-221154733D01*
X64296666Y-221154733D02*
X64296666Y-221321400D01*
X64296666Y-221321400D02*
X64263333Y-221388066D01*
X64263333Y-221388066D02*
X64229999Y-221421400D01*
X64229999Y-221421400D02*
X64163333Y-221454733D01*
X64163333Y-221454733D02*
X63996666Y-221454733D01*
X63996666Y-221454733D02*
X63929999Y-221421400D01*
X63929999Y-221421400D02*
X63896666Y-221388066D01*
X64963333Y-221454733D02*
X64563333Y-221454733D01*
X64763333Y-221454733D02*
X64763333Y-220754733D01*
X64763333Y-220754733D02*
X64696666Y-220854733D01*
X64696666Y-220854733D02*
X64630000Y-220921400D01*
X64630000Y-220921400D02*
X64563333Y-220954733D01*
X221829999Y-239088066D02*
X221796666Y-239121400D01*
X221796666Y-239121400D02*
X221696666Y-239154733D01*
X221696666Y-239154733D02*
X221629999Y-239154733D01*
X221629999Y-239154733D02*
X221529999Y-239121400D01*
X221529999Y-239121400D02*
X221463333Y-239054733D01*
X221463333Y-239054733D02*
X221429999Y-238988066D01*
X221429999Y-238988066D02*
X221396666Y-238854733D01*
X221396666Y-238854733D02*
X221396666Y-238754733D01*
X221396666Y-238754733D02*
X221429999Y-238621400D01*
X221429999Y-238621400D02*
X221463333Y-238554733D01*
X221463333Y-238554733D02*
X221529999Y-238488066D01*
X221529999Y-238488066D02*
X221629999Y-238454733D01*
X221629999Y-238454733D02*
X221696666Y-238454733D01*
X221696666Y-238454733D02*
X221796666Y-238488066D01*
X221796666Y-238488066D02*
X221829999Y-238521400D01*
X222063333Y-238454733D02*
X222496666Y-238454733D01*
X222496666Y-238454733D02*
X222263333Y-238721400D01*
X222263333Y-238721400D02*
X222363333Y-238721400D01*
X222363333Y-238721400D02*
X222429999Y-238754733D01*
X222429999Y-238754733D02*
X222463333Y-238788066D01*
X222463333Y-238788066D02*
X222496666Y-238854733D01*
X222496666Y-238854733D02*
X222496666Y-239021400D01*
X222496666Y-239021400D02*
X222463333Y-239088066D01*
X222463333Y-239088066D02*
X222429999Y-239121400D01*
X222429999Y-239121400D02*
X222363333Y-239154733D01*
X222363333Y-239154733D02*
X222163333Y-239154733D01*
X222163333Y-239154733D02*
X222096666Y-239121400D01*
X222096666Y-239121400D02*
X222063333Y-239088066D01*
X222930000Y-238454733D02*
X222996666Y-238454733D01*
X222996666Y-238454733D02*
X223063333Y-238488066D01*
X223063333Y-238488066D02*
X223096666Y-238521400D01*
X223096666Y-238521400D02*
X223130000Y-238588066D01*
X223130000Y-238588066D02*
X223163333Y-238721400D01*
X223163333Y-238721400D02*
X223163333Y-238888066D01*
X223163333Y-238888066D02*
X223130000Y-239021400D01*
X223130000Y-239021400D02*
X223096666Y-239088066D01*
X223096666Y-239088066D02*
X223063333Y-239121400D01*
X223063333Y-239121400D02*
X222996666Y-239154733D01*
X222996666Y-239154733D02*
X222930000Y-239154733D01*
X222930000Y-239154733D02*
X222863333Y-239121400D01*
X222863333Y-239121400D02*
X222830000Y-239088066D01*
X222830000Y-239088066D02*
X222796666Y-239021400D01*
X222796666Y-239021400D02*
X222763333Y-238888066D01*
X222763333Y-238888066D02*
X222763333Y-238721400D01*
X222763333Y-238721400D02*
X222796666Y-238588066D01*
X222796666Y-238588066D02*
X222830000Y-238521400D01*
X222830000Y-238521400D02*
X222863333Y-238488066D01*
X222863333Y-238488066D02*
X222930000Y-238454733D01*
X62813333Y-217421400D02*
X62913333Y-217454733D01*
X62913333Y-217454733D02*
X63080000Y-217454733D01*
X63080000Y-217454733D02*
X63146666Y-217421400D01*
X63146666Y-217421400D02*
X63180000Y-217388066D01*
X63180000Y-217388066D02*
X63213333Y-217321400D01*
X63213333Y-217321400D02*
X63213333Y-217254733D01*
X63213333Y-217254733D02*
X63180000Y-217188066D01*
X63180000Y-217188066D02*
X63146666Y-217154733D01*
X63146666Y-217154733D02*
X63080000Y-217121400D01*
X63080000Y-217121400D02*
X62946666Y-217088066D01*
X62946666Y-217088066D02*
X62880000Y-217054733D01*
X62880000Y-217054733D02*
X62846666Y-217021400D01*
X62846666Y-217021400D02*
X62813333Y-216954733D01*
X62813333Y-216954733D02*
X62813333Y-216888066D01*
X62813333Y-216888066D02*
X62846666Y-216821400D01*
X62846666Y-216821400D02*
X62880000Y-216788066D01*
X62880000Y-216788066D02*
X62946666Y-216754733D01*
X62946666Y-216754733D02*
X63113333Y-216754733D01*
X63113333Y-216754733D02*
X63213333Y-216788066D01*
X63446667Y-216754733D02*
X63613333Y-217454733D01*
X63613333Y-217454733D02*
X63746667Y-216954733D01*
X63746667Y-216954733D02*
X63880000Y-217454733D01*
X63880000Y-217454733D02*
X64046667Y-216754733D01*
X64680000Y-217454733D02*
X64280000Y-217454733D01*
X64480000Y-217454733D02*
X64480000Y-216754733D01*
X64480000Y-216754733D02*
X64413333Y-216854733D01*
X64413333Y-216854733D02*
X64346667Y-216921400D01*
X64346667Y-216921400D02*
X64280000Y-216954733D01*
X65313334Y-216754733D02*
X64980000Y-216754733D01*
X64980000Y-216754733D02*
X64946667Y-217088066D01*
X64946667Y-217088066D02*
X64980000Y-217054733D01*
X64980000Y-217054733D02*
X65046667Y-217021400D01*
X65046667Y-217021400D02*
X65213334Y-217021400D01*
X65213334Y-217021400D02*
X65280000Y-217054733D01*
X65280000Y-217054733D02*
X65313334Y-217088066D01*
X65313334Y-217088066D02*
X65346667Y-217154733D01*
X65346667Y-217154733D02*
X65346667Y-217321400D01*
X65346667Y-217321400D02*
X65313334Y-217388066D01*
X65313334Y-217388066D02*
X65280000Y-217421400D01*
X65280000Y-217421400D02*
X65213334Y-217454733D01*
X65213334Y-217454733D02*
X65046667Y-217454733D01*
X65046667Y-217454733D02*
X64980000Y-217421400D01*
X64980000Y-217421400D02*
X64946667Y-217388066D01*
X226163333Y-240654733D02*
X225829999Y-240654733D01*
X225829999Y-240654733D02*
X225829999Y-239954733D01*
X226330000Y-239954733D02*
X226763333Y-239954733D01*
X226763333Y-239954733D02*
X226530000Y-240221400D01*
X226530000Y-240221400D02*
X226630000Y-240221400D01*
X226630000Y-240221400D02*
X226696666Y-240254733D01*
X226696666Y-240254733D02*
X226730000Y-240288066D01*
X226730000Y-240288066D02*
X226763333Y-240354733D01*
X226763333Y-240354733D02*
X226763333Y-240521400D01*
X226763333Y-240521400D02*
X226730000Y-240588066D01*
X226730000Y-240588066D02*
X226696666Y-240621400D01*
X226696666Y-240621400D02*
X226630000Y-240654733D01*
X226630000Y-240654733D02*
X226430000Y-240654733D01*
X226430000Y-240654733D02*
X226363333Y-240621400D01*
X226363333Y-240621400D02*
X226330000Y-240588066D01*
X167629999Y-221454733D02*
X167396666Y-221121400D01*
X167229999Y-221454733D02*
X167229999Y-220754733D01*
X167229999Y-220754733D02*
X167496666Y-220754733D01*
X167496666Y-220754733D02*
X167563333Y-220788066D01*
X167563333Y-220788066D02*
X167596666Y-220821400D01*
X167596666Y-220821400D02*
X167629999Y-220888066D01*
X167629999Y-220888066D02*
X167629999Y-220988066D01*
X167629999Y-220988066D02*
X167596666Y-221054733D01*
X167596666Y-221054733D02*
X167563333Y-221088066D01*
X167563333Y-221088066D02*
X167496666Y-221121400D01*
X167496666Y-221121400D02*
X167229999Y-221121400D01*
X168229999Y-220988066D02*
X168229999Y-221454733D01*
X168063333Y-220721400D02*
X167896666Y-221221400D01*
X167896666Y-221221400D02*
X168329999Y-221221400D01*
X168563333Y-220821400D02*
X168596666Y-220788066D01*
X168596666Y-220788066D02*
X168663333Y-220754733D01*
X168663333Y-220754733D02*
X168830000Y-220754733D01*
X168830000Y-220754733D02*
X168896666Y-220788066D01*
X168896666Y-220788066D02*
X168930000Y-220821400D01*
X168930000Y-220821400D02*
X168963333Y-220888066D01*
X168963333Y-220888066D02*
X168963333Y-220954733D01*
X168963333Y-220954733D02*
X168930000Y-221054733D01*
X168930000Y-221054733D02*
X168530000Y-221454733D01*
X168530000Y-221454733D02*
X168963333Y-221454733D01*
X146996666Y-263954733D02*
X146996666Y-263254733D01*
X146996666Y-263254733D02*
X147230000Y-263754733D01*
X147230000Y-263754733D02*
X147463333Y-263254733D01*
X147463333Y-263254733D02*
X147463333Y-263954733D01*
X147796666Y-263954733D02*
X147796666Y-263254733D01*
X148529999Y-263888066D02*
X148496666Y-263921400D01*
X148496666Y-263921400D02*
X148396666Y-263954733D01*
X148396666Y-263954733D02*
X148329999Y-263954733D01*
X148329999Y-263954733D02*
X148229999Y-263921400D01*
X148229999Y-263921400D02*
X148163333Y-263854733D01*
X148163333Y-263854733D02*
X148129999Y-263788066D01*
X148129999Y-263788066D02*
X148096666Y-263654733D01*
X148096666Y-263654733D02*
X148096666Y-263554733D01*
X148096666Y-263554733D02*
X148129999Y-263421400D01*
X148129999Y-263421400D02*
X148163333Y-263354733D01*
X148163333Y-263354733D02*
X148229999Y-263288066D01*
X148229999Y-263288066D02*
X148329999Y-263254733D01*
X148329999Y-263254733D02*
X148396666Y-263254733D01*
X148396666Y-263254733D02*
X148496666Y-263288066D01*
X148496666Y-263288066D02*
X148529999Y-263321400D01*
X149196666Y-263954733D02*
X148796666Y-263954733D01*
X148996666Y-263954733D02*
X148996666Y-263254733D01*
X148996666Y-263254733D02*
X148929999Y-263354733D01*
X148929999Y-263354733D02*
X148863333Y-263421400D01*
X148863333Y-263421400D02*
X148796666Y-263454733D01*
X181129999Y-210888066D02*
X181096666Y-210921400D01*
X181096666Y-210921400D02*
X180996666Y-210954733D01*
X180996666Y-210954733D02*
X180929999Y-210954733D01*
X180929999Y-210954733D02*
X180829999Y-210921400D01*
X180829999Y-210921400D02*
X180763333Y-210854733D01*
X180763333Y-210854733D02*
X180729999Y-210788066D01*
X180729999Y-210788066D02*
X180696666Y-210654733D01*
X180696666Y-210654733D02*
X180696666Y-210554733D01*
X180696666Y-210554733D02*
X180729999Y-210421400D01*
X180729999Y-210421400D02*
X180763333Y-210354733D01*
X180763333Y-210354733D02*
X180829999Y-210288066D01*
X180829999Y-210288066D02*
X180929999Y-210254733D01*
X180929999Y-210254733D02*
X180996666Y-210254733D01*
X180996666Y-210254733D02*
X181096666Y-210288066D01*
X181096666Y-210288066D02*
X181129999Y-210321400D01*
X181363333Y-210254733D02*
X181796666Y-210254733D01*
X181796666Y-210254733D02*
X181563333Y-210521400D01*
X181563333Y-210521400D02*
X181663333Y-210521400D01*
X181663333Y-210521400D02*
X181729999Y-210554733D01*
X181729999Y-210554733D02*
X181763333Y-210588066D01*
X181763333Y-210588066D02*
X181796666Y-210654733D01*
X181796666Y-210654733D02*
X181796666Y-210821400D01*
X181796666Y-210821400D02*
X181763333Y-210888066D01*
X181763333Y-210888066D02*
X181729999Y-210921400D01*
X181729999Y-210921400D02*
X181663333Y-210954733D01*
X181663333Y-210954733D02*
X181463333Y-210954733D01*
X181463333Y-210954733D02*
X181396666Y-210921400D01*
X181396666Y-210921400D02*
X181363333Y-210888066D01*
X182396666Y-210488066D02*
X182396666Y-210954733D01*
X182230000Y-210221400D02*
X182063333Y-210721400D01*
X182063333Y-210721400D02*
X182496666Y-210721400D01*
X205129999Y-228454733D02*
X204896666Y-228121400D01*
X204729999Y-228454733D02*
X204729999Y-227754733D01*
X204729999Y-227754733D02*
X204996666Y-227754733D01*
X204996666Y-227754733D02*
X205063333Y-227788066D01*
X205063333Y-227788066D02*
X205096666Y-227821400D01*
X205096666Y-227821400D02*
X205129999Y-227888066D01*
X205129999Y-227888066D02*
X205129999Y-227988066D01*
X205129999Y-227988066D02*
X205096666Y-228054733D01*
X205096666Y-228054733D02*
X205063333Y-228088066D01*
X205063333Y-228088066D02*
X204996666Y-228121400D01*
X204996666Y-228121400D02*
X204729999Y-228121400D01*
X205729999Y-227988066D02*
X205729999Y-228454733D01*
X205563333Y-227721400D02*
X205396666Y-228221400D01*
X205396666Y-228221400D02*
X205829999Y-228221400D01*
X206196666Y-228054733D02*
X206130000Y-228021400D01*
X206130000Y-228021400D02*
X206096666Y-227988066D01*
X206096666Y-227988066D02*
X206063333Y-227921400D01*
X206063333Y-227921400D02*
X206063333Y-227888066D01*
X206063333Y-227888066D02*
X206096666Y-227821400D01*
X206096666Y-227821400D02*
X206130000Y-227788066D01*
X206130000Y-227788066D02*
X206196666Y-227754733D01*
X206196666Y-227754733D02*
X206330000Y-227754733D01*
X206330000Y-227754733D02*
X206396666Y-227788066D01*
X206396666Y-227788066D02*
X206430000Y-227821400D01*
X206430000Y-227821400D02*
X206463333Y-227888066D01*
X206463333Y-227888066D02*
X206463333Y-227921400D01*
X206463333Y-227921400D02*
X206430000Y-227988066D01*
X206430000Y-227988066D02*
X206396666Y-228021400D01*
X206396666Y-228021400D02*
X206330000Y-228054733D01*
X206330000Y-228054733D02*
X206196666Y-228054733D01*
X206196666Y-228054733D02*
X206130000Y-228088066D01*
X206130000Y-228088066D02*
X206096666Y-228121400D01*
X206096666Y-228121400D02*
X206063333Y-228188066D01*
X206063333Y-228188066D02*
X206063333Y-228321400D01*
X206063333Y-228321400D02*
X206096666Y-228388066D01*
X206096666Y-228388066D02*
X206130000Y-228421400D01*
X206130000Y-228421400D02*
X206196666Y-228454733D01*
X206196666Y-228454733D02*
X206330000Y-228454733D01*
X206330000Y-228454733D02*
X206396666Y-228421400D01*
X206396666Y-228421400D02*
X206430000Y-228388066D01*
X206430000Y-228388066D02*
X206463333Y-228321400D01*
X206463333Y-228321400D02*
X206463333Y-228188066D01*
X206463333Y-228188066D02*
X206430000Y-228121400D01*
X206430000Y-228121400D02*
X206396666Y-228088066D01*
X206396666Y-228088066D02*
X206330000Y-228054733D01*
X117546666Y-218254733D02*
X117546666Y-218821400D01*
X117546666Y-218821400D02*
X117580000Y-218888066D01*
X117580000Y-218888066D02*
X117613333Y-218921400D01*
X117613333Y-218921400D02*
X117680000Y-218954733D01*
X117680000Y-218954733D02*
X117813333Y-218954733D01*
X117813333Y-218954733D02*
X117880000Y-218921400D01*
X117880000Y-218921400D02*
X117913333Y-218888066D01*
X117913333Y-218888066D02*
X117946666Y-218821400D01*
X117946666Y-218821400D02*
X117946666Y-218254733D01*
X118213333Y-218254733D02*
X118679999Y-218254733D01*
X118679999Y-218254733D02*
X118379999Y-218954733D01*
X187629999Y-214854733D02*
X187396666Y-214521400D01*
X187229999Y-214854733D02*
X187229999Y-214154733D01*
X187229999Y-214154733D02*
X187496666Y-214154733D01*
X187496666Y-214154733D02*
X187563333Y-214188066D01*
X187563333Y-214188066D02*
X187596666Y-214221400D01*
X187596666Y-214221400D02*
X187629999Y-214288066D01*
X187629999Y-214288066D02*
X187629999Y-214388066D01*
X187629999Y-214388066D02*
X187596666Y-214454733D01*
X187596666Y-214454733D02*
X187563333Y-214488066D01*
X187563333Y-214488066D02*
X187496666Y-214521400D01*
X187496666Y-214521400D02*
X187229999Y-214521400D01*
X187863333Y-214154733D02*
X188296666Y-214154733D01*
X188296666Y-214154733D02*
X188063333Y-214421400D01*
X188063333Y-214421400D02*
X188163333Y-214421400D01*
X188163333Y-214421400D02*
X188229999Y-214454733D01*
X188229999Y-214454733D02*
X188263333Y-214488066D01*
X188263333Y-214488066D02*
X188296666Y-214554733D01*
X188296666Y-214554733D02*
X188296666Y-214721400D01*
X188296666Y-214721400D02*
X188263333Y-214788066D01*
X188263333Y-214788066D02*
X188229999Y-214821400D01*
X188229999Y-214821400D02*
X188163333Y-214854733D01*
X188163333Y-214854733D02*
X187963333Y-214854733D01*
X187963333Y-214854733D02*
X187896666Y-214821400D01*
X187896666Y-214821400D02*
X187863333Y-214788066D01*
X188896666Y-214154733D02*
X188763333Y-214154733D01*
X188763333Y-214154733D02*
X188696666Y-214188066D01*
X188696666Y-214188066D02*
X188663333Y-214221400D01*
X188663333Y-214221400D02*
X188596666Y-214321400D01*
X188596666Y-214321400D02*
X188563333Y-214454733D01*
X188563333Y-214454733D02*
X188563333Y-214721400D01*
X188563333Y-214721400D02*
X188596666Y-214788066D01*
X188596666Y-214788066D02*
X188630000Y-214821400D01*
X188630000Y-214821400D02*
X188696666Y-214854733D01*
X188696666Y-214854733D02*
X188830000Y-214854733D01*
X188830000Y-214854733D02*
X188896666Y-214821400D01*
X188896666Y-214821400D02*
X188930000Y-214788066D01*
X188930000Y-214788066D02*
X188963333Y-214721400D01*
X188963333Y-214721400D02*
X188963333Y-214554733D01*
X188963333Y-214554733D02*
X188930000Y-214488066D01*
X188930000Y-214488066D02*
X188896666Y-214454733D01*
X188896666Y-214454733D02*
X188830000Y-214421400D01*
X188830000Y-214421400D02*
X188696666Y-214421400D01*
X188696666Y-214421400D02*
X188630000Y-214454733D01*
X188630000Y-214454733D02*
X188596666Y-214488066D01*
X188596666Y-214488066D02*
X188563333Y-214554733D01*
X180129999Y-216454733D02*
X179896666Y-216121400D01*
X179729999Y-216454733D02*
X179729999Y-215754733D01*
X179729999Y-215754733D02*
X179996666Y-215754733D01*
X179996666Y-215754733D02*
X180063333Y-215788066D01*
X180063333Y-215788066D02*
X180096666Y-215821400D01*
X180096666Y-215821400D02*
X180129999Y-215888066D01*
X180129999Y-215888066D02*
X180129999Y-215988066D01*
X180129999Y-215988066D02*
X180096666Y-216054733D01*
X180096666Y-216054733D02*
X180063333Y-216088066D01*
X180063333Y-216088066D02*
X179996666Y-216121400D01*
X179996666Y-216121400D02*
X179729999Y-216121400D01*
X180363333Y-215754733D02*
X180796666Y-215754733D01*
X180796666Y-215754733D02*
X180563333Y-216021400D01*
X180563333Y-216021400D02*
X180663333Y-216021400D01*
X180663333Y-216021400D02*
X180729999Y-216054733D01*
X180729999Y-216054733D02*
X180763333Y-216088066D01*
X180763333Y-216088066D02*
X180796666Y-216154733D01*
X180796666Y-216154733D02*
X180796666Y-216321400D01*
X180796666Y-216321400D02*
X180763333Y-216388066D01*
X180763333Y-216388066D02*
X180729999Y-216421400D01*
X180729999Y-216421400D02*
X180663333Y-216454733D01*
X180663333Y-216454733D02*
X180463333Y-216454733D01*
X180463333Y-216454733D02*
X180396666Y-216421400D01*
X180396666Y-216421400D02*
X180363333Y-216388066D01*
X181196666Y-216054733D02*
X181130000Y-216021400D01*
X181130000Y-216021400D02*
X181096666Y-215988066D01*
X181096666Y-215988066D02*
X181063333Y-215921400D01*
X181063333Y-215921400D02*
X181063333Y-215888066D01*
X181063333Y-215888066D02*
X181096666Y-215821400D01*
X181096666Y-215821400D02*
X181130000Y-215788066D01*
X181130000Y-215788066D02*
X181196666Y-215754733D01*
X181196666Y-215754733D02*
X181330000Y-215754733D01*
X181330000Y-215754733D02*
X181396666Y-215788066D01*
X181396666Y-215788066D02*
X181430000Y-215821400D01*
X181430000Y-215821400D02*
X181463333Y-215888066D01*
X181463333Y-215888066D02*
X181463333Y-215921400D01*
X181463333Y-215921400D02*
X181430000Y-215988066D01*
X181430000Y-215988066D02*
X181396666Y-216021400D01*
X181396666Y-216021400D02*
X181330000Y-216054733D01*
X181330000Y-216054733D02*
X181196666Y-216054733D01*
X181196666Y-216054733D02*
X181130000Y-216088066D01*
X181130000Y-216088066D02*
X181096666Y-216121400D01*
X181096666Y-216121400D02*
X181063333Y-216188066D01*
X181063333Y-216188066D02*
X181063333Y-216321400D01*
X181063333Y-216321400D02*
X181096666Y-216388066D01*
X181096666Y-216388066D02*
X181130000Y-216421400D01*
X181130000Y-216421400D02*
X181196666Y-216454733D01*
X181196666Y-216454733D02*
X181330000Y-216454733D01*
X181330000Y-216454733D02*
X181396666Y-216421400D01*
X181396666Y-216421400D02*
X181430000Y-216388066D01*
X181430000Y-216388066D02*
X181463333Y-216321400D01*
X181463333Y-216321400D02*
X181463333Y-216188066D01*
X181463333Y-216188066D02*
X181430000Y-216121400D01*
X181430000Y-216121400D02*
X181396666Y-216088066D01*
X181396666Y-216088066D02*
X181330000Y-216054733D01*
X162129999Y-268388066D02*
X162096666Y-268421400D01*
X162096666Y-268421400D02*
X161996666Y-268454733D01*
X161996666Y-268454733D02*
X161929999Y-268454733D01*
X161929999Y-268454733D02*
X161829999Y-268421400D01*
X161829999Y-268421400D02*
X161763333Y-268354733D01*
X161763333Y-268354733D02*
X161729999Y-268288066D01*
X161729999Y-268288066D02*
X161696666Y-268154733D01*
X161696666Y-268154733D02*
X161696666Y-268054733D01*
X161696666Y-268054733D02*
X161729999Y-267921400D01*
X161729999Y-267921400D02*
X161763333Y-267854733D01*
X161763333Y-267854733D02*
X161829999Y-267788066D01*
X161829999Y-267788066D02*
X161929999Y-267754733D01*
X161929999Y-267754733D02*
X161996666Y-267754733D01*
X161996666Y-267754733D02*
X162096666Y-267788066D01*
X162096666Y-267788066D02*
X162129999Y-267821400D01*
X162363333Y-267754733D02*
X162796666Y-267754733D01*
X162796666Y-267754733D02*
X162563333Y-268021400D01*
X162563333Y-268021400D02*
X162663333Y-268021400D01*
X162663333Y-268021400D02*
X162729999Y-268054733D01*
X162729999Y-268054733D02*
X162763333Y-268088066D01*
X162763333Y-268088066D02*
X162796666Y-268154733D01*
X162796666Y-268154733D02*
X162796666Y-268321400D01*
X162796666Y-268321400D02*
X162763333Y-268388066D01*
X162763333Y-268388066D02*
X162729999Y-268421400D01*
X162729999Y-268421400D02*
X162663333Y-268454733D01*
X162663333Y-268454733D02*
X162463333Y-268454733D01*
X162463333Y-268454733D02*
X162396666Y-268421400D01*
X162396666Y-268421400D02*
X162363333Y-268388066D01*
X163196666Y-268054733D02*
X163130000Y-268021400D01*
X163130000Y-268021400D02*
X163096666Y-267988066D01*
X163096666Y-267988066D02*
X163063333Y-267921400D01*
X163063333Y-267921400D02*
X163063333Y-267888066D01*
X163063333Y-267888066D02*
X163096666Y-267821400D01*
X163096666Y-267821400D02*
X163130000Y-267788066D01*
X163130000Y-267788066D02*
X163196666Y-267754733D01*
X163196666Y-267754733D02*
X163330000Y-267754733D01*
X163330000Y-267754733D02*
X163396666Y-267788066D01*
X163396666Y-267788066D02*
X163430000Y-267821400D01*
X163430000Y-267821400D02*
X163463333Y-267888066D01*
X163463333Y-267888066D02*
X163463333Y-267921400D01*
X163463333Y-267921400D02*
X163430000Y-267988066D01*
X163430000Y-267988066D02*
X163396666Y-268021400D01*
X163396666Y-268021400D02*
X163330000Y-268054733D01*
X163330000Y-268054733D02*
X163196666Y-268054733D01*
X163196666Y-268054733D02*
X163130000Y-268088066D01*
X163130000Y-268088066D02*
X163096666Y-268121400D01*
X163096666Y-268121400D02*
X163063333Y-268188066D01*
X163063333Y-268188066D02*
X163063333Y-268321400D01*
X163063333Y-268321400D02*
X163096666Y-268388066D01*
X163096666Y-268388066D02*
X163130000Y-268421400D01*
X163130000Y-268421400D02*
X163196666Y-268454733D01*
X163196666Y-268454733D02*
X163330000Y-268454733D01*
X163330000Y-268454733D02*
X163396666Y-268421400D01*
X163396666Y-268421400D02*
X163430000Y-268388066D01*
X163430000Y-268388066D02*
X163463333Y-268321400D01*
X163463333Y-268321400D02*
X163463333Y-268188066D01*
X163463333Y-268188066D02*
X163430000Y-268121400D01*
X163430000Y-268121400D02*
X163396666Y-268088066D01*
X163396666Y-268088066D02*
X163330000Y-268054733D01*
X84129999Y-199954733D02*
X83896666Y-199621400D01*
X83729999Y-199954733D02*
X83729999Y-199254733D01*
X83729999Y-199254733D02*
X83996666Y-199254733D01*
X83996666Y-199254733D02*
X84063333Y-199288066D01*
X84063333Y-199288066D02*
X84096666Y-199321400D01*
X84096666Y-199321400D02*
X84129999Y-199388066D01*
X84129999Y-199388066D02*
X84129999Y-199488066D01*
X84129999Y-199488066D02*
X84096666Y-199554733D01*
X84096666Y-199554733D02*
X84063333Y-199588066D01*
X84063333Y-199588066D02*
X83996666Y-199621400D01*
X83996666Y-199621400D02*
X83729999Y-199621400D01*
X84763333Y-199254733D02*
X84429999Y-199254733D01*
X84429999Y-199254733D02*
X84396666Y-199588066D01*
X84396666Y-199588066D02*
X84429999Y-199554733D01*
X84429999Y-199554733D02*
X84496666Y-199521400D01*
X84496666Y-199521400D02*
X84663333Y-199521400D01*
X84663333Y-199521400D02*
X84729999Y-199554733D01*
X84729999Y-199554733D02*
X84763333Y-199588066D01*
X84763333Y-199588066D02*
X84796666Y-199654733D01*
X84796666Y-199654733D02*
X84796666Y-199821400D01*
X84796666Y-199821400D02*
X84763333Y-199888066D01*
X84763333Y-199888066D02*
X84729999Y-199921400D01*
X84729999Y-199921400D02*
X84663333Y-199954733D01*
X84663333Y-199954733D02*
X84496666Y-199954733D01*
X84496666Y-199954733D02*
X84429999Y-199921400D01*
X84429999Y-199921400D02*
X84396666Y-199888066D01*
X85230000Y-199254733D02*
X85296666Y-199254733D01*
X85296666Y-199254733D02*
X85363333Y-199288066D01*
X85363333Y-199288066D02*
X85396666Y-199321400D01*
X85396666Y-199321400D02*
X85430000Y-199388066D01*
X85430000Y-199388066D02*
X85463333Y-199521400D01*
X85463333Y-199521400D02*
X85463333Y-199688066D01*
X85463333Y-199688066D02*
X85430000Y-199821400D01*
X85430000Y-199821400D02*
X85396666Y-199888066D01*
X85396666Y-199888066D02*
X85363333Y-199921400D01*
X85363333Y-199921400D02*
X85296666Y-199954733D01*
X85296666Y-199954733D02*
X85230000Y-199954733D01*
X85230000Y-199954733D02*
X85163333Y-199921400D01*
X85163333Y-199921400D02*
X85130000Y-199888066D01*
X85130000Y-199888066D02*
X85096666Y-199821400D01*
X85096666Y-199821400D02*
X85063333Y-199688066D01*
X85063333Y-199688066D02*
X85063333Y-199521400D01*
X85063333Y-199521400D02*
X85096666Y-199388066D01*
X85096666Y-199388066D02*
X85130000Y-199321400D01*
X85130000Y-199321400D02*
X85163333Y-199288066D01*
X85163333Y-199288066D02*
X85230000Y-199254733D01*
X221629999Y-202454733D02*
X221396666Y-202121400D01*
X221229999Y-202454733D02*
X221229999Y-201754733D01*
X221229999Y-201754733D02*
X221496666Y-201754733D01*
X221496666Y-201754733D02*
X221563333Y-201788066D01*
X221563333Y-201788066D02*
X221596666Y-201821400D01*
X221596666Y-201821400D02*
X221629999Y-201888066D01*
X221629999Y-201888066D02*
X221629999Y-201988066D01*
X221629999Y-201988066D02*
X221596666Y-202054733D01*
X221596666Y-202054733D02*
X221563333Y-202088066D01*
X221563333Y-202088066D02*
X221496666Y-202121400D01*
X221496666Y-202121400D02*
X221229999Y-202121400D01*
X222229999Y-201988066D02*
X222229999Y-202454733D01*
X222063333Y-201721400D02*
X221896666Y-202221400D01*
X221896666Y-202221400D02*
X222329999Y-202221400D01*
X222630000Y-202454733D02*
X222763333Y-202454733D01*
X222763333Y-202454733D02*
X222830000Y-202421400D01*
X222830000Y-202421400D02*
X222863333Y-202388066D01*
X222863333Y-202388066D02*
X222930000Y-202288066D01*
X222930000Y-202288066D02*
X222963333Y-202154733D01*
X222963333Y-202154733D02*
X222963333Y-201888066D01*
X222963333Y-201888066D02*
X222930000Y-201821400D01*
X222930000Y-201821400D02*
X222896666Y-201788066D01*
X222896666Y-201788066D02*
X222830000Y-201754733D01*
X222830000Y-201754733D02*
X222696666Y-201754733D01*
X222696666Y-201754733D02*
X222630000Y-201788066D01*
X222630000Y-201788066D02*
X222596666Y-201821400D01*
X222596666Y-201821400D02*
X222563333Y-201888066D01*
X222563333Y-201888066D02*
X222563333Y-202054733D01*
X222563333Y-202054733D02*
X222596666Y-202121400D01*
X222596666Y-202121400D02*
X222630000Y-202154733D01*
X222630000Y-202154733D02*
X222696666Y-202188066D01*
X222696666Y-202188066D02*
X222830000Y-202188066D01*
X222830000Y-202188066D02*
X222896666Y-202154733D01*
X222896666Y-202154733D02*
X222930000Y-202121400D01*
X222930000Y-202121400D02*
X222963333Y-202054733D01*
X231113333Y-240249733D02*
X231113333Y-239549733D01*
X231113333Y-239549733D02*
X231380000Y-239549733D01*
X231380000Y-239549733D02*
X231446667Y-239583066D01*
X231446667Y-239583066D02*
X231480000Y-239616400D01*
X231480000Y-239616400D02*
X231513333Y-239683066D01*
X231513333Y-239683066D02*
X231513333Y-239783066D01*
X231513333Y-239783066D02*
X231480000Y-239849733D01*
X231480000Y-239849733D02*
X231446667Y-239883066D01*
X231446667Y-239883066D02*
X231380000Y-239916400D01*
X231380000Y-239916400D02*
X231113333Y-239916400D01*
X231780000Y-240049733D02*
X232113333Y-240049733D01*
X231713333Y-240249733D02*
X231946667Y-239549733D01*
X231946667Y-239549733D02*
X232180000Y-240249733D01*
X232413333Y-240249733D02*
X232413333Y-239549733D01*
X232413333Y-239549733D02*
X232580000Y-239549733D01*
X232580000Y-239549733D02*
X232680000Y-239583066D01*
X232680000Y-239583066D02*
X232746667Y-239649733D01*
X232746667Y-239649733D02*
X232780000Y-239716400D01*
X232780000Y-239716400D02*
X232813333Y-239849733D01*
X232813333Y-239849733D02*
X232813333Y-239949733D01*
X232813333Y-239949733D02*
X232780000Y-240083066D01*
X232780000Y-240083066D02*
X232746667Y-240149733D01*
X232746667Y-240149733D02*
X232680000Y-240216400D01*
X232680000Y-240216400D02*
X232580000Y-240249733D01*
X232580000Y-240249733D02*
X232413333Y-240249733D01*
X233213333Y-239849733D02*
X233146667Y-239816400D01*
X233146667Y-239816400D02*
X233113333Y-239783066D01*
X233113333Y-239783066D02*
X233080000Y-239716400D01*
X233080000Y-239716400D02*
X233080000Y-239683066D01*
X233080000Y-239683066D02*
X233113333Y-239616400D01*
X233113333Y-239616400D02*
X233146667Y-239583066D01*
X233146667Y-239583066D02*
X233213333Y-239549733D01*
X233213333Y-239549733D02*
X233346667Y-239549733D01*
X233346667Y-239549733D02*
X233413333Y-239583066D01*
X233413333Y-239583066D02*
X233446667Y-239616400D01*
X233446667Y-239616400D02*
X233480000Y-239683066D01*
X233480000Y-239683066D02*
X233480000Y-239716400D01*
X233480000Y-239716400D02*
X233446667Y-239783066D01*
X233446667Y-239783066D02*
X233413333Y-239816400D01*
X233413333Y-239816400D02*
X233346667Y-239849733D01*
X233346667Y-239849733D02*
X233213333Y-239849733D01*
X233213333Y-239849733D02*
X233146667Y-239883066D01*
X233146667Y-239883066D02*
X233113333Y-239916400D01*
X233113333Y-239916400D02*
X233080000Y-239983066D01*
X233080000Y-239983066D02*
X233080000Y-240116400D01*
X233080000Y-240116400D02*
X233113333Y-240183066D01*
X233113333Y-240183066D02*
X233146667Y-240216400D01*
X233146667Y-240216400D02*
X233213333Y-240249733D01*
X233213333Y-240249733D02*
X233346667Y-240249733D01*
X233346667Y-240249733D02*
X233413333Y-240216400D01*
X233413333Y-240216400D02*
X233446667Y-240183066D01*
X233446667Y-240183066D02*
X233480000Y-240116400D01*
X233480000Y-240116400D02*
X233480000Y-239983066D01*
X233480000Y-239983066D02*
X233446667Y-239916400D01*
X233446667Y-239916400D02*
X233413333Y-239883066D01*
X233413333Y-239883066D02*
X233346667Y-239849733D01*
X191063333Y-220454733D02*
X191063333Y-219754733D01*
X191063333Y-219754733D02*
X191230000Y-219754733D01*
X191230000Y-219754733D02*
X191330000Y-219788066D01*
X191330000Y-219788066D02*
X191396667Y-219854733D01*
X191396667Y-219854733D02*
X191430000Y-219921400D01*
X191430000Y-219921400D02*
X191463333Y-220054733D01*
X191463333Y-220054733D02*
X191463333Y-220154733D01*
X191463333Y-220154733D02*
X191430000Y-220288066D01*
X191430000Y-220288066D02*
X191396667Y-220354733D01*
X191396667Y-220354733D02*
X191330000Y-220421400D01*
X191330000Y-220421400D02*
X191230000Y-220454733D01*
X191230000Y-220454733D02*
X191063333Y-220454733D01*
X192096667Y-219754733D02*
X191763333Y-219754733D01*
X191763333Y-219754733D02*
X191730000Y-220088066D01*
X191730000Y-220088066D02*
X191763333Y-220054733D01*
X191763333Y-220054733D02*
X191830000Y-220021400D01*
X191830000Y-220021400D02*
X191996667Y-220021400D01*
X191996667Y-220021400D02*
X192063333Y-220054733D01*
X192063333Y-220054733D02*
X192096667Y-220088066D01*
X192096667Y-220088066D02*
X192130000Y-220154733D01*
X192130000Y-220154733D02*
X192130000Y-220321400D01*
X192130000Y-220321400D02*
X192096667Y-220388066D01*
X192096667Y-220388066D02*
X192063333Y-220421400D01*
X192063333Y-220421400D02*
X191996667Y-220454733D01*
X191996667Y-220454733D02*
X191830000Y-220454733D01*
X191830000Y-220454733D02*
X191763333Y-220421400D01*
X191763333Y-220421400D02*
X191730000Y-220388066D01*
D11*
X108180000Y-170040000D02*
X105180000Y-170040000D01*
X105180000Y-168240000D02*
X108180000Y-168240000D01*
D12*
X95080000Y-127140000D02*
X100080000Y-132140000D01*
X95080000Y-194140000D02*
X100080000Y-189140000D01*
X100080000Y-132140000D02*
X100080000Y-189140000D01*
X100080000Y-189140000D02*
X196080000Y-189140000D01*
X196080000Y-132140000D02*
X100080000Y-132140000D01*
X196080000Y-189140000D02*
X196080000Y-132140000D01*
X201080000Y-127140000D02*
X196080000Y-132140000D01*
X201080000Y-194140000D02*
X196080000Y-189140000D01*
D13*
X73770000Y-203100000D02*
X76310000Y-203100000D01*
X73770000Y-206910000D02*
X73770000Y-203100000D01*
D11*
X108180000Y-172540000D02*
X105180000Y-172540000D01*
X105180000Y-170740000D02*
X108180000Y-170740000D01*
X156080000Y-211740000D02*
X155080000Y-211740000D01*
X156080000Y-215540000D02*
X155080000Y-215540000D01*
X202069592Y-144155076D02*
X209564924Y-151650408D01*
X206595076Y-139629592D02*
X214090408Y-147124924D01*
X212780000Y-178840000D02*
X223380000Y-178840000D01*
X212780000Y-172440000D02*
X223380000Y-172440000D01*
X165280000Y-260240000D02*
X163880000Y-260240000D01*
D13*
X162580000Y-208140000D02*
X162580000Y-210140000D01*
X162580000Y-213140000D02*
X162580000Y-215140000D01*
X170580000Y-208140000D02*
X171580000Y-209140000D01*
X171580000Y-209140000D02*
X171580000Y-210140000D01*
X171580000Y-213140000D02*
X171580000Y-214140000D01*
X171580000Y-214140000D02*
X170580000Y-215140000D01*
D11*
X219780000Y-241240000D02*
X216780000Y-241240000D01*
X216780000Y-239440000D02*
X219780000Y-239440000D01*
X174580000Y-214640000D02*
X173580000Y-214640000D01*
X173580000Y-214640000D02*
X173580000Y-215140000D01*
X206480000Y-127240000D02*
X207680000Y-127240000D01*
X221180000Y-247040000D02*
X221180000Y-245640000D01*
D13*
X215580000Y-221140000D02*
X215580000Y-223140000D01*
D11*
X161680000Y-213140000D02*
X161680000Y-210140000D01*
X157680000Y-213140000D02*
X157680000Y-210140000D01*
X152080000Y-267040000D02*
X153080000Y-267040000D01*
X152080000Y-263240000D02*
X153080000Y-263240000D01*
X177080000Y-209340000D02*
X179080000Y-209340000D01*
D12*
X236480000Y-220640000D02*
X236480000Y-212640000D01*
X236480000Y-212640000D02*
X233980000Y-212640000D01*
X233980000Y-220640000D02*
X236480000Y-220640000D01*
X233980000Y-220640000D02*
X233980000Y-219640000D01*
X233980000Y-219640000D02*
X229980000Y-219640000D01*
X233980000Y-213640000D02*
X229980000Y-213640000D01*
X233980000Y-212640000D02*
X233980000Y-213640000D01*
X229980000Y-220640000D02*
X227980000Y-220640000D01*
X229980000Y-219640000D02*
X229980000Y-220640000D01*
X229980000Y-213640000D02*
X229980000Y-212640000D01*
X229980000Y-212640000D02*
X227980000Y-212640000D01*
X227980000Y-220640000D02*
X227980000Y-219640000D01*
X227980000Y-219640000D02*
X223980000Y-219640000D01*
X227980000Y-213640000D02*
X223980000Y-213640000D01*
X227980000Y-212640000D02*
X227980000Y-213640000D01*
X223980000Y-213640000D02*
X223980000Y-219640000D01*
D11*
X72069592Y-134155076D02*
X79564924Y-141650408D01*
X76595076Y-129629592D02*
X84090408Y-137124924D01*
X154580000Y-266840000D02*
X162580000Y-266840000D01*
D12*
X157080000Y-266140000D02*
X160080000Y-266140000D01*
X160080000Y-266140000D02*
X160080000Y-260140000D01*
X157080000Y-260140000D02*
X157080000Y-266140000D01*
X160080000Y-260140000D02*
X157080000Y-260140000D01*
D11*
X154580000Y-259440000D02*
X162580000Y-259440000D01*
X177980000Y-218340000D02*
X177980000Y-216940000D01*
X212780000Y-188840000D02*
X223380000Y-188840000D01*
X212780000Y-182440000D02*
X223380000Y-182440000D01*
X182080000Y-209340000D02*
X190080000Y-209340000D01*
D12*
X184580000Y-208640000D02*
X187580000Y-208640000D01*
X187580000Y-208640000D02*
X187580000Y-202640000D01*
X184580000Y-202640000D02*
X184580000Y-208640000D01*
X187580000Y-202640000D02*
X184580000Y-202640000D01*
D11*
X182080000Y-201940000D02*
X190080000Y-201940000D01*
X212069592Y-154155076D02*
X219564924Y-161650408D01*
X216595076Y-149629592D02*
X224090408Y-157124924D01*
X223980000Y-207640000D02*
X223980000Y-210640000D01*
X222180000Y-210640000D02*
X222180000Y-207640000D01*
X211880000Y-251840000D02*
X211880000Y-248840000D01*
X213680000Y-248840000D02*
X213680000Y-251840000D01*
X95380000Y-205540000D02*
X96780000Y-205540000D01*
X72069592Y-154155076D02*
X79564924Y-161650408D01*
X76595076Y-149629592D02*
X84090408Y-157124924D01*
X222069592Y-144155076D02*
X229564924Y-151650408D01*
X226595076Y-139629592D02*
X234090408Y-147124924D01*
X82069592Y-144155076D02*
X89564924Y-151650408D01*
X86595076Y-139629592D02*
X94090408Y-147124924D01*
X229980000Y-241140000D02*
X228580000Y-241140000D01*
X108180000Y-175040000D02*
X105180000Y-175040000D01*
X105180000Y-173240000D02*
X108180000Y-173240000D01*
X211880000Y-246840000D02*
X211880000Y-243840000D01*
X213680000Y-243840000D02*
X213680000Y-246840000D01*
X211880000Y-242840000D02*
X211880000Y-239840000D01*
X213680000Y-239840000D02*
X213680000Y-242840000D01*
X212069592Y-134155076D02*
X219564924Y-141650408D01*
X216595076Y-129629592D02*
X224090408Y-137124924D01*
X59580000Y-212240000D02*
X62580000Y-212240000D01*
X62580000Y-214040000D02*
X59580000Y-214040000D01*
X221780000Y-241540000D02*
X223780000Y-241540000D01*
X171480000Y-217140000D02*
X171480000Y-220140000D01*
X169680000Y-220140000D02*
X169680000Y-217140000D01*
X188980000Y-240140000D02*
X188980000Y-243140000D01*
X187180000Y-243140000D02*
X187180000Y-240140000D01*
X182180000Y-215640000D02*
X182180000Y-216640000D01*
X185980000Y-215640000D02*
X185980000Y-216640000D01*
X90850000Y-245680000D02*
X90850000Y-244410000D01*
X89580000Y-245680000D02*
X90850000Y-245680000D01*
X209780000Y-245240000D02*
X210780000Y-245240000D01*
X209780000Y-241440000D02*
X210780000Y-241440000D01*
X192780000Y-202740000D02*
X191380000Y-202740000D01*
X94480000Y-203640000D02*
X94480000Y-206640000D01*
X92680000Y-206640000D02*
X92680000Y-203640000D01*
X214680000Y-227140000D02*
X214680000Y-224140000D01*
X216480000Y-224140000D02*
X216480000Y-227140000D01*
X108180000Y-167540000D02*
X105180000Y-167540000D01*
X105180000Y-165740000D02*
X108180000Y-165740000D01*
X62069592Y-144155076D02*
X69564924Y-151650408D01*
X66595076Y-139629592D02*
X74090408Y-147124924D01*
X219980000Y-245240000D02*
X221280000Y-245240000D01*
X221280000Y-245240000D02*
X221280000Y-243940000D01*
X189680000Y-243140000D02*
X189680000Y-240140000D01*
X191480000Y-240140000D02*
X191480000Y-243140000D01*
X98580000Y-201740000D02*
X97580000Y-201740000D01*
X98580000Y-205540000D02*
X97580000Y-205540000D01*
X150080000Y-267040000D02*
X151080000Y-267040000D01*
X150080000Y-263240000D02*
X151080000Y-263240000D01*
D12*
X155580000Y-201640000D02*
X140580000Y-201640000D01*
X155580000Y-201640000D02*
X155580000Y-207640000D01*
X140580000Y-201640000D02*
X140580000Y-207640000D01*
X141880000Y-209640000D02*
X154280000Y-209640000D01*
D11*
X202480000Y-127240000D02*
X203680000Y-127240000D01*
X59580000Y-220240000D02*
X62580000Y-220240000D01*
X62580000Y-222040000D02*
X59580000Y-222040000D01*
X224180000Y-240840000D02*
X224180000Y-239840000D01*
X220380000Y-240840000D02*
X220380000Y-239840000D01*
X224730000Y-240940000D02*
X227830000Y-240940000D01*
X224730000Y-243740000D02*
X227830000Y-243740000D01*
X168980000Y-217140000D02*
X168980000Y-220140000D01*
X167180000Y-220140000D02*
X167180000Y-217140000D01*
D13*
X146810000Y-264465000D02*
X149350000Y-264465000D01*
D11*
X183180000Y-209940000D02*
X183180000Y-211340000D01*
X206480000Y-229140000D02*
X206480000Y-232140000D01*
X204680000Y-232140000D02*
X204680000Y-229140000D01*
X204480000Y-127240000D02*
X205680000Y-127240000D01*
X186580000Y-215240000D02*
X189580000Y-215240000D01*
X189580000Y-217040000D02*
X186580000Y-217040000D01*
X181480000Y-212140000D02*
X181480000Y-215140000D01*
X179680000Y-215140000D02*
X179680000Y-212140000D01*
X155680000Y-267440000D02*
X155680000Y-268840000D01*
X82980000Y-198140000D02*
X82980000Y-201140000D01*
X81180000Y-201140000D02*
X81180000Y-198140000D01*
X222980000Y-198140000D02*
X222980000Y-201140000D01*
X221180000Y-201140000D02*
X221180000Y-198140000D01*
D13*
X195580000Y-223140000D02*
X195580000Y-221140000D01*
%LPC*%
D14*
X107680000Y-169140000D03*
X105680000Y-169140000D03*
D15*
X114080000Y-149390000D03*
X114580000Y-149390000D03*
X115080000Y-149390000D03*
X115580000Y-149390000D03*
X116080000Y-149390000D03*
X116580000Y-149390000D03*
X117080000Y-149390000D03*
X117580000Y-149390000D03*
X118080000Y-149390000D03*
X118580000Y-149390000D03*
X119080000Y-149390000D03*
X119580000Y-149390000D03*
X120080000Y-149390000D03*
X120580000Y-149390000D03*
X121080000Y-149390000D03*
X121580000Y-149390000D03*
X122080000Y-149390000D03*
X122580000Y-149390000D03*
X123080000Y-149390000D03*
X123580000Y-149390000D03*
X124080000Y-149390000D03*
X124580000Y-149390000D03*
X125080000Y-149390000D03*
X125580000Y-149390000D03*
X126080000Y-149390000D03*
X126580000Y-149390000D03*
X127080000Y-149390000D03*
X127580000Y-149390000D03*
X128080000Y-149390000D03*
X128580000Y-149390000D03*
X129080000Y-149390000D03*
X129580000Y-149390000D03*
X130080000Y-149390000D03*
X130580000Y-149390000D03*
X131080000Y-149390000D03*
X131580000Y-149390000D03*
X132080000Y-149390000D03*
X132580000Y-149390000D03*
X133080000Y-149390000D03*
X133580000Y-149390000D03*
D16*
X103580000Y-160390000D03*
X104080000Y-160390000D03*
X104580000Y-160390000D03*
X105080000Y-160390000D03*
X105580000Y-160390000D03*
X106080000Y-160390000D03*
D17*
X101830000Y-162715000D03*
X107830000Y-162715000D03*
D18*
X112730000Y-152490000D03*
X134930000Y-152490000D03*
D19*
X76310000Y-205640000D03*
X76310000Y-208180000D03*
X76310000Y-210720000D03*
X76310000Y-213260000D03*
X76310000Y-215800000D03*
X76310000Y-218340000D03*
X76310000Y-220880000D03*
X76310000Y-223420000D03*
X76310000Y-225960000D03*
X76310000Y-228500000D03*
X76310000Y-231040000D03*
X76310000Y-233580000D03*
X76310000Y-236120000D03*
X76310000Y-238660000D03*
X76310000Y-241200000D03*
X76310000Y-243740000D03*
X76310000Y-246280000D03*
X76310000Y-248820000D03*
X76310000Y-251360000D03*
X76310000Y-253900000D03*
X78850000Y-253900000D03*
X78850000Y-251360000D03*
X78850000Y-248820000D03*
X78850000Y-246280000D03*
X78850000Y-243740000D03*
X78850000Y-241200000D03*
X78850000Y-238660000D03*
X78850000Y-236120000D03*
X78850000Y-233580000D03*
X78850000Y-231040000D03*
X78850000Y-228500000D03*
X78850000Y-225960000D03*
X78850000Y-223420000D03*
X78850000Y-220880000D03*
X78850000Y-218340000D03*
X78850000Y-215800000D03*
X78850000Y-213260000D03*
X78850000Y-210720000D03*
X78850000Y-208180000D03*
X78850000Y-205640000D03*
D14*
X107680000Y-171640000D03*
X105680000Y-171640000D03*
X155580000Y-212640000D03*
X155580000Y-214640000D03*
D20*
X78080000Y-200140000D03*
X78080000Y-198340000D03*
D21*
X79880000Y-199965000D03*
X76280000Y-199965000D03*
X79880000Y-198515000D03*
X76280000Y-198515000D03*
D22*
X209706346Y-150448326D03*
X203271674Y-144013654D03*
X212888326Y-147266346D03*
X206453654Y-140831674D03*
D23*
X208080000Y-229640000D03*
X210080000Y-230590000D03*
X210080000Y-228690000D03*
D24*
X222630000Y-177890000D03*
X213530000Y-177890000D03*
X222630000Y-173390000D03*
X213530000Y-173390000D03*
D25*
X164580000Y-261440000D03*
X164580000Y-264840000D03*
D26*
X169780000Y-211640000D03*
X164380000Y-211640000D03*
D14*
X219280000Y-240340000D03*
X217280000Y-240340000D03*
D27*
X175715000Y-215140000D03*
X174445000Y-216140000D03*
X174445000Y-215640000D03*
X175715000Y-215640000D03*
X174445000Y-215140000D03*
X175715000Y-216140000D03*
D14*
X207080000Y-130140000D03*
X207080000Y-128140000D03*
D28*
X219980000Y-246340000D03*
X216580000Y-246340000D03*
D29*
X221580000Y-222140000D03*
X217580000Y-222140000D03*
D30*
X160780000Y-211640000D03*
X158580000Y-211640000D03*
D14*
X152580000Y-266140000D03*
X152580000Y-264140000D03*
D24*
X178080000Y-214840000D03*
X178080000Y-210440000D03*
D31*
X231980000Y-222140000D03*
X225780000Y-222140000D03*
X231980000Y-211140000D03*
X225780000Y-211140000D03*
D22*
X79706346Y-140448326D03*
X73271674Y-134013654D03*
X82888326Y-137266346D03*
X76453654Y-130831674D03*
D32*
X161730000Y-265440000D03*
X161730000Y-263140000D03*
X161730000Y-260840000D03*
D33*
X155430000Y-263140000D03*
D28*
X176780000Y-217640000D03*
X173380000Y-217640000D03*
D24*
X222630000Y-187890000D03*
X213530000Y-187890000D03*
X222630000Y-183390000D03*
X213530000Y-183390000D03*
D32*
X189230000Y-207940000D03*
X189230000Y-205640000D03*
X189230000Y-203340000D03*
D33*
X182930000Y-205640000D03*
D22*
X219706346Y-160448326D03*
X213271674Y-154013654D03*
X222888326Y-157266346D03*
X216453654Y-150831674D03*
D14*
X223080000Y-208140000D03*
X223080000Y-210140000D03*
X212780000Y-251340000D03*
X212780000Y-249340000D03*
D25*
X96080000Y-204340000D03*
X96080000Y-200940000D03*
D20*
X61580000Y-225140000D03*
X59780000Y-225140000D03*
D34*
X61405000Y-223340000D03*
X61405000Y-226940000D03*
X59955000Y-223340000D03*
X59955000Y-226940000D03*
D22*
X79706346Y-160448326D03*
X73271674Y-154013654D03*
X82888326Y-157266346D03*
X76453654Y-150831674D03*
X229706346Y-150448326D03*
X223271674Y-144013654D03*
X232888326Y-147266346D03*
X226453654Y-140831674D03*
D35*
X213580000Y-228640000D03*
X212630000Y-230640000D03*
X214530000Y-230640000D03*
D22*
X89706346Y-150448326D03*
X83271674Y-144013654D03*
X92888326Y-147266346D03*
X86453654Y-140831674D03*
D25*
X229280000Y-242340000D03*
X229280000Y-245740000D03*
D14*
X107680000Y-174140000D03*
X105680000Y-174140000D03*
X212780000Y-246340000D03*
X212780000Y-244340000D03*
X212780000Y-242340000D03*
X212780000Y-240340000D03*
D22*
X219706346Y-140448326D03*
X213271674Y-134013654D03*
X222888326Y-137266346D03*
X216453654Y-130831674D03*
D14*
X60080000Y-213140000D03*
X62080000Y-213140000D03*
D24*
X222780000Y-247040000D03*
X222780000Y-242640000D03*
D14*
X170580000Y-217640000D03*
X170580000Y-219640000D03*
X188080000Y-240640000D03*
X188080000Y-242640000D03*
X183080000Y-216140000D03*
X185080000Y-216140000D03*
D36*
X89580000Y-244410000D03*
X89580000Y-241870000D03*
X89580000Y-239330000D03*
X89580000Y-236790000D03*
X89580000Y-234250000D03*
X89580000Y-231710000D03*
X89580000Y-229170000D03*
X89580000Y-226630000D03*
X89580000Y-224090000D03*
X89580000Y-221550000D03*
X87040000Y-221550000D03*
X87040000Y-224090000D03*
X87040000Y-226630000D03*
X87040000Y-229170000D03*
X87040000Y-231710000D03*
X87040000Y-234250000D03*
X87040000Y-236790000D03*
X87040000Y-239330000D03*
X87040000Y-241870000D03*
X87040000Y-244410000D03*
D14*
X210280000Y-244340000D03*
X210280000Y-242340000D03*
D25*
X192080000Y-203940000D03*
X192080000Y-207340000D03*
D14*
X93580000Y-204140000D03*
X93580000Y-206140000D03*
X215580000Y-226640000D03*
X215580000Y-224640000D03*
D23*
X211580000Y-225640000D03*
X213580000Y-226590000D03*
X213580000Y-224690000D03*
D14*
X107680000Y-166640000D03*
X105680000Y-166640000D03*
D22*
X69706346Y-150448326D03*
X63271674Y-144013654D03*
X72888326Y-147266346D03*
X66453654Y-140831674D03*
D37*
X219930000Y-244290000D03*
X219930000Y-243340000D03*
X219930000Y-242390000D03*
X216630000Y-242390000D03*
X216630000Y-243340000D03*
X216630000Y-244290000D03*
D14*
X190580000Y-242640000D03*
X190580000Y-240640000D03*
X98080000Y-202640000D03*
X98080000Y-204640000D03*
X150580000Y-266140000D03*
X150580000Y-264140000D03*
D38*
X155530000Y-209640000D03*
X140630000Y-209640000D03*
D14*
X203080000Y-130140000D03*
X203080000Y-128140000D03*
D20*
X218080000Y-200140000D03*
X218080000Y-198340000D03*
D21*
X219880000Y-199965000D03*
X216280000Y-199965000D03*
X219880000Y-198515000D03*
X216280000Y-198515000D03*
D20*
X201580000Y-200140000D03*
X201580000Y-198340000D03*
D21*
X203380000Y-199965000D03*
X199780000Y-199965000D03*
X203380000Y-198515000D03*
X199780000Y-198515000D03*
D14*
X60080000Y-221140000D03*
X62080000Y-221140000D03*
X223280000Y-240340000D03*
X221280000Y-240340000D03*
D20*
X61580000Y-217140000D03*
X59780000Y-217140000D03*
D34*
X61405000Y-215340000D03*
X61405000Y-218940000D03*
X59955000Y-215340000D03*
X59955000Y-218940000D03*
D39*
X225080000Y-242340000D03*
X227480000Y-242340000D03*
D14*
X168080000Y-217640000D03*
X168080000Y-219640000D03*
D40*
X147180000Y-265566000D03*
X147180000Y-266388000D03*
D41*
X148080000Y-267640000D03*
D40*
X148980000Y-266388000D03*
X148980000Y-265566000D03*
X148080000Y-265566000D03*
D28*
X184380000Y-210640000D03*
X187780000Y-210640000D03*
D14*
X205580000Y-229640000D03*
X205580000Y-231640000D03*
D42*
X100580000Y-204640000D03*
X100580000Y-206140000D03*
X100580000Y-207640000D03*
X100580000Y-209140000D03*
X100580000Y-210640000D03*
X100580000Y-212140000D03*
X100580000Y-213640000D03*
X100580000Y-215140000D03*
X100580000Y-216640000D03*
X118580000Y-216640000D03*
X118580000Y-215140000D03*
X118580000Y-213640000D03*
X118580000Y-212140000D03*
X118580000Y-210640000D03*
X118580000Y-209140000D03*
X118580000Y-207640000D03*
X118580000Y-206140000D03*
X118580000Y-204640000D03*
D43*
X109480000Y-209740000D03*
X109480000Y-210840000D03*
X109480000Y-211940000D03*
X110580000Y-209740000D03*
X110580000Y-210840000D03*
X110580000Y-211940000D03*
X111680000Y-209740000D03*
X111680000Y-210840000D03*
X111680000Y-211940000D03*
D14*
X205080000Y-130140000D03*
X205080000Y-128140000D03*
X187080000Y-216140000D03*
X189080000Y-216140000D03*
X180580000Y-212640000D03*
X180580000Y-214640000D03*
D28*
X156880000Y-268140000D03*
X160280000Y-268140000D03*
D14*
X82080000Y-198640000D03*
X82080000Y-200640000D03*
X222080000Y-198640000D03*
X222080000Y-200640000D03*
D44*
X232280000Y-242340000D03*
D29*
X189580000Y-222140000D03*
X193580000Y-222140000D03*
D45*
X175680000Y-263140000D03*
D46*
X175680000Y-245640000D03*
X120480000Y-245640000D03*
X120480000Y-228140000D03*
D47*
X75880000Y-191640000D03*
X80280000Y-191640000D03*
%LPD*%
M02*
