M48
; DRILL file {KiCad 7.0.8} date Wed Nov  1 09:31:09 2023
; FORMAT={-:-/ absolute / metric / decimal}
; #@! TF.CreationDate,2023-11-01T09:31:09+09:00
; #@! TF.GenerationSoftware,Kicad,Pcbnew,7.0.8
; #@! TF.FileFunction,Plated,1,2,PTH
FMAT,2
METRIC
; #@! TA.AperFunction,Plated,PTH,ViaDrill
T1C0.200
; #@! TA.AperFunction,Plated,PTH,ViaDrill
T2C0.500
; #@! TA.AperFunction,Plated,PTH,ViaDrill
T3C0.800
; #@! TA.AperFunction,Plated,PTH,ComponentDrill
T4C1.024
; #@! TA.AperFunction,Plated,PTH,ComponentDrill
T5C1.200
; #@! TA.AperFunction,Plated,PTH,ViaDrill
T6C1.300
; #@! TA.AperFunction,Plated,PTH,ComponentDrill
T7C1.500
%
G90
G05
T1
X60.58Y-128.14
X60.58Y-130.64
X60.58Y-133.14
X60.58Y-135.64
X60.58Y-138.14
X60.58Y-140.64
X60.58Y-143.14
X60.58Y-145.64
X60.58Y-148.14
X60.58Y-150.64
X60.58Y-153.14
X60.58Y-155.64
X60.58Y-158.14
X60.58Y-160.64
X60.58Y-163.14
X60.58Y-165.64
X60.58Y-168.14
X60.58Y-170.64
X60.58Y-173.14
X60.58Y-175.64
X60.58Y-178.14
X60.58Y-180.64
X60.58Y-183.14
X60.58Y-185.64
X60.58Y-188.14
X60.58Y-190.64
X60.58Y-193.14
X60.58Y-200.64
X60.58Y-203.14
X60.58Y-205.64
X60.58Y-208.14
X60.58Y-210.64
X60.58Y-228.14
X60.58Y-230.64
X60.58Y-233.14
X60.58Y-235.64
X60.58Y-238.14
X60.58Y-240.64
X60.58Y-243.14
X60.58Y-245.64
X60.58Y-248.14
X60.58Y-250.64
X60.58Y-253.14
X60.58Y-255.64
X60.58Y-258.14
X60.58Y-258.14
X60.58Y-260.64
X60.58Y-263.14
X60.58Y-265.64
X62.08Y-213.14
X62.08Y-221.24
X63.08Y-125.64
X63.08Y-128.14
X63.08Y-133.14
X63.08Y-135.64
X63.08Y-138.14
X63.08Y-140.64
X63.08Y-145.64
X63.08Y-148.14
X63.08Y-150.64
X63.08Y-153.14
X63.08Y-155.64
X63.08Y-158.14
X63.08Y-158.14
X63.08Y-160.64
X63.08Y-163.14
X63.08Y-163.14
X63.08Y-165.64
X63.08Y-168.14
X63.08Y-170.64
X63.08Y-173.14
X63.08Y-175.64
X63.08Y-178.14
X63.08Y-180.64
X63.08Y-183.14
X63.08Y-185.64
X63.08Y-188.14
X63.08Y-193.14
X63.08Y-195.64
X63.08Y-203.14
X63.08Y-205.64
X63.08Y-208.14
X63.08Y-215.64
X63.08Y-218.14
X63.08Y-228.14
X63.08Y-230.64
X63.08Y-233.14
X63.08Y-233.14
X63.08Y-235.64
X63.08Y-238.14
X63.08Y-240.64
X63.08Y-243.14
X63.08Y-243.14
X63.08Y-245.64
X63.08Y-245.64
X63.08Y-248.14
X63.08Y-250.64
X63.08Y-253.14
X63.08Y-255.64
X63.08Y-258.14
X63.08Y-260.64
X63.08Y-263.14
X63.08Y-265.64
X63.08Y-268.14
X63.68Y-211.64
X63.88Y-220.64
X65.58Y-125.64
X65.58Y-128.14
X65.58Y-133.14
X65.58Y-135.64
X65.58Y-138.14
X65.58Y-143.14
X65.58Y-145.64
X65.58Y-148.14
X65.58Y-150.64
X65.58Y-153.14
X65.58Y-155.64
X65.58Y-155.64
X65.58Y-158.14
X65.58Y-160.64
X65.58Y-163.14
X65.58Y-165.64
X65.58Y-168.14
X65.58Y-170.64
X65.58Y-173.14
X65.58Y-175.64
X65.58Y-178.14
X65.58Y-180.64
X65.58Y-183.14
X65.58Y-185.64
X65.58Y-188.14
X65.58Y-193.14
X65.58Y-195.64
X65.58Y-200.64
X65.58Y-205.64
X65.58Y-213.14
X65.58Y-228.14
X65.58Y-230.64
X65.58Y-233.14
X65.58Y-235.64
X65.58Y-238.14
X65.58Y-240.64
X65.58Y-243.14
X65.58Y-245.64
X65.58Y-250.64
X65.58Y-253.14
X65.58Y-255.64
X65.58Y-258.14
X65.58Y-260.64
X65.58Y-268.14
X68.08Y-125.64
X68.08Y-128.14
X68.08Y-130.64
X68.08Y-133.14
X68.08Y-135.64
X68.08Y-138.14
X68.08Y-140.64
X68.08Y-143.14
X68.08Y-145.64
X68.08Y-148.14
X68.08Y-150.64
X68.08Y-153.14
X68.08Y-155.64
X68.08Y-158.14
X68.08Y-160.64
X68.08Y-163.14
X68.08Y-165.64
X68.08Y-168.14
X68.08Y-170.64
X68.08Y-173.14
X68.08Y-175.64
X68.08Y-178.14
X68.08Y-180.64
X68.08Y-183.14
X68.08Y-183.14
X68.08Y-185.64
X68.08Y-188.14
X68.08Y-190.64
X68.08Y-193.14
X68.08Y-195.64
X68.08Y-200.64
X68.08Y-203.14
X68.08Y-205.64
X68.08Y-218.14
X68.08Y-220.64
X68.08Y-223.14
X68.08Y-225.64
X68.08Y-228.14
X68.08Y-230.64
X68.08Y-233.14
X68.08Y-235.64
X68.08Y-238.14
X68.08Y-240.64
X68.08Y-243.14
X68.08Y-245.64
X68.08Y-263.14
X68.08Y-265.64
X68.08Y-268.14
X68.28Y-246.44
X68.88Y-243.84
X69.48Y-241.24
X70.58Y-125.64
X70.58Y-128.14
X70.58Y-130.64
X70.58Y-133.14
X70.58Y-135.64
X70.58Y-138.14
X70.58Y-185.64
X70.58Y-188.14
X70.58Y-190.64
X70.58Y-193.14
X70.58Y-193.14
X70.58Y-195.64
X70.58Y-200.64
X70.58Y-205.64
X70.58Y-208.14
X70.58Y-210.64
X70.58Y-215.64
X70.58Y-218.14
X70.58Y-265.64
X70.58Y-268.14
X71.28Y-238.64
X71.88Y-236.24
X72.48Y-233.64
X73.08Y-125.64
X73.08Y-128.14
X73.08Y-130.64
X73.08Y-200.64
X73.08Y-205.64
X73.08Y-208.14
X73.08Y-210.64
X73.08Y-215.64
X73.08Y-218.14
X73.08Y-225.64
X73.08Y-228.14
X73.08Y-231.04
X73.08Y-263.14
X73.08Y-265.64
X73.08Y-268.14
X73.68Y-228.64
X75.58Y-125.64
X75.58Y-128.14
X75.58Y-188.14
X75.58Y-190.64
X75.58Y-193.14
X75.58Y-195.64
X75.58Y-263.14
X75.58Y-265.64
X75.58Y-268.14
X78.08Y-125.64
X78.08Y-193.14
X78.08Y-195.64
X78.08Y-263.14
X78.08Y-265.64
X78.08Y-268.14
X78.88Y-257.24
X80.58Y-125.64
X80.58Y-130.64
X80.58Y-190.64
X80.58Y-195.64
X80.58Y-205.64
X80.58Y-235.64
X80.58Y-238.14
X80.58Y-240.64
X80.58Y-243.14
X80.58Y-245.64
X80.58Y-268.14
X80.68Y-184.64
X80.68Y-186.64
X80.68Y-255.44
X81.28Y-255.44
X81.88Y-255.44
X82.08Y-200.64
X83.08Y-125.64
X83.08Y-130.64
X83.08Y-133.14
X83.08Y-135.64
X83.08Y-145.64
X83.08Y-148.14
X83.08Y-238.14
X83.08Y-240.64
X83.08Y-243.14
X83.08Y-245.64
X83.08Y-253.14
X83.08Y-263.14
X83.08Y-268.14
X83.28Y-164.44
X83.88Y-161.84
X84.48Y-159.24
X84.88Y-136.44
X85.08Y-156.84
X85.58Y-125.64
X85.58Y-143.14
X85.58Y-145.64
X85.58Y-190.64
X85.58Y-193.14
X85.58Y-195.64
X85.58Y-203.14
X85.58Y-205.64
X85.58Y-213.14
X85.58Y-215.64
X85.58Y-218.14
X85.58Y-220.64
X85.58Y-223.14
X85.58Y-225.64
X85.58Y-228.14
X85.58Y-263.14
X85.58Y-268.14
X85.68Y-146.64
X86.28Y-152.84
X86.88Y-160.44
X87.48Y-179.64
X88.08Y-125.64
X88.08Y-138.14
X88.08Y-140.64
X88.08Y-143.14
X88.08Y-145.64
X88.08Y-160.64
X88.08Y-177.04
X88.08Y-190.64
X88.08Y-193.14
X88.08Y-195.64
X88.08Y-203.14
X88.08Y-205.64
X88.08Y-213.14
X88.08Y-215.64
X88.08Y-218.14
X88.08Y-263.14
X88.08Y-268.14
X88.48Y-151.64
X88.68Y-154.24
X89.88Y-174.64
X90.28Y-126.44
X90.48Y-171.84
X90.58Y-125.64
X90.58Y-138.14
X90.58Y-140.64
X90.58Y-143.14
X90.58Y-153.14
X90.58Y-160.64
X90.58Y-190.64
X90.58Y-193.14
X90.58Y-195.64
X90.58Y-203.14
X90.58Y-205.64
X90.58Y-213.14
X90.58Y-215.64
X90.58Y-218.14
X90.58Y-263.14
X90.58Y-268.14
X91.08Y-148.44
X91.08Y-173.24
X91.58Y-127.14
X91.58Y-130.14
X91.58Y-133.14
X91.68Y-168.24
X92.28Y-170.84
X93.08Y-125.64
X93.08Y-138.14
X93.08Y-140.64
X93.08Y-145.24
X93.08Y-190.64
X93.08Y-193.14
X93.08Y-195.64
X93.08Y-213.14
X93.08Y-263.14
X93.08Y-268.14
X93.28Y-211.44
X93.48Y-144.84
X93.48Y-145.64
X93.88Y-144.44
X93.88Y-145.24
X93.88Y-146.04
X93.88Y-169.44
X93.88Y-177.64
X94.48Y-180.24
X94.88Y-127.04
X95.08Y-175.64
X95.58Y-125.64
X95.58Y-138.14
X95.58Y-195.64
X95.58Y-213.14
X95.58Y-215.64
X95.58Y-218.14
X95.58Y-263.14
X95.58Y-268.14
X95.68Y-178.24
X96.28Y-167.04
X96.88Y-158.04
X97.48Y-163.04
X98.08Y-125.64
X98.08Y-155.44
X98.08Y-158.14
X98.08Y-160.64
X98.08Y-163.14
X98.08Y-200.64
X98.08Y-210.24
X98.08Y-213.14
X98.08Y-215.64
X98.08Y-218.14
X98.08Y-223.14
X98.08Y-225.64
X98.08Y-228.14
X98.08Y-230.64
X98.08Y-233.14
X98.08Y-235.64
X98.08Y-238.14
X98.08Y-240.64
X98.08Y-243.14
X98.08Y-245.64
X98.08Y-253.14
X98.08Y-255.64
X98.08Y-258.14
X98.08Y-268.14
X98.28Y-190.64
X98.68Y-165.64
X98.68Y-209.64
X99.28Y-150.44
X99.28Y-177.04
X99.88Y-149.04
X99.88Y-177.64
X100.58Y-125.64
X100.58Y-190.64
X100.58Y-218.14
X100.58Y-223.14
X100.58Y-225.64
X100.58Y-228.14
X100.58Y-230.64
X100.58Y-233.14
X100.58Y-235.64
X100.58Y-235.64
X100.58Y-238.14
X100.58Y-240.64
X100.58Y-243.14
X100.58Y-245.64
X100.58Y-253.14
X100.58Y-255.64
X100.58Y-258.14
X100.58Y-263.14
X100.58Y-268.14
X102.28Y-142.24
X102.28Y-208.44
X102.48Y-177.64
X103.08Y-125.64
X103.08Y-133.14
X103.08Y-135.64
X103.08Y-170.64
X103.08Y-173.14
X103.08Y-175.64
X103.08Y-190.64
X103.08Y-205.64
X103.08Y-213.14
X103.08Y-215.64
X103.08Y-218.14
X103.08Y-223.14
X103.08Y-225.64
X103.08Y-228.14
X103.08Y-230.64
X103.08Y-263.14
X103.08Y-263.14
X103.08Y-268.14
X105.48Y-177.04
X105.58Y-125.64
X105.58Y-128.14
X105.58Y-133.14
X105.58Y-135.64
X105.58Y-175.64
X105.58Y-190.64
X105.58Y-205.64
X105.58Y-213.14
X105.58Y-215.64
X105.58Y-218.14
X105.58Y-223.14
X105.58Y-225.64
X105.58Y-228.14
X105.58Y-228.14
X105.58Y-230.64
X105.58Y-263.14
X105.58Y-268.14
X105.68Y-170.44
X106.48Y-181.04
X106.68Y-171.64
X106.68Y-174.24
X107.08Y-181.64
X107.68Y-182.24
X107.88Y-165.04
X108.08Y-125.64
X108.08Y-128.14
X108.08Y-133.14
X108.08Y-135.64
X108.08Y-149.64
X108.08Y-155.64
X108.08Y-158.14
X108.08Y-205.64
X108.08Y-205.64
X108.08Y-213.14
X108.08Y-215.64
X108.08Y-218.14
X108.08Y-223.14
X108.08Y-225.64
X108.08Y-228.14
X108.08Y-230.64
X108.08Y-263.14
X108.08Y-268.14
X108.28Y-175.64
X108.88Y-165.24
X109.48Y-164.44
X109.68Y-148.04
X110.08Y-163.64
X110.58Y-125.64
X110.58Y-128.14
X110.58Y-133.14
X110.58Y-135.64
X110.58Y-153.14
X110.58Y-155.64
X110.58Y-158.14
X110.58Y-160.64
X110.58Y-205.64
X110.58Y-213.14
X110.58Y-215.64
X110.58Y-218.14
X110.58Y-223.14
X110.58Y-225.64
X110.58Y-228.14
X110.58Y-230.64
X110.58Y-263.14
X110.58Y-268.14
X110.58Y-268.14
X110.68Y-162.84
X111.28Y-160.44
X111.88Y-159.64
X112.48Y-155.64
X113.08Y-125.64
X113.08Y-128.14
X113.08Y-133.14
X113.08Y-135.64
X113.08Y-155.04
X113.08Y-205.64
X113.08Y-213.14
X113.08Y-215.64
X113.08Y-218.14
X113.08Y-223.14
X113.08Y-225.64
X113.08Y-225.64
X113.08Y-228.14
X113.08Y-230.64
X113.08Y-233.14
X113.08Y-235.64
X113.08Y-238.14
X113.08Y-240.64
X113.08Y-243.14
X113.08Y-245.64
X113.08Y-253.14
X113.08Y-255.64
X113.08Y-258.14
X113.08Y-263.14
X113.08Y-268.14
X113.68Y-154.44
X114.08Y-213.64
X114.28Y-153.84
X114.88Y-151.04
X115.48Y-150.24
X115.58Y-125.64
X115.58Y-128.14
X115.58Y-133.14
X115.58Y-135.64
X115.58Y-205.64
X115.58Y-223.14
X115.58Y-225.64
X115.58Y-228.14
X115.58Y-230.64
X115.58Y-233.14
X115.58Y-235.64
X115.58Y-238.14
X115.58Y-240.64
X115.58Y-243.14
X115.58Y-245.64
X115.58Y-260.64
X115.58Y-263.14
X115.58Y-268.14
X116.08Y-207.84
X116.68Y-210.84
X116.88Y-207.64
X116.88Y-213.64
X118.08Y-125.64
X118.08Y-128.14
X118.08Y-130.64
X118.08Y-133.14
X118.08Y-135.64
X118.08Y-148.14
X118.08Y-148.14
X118.08Y-223.14
X118.08Y-225.64
X118.08Y-228.14
X118.08Y-230.64
X118.08Y-230.64
X118.08Y-233.14
X118.08Y-235.64
X118.08Y-238.14
X118.08Y-240.64
X118.08Y-243.14
X118.08Y-245.64
X118.08Y-253.14
X118.08Y-255.64
X118.08Y-260.64
X118.08Y-263.14
X118.08Y-268.14
X120.58Y-125.64
X120.58Y-128.14
X120.58Y-130.64
X120.58Y-133.14
X120.58Y-135.64
X120.58Y-148.14
X120.58Y-200.64
X120.58Y-203.14
X120.58Y-205.64
X120.58Y-205.64
X120.58Y-208.14
X120.58Y-210.64
X120.58Y-213.14
X120.58Y-223.14
X120.58Y-225.64
X120.58Y-230.64
X120.58Y-233.14
X120.58Y-235.64
X120.58Y-238.14
X120.58Y-240.64
X120.58Y-243.14
X120.58Y-253.14
X120.58Y-255.64
X120.58Y-260.64
X120.58Y-263.14
X120.58Y-268.14
X123.08Y-125.64
X123.08Y-128.14
X123.08Y-130.64
X123.08Y-133.14
X123.08Y-135.64
X123.08Y-148.14
X123.08Y-200.64
X123.08Y-203.14
X123.08Y-205.64
X123.08Y-208.14
X123.08Y-210.64
X123.08Y-213.14
X123.08Y-215.64
X123.08Y-218.14
X123.08Y-223.14
X123.08Y-225.64
X123.08Y-228.14
X123.08Y-230.64
X123.08Y-233.14
X123.08Y-235.64
X123.08Y-238.14
X123.08Y-240.64
X123.08Y-243.14
X123.08Y-243.14
X123.08Y-245.64
X123.08Y-253.14
X123.08Y-255.64
X123.08Y-260.64
X123.08Y-263.14
X123.08Y-268.14
X125.58Y-125.64
X125.58Y-128.14
X125.58Y-130.64
X125.58Y-133.14
X125.58Y-135.64
X125.58Y-148.14
X125.58Y-200.64
X125.58Y-203.14
X125.58Y-205.64
X125.58Y-208.14
X125.58Y-210.64
X125.58Y-213.14
X125.58Y-215.64
X125.58Y-218.14
X125.58Y-223.14
X125.58Y-225.64
X125.58Y-228.14
X125.58Y-230.64
X125.58Y-233.14
X125.58Y-235.64
X125.58Y-238.14
X125.58Y-240.64
X125.58Y-243.14
X125.58Y-245.64
X125.58Y-253.14
X125.58Y-255.64
X125.58Y-260.64
X125.58Y-263.14
X125.58Y-268.14
X127.48Y-183.64
X127.48Y-184.24
X127.48Y-184.84
X128.08Y-125.64
X128.08Y-128.14
X128.08Y-130.64
X128.08Y-133.14
X128.08Y-135.64
X128.08Y-148.14
X128.08Y-183.64
X128.08Y-184.24
X128.08Y-184.84
X128.08Y-200.64
X128.08Y-203.14
X128.08Y-205.64
X128.08Y-208.14
X128.08Y-210.64
X128.08Y-213.14
X128.08Y-215.64
X128.08Y-218.14
X128.08Y-223.14
X128.08Y-225.64
X128.08Y-228.14
X128.08Y-230.64
X128.08Y-233.14
X128.08Y-235.64
X128.08Y-238.14
X128.08Y-240.64
X128.08Y-243.14
X128.08Y-245.64
X128.08Y-253.14
X128.08Y-255.64
X128.08Y-260.64
X128.08Y-263.14
X128.08Y-268.14
X128.28Y-173.24
X128.68Y-183.64
X128.68Y-184.24
X128.68Y-184.84
X130.58Y-125.64
X130.58Y-128.14
X130.58Y-130.64
X130.58Y-130.64
X130.58Y-133.14
X130.58Y-135.64
X130.58Y-200.64
X130.58Y-203.14
X130.58Y-205.64
X130.58Y-208.14
X130.58Y-210.64
X130.58Y-213.14
X130.58Y-215.64
X130.58Y-218.14
X130.58Y-223.14
X130.58Y-225.64
X130.58Y-228.14
X130.58Y-230.64
X130.58Y-233.14
X130.58Y-233.14
X130.58Y-235.64
X130.58Y-238.14
X130.58Y-240.64
X130.58Y-243.14
X130.58Y-245.64
X130.58Y-253.14
X130.58Y-255.64
X130.58Y-260.64
X130.58Y-263.14
X130.58Y-268.14
X131.68Y-174.44
X132.88Y-175.04
X133.08Y-125.64
X133.08Y-128.14
X133.08Y-133.14
X133.08Y-135.64
X133.08Y-150.64
X133.08Y-153.14
X133.08Y-155.64
X133.08Y-158.14
X133.08Y-160.64
X133.08Y-163.14
X133.08Y-165.64
X133.08Y-168.14
X133.08Y-200.64
X133.08Y-203.14
X133.08Y-205.64
X133.08Y-208.14
X133.08Y-210.64
X133.08Y-213.14
X133.08Y-215.64
X133.08Y-215.64
X133.08Y-218.14
X133.08Y-223.14
X133.08Y-225.64
X133.08Y-228.14
X133.08Y-228.14
X133.08Y-230.64
X133.08Y-233.14
X133.08Y-235.64
X133.08Y-238.14
X133.08Y-240.64
X133.08Y-243.14
X133.08Y-245.64
X133.08Y-253.14
X133.08Y-255.64
X133.08Y-260.64
X133.08Y-263.14
X133.08Y-268.14
X133.48Y-175.64
X134.08Y-176.24
X134.68Y-145.24
X135.58Y-125.64
X135.58Y-128.14
X135.58Y-133.14
X135.58Y-135.64
X135.58Y-150.64
X135.58Y-155.64
X135.58Y-158.14
X135.58Y-160.64
X135.58Y-163.14
X135.58Y-165.64
X135.58Y-168.14
X135.58Y-200.64
X135.58Y-203.14
X135.58Y-205.64
X135.58Y-208.14
X135.58Y-210.64
X135.58Y-213.14
X135.58Y-215.64
X135.58Y-215.64
X135.58Y-218.14
X135.58Y-218.14
X135.58Y-223.14
X135.58Y-225.64
X135.58Y-228.14
X135.58Y-230.64
X135.58Y-233.14
X135.58Y-235.64
X135.58Y-238.14
X135.58Y-240.64
X135.58Y-243.14
X135.58Y-245.64
X135.58Y-253.14
X135.58Y-255.64
X135.58Y-260.64
X135.58Y-263.14
X135.58Y-268.14
X135.88Y-178.64
X136.08Y-144.64
X136.48Y-179.84
X136.88Y-144.04
X137.28Y-189.44
X137.68Y-143.44
X138.08Y-125.64
X138.08Y-128.14
X138.08Y-128.14
X138.08Y-133.14
X138.08Y-135.64
X138.08Y-150.64
X138.08Y-153.14
X138.08Y-155.64
X138.08Y-158.14
X138.08Y-160.64
X138.08Y-163.14
X138.08Y-165.64
X138.08Y-168.14
X138.08Y-175.64
X138.08Y-200.64
X138.08Y-203.14
X138.08Y-205.64
X138.08Y-208.14
X138.08Y-210.64
X138.08Y-213.14
X138.08Y-215.64
X138.08Y-215.64
X138.08Y-218.14
X138.08Y-223.14
X138.08Y-223.14
X138.08Y-225.64
X138.08Y-228.14
X138.08Y-230.64
X138.08Y-233.14
X138.08Y-235.64
X138.08Y-238.14
X138.08Y-240.64
X138.08Y-243.14
X138.08Y-245.64
X138.08Y-253.14
X138.08Y-255.64
X138.08Y-255.64
X138.08Y-260.64
X138.08Y-263.14
X138.08Y-268.14
X138.28Y-138.64
X138.68Y-145.24
X138.88Y-188.24
X139.68Y-181.64
X140.48Y-190.04
X140.58Y-125.64
X140.58Y-128.14
X140.58Y-133.14
X140.58Y-135.64
X140.58Y-150.64
X140.58Y-153.14
X140.58Y-155.64
X140.58Y-158.14
X140.58Y-160.64
X140.58Y-163.14
X140.58Y-165.64
X140.58Y-175.64
X140.58Y-200.64
X140.58Y-203.14
X140.58Y-205.64
X140.58Y-213.14
X140.58Y-215.64
X140.58Y-218.14
X140.58Y-218.14
X140.58Y-223.14
X140.58Y-225.64
X140.58Y-225.64
X140.58Y-228.14
X140.58Y-230.64
X140.58Y-230.64
X140.58Y-233.14
X140.58Y-235.64
X140.58Y-238.14
X140.58Y-240.64
X140.58Y-243.14
X140.58Y-245.64
X140.58Y-253.14
X140.58Y-255.64
X140.58Y-260.64
X140.58Y-263.14
X140.58Y-268.14
X141.48Y-145.24
X142.08Y-149.04
X142.08Y-181.04
X142.68Y-150.24
X142.88Y-180.44
X143.08Y-125.64
X143.08Y-128.14
X143.08Y-133.14
X143.08Y-135.64
X143.08Y-138.14
X143.08Y-153.14
X143.08Y-155.64
X143.08Y-158.14
X143.08Y-160.64
X143.08Y-175.64
X143.08Y-188.14
X143.08Y-190.64
X143.08Y-200.64
X143.08Y-203.14
X143.08Y-205.64
X143.08Y-208.14
X143.08Y-210.64
X143.08Y-213.14
X143.08Y-215.64
X143.08Y-218.14
X143.08Y-223.14
X143.08Y-225.64
X143.08Y-225.64
X143.08Y-228.14
X143.08Y-230.64
X143.08Y-233.14
X143.08Y-235.64
X143.08Y-238.14
X143.08Y-240.64
X143.08Y-243.14
X143.08Y-245.64
X143.08Y-253.14
X143.08Y-255.64
X143.08Y-260.64
X143.08Y-263.14
X143.08Y-268.14
X143.28Y-150.84
X143.68Y-159.44
X143.68Y-179.24
X143.88Y-151.44
X144.08Y-135.24
X144.28Y-158.84
X144.48Y-152.04
X144.48Y-182.84
X144.88Y-161.24
X145.48Y-160.04
X145.58Y-125.64
X145.58Y-128.14
X145.58Y-153.14
X145.58Y-155.64
X145.58Y-158.14
X145.58Y-175.64
X145.58Y-180.64
X145.58Y-200.64
X145.58Y-203.14
X145.58Y-205.64
X145.58Y-208.14
X145.58Y-210.64
X145.58Y-213.14
X145.58Y-215.64
X145.58Y-218.14
X145.58Y-223.14
X145.58Y-225.64
X145.58Y-228.14
X145.58Y-230.64
X145.58Y-233.14
X145.58Y-235.64
X145.58Y-238.14
X145.58Y-240.64
X145.58Y-243.14
X145.58Y-245.64
X145.58Y-253.14
X145.58Y-255.64
X145.58Y-260.64
X145.58Y-263.14
X145.58Y-268.14
X146.08Y-182.24
X146.28Y-266.64
X146.68Y-267.04
X146.88Y-176.84
X148.08Y-125.64
X148.08Y-128.14
X148.08Y-153.14
X148.08Y-155.64
X148.08Y-158.14
X148.08Y-163.14
X148.08Y-165.64
X148.08Y-170.64
X148.08Y-175.64
X148.08Y-180.64
X148.08Y-195.64
X148.08Y-200.64
X148.08Y-203.14
X148.08Y-205.64
X148.08Y-208.14
X148.08Y-210.64
X148.08Y-213.14
X148.08Y-215.64
X148.08Y-218.14
X148.08Y-223.14
X148.08Y-225.64
X148.08Y-228.14
X148.08Y-230.64
X148.08Y-233.14
X148.08Y-235.64
X148.08Y-238.14
X148.08Y-240.64
X148.08Y-243.14
X148.08Y-245.64
X148.08Y-253.14
X148.08Y-255.64
X148.08Y-260.64
X149.28Y-146.84
X150.08Y-146.84
X150.08Y-177.44
X150.58Y-125.64
X150.58Y-128.14
X150.58Y-133.14
X150.58Y-153.14
X150.58Y-155.64
X150.58Y-158.14
X150.58Y-163.14
X150.58Y-165.64
X150.58Y-170.64
X150.58Y-175.64
X150.58Y-180.64
X150.58Y-188.14
X150.58Y-190.64
X150.58Y-195.64
X150.58Y-200.64
X150.58Y-203.14
X150.58Y-205.64
X150.58Y-208.14
X150.58Y-210.64
X150.58Y-213.14
X150.58Y-215.64
X150.58Y-215.64
X150.58Y-218.14
X150.58Y-223.14
X150.58Y-225.64
X150.58Y-228.14
X150.58Y-230.64
X150.58Y-233.14
X150.58Y-235.64
X150.58Y-238.14
X150.58Y-240.64
X150.58Y-243.14
X150.58Y-245.64
X150.58Y-253.14
X150.58Y-255.64
X150.58Y-260.64
X150.58Y-268.14
X151.88Y-152.84
X151.88Y-177.04
X152.329Y-153.287
X152.329Y-176.24
X152.48Y-178.04
X153.08Y-125.64
X153.08Y-133.14
X153.08Y-138.14
X153.08Y-140.64
X153.08Y-153.14
X153.08Y-155.64
X153.08Y-158.14
X153.08Y-163.14
X153.08Y-165.64
X153.08Y-170.64
X153.08Y-175.64
X153.08Y-178.14
X153.08Y-180.64
X153.08Y-188.14
X153.08Y-190.64
X153.08Y-195.64
X153.08Y-200.64
X153.08Y-203.14
X153.08Y-205.64
X153.08Y-208.14
X153.08Y-210.64
X153.08Y-213.14
X153.08Y-215.64
X153.08Y-215.64
X153.08Y-215.64
X153.08Y-218.14
X153.08Y-223.14
X153.08Y-225.64
X153.08Y-228.14
X153.08Y-230.64
X153.08Y-233.14
X153.08Y-235.64
X153.08Y-238.14
X153.08Y-240.64
X153.08Y-243.14
X153.08Y-245.64
X153.08Y-253.14
X153.08Y-255.64
X153.08Y-260.64
X153.08Y-268.14
X154.08Y-185.84
X154.88Y-187.04
X155.58Y-125.64
X155.58Y-130.64
X155.58Y-153.14
X155.58Y-155.64
X155.58Y-158.14
X155.58Y-163.14
X155.58Y-165.64
X155.58Y-170.64
X155.58Y-175.64
X155.58Y-178.14
X155.58Y-180.64
X155.58Y-190.64
X155.58Y-195.64
X155.58Y-200.64
X155.58Y-203.14
X155.58Y-205.64
X155.58Y-218.14
X155.58Y-223.14
X155.58Y-225.64
X155.58Y-228.14
X155.58Y-230.64
X155.58Y-233.14
X155.58Y-235.64
X155.58Y-238.14
X155.58Y-240.64
X155.58Y-243.14
X155.58Y-245.64
X155.58Y-253.14
X155.58Y-255.64
X155.58Y-260.64
X155.68Y-188.84
X156.48Y-187.64
X158.08Y-125.64
X158.08Y-130.64
X158.08Y-130.64
X158.08Y-153.14
X158.08Y-155.64
X158.08Y-158.14
X158.08Y-163.14
X158.08Y-165.64
X158.08Y-170.64
X158.08Y-175.64
X158.08Y-178.14
X158.08Y-180.64
X158.08Y-186.44
X158.08Y-188.14
X158.08Y-190.64
X158.08Y-195.64
X158.08Y-200.64
X158.08Y-203.14
X158.08Y-205.64
X158.08Y-208.14
X158.08Y-215.64
X158.08Y-218.14
X158.08Y-223.14
X158.08Y-225.64
X158.08Y-228.14
X158.08Y-228.14
X158.08Y-230.64
X158.08Y-233.14
X158.08Y-235.64
X158.08Y-238.14
X158.08Y-240.64
X158.08Y-243.14
X158.08Y-245.64
X158.08Y-253.14
X158.08Y-253.14
X158.08Y-255.64
X158.08Y-260.64
X158.08Y-265.64
X158.88Y-148.44
X158.88Y-172.64
X159.48Y-187.04
X159.68Y-145.04
X159.68Y-173.84
X159.88Y-143.24
X159.929Y-187.44
X160.48Y-171.44
X160.58Y-125.64
X160.58Y-125.64
X160.58Y-130.64
X160.58Y-153.14
X160.58Y-155.64
X160.58Y-158.14
X160.58Y-163.14
X160.58Y-165.64
X160.58Y-170.64
X160.58Y-188.14
X160.58Y-190.64
X160.58Y-195.64
X160.58Y-200.64
X160.58Y-203.14
X160.58Y-205.64
X160.58Y-208.14
X160.58Y-215.64
X160.58Y-218.14
X160.58Y-223.14
X160.58Y-225.64
X160.58Y-230.64
X160.58Y-233.14
X160.58Y-235.64
X160.58Y-238.14
X160.58Y-240.64
X160.58Y-240.64
X160.58Y-243.14
X160.58Y-245.64
X160.58Y-255.64
X161.28Y-172.04
X162.08Y-139.44
X162.08Y-140.64
X162.08Y-173.24
X162.88Y-143.64
X162.88Y-186.24
X163.08Y-125.64
X163.08Y-130.64
X163.08Y-180.64
X163.08Y-188.14
X163.08Y-190.64
X163.08Y-195.64
X163.08Y-200.64
X163.08Y-203.14
X163.08Y-205.64
X163.08Y-208.14
X163.08Y-213.14
X163.08Y-215.64
X163.08Y-218.14
X163.08Y-223.14
X163.08Y-225.64
X163.08Y-228.14
X163.08Y-230.64
X163.08Y-233.14
X163.08Y-235.64
X163.08Y-238.14
X163.08Y-240.64
X163.08Y-243.14
X163.08Y-245.64
X163.08Y-253.14
X163.08Y-255.64
X163.08Y-268.14
X163.28Y-131.44
X163.28Y-140.64
X163.68Y-130.84
X164.28Y-126.24
X164.48Y-138.84
X165.58Y-125.64
X165.58Y-133.14
X165.58Y-135.64
X165.58Y-138.14
X165.58Y-140.64
X165.58Y-143.14
X165.58Y-193.14
X165.58Y-195.64
X165.58Y-200.64
X165.58Y-203.14
X165.58Y-205.64
X165.58Y-208.14
X165.58Y-213.14
X165.58Y-215.64
X165.58Y-218.14
X165.58Y-223.14
X165.58Y-225.64
X165.58Y-228.14
X165.58Y-230.64
X165.58Y-233.14
X165.58Y-235.64
X165.58Y-238.14
X165.58Y-240.64
X165.58Y-243.14
X165.58Y-245.64
X165.58Y-253.14
X165.58Y-255.64
X165.58Y-268.14
X166.28Y-153.24
X168.08Y-125.64
X168.08Y-133.14
X168.08Y-135.64
X168.08Y-138.14
X168.08Y-140.64
X168.08Y-143.14
X168.08Y-148.14
X168.08Y-183.14
X168.08Y-185.64
X168.08Y-188.14
X168.08Y-190.64
X168.08Y-193.14
X168.08Y-195.64
X168.08Y-200.64
X168.08Y-203.14
X168.08Y-205.64
X168.08Y-208.14
X168.08Y-208.14
X168.08Y-213.14
X168.08Y-215.64
X168.08Y-223.14
X168.08Y-225.64
X168.08Y-225.64
X168.08Y-228.14
X168.08Y-230.64
X168.08Y-233.14
X168.08Y-235.64
X168.08Y-238.14
X168.08Y-240.64
X168.08Y-243.14
X168.08Y-245.64
X168.08Y-253.14
X168.08Y-255.64
X168.08Y-260.64
X168.08Y-263.14
X168.08Y-265.64
X168.08Y-268.14
X169.68Y-171.64
X169.68Y-172.44
X170.28Y-158.84
X170.58Y-125.64
X170.58Y-135.64
X170.58Y-140.64
X170.58Y-143.14
X170.58Y-148.14
X170.58Y-153.14
X170.58Y-165.64
X170.58Y-168.14
X170.58Y-190.64
X170.58Y-193.14
X170.58Y-195.64
X170.58Y-195.64
X170.58Y-200.64
X170.58Y-203.14
X170.58Y-205.64
X170.58Y-208.14
X170.58Y-253.14
X170.58Y-255.64
X170.58Y-268.14
X171.48Y-155.64
X171.48Y-158.84
X173.08Y-125.64
X173.08Y-135.64
X173.08Y-143.14
X173.08Y-155.64
X173.08Y-165.64
X173.08Y-168.14
X173.08Y-170.64
X173.08Y-173.14
X173.08Y-175.64
X173.08Y-178.14
X173.08Y-180.64
X173.08Y-183.14
X173.08Y-185.64
X173.08Y-188.14
X173.08Y-190.64
X173.08Y-193.14
X173.08Y-195.64
X173.08Y-200.64
X173.08Y-203.14
X173.08Y-205.64
X173.08Y-208.14
X173.08Y-250.64
X173.08Y-253.14
X173.08Y-255.64
X173.08Y-263.14
X173.08Y-265.64
X175.58Y-125.64
X175.58Y-128.14
X175.58Y-130.64
X175.58Y-133.14
X175.58Y-138.14
X175.58Y-143.14
X175.58Y-145.64
X175.58Y-150.64
X175.58Y-153.14
X175.58Y-155.64
X175.58Y-165.64
X175.58Y-168.14
X175.58Y-170.64
X175.58Y-173.14
X175.58Y-175.64
X175.58Y-178.14
X175.58Y-180.64
X175.58Y-183.14
X175.58Y-185.64
X175.58Y-188.14
X175.58Y-190.64
X175.58Y-193.14
X175.58Y-195.64
X175.58Y-200.64
X175.58Y-203.14
X175.58Y-205.64
X175.58Y-208.14
X175.58Y-223.14
X175.58Y-225.64
X175.58Y-228.14
X175.58Y-230.64
X175.58Y-233.14
X175.58Y-235.64
X175.58Y-238.14
X175.58Y-240.64
X175.58Y-240.64
X175.58Y-243.14
X175.58Y-248.14
X175.58Y-250.64
X175.58Y-253.14
X175.58Y-255.64
X175.58Y-258.14
X175.58Y-265.64
X177.68Y-169.24
X177.88Y-162.04
X177.88Y-162.84
X178.08Y-125.64
X178.08Y-128.14
X178.08Y-130.64
X178.08Y-145.64
X178.08Y-150.64
X178.08Y-153.14
X178.08Y-155.64
X178.08Y-175.64
X178.08Y-178.14
X178.08Y-180.64
X178.08Y-183.14
X178.08Y-183.14
X178.08Y-185.64
X178.08Y-188.14
X178.08Y-190.64
X178.08Y-193.14
X178.08Y-195.64
X178.08Y-200.64
X178.08Y-203.14
X178.08Y-223.14
X178.08Y-225.64
X178.08Y-228.14
X178.08Y-230.64
X178.08Y-233.14
X178.08Y-235.64
X178.08Y-238.14
X178.08Y-240.64
X178.08Y-243.14
X178.08Y-245.64
X178.08Y-248.14
X178.08Y-250.64
X178.08Y-253.14
X178.08Y-255.64
X178.08Y-258.14
X178.08Y-263.14
X178.08Y-265.64
X180.28Y-162.04
X180.28Y-167.84
X180.58Y-125.64
X180.58Y-130.64
X180.58Y-145.64
X180.58Y-150.64
X180.58Y-153.14
X180.58Y-155.64
X180.58Y-178.14
X180.58Y-180.64
X180.58Y-180.64
X180.58Y-183.14
X180.58Y-185.64
X180.58Y-188.14
X180.58Y-190.64
X180.58Y-193.14
X180.58Y-195.64
X180.58Y-200.64
X180.58Y-203.14
X180.58Y-223.14
X180.58Y-225.64
X180.58Y-228.14
X180.58Y-230.64
X180.58Y-233.14
X180.58Y-235.64
X180.58Y-238.14
X180.58Y-240.64
X180.58Y-243.14
X180.58Y-245.64
X180.58Y-248.14
X180.58Y-250.64
X180.58Y-253.14
X180.58Y-255.64
X180.58Y-258.14
X180.58Y-263.14
X180.58Y-265.64
X182.48Y-158.84
X182.48Y-159.44
X182.48Y-160.04
X182.48Y-160.64
X182.48Y-161.24
X182.88Y-221.64
X183.08Y-125.64
X183.08Y-130.64
X183.08Y-133.14
X183.08Y-135.64
X183.08Y-138.14
X183.08Y-140.64
X183.08Y-145.64
X183.08Y-145.64
X183.08Y-150.64
X183.08Y-153.14
X183.08Y-155.64
X183.08Y-158.14
X183.08Y-163.14
X183.08Y-163.14
X183.08Y-165.64
X183.08Y-168.14
X183.08Y-178.14
X183.08Y-180.64
X183.08Y-183.14
X183.08Y-185.64
X183.08Y-188.14
X183.08Y-190.64
X183.08Y-193.14
X183.08Y-195.64
X183.08Y-195.64
X183.08Y-200.64
X183.08Y-203.14
X183.08Y-243.14
X183.08Y-245.64
X183.08Y-248.14
X183.08Y-250.64
X183.08Y-253.14
X183.08Y-255.64
X183.08Y-258.14
X183.08Y-263.14
X183.08Y-265.64
X185.58Y-125.64
X185.58Y-128.14
X185.58Y-130.64
X185.58Y-133.14
X185.58Y-135.64
X185.58Y-138.14
X185.58Y-140.64
X185.58Y-143.14
X185.58Y-145.64
X185.58Y-150.64
X185.58Y-153.14
X185.58Y-155.64
X185.58Y-158.14
X185.58Y-163.14
X185.58Y-165.64
X185.58Y-168.14
X185.58Y-178.14
X185.58Y-180.64
X185.58Y-183.14
X185.58Y-185.64
X185.58Y-188.14
X185.58Y-190.64
X185.58Y-193.14
X185.58Y-195.64
X185.58Y-200.64
X185.58Y-203.14
X185.58Y-213.14
X185.58Y-218.14
X185.58Y-243.14
X185.58Y-245.64
X185.58Y-245.64
X185.58Y-245.64
X185.58Y-248.14
X185.58Y-250.64
X185.58Y-263.14
X185.58Y-263.14
X185.58Y-265.64
X188.08Y-125.64
X188.08Y-128.14
X188.08Y-130.64
X188.08Y-133.14
X188.08Y-145.64
X188.08Y-150.64
X188.08Y-153.14
X188.08Y-155.64
X188.08Y-158.14
X188.08Y-163.14
X188.08Y-165.64
X188.08Y-168.14
X188.08Y-178.14
X188.08Y-180.64
X188.08Y-183.14
X188.08Y-185.64
X188.08Y-188.14
X188.08Y-190.64
X188.08Y-193.14
X188.08Y-195.64
X188.08Y-200.64
X188.08Y-213.14
X188.08Y-218.14
X188.08Y-245.64
X188.08Y-248.14
X188.08Y-250.64
X188.08Y-263.14
X188.08Y-265.64
X190.58Y-125.64
X190.58Y-128.14
X190.58Y-130.64
X190.58Y-133.14
X190.58Y-135.64
X190.58Y-138.14
X190.58Y-140.64
X190.58Y-143.14
X190.58Y-143.14
X190.58Y-145.64
X190.58Y-150.64
X190.58Y-153.14
X190.58Y-155.64
X190.58Y-158.14
X190.58Y-163.14
X190.58Y-165.64
X190.58Y-168.14
X190.58Y-178.14
X190.58Y-180.64
X190.58Y-183.14
X190.58Y-185.64
X190.58Y-188.14
X190.58Y-190.64
X190.58Y-193.14
X190.58Y-195.64
X190.58Y-200.64
X190.58Y-210.64
X190.58Y-213.14
X190.58Y-215.64
X190.58Y-218.14
X190.58Y-245.64
X190.58Y-248.14
X190.58Y-250.64
X190.58Y-263.14
X190.58Y-265.64
X191.28Y-219.84
X193.08Y-125.64
X193.08Y-128.14
X193.08Y-130.64
X193.08Y-135.64
X193.08Y-140.64
X193.08Y-143.14
X193.08Y-145.64
X193.08Y-150.64
X193.08Y-153.14
X193.08Y-155.64
X193.08Y-158.14
X193.08Y-163.14
X193.08Y-165.64
X193.08Y-168.14
X193.08Y-178.14
X193.08Y-180.64
X193.08Y-180.64
X193.08Y-183.14
X193.08Y-185.64
X193.08Y-188.14
X193.08Y-190.64
X193.08Y-193.14
X193.08Y-193.14
X193.08Y-195.64
X193.08Y-200.64
X193.08Y-210.64
X193.08Y-213.14
X193.08Y-215.64
X193.08Y-240.64
X193.08Y-243.14
X193.08Y-245.64
X193.08Y-248.14
X193.08Y-250.64
X193.08Y-263.14
X193.08Y-265.64
X195.58Y-125.64
X195.58Y-128.14
X195.58Y-143.14
X195.58Y-145.64
X195.58Y-150.64
X195.58Y-153.14
X195.58Y-155.64
X195.58Y-155.64
X195.58Y-158.14
X195.58Y-163.14
X195.58Y-165.64
X195.58Y-168.14
X195.58Y-178.14
X195.58Y-180.64
X195.58Y-183.14
X195.58Y-185.64
X195.58Y-188.14
X195.58Y-190.64
X195.58Y-193.14
X195.58Y-195.64
X195.58Y-200.64
X195.58Y-203.14
X195.58Y-225.64
X195.58Y-228.14
X195.58Y-230.64
X195.58Y-233.14
X195.58Y-235.64
X195.58Y-238.14
X195.58Y-240.64
X195.58Y-243.14
X195.58Y-245.64
X195.58Y-248.14
X195.58Y-250.64
X195.58Y-253.14
X195.58Y-255.64
X195.58Y-258.14
X195.58Y-258.14
X195.58Y-263.14
X195.58Y-265.64
X198.08Y-125.64
X198.08Y-128.14
X198.08Y-130.64
X198.08Y-138.14
X198.08Y-140.64
X198.08Y-143.14
X198.08Y-145.64
X198.08Y-150.64
X198.08Y-153.14
X198.08Y-155.64
X198.08Y-158.14
X198.08Y-163.14
X198.08Y-165.64
X198.08Y-165.64
X198.08Y-168.14
X198.08Y-178.14
X198.08Y-180.64
X198.08Y-183.14
X198.08Y-185.64
X198.08Y-188.14
X198.08Y-190.64
X198.08Y-193.14
X198.08Y-195.64
X198.08Y-203.14
X198.08Y-205.64
X198.08Y-208.14
X198.08Y-210.64
X198.08Y-213.14
X198.08Y-218.14
X198.08Y-225.64
X198.08Y-228.14
X198.08Y-230.64
X198.08Y-233.14
X198.08Y-235.64
X198.08Y-238.14
X198.08Y-240.64
X198.08Y-243.14
X198.08Y-245.64
X198.08Y-248.14
X198.08Y-250.64
X198.08Y-253.14
X198.08Y-255.64
X198.08Y-258.14
X198.08Y-258.14
X198.08Y-263.14
X198.08Y-265.64
X199.78Y-199.965
X200.58Y-125.64
X200.58Y-128.14
X200.58Y-130.64
X200.58Y-133.14
X200.58Y-135.64
X200.58Y-138.14
X200.58Y-140.64
X200.58Y-143.14
X200.58Y-145.64
X200.58Y-150.64
X200.58Y-153.14
X200.58Y-155.64
X200.58Y-158.14
X200.58Y-163.14
X200.58Y-165.64
X200.58Y-168.14
X200.58Y-178.14
X200.58Y-180.64
X200.58Y-183.14
X200.58Y-185.64
X200.58Y-188.14
X200.58Y-190.64
X200.58Y-193.14
X200.58Y-195.64
X200.58Y-203.14
X200.58Y-205.64
X200.58Y-208.14
X200.58Y-210.64
X200.58Y-213.14
X200.58Y-218.14
X200.58Y-225.64
X200.58Y-228.14
X200.58Y-230.64
X200.58Y-233.14
X200.58Y-235.64
X200.58Y-238.14
X200.58Y-240.64
X200.58Y-240.64
X200.58Y-243.14
X200.58Y-243.14
X200.58Y-245.64
X200.58Y-248.14
X200.58Y-250.64
X200.58Y-253.14
X200.58Y-255.64
X200.58Y-258.14
X200.58Y-263.14
X200.58Y-265.64
X201.08Y-158.24
X201.68Y-158.24
X202.28Y-158.24
X203.08Y-128.14
X203.08Y-130.14
X203.08Y-138.14
X203.08Y-140.64
X203.08Y-145.64
X203.08Y-150.64
X203.08Y-153.14
X203.08Y-155.64
X203.08Y-158.14
X203.08Y-163.14
X203.08Y-165.64
X203.08Y-168.14
X203.08Y-178.14
X203.08Y-180.64
X203.08Y-183.14
X203.08Y-185.64
X203.08Y-188.14
X203.08Y-190.64
X203.08Y-193.14
X203.08Y-195.64
X203.08Y-195.64
X203.08Y-255.64
X203.08Y-258.14
X203.08Y-263.14
X203.08Y-265.64
X203.68Y-224.04
X205.08Y-128.14
X205.08Y-130.14
X205.48Y-228.04
X205.58Y-135.64
X205.58Y-138.14
X205.58Y-138.14
X205.58Y-138.14
X205.58Y-143.14
X205.58Y-145.64
X205.58Y-150.64
X205.58Y-153.14
X205.58Y-155.64
X205.58Y-158.14
X205.58Y-178.14
X205.58Y-178.14
X205.58Y-180.64
X205.58Y-193.14
X205.58Y-195.64
X205.58Y-203.14
X205.58Y-205.64
X205.58Y-208.14
X205.58Y-210.64
X205.58Y-213.14
X205.58Y-218.14
X205.58Y-235.64
X205.58Y-238.14
X205.58Y-240.64
X205.58Y-243.14
X205.58Y-245.64
X205.58Y-248.14
X205.58Y-250.64
X205.58Y-255.64
X205.58Y-258.14
X205.58Y-263.14
X205.58Y-265.64
X206.08Y-161.24
X206.58Y-183.14
X206.58Y-185.14
X206.58Y-190.14
X207.08Y-128.14
X207.08Y-130.14
X207.58Y-163.64
X207.58Y-166.14
X207.58Y-168.64
X207.58Y-171.64
X207.58Y-174.14
X207.58Y-176.64
X208.08Y-135.64
X208.08Y-138.14
X208.08Y-140.64
X208.08Y-143.14
X208.08Y-145.64
X208.08Y-148.14
X208.08Y-153.14
X208.08Y-155.64
X208.08Y-158.14
X208.08Y-178.14
X208.08Y-180.64
X208.08Y-183.14
X208.08Y-185.64
X208.08Y-188.14
X208.08Y-190.64
X208.08Y-193.14
X208.08Y-195.64
X208.08Y-200.64
X208.08Y-203.14
X208.08Y-205.64
X208.08Y-208.14
X208.08Y-210.64
X208.08Y-213.14
X208.08Y-218.14
X208.08Y-235.64
X208.08Y-238.14
X208.08Y-238.14
X208.08Y-240.64
X208.08Y-243.14
X208.08Y-245.64
X208.08Y-248.14
X208.08Y-250.64
X208.08Y-263.14
X208.08Y-265.64
X210.58Y-125.64
X210.58Y-128.14
X210.58Y-130.64
X210.58Y-133.14
X210.58Y-135.64
X210.58Y-138.14
X210.58Y-140.64
X210.58Y-143.14
X210.58Y-145.64
X210.58Y-148.14
X210.58Y-155.64
X210.58Y-158.14
X210.58Y-165.64
X210.58Y-168.14
X210.58Y-170.64
X210.58Y-173.14
X210.58Y-175.64
X210.58Y-178.14
X210.58Y-180.64
X210.58Y-183.14
X210.58Y-185.64
X210.58Y-188.14
X210.58Y-190.64
X210.58Y-193.14
X210.58Y-200.64
X210.58Y-203.14
X210.58Y-205.64
X210.58Y-208.14
X210.58Y-210.64
X210.58Y-213.14
X210.58Y-218.14
X210.58Y-235.64
X210.58Y-238.14
X210.58Y-248.14
X210.58Y-250.64
X210.58Y-258.14
X210.58Y-260.64
X210.58Y-263.14
X210.58Y-265.64
X210.58Y-268.14
X212.68Y-231.84
X213.08Y-125.64
X213.08Y-128.14
X213.08Y-130.64
X213.08Y-135.64
X213.08Y-138.14
X213.08Y-140.64
X213.08Y-143.14
X213.08Y-145.64
X213.08Y-165.64
X213.08Y-168.14
X213.08Y-170.64
X213.08Y-175.64
X213.08Y-190.64
X213.08Y-193.14
X213.08Y-200.64
X213.08Y-203.14
X213.08Y-205.64
X213.08Y-205.64
X213.08Y-208.14
X213.08Y-208.14
X213.08Y-208.14
X213.08Y-210.64
X213.08Y-213.14
X213.08Y-218.14
X213.08Y-235.64
X213.08Y-258.14
X213.08Y-260.64
X213.08Y-263.14
X213.08Y-265.64
X213.08Y-268.14
X214.48Y-150.64
X215.58Y-125.64
X215.58Y-128.14
X215.58Y-138.14
X215.58Y-140.64
X215.58Y-140.64
X215.58Y-143.14
X215.58Y-145.64
X215.58Y-165.64
X215.58Y-168.14
X215.58Y-170.64
X215.58Y-173.14
X215.58Y-183.14
X215.58Y-190.64
X215.58Y-193.14
X215.58Y-195.64
X215.58Y-203.14
X215.58Y-205.64
X215.58Y-208.14
X215.58Y-210.64
X215.58Y-213.14
X215.58Y-218.14
X215.58Y-240.64
X215.58Y-248.14
X215.58Y-250.64
X215.58Y-258.14
X215.58Y-260.64
X215.58Y-263.14
X215.58Y-265.64
X215.58Y-268.14
X216.08Y-147.64
X216.08Y-153.64
X216.08Y-156.64
X216.48Y-215.64
X216.48Y-217.44
X218.08Y-125.64
X218.08Y-128.14
X218.08Y-130.64
X218.08Y-133.14
X218.08Y-135.64
X218.08Y-138.14
X218.08Y-140.64
X218.08Y-143.14
X218.08Y-145.64
X218.08Y-188.14
X218.08Y-190.64
X218.08Y-193.14
X218.08Y-195.64
X218.08Y-203.14
X218.08Y-205.64
X218.08Y-235.64
X218.08Y-248.14
X218.08Y-250.64
X218.08Y-258.14
X218.08Y-260.64
X218.08Y-263.14
X218.08Y-265.64
X218.08Y-268.14
X220.58Y-125.64
X220.58Y-128.14
X220.58Y-130.64
X220.58Y-133.14
X220.58Y-135.64
X220.58Y-135.64
X220.58Y-138.14
X220.58Y-143.14
X220.58Y-145.64
X220.58Y-148.14
X220.58Y-150.64
X220.58Y-153.14
X220.58Y-155.64
X220.58Y-158.14
X220.58Y-163.14
X220.58Y-165.64
X220.58Y-165.64
X220.58Y-168.14
X220.58Y-170.64
X220.58Y-173.14
X220.58Y-188.14
X220.58Y-190.64
X220.58Y-193.14
X220.58Y-195.64
X220.58Y-203.14
X220.58Y-205.64
X220.58Y-210.64
X220.58Y-213.14
X220.58Y-215.64
X220.58Y-218.14
X220.58Y-225.64
X220.58Y-228.14
X220.58Y-230.64
X220.58Y-233.14
X220.58Y-235.64
X220.58Y-258.14
X220.58Y-260.64
X220.58Y-263.14
X220.58Y-265.64
X220.58Y-268.14
X221.28Y-210.24
X222.08Y-198.64
X223.08Y-125.64
X223.08Y-128.14
X223.08Y-130.64
X223.08Y-133.14
X223.08Y-135.64
X223.08Y-135.64
X223.08Y-140.64
X223.08Y-155.64
X223.08Y-160.64
X223.08Y-163.14
X223.08Y-165.64
X223.08Y-190.64
X223.08Y-193.14
X223.08Y-195.64
X223.08Y-200.64
X223.08Y-203.14
X223.08Y-213.14
X223.08Y-215.64
X223.08Y-218.14
X223.08Y-218.14
X223.08Y-225.64
X223.08Y-228.14
X223.08Y-230.64
X223.08Y-233.14
X223.08Y-235.64
X223.08Y-245.64
X223.08Y-248.14
X223.08Y-250.64
X223.08Y-253.14
X223.08Y-258.14
X223.08Y-260.64
X223.08Y-263.14
X223.08Y-263.14
X223.08Y-265.64
X223.08Y-268.14
X225.58Y-125.64
X225.58Y-128.14
X225.58Y-130.64
X225.58Y-133.14
X225.58Y-135.64
X225.58Y-138.14
X225.58Y-143.14
X225.58Y-145.64
X225.58Y-148.14
X225.58Y-150.64
X225.58Y-153.14
X225.58Y-155.64
X225.58Y-155.64
X225.58Y-158.14
X225.58Y-160.64
X225.58Y-163.14
X225.58Y-165.64
X225.58Y-168.14
X225.58Y-170.64
X225.58Y-173.14
X225.58Y-175.64
X225.58Y-178.14
X225.58Y-185.64
X225.58Y-188.14
X225.58Y-200.64
X225.58Y-203.14
X225.58Y-205.64
X225.58Y-208.14
X225.58Y-213.14
X225.58Y-215.64
X225.58Y-218.14
X225.58Y-225.64
X225.58Y-228.14
X225.58Y-230.64
X225.58Y-233.14
X225.58Y-235.64
X225.58Y-245.64
X225.58Y-248.14
X225.58Y-250.64
X225.58Y-253.14
X225.58Y-258.14
X225.58Y-260.64
X225.58Y-263.14
X225.58Y-265.64
X225.58Y-268.14
X228.08Y-125.64
X228.08Y-128.14
X228.08Y-130.64
X228.08Y-133.14
X228.08Y-135.64
X228.08Y-138.14
X228.08Y-143.14
X228.08Y-145.64
X228.08Y-148.14
X228.08Y-150.64
X228.08Y-153.14
X228.08Y-155.64
X228.08Y-158.14
X228.08Y-160.64
X228.08Y-163.14
X228.08Y-165.64
X228.08Y-168.14
X228.08Y-170.64
X228.08Y-173.14
X228.08Y-175.64
X228.08Y-183.14
X228.08Y-185.64
X228.08Y-188.14
X228.08Y-190.64
X228.08Y-193.14
X228.08Y-195.64
X228.08Y-200.64
X228.08Y-203.14
X228.08Y-205.64
X228.08Y-208.14
X228.08Y-210.64
X228.08Y-213.14
X228.08Y-215.64
X228.08Y-218.14
X228.08Y-225.64
X228.08Y-228.14
X228.08Y-228.14
X228.08Y-230.64
X228.08Y-233.14
X228.08Y-233.14
X228.08Y-235.64
X228.08Y-245.64
X228.08Y-248.14
X228.08Y-250.64
X228.08Y-253.14
X228.08Y-258.14
X228.08Y-260.64
X228.08Y-263.14
X228.08Y-265.64
X228.08Y-268.14
X230.58Y-125.64
X230.58Y-128.14
X230.58Y-133.14
X230.58Y-135.64
X230.58Y-138.14
X230.58Y-140.64
X230.58Y-143.14
X230.58Y-145.64
X230.58Y-148.14
X230.58Y-153.14
X230.58Y-155.64
X230.58Y-158.14
X230.58Y-160.64
X230.58Y-160.64
X230.58Y-163.14
X230.58Y-165.64
X230.58Y-168.14
X230.58Y-168.14
X230.58Y-170.64
X230.58Y-173.14
X230.58Y-175.64
X230.58Y-178.14
X230.58Y-180.64
X230.58Y-183.14
X230.58Y-185.64
X230.58Y-188.14
X230.58Y-193.14
X230.58Y-195.64
X230.58Y-200.64
X230.58Y-205.64
X230.58Y-208.14
X230.58Y-210.64
X230.58Y-213.14
X230.58Y-215.64
X230.58Y-218.14
X230.58Y-225.64
X230.58Y-228.14
X230.58Y-230.64
X230.58Y-233.14
X230.58Y-235.64
X230.58Y-238.14
X230.58Y-240.64
X230.58Y-245.64
X230.58Y-248.14
X230.58Y-250.64
X230.58Y-253.14
X230.58Y-258.14
X230.58Y-260.64
X230.58Y-265.64
X230.58Y-268.14
X233.08Y-125.64
X233.08Y-128.14
X233.08Y-130.64
X233.08Y-133.14
X233.08Y-135.64
X233.08Y-138.14
X233.08Y-140.64
X233.08Y-143.14
X233.08Y-145.64
X233.08Y-150.64
X233.08Y-153.14
X233.08Y-155.64
X233.08Y-158.14
X233.08Y-160.64
X233.08Y-163.14
X233.08Y-165.64
X233.08Y-168.14
X233.08Y-170.64
X233.08Y-173.14
X233.08Y-175.64
X233.08Y-178.14
X233.08Y-180.64
X233.08Y-183.14
X233.08Y-185.64
X233.08Y-188.14
X233.08Y-190.64
X233.08Y-193.14
X233.08Y-195.64
X233.08Y-203.14
X233.08Y-205.64
X233.08Y-208.14
X233.08Y-213.14
X233.08Y-215.64
X233.08Y-218.14
X233.08Y-225.64
X233.08Y-228.14
X233.08Y-230.64
X233.08Y-233.14
X233.08Y-235.64
X233.08Y-238.14
X233.08Y-240.64
X233.08Y-258.14
X233.08Y-260.64
X233.08Y-263.14
X233.08Y-265.64
X235.58Y-128.14
X235.58Y-130.64
X235.58Y-133.14
X235.58Y-135.64
X235.58Y-138.14
X235.58Y-140.64
X235.58Y-143.14
X235.58Y-145.64
X235.58Y-148.14
X235.58Y-150.64
X235.58Y-153.14
X235.58Y-155.64
X235.58Y-158.14
X235.58Y-160.64
X235.58Y-163.14
X235.58Y-165.64
X235.58Y-170.64
X235.58Y-173.14
X235.58Y-175.64
X235.58Y-178.14
X235.58Y-180.64
X235.58Y-183.14
X235.58Y-185.64
X235.58Y-188.14
X235.58Y-190.64
X235.58Y-193.14
X235.58Y-205.64
X235.58Y-208.14
X235.58Y-210.64
X235.58Y-213.14
X235.58Y-215.64
X235.58Y-218.14
X235.58Y-220.64
X235.58Y-223.14
X235.58Y-225.64
X235.58Y-228.14
X235.58Y-230.64
X235.58Y-233.14
X235.58Y-235.64
X235.58Y-238.14
X235.58Y-240.64
X235.58Y-243.14
X235.58Y-245.64
X235.58Y-248.14
X235.58Y-250.64
X235.58Y-253.14
X235.58Y-255.64
X235.58Y-258.14
X235.58Y-260.64
X235.58Y-263.14
T2
X87.88Y-152.44
X92.48Y-151.44
X96.28Y-130.44
X96.28Y-133.24
X96.28Y-136.24
X99.68Y-151.44
X99.68Y-152.44
X102.68Y-166.24
X102.88Y-130.84
X103.08Y-152.44
X105.08Y-157.44
X105.28Y-151.44
X106.88Y-160.24
X113.58Y-146.14
X113.88Y-148.04
X114.28Y-150.64
X115.615Y-146.125
X115.68Y-130.24
X139.68Y-148.84
X167.28Y-127.64
X171.58Y-130.14
X171.58Y-132.64
X171.58Y-138.64
X171.58Y-141.14
X215.58Y-219.64
X217.58Y-226.64
T3
X58.58Y-132.14
X58.58Y-133.64
X58.58Y-135.14
X58.58Y-136.64
X58.58Y-184.64
X58.58Y-186.14
X58.58Y-187.64
X58.58Y-189.14
X58.58Y-205.14
X58.58Y-206.64
X58.58Y-208.14
X58.58Y-209.64
X58.58Y-257.64
X58.58Y-259.14
X58.58Y-260.64
X58.58Y-262.14
X58.58Y-278.14
X58.58Y-279.64
X58.58Y-281.14
X58.58Y-282.64
X58.58Y-330.64
X58.58Y-332.14
X58.58Y-333.64
X58.58Y-335.14
X66.58Y-197.14
X66.58Y-270.14
X68.08Y-197.14
X68.08Y-270.14
X69.58Y-197.14
X69.58Y-270.14
X71.08Y-197.14
X71.08Y-270.14
X84.88Y-200.64
X153.08Y-143.44
X174.08Y-147.44
X174.88Y-135.24
X176.68Y-143.24
X183.68Y-218.04
X184.28Y-213.04
X185.08Y-231.64
X186.48Y-231.64
X187.88Y-231.64
X189.28Y-231.64
X190.68Y-231.64
X192.08Y-231.64
X193.48Y-231.64
X202.68Y-134.44
X215.28Y-233.64
X217.88Y-161.44
X217.88Y-173.04
X218.08Y-219.44
X225.08Y-197.14
X225.08Y-270.14
X226.58Y-197.14
X226.58Y-270.14
X228.08Y-197.14
X228.08Y-270.14
X229.58Y-197.14
X229.58Y-270.14
X237.58Y-132.14
X237.58Y-133.64
X237.58Y-135.14
X237.58Y-136.64
X237.58Y-184.64
X237.58Y-186.14
X237.58Y-187.64
X237.58Y-189.14
X237.58Y-205.14
X237.58Y-206.64
X237.58Y-208.14
X237.58Y-209.64
X237.58Y-257.64
X237.58Y-259.14
X237.58Y-260.64
X237.58Y-262.14
X237.58Y-278.14
X237.58Y-279.64
X237.58Y-281.14
X237.58Y-282.64
X237.58Y-330.64
X237.58Y-332.14
X237.58Y-333.64
X237.58Y-335.14
T4
X148.08Y-267.64
T5
X87.04Y-221.55
X87.04Y-224.09
X87.04Y-226.63
X87.04Y-229.17
X87.04Y-231.71
X87.04Y-234.25
X87.04Y-236.79
X87.04Y-239.33
X87.04Y-241.87
X87.04Y-244.41
X89.58Y-221.55
X89.58Y-224.09
X89.58Y-226.63
X89.58Y-229.17
X89.58Y-231.71
X89.58Y-234.25
X89.58Y-236.79
X89.58Y-239.33
X89.58Y-241.87
X89.58Y-244.41
T6
X69.28Y-213.24
X88.08Y-253.24
X89.68Y-129.04
X97.88Y-179.44
X98.28Y-260.04
X98.88Y-129.84
X113.88Y-247.04
X140.48Y-167.84
X146.68Y-193.24
X189.18Y-236.09
X196.08Y-219.14
X209.08Y-225.14
X209.28Y-267.24
T7
X76.31Y-205.64
X76.31Y-208.18
X76.31Y-210.72
X76.31Y-213.26
X76.31Y-215.8
X76.31Y-218.34
X76.31Y-220.88
X76.31Y-223.42
X76.31Y-225.96
X76.31Y-228.5
X76.31Y-231.04
X76.31Y-233.58
X76.31Y-236.12
X76.31Y-238.66
X76.31Y-241.2
X76.31Y-243.74
X76.31Y-246.28
X76.31Y-248.82
X76.31Y-251.36
X76.31Y-253.9
X78.85Y-205.64
X78.85Y-208.18
X78.85Y-210.72
X78.85Y-213.26
X78.85Y-215.8
X78.85Y-218.34
X78.85Y-220.88
X78.85Y-223.42
X78.85Y-225.96
X78.85Y-228.5
X78.85Y-231.04
X78.85Y-233.58
X78.85Y-236.12
X78.85Y-238.66
X78.85Y-241.2
X78.85Y-243.74
X78.85Y-246.28
X78.85Y-248.82
X78.85Y-251.36
X78.85Y-253.9
T0
M30
