G04 #@! TF.GenerationSoftware,KiCad,Pcbnew,7.0.8*
G04 #@! TF.CreationDate,2023-11-01T09:31:04+09:00*
G04 #@! TF.ProjectId,a5d27_handheld_console_pcb,61356432-375f-4686-916e-6468656c645f,rev?*
G04 #@! TF.SameCoordinates,Original*
G04 #@! TF.FileFunction,Profile,NP*
%FSLAX46Y46*%
G04 Gerber Fmt 4.6, Leading zero omitted, Abs format (unit mm)*
G04 Created by KiCad (PCBNEW 7.0.8) date 2023-11-01 09:31:04*
%MOMM*%
%LPD*%
G01*
G04 APERTURE LIST*
G04 #@! TA.AperFunction,Profile*
%ADD10C,0.100000*%
G04 #@! TD*
G04 APERTURE END LIST*
D10*
X238080000Y-130640000D02*
X238080000Y-124640000D01*
X108080000Y-298640000D02*
X108080000Y-338640000D01*
X65080000Y-124640000D02*
G75*
G03*
X59080000Y-130640000I0J-6000000D01*
G01*
X100580000Y-203640000D02*
X118580000Y-203640000D01*
X100580000Y-197640000D02*
X72580000Y-197640000D01*
X232882776Y-190640000D02*
G75*
G03*
X232882776Y-190640000I-1802776J0D01*
G01*
X58080000Y-130640000D02*
G75*
G03*
X59080000Y-130640000I500000J0D01*
G01*
X188080000Y-338640000D02*
X188080000Y-298640000D01*
X237080000Y-203640000D02*
G75*
G03*
X238080000Y-203640000I500000J0D01*
G01*
X66882776Y-130640000D02*
G75*
G03*
X66882776Y-130640000I-1802776J0D01*
G01*
X237080000Y-183140000D02*
X237080000Y-138140000D01*
X65080000Y-270640000D02*
G75*
G03*
X65080000Y-269640000I0J500000D01*
G01*
X72580000Y-196640000D02*
G75*
G03*
X72580000Y-197640000I0J-500000D01*
G01*
X243080000Y-124640000D02*
X238080000Y-124640000D01*
X58080000Y-211140000D02*
X58080000Y-256140000D01*
X58080000Y-256140000D02*
G75*
G03*
X59080000Y-256140000I500000J0D01*
G01*
X223580000Y-270640000D02*
G75*
G03*
X223580000Y-269640000I0J500000D01*
G01*
X238080000Y-256140000D02*
X238080000Y-211140000D01*
X237080000Y-276640000D02*
G75*
G03*
X238080000Y-276640000I500000J0D01*
G01*
X65080000Y-342640000D02*
X231080000Y-342640000D01*
X231080000Y-269640000D02*
G75*
G03*
X231080000Y-270640000I0J-500000D01*
G01*
X237080000Y-256140000D02*
G75*
G03*
X238080000Y-256140000I500000J0D01*
G01*
X237080000Y-276640000D02*
G75*
G03*
X231080000Y-270640000I-6000000J0D01*
G01*
X65080000Y-197640000D02*
G75*
G03*
X65080000Y-196640000I0J500000D01*
G01*
X238080000Y-263640000D02*
X238080000Y-276640000D01*
X231080000Y-342640000D02*
G75*
G03*
X237080000Y-336640000I0J6000000D01*
G01*
X238080000Y-336640000D02*
G75*
G03*
X237080000Y-336640000I-500000J0D01*
G01*
X237080000Y-329140000D02*
G75*
G03*
X238080000Y-329140000I500000J0D01*
G01*
X58080000Y-124640000D02*
X58080000Y-130640000D01*
X59080000Y-284140000D02*
G75*
G03*
X58080000Y-284140000I-500000J0D01*
G01*
X66882776Y-203640000D02*
G75*
G03*
X66882776Y-203640000I-1802776J0D01*
G01*
X58080000Y-263640000D02*
X58080000Y-276640000D01*
X100580000Y-197640000D02*
X100580000Y-203640000D01*
X238080000Y-263640000D02*
G75*
G03*
X237080000Y-263640000I-500000J0D01*
G01*
X90850000Y-319315000D02*
G75*
G03*
X91485000Y-318680000I0J635000D01*
G01*
X232882776Y-203640000D02*
G75*
G03*
X232882776Y-203640000I-1802776J0D01*
G01*
X59080000Y-190640000D02*
G75*
G03*
X58080000Y-190640000I-500000J0D01*
G01*
X66882776Y-336640000D02*
G75*
G03*
X66882776Y-336640000I-1802776J0D01*
G01*
X238080000Y-342640000D02*
X238080000Y-336640000D01*
X237080000Y-130640000D02*
G75*
G03*
X231080000Y-124640000I-6000000J0D01*
G01*
X65080000Y-270640000D02*
G75*
G03*
X59080000Y-276640000I0J-6000000D01*
G01*
X109080000Y-339640000D02*
X187080000Y-339640000D01*
X237080000Y-183140000D02*
G75*
G03*
X238080000Y-183140000I500000J0D01*
G01*
X231080000Y-196640000D02*
G75*
G03*
X237080000Y-190640000I0J6000000D01*
G01*
X59080000Y-329140000D02*
X59080000Y-284140000D01*
X238080000Y-190640000D02*
G75*
G03*
X237080000Y-190640000I-500000J0D01*
G01*
X237080000Y-203640000D02*
G75*
G03*
X231080000Y-197640000I-6000000J0D01*
G01*
X58080000Y-124640000D02*
X53080000Y-124640000D01*
X232882776Y-130640000D02*
G75*
G03*
X232882776Y-130640000I-1802776J0D01*
G01*
X58080000Y-284140000D02*
X58080000Y-329140000D01*
X238080000Y-183140000D02*
X238080000Y-138140000D01*
X91485000Y-318045000D02*
X91485000Y-318680000D01*
X237080000Y-256140000D02*
X237080000Y-211140000D01*
X223580000Y-197640000D02*
G75*
G03*
X223580000Y-196640000I0J500000D01*
G01*
X58080000Y-329140000D02*
G75*
G03*
X59080000Y-329140000I500000J0D01*
G01*
X58080000Y-203640000D02*
X58080000Y-190640000D01*
X232882776Y-263640000D02*
G75*
G03*
X232882776Y-263640000I-1802776J0D01*
G01*
X59080000Y-211140000D02*
G75*
G03*
X58080000Y-211140000I-500000J0D01*
G01*
X118580000Y-197640000D02*
X223580000Y-197640000D01*
X72580000Y-269640000D02*
G75*
G03*
X72580000Y-270640000I0J-500000D01*
G01*
X59080000Y-336640000D02*
G75*
G03*
X58080000Y-336640000I-500000J0D01*
G01*
X59080000Y-183140000D02*
X59080000Y-138140000D01*
X109080000Y-297640000D02*
G75*
G03*
X108080000Y-298640000I0J-1000000D01*
G01*
X59080000Y-263640000D02*
G75*
G03*
X65080000Y-269640000I6000000J0D01*
G01*
X66882776Y-263640000D02*
G75*
G03*
X66882776Y-263640000I-1802776J0D01*
G01*
X85770000Y-292645000D02*
X90850000Y-292645000D01*
X59080000Y-138140000D02*
G75*
G03*
X58080000Y-138140000I-500000J0D01*
G01*
X58080000Y-203640000D02*
G75*
G03*
X59080000Y-203640000I500000J0D01*
G01*
X85135000Y-318680000D02*
X85135000Y-293280000D01*
X118580000Y-203640000D02*
X118580000Y-197640000D01*
X90850000Y-319315000D02*
X85770000Y-319315000D01*
X187080000Y-339640000D02*
G75*
G03*
X188080000Y-338640000I0J1000000D01*
G01*
X59080000Y-190640000D02*
G75*
G03*
X65080000Y-196640000I6000000J0D01*
G01*
X237080000Y-130640000D02*
G75*
G03*
X238080000Y-130640000I500000J0D01*
G01*
X231080000Y-269640000D02*
G75*
G03*
X237080000Y-263640000I0J6000000D01*
G01*
X58080000Y-183140000D02*
G75*
G03*
X59080000Y-183140000I500000J0D01*
G01*
X243080000Y-342640000D02*
X243080000Y-124640000D01*
X238080000Y-284140000D02*
G75*
G03*
X237080000Y-284140000I-500000J0D01*
G01*
X232882776Y-336640000D02*
G75*
G03*
X232882776Y-336640000I-1802776J0D01*
G01*
X72580000Y-269640000D02*
X223580000Y-269640000D01*
X58080000Y-336640000D02*
X58080000Y-342640000D01*
X72580000Y-270640000D02*
X223580000Y-270640000D01*
X65080000Y-124640000D02*
X231080000Y-124640000D01*
X72580000Y-196640000D02*
X223580000Y-196640000D01*
X238080000Y-211140000D02*
G75*
G03*
X237080000Y-211140000I-500000J0D01*
G01*
X187080000Y-297640000D02*
X109080000Y-297640000D01*
X238080000Y-138140000D02*
G75*
G03*
X237080000Y-138140000I-500000J0D01*
G01*
X237080000Y-329140000D02*
X237080000Y-284140000D01*
X238080000Y-203640000D02*
X238080000Y-190640000D01*
X65080000Y-197640000D02*
G75*
G03*
X59080000Y-203640000I0J-6000000D01*
G01*
X85135000Y-318680000D02*
G75*
G03*
X85770000Y-319315000I635000J0D01*
G01*
X66882776Y-276640000D02*
G75*
G03*
X66882776Y-276640000I-1802776J0D01*
G01*
X59080000Y-336640000D02*
G75*
G03*
X65080000Y-342640000I6000000J0D01*
G01*
X66882776Y-190640000D02*
G75*
G03*
X66882776Y-190640000I-1802776J0D01*
G01*
X188080000Y-298640000D02*
G75*
G03*
X187080000Y-297640000I-1000000J0D01*
G01*
X91485000Y-293280000D02*
X91485000Y-318045000D01*
X91485000Y-293280000D02*
G75*
G03*
X90850000Y-292645000I-635000J0D01*
G01*
X238080000Y-329140000D02*
X238080000Y-284140000D01*
X59080000Y-256140000D02*
X59080000Y-211140000D01*
X53080000Y-342640000D02*
X58080000Y-342640000D01*
X231080000Y-196640000D02*
G75*
G03*
X231080000Y-197640000I0J-500000D01*
G01*
X58080000Y-276640000D02*
G75*
G03*
X59080000Y-276640000I500000J0D01*
G01*
X108080000Y-338640000D02*
G75*
G03*
X109080000Y-339640000I1000000J0D01*
G01*
X232882776Y-276640000D02*
G75*
G03*
X232882776Y-276640000I-1802776J0D01*
G01*
X59080000Y-263640000D02*
G75*
G03*
X58080000Y-263640000I-500000J0D01*
G01*
X58080000Y-138140000D02*
X58080000Y-183140000D01*
X53080000Y-124640000D02*
X53080000Y-342640000D01*
X238080000Y-342640000D02*
X243080000Y-342640000D01*
X85770000Y-292645000D02*
G75*
G03*
X85135000Y-293280000I0J-635000D01*
G01*
M02*
