G04 #@! TF.GenerationSoftware,KiCad,Pcbnew,7.0.8*
G04 #@! TF.CreationDate,2023-11-01T09:31:03+09:00*
G04 #@! TF.ProjectId,a5d27_handheld_console_pcb,61356432-375f-4686-916e-6468656c645f,rev?*
G04 #@! TF.SameCoordinates,Original*
G04 #@! TF.FileFunction,Legend,Bot*
G04 #@! TF.FilePolarity,Positive*
%FSLAX46Y46*%
G04 Gerber Fmt 4.6, Leading zero omitted, Abs format (unit mm)*
G04 Created by KiCad (PCBNEW 7.0.8) date 2023-11-01 09:31:03*
%MOMM*%
%LPD*%
G01*
G04 APERTURE LIST*
G04 Aperture macros list*
%AMRoundRect*
0 Rectangle with rounded corners*
0 $1 Rounding radius*
0 $2 $3 $4 $5 $6 $7 $8 $9 X,Y pos of 4 corners*
0 Add a 4 corners polygon primitive as box body*
4,1,4,$2,$3,$4,$5,$6,$7,$8,$9,$2,$3,0*
0 Add four circle primitives for the rounded corners*
1,1,$1+$1,$2,$3*
1,1,$1+$1,$4,$5*
1,1,$1+$1,$6,$7*
1,1,$1+$1,$8,$9*
0 Add four rect primitives between the rounded corners*
20,1,$1+$1,$2,$3,$4,$5,0*
20,1,$1+$1,$4,$5,$6,$7,0*
20,1,$1+$1,$6,$7,$8,$9,0*
20,1,$1+$1,$8,$9,$2,$3,0*%
G04 Aperture macros list end*
%ADD10C,0.200000*%
%ADD11C,0.150000*%
%ADD12C,0.175000*%
%ADD13C,0.500000*%
%ADD14C,0.100000*%
%ADD15C,0.300000*%
%ADD16C,0.127000*%
%ADD17C,2.200000*%
%ADD18C,0.700000*%
%ADD19C,1.800000*%
%ADD20C,1.524000*%
%ADD21R,1.200000X1.200000*%
%ADD22R,1.800000X1.600000*%
%ADD23R,2.000000X0.600000*%
%ADD24R,0.600000X2.000000*%
%ADD25R,0.550000X0.800000*%
%ADD26R,1.600000X1.800000*%
%ADD27R,1.000000X2.300000*%
%ADD28R,3.300000X2.300000*%
%ADD29C,3.000000*%
%ADD30R,2.000000X0.700000*%
%ADD31R,1.400000X2.700000*%
%ADD32R,2.600000X1.000000*%
%ADD33R,2.600000X1.500000*%
%ADD34R,0.900000X0.800000*%
%ADD35C,3.500000*%
%ADD36C,3.200000*%
%ADD37R,10.800000X6.400000*%
%ADD38R,4.000000X1.500000*%
%ADD39R,0.800000X0.900000*%
%ADD40RoundRect,0.102000X0.350000X0.600000X-0.350000X0.600000X-0.350000X-0.600000X0.350000X-0.600000X0*%
%ADD41RoundRect,0.102000X0.500000X0.600000X-0.500000X0.600000X-0.500000X-0.600000X0.500000X-0.600000X0*%
%ADD42RoundRect,0.102000X0.500000X1.400000X-0.500000X1.400000X-0.500000X-1.400000X0.500000X-1.400000X0*%
%ADD43RoundRect,0.102000X0.650000X0.950000X-0.650000X0.950000X-0.650000X-0.950000X0.650000X-0.950000X0*%
%ADD44RoundRect,0.102000X0.500000X0.400000X-0.500000X0.400000X-0.500000X-0.400000X0.500000X-0.400000X0*%
%ADD45RoundRect,0.087500X0.412500X-0.087500X0.412500X0.087500X-0.412500X0.087500X-0.412500X-0.087500X0*%
%ADD46C,0.900000*%
%ADD47R,0.500000X2.800000*%
%ADD48R,2.000000X2.500000*%
%ADD49R,1.500000X1.400000*%
G04 APERTURE END LIST*
D10*
X97013483Y-294490647D02*
X96746817Y-294490647D01*
X96632531Y-294909695D02*
X97013483Y-294909695D01*
X97013483Y-294909695D02*
X97013483Y-294109695D01*
X97013483Y-294109695D02*
X96632531Y-294109695D01*
X96403959Y-294109695D02*
X95946816Y-294109695D01*
X96175388Y-294909695D02*
X96175388Y-294109695D01*
X95680149Y-294909695D02*
X95680149Y-294109695D01*
X95680149Y-294490647D02*
X95223006Y-294490647D01*
X95223006Y-294909695D02*
X95223006Y-294109695D01*
X95032531Y-294985885D02*
X94423007Y-294985885D01*
X94346816Y-294109695D02*
X93889673Y-294109695D01*
X94118245Y-294909695D02*
X94118245Y-294109695D01*
X93699197Y-294109695D02*
X93165863Y-294909695D01*
X93165863Y-294109695D02*
X93699197Y-294909695D01*
X92861101Y-294909695D02*
X92861101Y-294109695D01*
X92861101Y-294109695D02*
X92556339Y-294109695D01*
X92556339Y-294109695D02*
X92480149Y-294147790D01*
X92480149Y-294147790D02*
X92442054Y-294185885D01*
X92442054Y-294185885D02*
X92403958Y-294262076D01*
X92403958Y-294262076D02*
X92403958Y-294376361D01*
X92403958Y-294376361D02*
X92442054Y-294452552D01*
X92442054Y-294452552D02*
X92480149Y-294490647D01*
X92480149Y-294490647D02*
X92556339Y-294528742D01*
X92556339Y-294528742D02*
X92861101Y-294528742D01*
X98842055Y-309730647D02*
X98575389Y-309730647D01*
X98461103Y-310149695D02*
X98842055Y-310149695D01*
X98842055Y-310149695D02*
X98842055Y-309349695D01*
X98842055Y-309349695D02*
X98461103Y-309349695D01*
X98156341Y-310111600D02*
X98042055Y-310149695D01*
X98042055Y-310149695D02*
X97851579Y-310149695D01*
X97851579Y-310149695D02*
X97775388Y-310111600D01*
X97775388Y-310111600D02*
X97737293Y-310073504D01*
X97737293Y-310073504D02*
X97699198Y-309997314D01*
X97699198Y-309997314D02*
X97699198Y-309921123D01*
X97699198Y-309921123D02*
X97737293Y-309844933D01*
X97737293Y-309844933D02*
X97775388Y-309806838D01*
X97775388Y-309806838D02*
X97851579Y-309768742D01*
X97851579Y-309768742D02*
X98003960Y-309730647D01*
X98003960Y-309730647D02*
X98080150Y-309692552D01*
X98080150Y-309692552D02*
X98118245Y-309654457D01*
X98118245Y-309654457D02*
X98156341Y-309578266D01*
X98156341Y-309578266D02*
X98156341Y-309502076D01*
X98156341Y-309502076D02*
X98118245Y-309425885D01*
X98118245Y-309425885D02*
X98080150Y-309387790D01*
X98080150Y-309387790D02*
X98003960Y-309349695D01*
X98003960Y-309349695D02*
X97813483Y-309349695D01*
X97813483Y-309349695D02*
X97699198Y-309387790D01*
X97356340Y-310149695D02*
X97356340Y-309349695D01*
X97356340Y-309349695D02*
X97051578Y-309349695D01*
X97051578Y-309349695D02*
X96975388Y-309387790D01*
X96975388Y-309387790D02*
X96937293Y-309425885D01*
X96937293Y-309425885D02*
X96899197Y-309502076D01*
X96899197Y-309502076D02*
X96899197Y-309616361D01*
X96899197Y-309616361D02*
X96937293Y-309692552D01*
X96937293Y-309692552D02*
X96975388Y-309730647D01*
X96975388Y-309730647D02*
X97051578Y-309768742D01*
X97051578Y-309768742D02*
X97356340Y-309768742D01*
X96632531Y-309349695D02*
X96137293Y-309349695D01*
X96137293Y-309349695D02*
X96403959Y-309654457D01*
X96403959Y-309654457D02*
X96289674Y-309654457D01*
X96289674Y-309654457D02*
X96213483Y-309692552D01*
X96213483Y-309692552D02*
X96175388Y-309730647D01*
X96175388Y-309730647D02*
X96137293Y-309806838D01*
X96137293Y-309806838D02*
X96137293Y-309997314D01*
X96137293Y-309997314D02*
X96175388Y-310073504D01*
X96175388Y-310073504D02*
X96213483Y-310111600D01*
X96213483Y-310111600D02*
X96289674Y-310149695D01*
X96289674Y-310149695D02*
X96518245Y-310149695D01*
X96518245Y-310149695D02*
X96594436Y-310111600D01*
X96594436Y-310111600D02*
X96632531Y-310073504D01*
X95832531Y-309425885D02*
X95794435Y-309387790D01*
X95794435Y-309387790D02*
X95718245Y-309349695D01*
X95718245Y-309349695D02*
X95527769Y-309349695D01*
X95527769Y-309349695D02*
X95451578Y-309387790D01*
X95451578Y-309387790D02*
X95413483Y-309425885D01*
X95413483Y-309425885D02*
X95375388Y-309502076D01*
X95375388Y-309502076D02*
X95375388Y-309578266D01*
X95375388Y-309578266D02*
X95413483Y-309692552D01*
X95413483Y-309692552D02*
X95870626Y-310149695D01*
X95870626Y-310149695D02*
X95375388Y-310149695D01*
X95223007Y-310225885D02*
X94613483Y-310225885D01*
X93965863Y-310149695D02*
X94232530Y-309768742D01*
X94423006Y-310149695D02*
X94423006Y-309349695D01*
X94423006Y-309349695D02*
X94118244Y-309349695D01*
X94118244Y-309349695D02*
X94042054Y-309387790D01*
X94042054Y-309387790D02*
X94003959Y-309425885D01*
X94003959Y-309425885D02*
X93965863Y-309502076D01*
X93965863Y-309502076D02*
X93965863Y-309616361D01*
X93965863Y-309616361D02*
X94003959Y-309692552D01*
X94003959Y-309692552D02*
X94042054Y-309730647D01*
X94042054Y-309730647D02*
X94118244Y-309768742D01*
X94118244Y-309768742D02*
X94423006Y-309768742D01*
X93699197Y-309349695D02*
X93165863Y-310149695D01*
X93165863Y-309349695D02*
X93699197Y-310149695D01*
X92861101Y-310149695D02*
X92861101Y-309349695D01*
X92861101Y-309349695D02*
X92670625Y-309349695D01*
X92670625Y-309349695D02*
X92556339Y-309387790D01*
X92556339Y-309387790D02*
X92480149Y-309463980D01*
X92480149Y-309463980D02*
X92442054Y-309540171D01*
X92442054Y-309540171D02*
X92403958Y-309692552D01*
X92403958Y-309692552D02*
X92403958Y-309806838D01*
X92403958Y-309806838D02*
X92442054Y-309959219D01*
X92442054Y-309959219D02*
X92480149Y-310035409D01*
X92480149Y-310035409D02*
X92556339Y-310111600D01*
X92556339Y-310111600D02*
X92670625Y-310149695D01*
X92670625Y-310149695D02*
X92861101Y-310149695D01*
X102042055Y-317731600D02*
X101927769Y-317769695D01*
X101927769Y-317769695D02*
X101737293Y-317769695D01*
X101737293Y-317769695D02*
X101661102Y-317731600D01*
X101661102Y-317731600D02*
X101623007Y-317693504D01*
X101623007Y-317693504D02*
X101584912Y-317617314D01*
X101584912Y-317617314D02*
X101584912Y-317541123D01*
X101584912Y-317541123D02*
X101623007Y-317464933D01*
X101623007Y-317464933D02*
X101661102Y-317426838D01*
X101661102Y-317426838D02*
X101737293Y-317388742D01*
X101737293Y-317388742D02*
X101889674Y-317350647D01*
X101889674Y-317350647D02*
X101965864Y-317312552D01*
X101965864Y-317312552D02*
X102003959Y-317274457D01*
X102003959Y-317274457D02*
X102042055Y-317198266D01*
X102042055Y-317198266D02*
X102042055Y-317122076D01*
X102042055Y-317122076D02*
X102003959Y-317045885D01*
X102003959Y-317045885D02*
X101965864Y-317007790D01*
X101965864Y-317007790D02*
X101889674Y-316969695D01*
X101889674Y-316969695D02*
X101699197Y-316969695D01*
X101699197Y-316969695D02*
X101584912Y-317007790D01*
X101280150Y-317541123D02*
X100899197Y-317541123D01*
X101356340Y-317769695D02*
X101089673Y-316969695D01*
X101089673Y-316969695D02*
X100823007Y-317769695D01*
X100556340Y-317769695D02*
X100556340Y-316969695D01*
X100556340Y-316969695D02*
X100289674Y-317541123D01*
X100289674Y-317541123D02*
X100023007Y-316969695D01*
X100023007Y-316969695D02*
X100023007Y-317769695D01*
X99680150Y-317541123D02*
X99299197Y-317541123D01*
X99756340Y-317769695D02*
X99489673Y-316969695D01*
X99489673Y-316969695D02*
X99223007Y-317769695D01*
X98575388Y-316969695D02*
X98956340Y-316969695D01*
X98956340Y-316969695D02*
X98994436Y-317350647D01*
X98994436Y-317350647D02*
X98956340Y-317312552D01*
X98956340Y-317312552D02*
X98880150Y-317274457D01*
X98880150Y-317274457D02*
X98689674Y-317274457D01*
X98689674Y-317274457D02*
X98613483Y-317312552D01*
X98613483Y-317312552D02*
X98575388Y-317350647D01*
X98575388Y-317350647D02*
X98537293Y-317426838D01*
X98537293Y-317426838D02*
X98537293Y-317617314D01*
X98537293Y-317617314D02*
X98575388Y-317693504D01*
X98575388Y-317693504D02*
X98613483Y-317731600D01*
X98613483Y-317731600D02*
X98689674Y-317769695D01*
X98689674Y-317769695D02*
X98880150Y-317769695D01*
X98880150Y-317769695D02*
X98956340Y-317731600D01*
X98956340Y-317731600D02*
X98994436Y-317693504D01*
X98194435Y-317769695D02*
X98194435Y-316969695D01*
X98194435Y-316969695D02*
X98003959Y-316969695D01*
X98003959Y-316969695D02*
X97889673Y-317007790D01*
X97889673Y-317007790D02*
X97813483Y-317083980D01*
X97813483Y-317083980D02*
X97775388Y-317160171D01*
X97775388Y-317160171D02*
X97737292Y-317312552D01*
X97737292Y-317312552D02*
X97737292Y-317426838D01*
X97737292Y-317426838D02*
X97775388Y-317579219D01*
X97775388Y-317579219D02*
X97813483Y-317655409D01*
X97813483Y-317655409D02*
X97889673Y-317731600D01*
X97889673Y-317731600D02*
X98003959Y-317769695D01*
X98003959Y-317769695D02*
X98194435Y-317769695D01*
X97432531Y-317045885D02*
X97394435Y-317007790D01*
X97394435Y-317007790D02*
X97318245Y-316969695D01*
X97318245Y-316969695D02*
X97127769Y-316969695D01*
X97127769Y-316969695D02*
X97051578Y-317007790D01*
X97051578Y-317007790D02*
X97013483Y-317045885D01*
X97013483Y-317045885D02*
X96975388Y-317122076D01*
X96975388Y-317122076D02*
X96975388Y-317198266D01*
X96975388Y-317198266D02*
X97013483Y-317312552D01*
X97013483Y-317312552D02*
X97470626Y-317769695D01*
X97470626Y-317769695D02*
X96975388Y-317769695D01*
X96708721Y-316969695D02*
X96175387Y-316969695D01*
X96175387Y-316969695D02*
X96518245Y-317769695D01*
X96061102Y-317845885D02*
X95451578Y-317845885D01*
X95261101Y-316969695D02*
X95261101Y-317617314D01*
X95261101Y-317617314D02*
X95223006Y-317693504D01*
X95223006Y-317693504D02*
X95184911Y-317731600D01*
X95184911Y-317731600D02*
X95108720Y-317769695D01*
X95108720Y-317769695D02*
X94956339Y-317769695D01*
X94956339Y-317769695D02*
X94880149Y-317731600D01*
X94880149Y-317731600D02*
X94842054Y-317693504D01*
X94842054Y-317693504D02*
X94803958Y-317617314D01*
X94803958Y-317617314D02*
X94803958Y-316969695D01*
X93965863Y-317769695D02*
X94232530Y-317388742D01*
X94423006Y-317769695D02*
X94423006Y-316969695D01*
X94423006Y-316969695D02*
X94118244Y-316969695D01*
X94118244Y-316969695D02*
X94042054Y-317007790D01*
X94042054Y-317007790D02*
X94003959Y-317045885D01*
X94003959Y-317045885D02*
X93965863Y-317122076D01*
X93965863Y-317122076D02*
X93965863Y-317236361D01*
X93965863Y-317236361D02*
X94003959Y-317312552D01*
X94003959Y-317312552D02*
X94042054Y-317350647D01*
X94042054Y-317350647D02*
X94118244Y-317388742D01*
X94118244Y-317388742D02*
X94423006Y-317388742D01*
X93699197Y-316969695D02*
X93165863Y-317769695D01*
X93165863Y-316969695D02*
X93699197Y-317769695D01*
X92861101Y-317769695D02*
X92861101Y-316969695D01*
X92861101Y-316969695D02*
X92670625Y-316969695D01*
X92670625Y-316969695D02*
X92556339Y-317007790D01*
X92556339Y-317007790D02*
X92480149Y-317083980D01*
X92480149Y-317083980D02*
X92442054Y-317160171D01*
X92442054Y-317160171D02*
X92403958Y-317312552D01*
X92403958Y-317312552D02*
X92403958Y-317426838D01*
X92403958Y-317426838D02*
X92442054Y-317579219D01*
X92442054Y-317579219D02*
X92480149Y-317655409D01*
X92480149Y-317655409D02*
X92556339Y-317731600D01*
X92556339Y-317731600D02*
X92670625Y-317769695D01*
X92670625Y-317769695D02*
X92861101Y-317769695D01*
D11*
X169460951Y-236213866D02*
X168699047Y-236213866D01*
X169079999Y-236594819D02*
X169079999Y-235832914D01*
D10*
X97203959Y-299570647D02*
X96937293Y-299570647D01*
X96823007Y-299989695D02*
X97203959Y-299989695D01*
X97203959Y-299989695D02*
X97203959Y-299189695D01*
X97203959Y-299189695D02*
X96823007Y-299189695D01*
X96594435Y-299189695D02*
X96137292Y-299189695D01*
X96365864Y-299989695D02*
X96365864Y-299189695D01*
X95870625Y-299989695D02*
X95870625Y-299189695D01*
X95870625Y-299570647D02*
X95413482Y-299570647D01*
X95413482Y-299989695D02*
X95413482Y-299189695D01*
X95223007Y-300065885D02*
X94613483Y-300065885D01*
X93965863Y-299989695D02*
X94232530Y-299608742D01*
X94423006Y-299989695D02*
X94423006Y-299189695D01*
X94423006Y-299189695D02*
X94118244Y-299189695D01*
X94118244Y-299189695D02*
X94042054Y-299227790D01*
X94042054Y-299227790D02*
X94003959Y-299265885D01*
X94003959Y-299265885D02*
X93965863Y-299342076D01*
X93965863Y-299342076D02*
X93965863Y-299456361D01*
X93965863Y-299456361D02*
X94003959Y-299532552D01*
X94003959Y-299532552D02*
X94042054Y-299570647D01*
X94042054Y-299570647D02*
X94118244Y-299608742D01*
X94118244Y-299608742D02*
X94423006Y-299608742D01*
X93699197Y-299189695D02*
X93165863Y-299989695D01*
X93165863Y-299189695D02*
X93699197Y-299989695D01*
X92861101Y-299989695D02*
X92861101Y-299189695D01*
X92861101Y-299189695D02*
X92556339Y-299189695D01*
X92556339Y-299189695D02*
X92480149Y-299227790D01*
X92480149Y-299227790D02*
X92442054Y-299265885D01*
X92442054Y-299265885D02*
X92403958Y-299342076D01*
X92403958Y-299342076D02*
X92403958Y-299456361D01*
X92403958Y-299456361D02*
X92442054Y-299532552D01*
X92442054Y-299532552D02*
X92480149Y-299570647D01*
X92480149Y-299570647D02*
X92556339Y-299608742D01*
X92556339Y-299608742D02*
X92861101Y-299608742D01*
X98651579Y-307190647D02*
X98384913Y-307190647D01*
X98270627Y-307609695D02*
X98651579Y-307609695D01*
X98651579Y-307609695D02*
X98651579Y-306809695D01*
X98651579Y-306809695D02*
X98270627Y-306809695D01*
X97965865Y-307571600D02*
X97851579Y-307609695D01*
X97851579Y-307609695D02*
X97661103Y-307609695D01*
X97661103Y-307609695D02*
X97584912Y-307571600D01*
X97584912Y-307571600D02*
X97546817Y-307533504D01*
X97546817Y-307533504D02*
X97508722Y-307457314D01*
X97508722Y-307457314D02*
X97508722Y-307381123D01*
X97508722Y-307381123D02*
X97546817Y-307304933D01*
X97546817Y-307304933D02*
X97584912Y-307266838D01*
X97584912Y-307266838D02*
X97661103Y-307228742D01*
X97661103Y-307228742D02*
X97813484Y-307190647D01*
X97813484Y-307190647D02*
X97889674Y-307152552D01*
X97889674Y-307152552D02*
X97927769Y-307114457D01*
X97927769Y-307114457D02*
X97965865Y-307038266D01*
X97965865Y-307038266D02*
X97965865Y-306962076D01*
X97965865Y-306962076D02*
X97927769Y-306885885D01*
X97927769Y-306885885D02*
X97889674Y-306847790D01*
X97889674Y-306847790D02*
X97813484Y-306809695D01*
X97813484Y-306809695D02*
X97623007Y-306809695D01*
X97623007Y-306809695D02*
X97508722Y-306847790D01*
X97165864Y-307609695D02*
X97165864Y-306809695D01*
X97165864Y-306809695D02*
X96861102Y-306809695D01*
X96861102Y-306809695D02*
X96784912Y-306847790D01*
X96784912Y-306847790D02*
X96746817Y-306885885D01*
X96746817Y-306885885D02*
X96708721Y-306962076D01*
X96708721Y-306962076D02*
X96708721Y-307076361D01*
X96708721Y-307076361D02*
X96746817Y-307152552D01*
X96746817Y-307152552D02*
X96784912Y-307190647D01*
X96784912Y-307190647D02*
X96861102Y-307228742D01*
X96861102Y-307228742D02*
X97165864Y-307228742D01*
X96442055Y-306809695D02*
X95946817Y-306809695D01*
X95946817Y-306809695D02*
X96213483Y-307114457D01*
X96213483Y-307114457D02*
X96099198Y-307114457D01*
X96099198Y-307114457D02*
X96023007Y-307152552D01*
X96023007Y-307152552D02*
X95984912Y-307190647D01*
X95984912Y-307190647D02*
X95946817Y-307266838D01*
X95946817Y-307266838D02*
X95946817Y-307457314D01*
X95946817Y-307457314D02*
X95984912Y-307533504D01*
X95984912Y-307533504D02*
X96023007Y-307571600D01*
X96023007Y-307571600D02*
X96099198Y-307609695D01*
X96099198Y-307609695D02*
X96327769Y-307609695D01*
X96327769Y-307609695D02*
X96403960Y-307571600D01*
X96403960Y-307571600D02*
X96442055Y-307533504D01*
X95642055Y-306885885D02*
X95603959Y-306847790D01*
X95603959Y-306847790D02*
X95527769Y-306809695D01*
X95527769Y-306809695D02*
X95337293Y-306809695D01*
X95337293Y-306809695D02*
X95261102Y-306847790D01*
X95261102Y-306847790D02*
X95223007Y-306885885D01*
X95223007Y-306885885D02*
X95184912Y-306962076D01*
X95184912Y-306962076D02*
X95184912Y-307038266D01*
X95184912Y-307038266D02*
X95223007Y-307152552D01*
X95223007Y-307152552D02*
X95680150Y-307609695D01*
X95680150Y-307609695D02*
X95184912Y-307609695D01*
X95032531Y-307685885D02*
X94423007Y-307685885D01*
X94346816Y-306809695D02*
X93889673Y-306809695D01*
X94118245Y-307609695D02*
X94118245Y-306809695D01*
X93699197Y-306809695D02*
X93165863Y-307609695D01*
X93165863Y-306809695D02*
X93699197Y-307609695D01*
X92861101Y-307609695D02*
X92861101Y-306809695D01*
X92861101Y-306809695D02*
X92670625Y-306809695D01*
X92670625Y-306809695D02*
X92556339Y-306847790D01*
X92556339Y-306847790D02*
X92480149Y-306923980D01*
X92480149Y-306923980D02*
X92442054Y-307000171D01*
X92442054Y-307000171D02*
X92403958Y-307152552D01*
X92403958Y-307152552D02*
X92403958Y-307266838D01*
X92403958Y-307266838D02*
X92442054Y-307419219D01*
X92442054Y-307419219D02*
X92480149Y-307495409D01*
X92480149Y-307495409D02*
X92556339Y-307571600D01*
X92556339Y-307571600D02*
X92670625Y-307609695D01*
X92670625Y-307609695D02*
X92861101Y-307609695D01*
X97127769Y-297030647D02*
X96861103Y-297030647D01*
X96746817Y-297449695D02*
X97127769Y-297449695D01*
X97127769Y-297449695D02*
X97127769Y-296649695D01*
X97127769Y-296649695D02*
X96746817Y-296649695D01*
X96518245Y-296649695D02*
X96061102Y-296649695D01*
X96289674Y-297449695D02*
X96289674Y-296649695D01*
X95794435Y-297449695D02*
X95794435Y-296649695D01*
X95794435Y-297030647D02*
X95337292Y-297030647D01*
X95337292Y-297449695D02*
X95337292Y-296649695D01*
X95146817Y-297525885D02*
X94537293Y-297525885D01*
X94461102Y-296649695D02*
X94003959Y-296649695D01*
X94232531Y-297449695D02*
X94232531Y-296649695D01*
X93813483Y-296649695D02*
X93280149Y-297449695D01*
X93280149Y-296649695D02*
X93813483Y-297449695D01*
X92975387Y-297449695D02*
X92975387Y-296649695D01*
X92975387Y-296649695D02*
X92708721Y-297221123D01*
X92708721Y-297221123D02*
X92442054Y-296649695D01*
X92442054Y-296649695D02*
X92442054Y-297449695D01*
X84254136Y-309349695D02*
X83758898Y-309349695D01*
X83758898Y-309349695D02*
X84025564Y-309654457D01*
X84025564Y-309654457D02*
X83911279Y-309654457D01*
X83911279Y-309654457D02*
X83835088Y-309692552D01*
X83835088Y-309692552D02*
X83796993Y-309730647D01*
X83796993Y-309730647D02*
X83758898Y-309806838D01*
X83758898Y-309806838D02*
X83758898Y-309997314D01*
X83758898Y-309997314D02*
X83796993Y-310073504D01*
X83796993Y-310073504D02*
X83835088Y-310111600D01*
X83835088Y-310111600D02*
X83911279Y-310149695D01*
X83911279Y-310149695D02*
X84139850Y-310149695D01*
X84139850Y-310149695D02*
X84216041Y-310111600D01*
X84216041Y-310111600D02*
X84254136Y-310073504D01*
X83530326Y-309349695D02*
X83263659Y-310149695D01*
X83263659Y-310149695D02*
X82996993Y-309349695D01*
X82806517Y-309349695D02*
X82311279Y-309349695D01*
X82311279Y-309349695D02*
X82577945Y-309654457D01*
X82577945Y-309654457D02*
X82463660Y-309654457D01*
X82463660Y-309654457D02*
X82387469Y-309692552D01*
X82387469Y-309692552D02*
X82349374Y-309730647D01*
X82349374Y-309730647D02*
X82311279Y-309806838D01*
X82311279Y-309806838D02*
X82311279Y-309997314D01*
X82311279Y-309997314D02*
X82349374Y-310073504D01*
X82349374Y-310073504D02*
X82387469Y-310111600D01*
X82387469Y-310111600D02*
X82463660Y-310149695D01*
X82463660Y-310149695D02*
X82692231Y-310149695D01*
X82692231Y-310149695D02*
X82768422Y-310111600D01*
X82768422Y-310111600D02*
X82806517Y-310073504D01*
X97699196Y-312689695D02*
X97699196Y-311889695D01*
X97699196Y-311889695D02*
X97508720Y-311889695D01*
X97508720Y-311889695D02*
X97394434Y-311927790D01*
X97394434Y-311927790D02*
X97318244Y-312003980D01*
X97318244Y-312003980D02*
X97280149Y-312080171D01*
X97280149Y-312080171D02*
X97242053Y-312232552D01*
X97242053Y-312232552D02*
X97242053Y-312346838D01*
X97242053Y-312346838D02*
X97280149Y-312499219D01*
X97280149Y-312499219D02*
X97318244Y-312575409D01*
X97318244Y-312575409D02*
X97394434Y-312651600D01*
X97394434Y-312651600D02*
X97508720Y-312689695D01*
X97508720Y-312689695D02*
X97699196Y-312689695D01*
X96899196Y-312689695D02*
X96899196Y-311889695D01*
X96556340Y-312651600D02*
X96442054Y-312689695D01*
X96442054Y-312689695D02*
X96251578Y-312689695D01*
X96251578Y-312689695D02*
X96175387Y-312651600D01*
X96175387Y-312651600D02*
X96137292Y-312613504D01*
X96137292Y-312613504D02*
X96099197Y-312537314D01*
X96099197Y-312537314D02*
X96099197Y-312461123D01*
X96099197Y-312461123D02*
X96137292Y-312384933D01*
X96137292Y-312384933D02*
X96175387Y-312346838D01*
X96175387Y-312346838D02*
X96251578Y-312308742D01*
X96251578Y-312308742D02*
X96403959Y-312270647D01*
X96403959Y-312270647D02*
X96480149Y-312232552D01*
X96480149Y-312232552D02*
X96518244Y-312194457D01*
X96518244Y-312194457D02*
X96556340Y-312118266D01*
X96556340Y-312118266D02*
X96556340Y-312042076D01*
X96556340Y-312042076D02*
X96518244Y-311965885D01*
X96518244Y-311965885D02*
X96480149Y-311927790D01*
X96480149Y-311927790D02*
X96403959Y-311889695D01*
X96403959Y-311889695D02*
X96213482Y-311889695D01*
X96213482Y-311889695D02*
X96099197Y-311927790D01*
X95946816Y-312765885D02*
X95337292Y-312765885D01*
X94880149Y-312270647D02*
X94765863Y-312308742D01*
X94765863Y-312308742D02*
X94727768Y-312346838D01*
X94727768Y-312346838D02*
X94689672Y-312423028D01*
X94689672Y-312423028D02*
X94689672Y-312537314D01*
X94689672Y-312537314D02*
X94727768Y-312613504D01*
X94727768Y-312613504D02*
X94765863Y-312651600D01*
X94765863Y-312651600D02*
X94842053Y-312689695D01*
X94842053Y-312689695D02*
X95146815Y-312689695D01*
X95146815Y-312689695D02*
X95146815Y-311889695D01*
X95146815Y-311889695D02*
X94880149Y-311889695D01*
X94880149Y-311889695D02*
X94803958Y-311927790D01*
X94803958Y-311927790D02*
X94765863Y-311965885D01*
X94765863Y-311965885D02*
X94727768Y-312042076D01*
X94727768Y-312042076D02*
X94727768Y-312118266D01*
X94727768Y-312118266D02*
X94765863Y-312194457D01*
X94765863Y-312194457D02*
X94803958Y-312232552D01*
X94803958Y-312232552D02*
X94880149Y-312270647D01*
X94880149Y-312270647D02*
X95146815Y-312270647D01*
X94194434Y-311889695D02*
X94042053Y-311889695D01*
X94042053Y-311889695D02*
X93965863Y-311927790D01*
X93965863Y-311927790D02*
X93889672Y-312003980D01*
X93889672Y-312003980D02*
X93851577Y-312156361D01*
X93851577Y-312156361D02*
X93851577Y-312423028D01*
X93851577Y-312423028D02*
X93889672Y-312575409D01*
X93889672Y-312575409D02*
X93965863Y-312651600D01*
X93965863Y-312651600D02*
X94042053Y-312689695D01*
X94042053Y-312689695D02*
X94194434Y-312689695D01*
X94194434Y-312689695D02*
X94270625Y-312651600D01*
X94270625Y-312651600D02*
X94346815Y-312575409D01*
X94346815Y-312575409D02*
X94384911Y-312423028D01*
X94384911Y-312423028D02*
X94384911Y-312156361D01*
X94384911Y-312156361D02*
X94346815Y-312003980D01*
X94346815Y-312003980D02*
X94270625Y-311927790D01*
X94270625Y-311927790D02*
X94194434Y-311889695D01*
X93356339Y-311889695D02*
X93203958Y-311889695D01*
X93203958Y-311889695D02*
X93127768Y-311927790D01*
X93127768Y-311927790D02*
X93051577Y-312003980D01*
X93051577Y-312003980D02*
X93013482Y-312156361D01*
X93013482Y-312156361D02*
X93013482Y-312423028D01*
X93013482Y-312423028D02*
X93051577Y-312575409D01*
X93051577Y-312575409D02*
X93127768Y-312651600D01*
X93127768Y-312651600D02*
X93203958Y-312689695D01*
X93203958Y-312689695D02*
X93356339Y-312689695D01*
X93356339Y-312689695D02*
X93432530Y-312651600D01*
X93432530Y-312651600D02*
X93508720Y-312575409D01*
X93508720Y-312575409D02*
X93546816Y-312423028D01*
X93546816Y-312423028D02*
X93546816Y-312156361D01*
X93546816Y-312156361D02*
X93508720Y-312003980D01*
X93508720Y-312003980D02*
X93432530Y-311927790D01*
X93432530Y-311927790D02*
X93356339Y-311889695D01*
X92784911Y-311889695D02*
X92327768Y-311889695D01*
X92556340Y-312689695D02*
X92556340Y-311889695D01*
X83758898Y-317007790D02*
X83835088Y-316969695D01*
X83835088Y-316969695D02*
X83949374Y-316969695D01*
X83949374Y-316969695D02*
X84063660Y-317007790D01*
X84063660Y-317007790D02*
X84139850Y-317083980D01*
X84139850Y-317083980D02*
X84177945Y-317160171D01*
X84177945Y-317160171D02*
X84216041Y-317312552D01*
X84216041Y-317312552D02*
X84216041Y-317426838D01*
X84216041Y-317426838D02*
X84177945Y-317579219D01*
X84177945Y-317579219D02*
X84139850Y-317655409D01*
X84139850Y-317655409D02*
X84063660Y-317731600D01*
X84063660Y-317731600D02*
X83949374Y-317769695D01*
X83949374Y-317769695D02*
X83873183Y-317769695D01*
X83873183Y-317769695D02*
X83758898Y-317731600D01*
X83758898Y-317731600D02*
X83720802Y-317693504D01*
X83720802Y-317693504D02*
X83720802Y-317426838D01*
X83720802Y-317426838D02*
X83873183Y-317426838D01*
X83377945Y-317769695D02*
X83377945Y-316969695D01*
X83377945Y-316969695D02*
X82920802Y-317769695D01*
X82920802Y-317769695D02*
X82920802Y-316969695D01*
X82539850Y-317769695D02*
X82539850Y-316969695D01*
X82539850Y-316969695D02*
X82349374Y-316969695D01*
X82349374Y-316969695D02*
X82235088Y-317007790D01*
X82235088Y-317007790D02*
X82158898Y-317083980D01*
X82158898Y-317083980D02*
X82120803Y-317160171D01*
X82120803Y-317160171D02*
X82082707Y-317312552D01*
X82082707Y-317312552D02*
X82082707Y-317426838D01*
X82082707Y-317426838D02*
X82120803Y-317579219D01*
X82120803Y-317579219D02*
X82158898Y-317655409D01*
X82158898Y-317655409D02*
X82235088Y-317731600D01*
X82235088Y-317731600D02*
X82349374Y-317769695D01*
X82349374Y-317769695D02*
X82539850Y-317769695D01*
X101851579Y-315191600D02*
X101737293Y-315229695D01*
X101737293Y-315229695D02*
X101546817Y-315229695D01*
X101546817Y-315229695D02*
X101470626Y-315191600D01*
X101470626Y-315191600D02*
X101432531Y-315153504D01*
X101432531Y-315153504D02*
X101394436Y-315077314D01*
X101394436Y-315077314D02*
X101394436Y-315001123D01*
X101394436Y-315001123D02*
X101432531Y-314924933D01*
X101432531Y-314924933D02*
X101470626Y-314886838D01*
X101470626Y-314886838D02*
X101546817Y-314848742D01*
X101546817Y-314848742D02*
X101699198Y-314810647D01*
X101699198Y-314810647D02*
X101775388Y-314772552D01*
X101775388Y-314772552D02*
X101813483Y-314734457D01*
X101813483Y-314734457D02*
X101851579Y-314658266D01*
X101851579Y-314658266D02*
X101851579Y-314582076D01*
X101851579Y-314582076D02*
X101813483Y-314505885D01*
X101813483Y-314505885D02*
X101775388Y-314467790D01*
X101775388Y-314467790D02*
X101699198Y-314429695D01*
X101699198Y-314429695D02*
X101508721Y-314429695D01*
X101508721Y-314429695D02*
X101394436Y-314467790D01*
X101089674Y-315001123D02*
X100708721Y-315001123D01*
X101165864Y-315229695D02*
X100899197Y-314429695D01*
X100899197Y-314429695D02*
X100632531Y-315229695D01*
X100365864Y-315229695D02*
X100365864Y-314429695D01*
X100365864Y-314429695D02*
X100099198Y-315001123D01*
X100099198Y-315001123D02*
X99832531Y-314429695D01*
X99832531Y-314429695D02*
X99832531Y-315229695D01*
X99489674Y-315001123D02*
X99108721Y-315001123D01*
X99565864Y-315229695D02*
X99299197Y-314429695D01*
X99299197Y-314429695D02*
X99032531Y-315229695D01*
X98384912Y-314429695D02*
X98765864Y-314429695D01*
X98765864Y-314429695D02*
X98803960Y-314810647D01*
X98803960Y-314810647D02*
X98765864Y-314772552D01*
X98765864Y-314772552D02*
X98689674Y-314734457D01*
X98689674Y-314734457D02*
X98499198Y-314734457D01*
X98499198Y-314734457D02*
X98423007Y-314772552D01*
X98423007Y-314772552D02*
X98384912Y-314810647D01*
X98384912Y-314810647D02*
X98346817Y-314886838D01*
X98346817Y-314886838D02*
X98346817Y-315077314D01*
X98346817Y-315077314D02*
X98384912Y-315153504D01*
X98384912Y-315153504D02*
X98423007Y-315191600D01*
X98423007Y-315191600D02*
X98499198Y-315229695D01*
X98499198Y-315229695D02*
X98689674Y-315229695D01*
X98689674Y-315229695D02*
X98765864Y-315191600D01*
X98765864Y-315191600D02*
X98803960Y-315153504D01*
X98003959Y-315229695D02*
X98003959Y-314429695D01*
X98003959Y-314429695D02*
X97813483Y-314429695D01*
X97813483Y-314429695D02*
X97699197Y-314467790D01*
X97699197Y-314467790D02*
X97623007Y-314543980D01*
X97623007Y-314543980D02*
X97584912Y-314620171D01*
X97584912Y-314620171D02*
X97546816Y-314772552D01*
X97546816Y-314772552D02*
X97546816Y-314886838D01*
X97546816Y-314886838D02*
X97584912Y-315039219D01*
X97584912Y-315039219D02*
X97623007Y-315115409D01*
X97623007Y-315115409D02*
X97699197Y-315191600D01*
X97699197Y-315191600D02*
X97813483Y-315229695D01*
X97813483Y-315229695D02*
X98003959Y-315229695D01*
X97242055Y-314505885D02*
X97203959Y-314467790D01*
X97203959Y-314467790D02*
X97127769Y-314429695D01*
X97127769Y-314429695D02*
X96937293Y-314429695D01*
X96937293Y-314429695D02*
X96861102Y-314467790D01*
X96861102Y-314467790D02*
X96823007Y-314505885D01*
X96823007Y-314505885D02*
X96784912Y-314582076D01*
X96784912Y-314582076D02*
X96784912Y-314658266D01*
X96784912Y-314658266D02*
X96823007Y-314772552D01*
X96823007Y-314772552D02*
X97280150Y-315229695D01*
X97280150Y-315229695D02*
X96784912Y-315229695D01*
X96518245Y-314429695D02*
X95984911Y-314429695D01*
X95984911Y-314429695D02*
X96327769Y-315229695D01*
X95870626Y-315305885D02*
X95261102Y-315305885D01*
X95070625Y-314429695D02*
X95070625Y-315077314D01*
X95070625Y-315077314D02*
X95032530Y-315153504D01*
X95032530Y-315153504D02*
X94994435Y-315191600D01*
X94994435Y-315191600D02*
X94918244Y-315229695D01*
X94918244Y-315229695D02*
X94765863Y-315229695D01*
X94765863Y-315229695D02*
X94689673Y-315191600D01*
X94689673Y-315191600D02*
X94651578Y-315153504D01*
X94651578Y-315153504D02*
X94613482Y-315077314D01*
X94613482Y-315077314D02*
X94613482Y-314429695D01*
X94346816Y-314429695D02*
X93889673Y-314429695D01*
X94118245Y-315229695D02*
X94118245Y-314429695D01*
X93699197Y-314429695D02*
X93165863Y-315229695D01*
X93165863Y-314429695D02*
X93699197Y-315229695D01*
X92861101Y-315229695D02*
X92861101Y-314429695D01*
X92861101Y-314429695D02*
X92670625Y-314429695D01*
X92670625Y-314429695D02*
X92556339Y-314467790D01*
X92556339Y-314467790D02*
X92480149Y-314543980D01*
X92480149Y-314543980D02*
X92442054Y-314620171D01*
X92442054Y-314620171D02*
X92403958Y-314772552D01*
X92403958Y-314772552D02*
X92403958Y-314886838D01*
X92403958Y-314886838D02*
X92442054Y-315039219D01*
X92442054Y-315039219D02*
X92480149Y-315115409D01*
X92480149Y-315115409D02*
X92556339Y-315191600D01*
X92556339Y-315191600D02*
X92670625Y-315229695D01*
X92670625Y-315229695D02*
X92861101Y-315229695D01*
X99565864Y-304650647D02*
X99299198Y-304650647D01*
X99184912Y-305069695D02*
X99565864Y-305069695D01*
X99565864Y-305069695D02*
X99565864Y-304269695D01*
X99565864Y-304269695D02*
X99184912Y-304269695D01*
X98880150Y-305031600D02*
X98765864Y-305069695D01*
X98765864Y-305069695D02*
X98575388Y-305069695D01*
X98575388Y-305069695D02*
X98499197Y-305031600D01*
X98499197Y-305031600D02*
X98461102Y-304993504D01*
X98461102Y-304993504D02*
X98423007Y-304917314D01*
X98423007Y-304917314D02*
X98423007Y-304841123D01*
X98423007Y-304841123D02*
X98461102Y-304764933D01*
X98461102Y-304764933D02*
X98499197Y-304726838D01*
X98499197Y-304726838D02*
X98575388Y-304688742D01*
X98575388Y-304688742D02*
X98727769Y-304650647D01*
X98727769Y-304650647D02*
X98803959Y-304612552D01*
X98803959Y-304612552D02*
X98842054Y-304574457D01*
X98842054Y-304574457D02*
X98880150Y-304498266D01*
X98880150Y-304498266D02*
X98880150Y-304422076D01*
X98880150Y-304422076D02*
X98842054Y-304345885D01*
X98842054Y-304345885D02*
X98803959Y-304307790D01*
X98803959Y-304307790D02*
X98727769Y-304269695D01*
X98727769Y-304269695D02*
X98537292Y-304269695D01*
X98537292Y-304269695D02*
X98423007Y-304307790D01*
X98080149Y-305069695D02*
X98080149Y-304269695D01*
X98080149Y-304269695D02*
X97775387Y-304269695D01*
X97775387Y-304269695D02*
X97699197Y-304307790D01*
X97699197Y-304307790D02*
X97661102Y-304345885D01*
X97661102Y-304345885D02*
X97623006Y-304422076D01*
X97623006Y-304422076D02*
X97623006Y-304536361D01*
X97623006Y-304536361D02*
X97661102Y-304612552D01*
X97661102Y-304612552D02*
X97699197Y-304650647D01*
X97699197Y-304650647D02*
X97775387Y-304688742D01*
X97775387Y-304688742D02*
X98080149Y-304688742D01*
X97356340Y-304269695D02*
X96861102Y-304269695D01*
X96861102Y-304269695D02*
X97127768Y-304574457D01*
X97127768Y-304574457D02*
X97013483Y-304574457D01*
X97013483Y-304574457D02*
X96937292Y-304612552D01*
X96937292Y-304612552D02*
X96899197Y-304650647D01*
X96899197Y-304650647D02*
X96861102Y-304726838D01*
X96861102Y-304726838D02*
X96861102Y-304917314D01*
X96861102Y-304917314D02*
X96899197Y-304993504D01*
X96899197Y-304993504D02*
X96937292Y-305031600D01*
X96937292Y-305031600D02*
X97013483Y-305069695D01*
X97013483Y-305069695D02*
X97242054Y-305069695D01*
X97242054Y-305069695D02*
X97318245Y-305031600D01*
X97318245Y-305031600D02*
X97356340Y-304993504D01*
X96556340Y-304345885D02*
X96518244Y-304307790D01*
X96518244Y-304307790D02*
X96442054Y-304269695D01*
X96442054Y-304269695D02*
X96251578Y-304269695D01*
X96251578Y-304269695D02*
X96175387Y-304307790D01*
X96175387Y-304307790D02*
X96137292Y-304345885D01*
X96137292Y-304345885D02*
X96099197Y-304422076D01*
X96099197Y-304422076D02*
X96099197Y-304498266D01*
X96099197Y-304498266D02*
X96137292Y-304612552D01*
X96137292Y-304612552D02*
X96594435Y-305069695D01*
X96594435Y-305069695D02*
X96099197Y-305069695D01*
X95946816Y-305145885D02*
X95337292Y-305145885D01*
X94880149Y-304650647D02*
X94765863Y-304688742D01*
X94765863Y-304688742D02*
X94727768Y-304726838D01*
X94727768Y-304726838D02*
X94689672Y-304803028D01*
X94689672Y-304803028D02*
X94689672Y-304917314D01*
X94689672Y-304917314D02*
X94727768Y-304993504D01*
X94727768Y-304993504D02*
X94765863Y-305031600D01*
X94765863Y-305031600D02*
X94842053Y-305069695D01*
X94842053Y-305069695D02*
X95146815Y-305069695D01*
X95146815Y-305069695D02*
X95146815Y-304269695D01*
X95146815Y-304269695D02*
X94880149Y-304269695D01*
X94880149Y-304269695D02*
X94803958Y-304307790D01*
X94803958Y-304307790D02*
X94765863Y-304345885D01*
X94765863Y-304345885D02*
X94727768Y-304422076D01*
X94727768Y-304422076D02*
X94727768Y-304498266D01*
X94727768Y-304498266D02*
X94765863Y-304574457D01*
X94765863Y-304574457D02*
X94803958Y-304612552D01*
X94803958Y-304612552D02*
X94880149Y-304650647D01*
X94880149Y-304650647D02*
X95146815Y-304650647D01*
X94194434Y-304269695D02*
X94042053Y-304269695D01*
X94042053Y-304269695D02*
X93965863Y-304307790D01*
X93965863Y-304307790D02*
X93889672Y-304383980D01*
X93889672Y-304383980D02*
X93851577Y-304536361D01*
X93851577Y-304536361D02*
X93851577Y-304803028D01*
X93851577Y-304803028D02*
X93889672Y-304955409D01*
X93889672Y-304955409D02*
X93965863Y-305031600D01*
X93965863Y-305031600D02*
X94042053Y-305069695D01*
X94042053Y-305069695D02*
X94194434Y-305069695D01*
X94194434Y-305069695D02*
X94270625Y-305031600D01*
X94270625Y-305031600D02*
X94346815Y-304955409D01*
X94346815Y-304955409D02*
X94384911Y-304803028D01*
X94384911Y-304803028D02*
X94384911Y-304536361D01*
X94384911Y-304536361D02*
X94346815Y-304383980D01*
X94346815Y-304383980D02*
X94270625Y-304307790D01*
X94270625Y-304307790D02*
X94194434Y-304269695D01*
X93356339Y-304269695D02*
X93203958Y-304269695D01*
X93203958Y-304269695D02*
X93127768Y-304307790D01*
X93127768Y-304307790D02*
X93051577Y-304383980D01*
X93051577Y-304383980D02*
X93013482Y-304536361D01*
X93013482Y-304536361D02*
X93013482Y-304803028D01*
X93013482Y-304803028D02*
X93051577Y-304955409D01*
X93051577Y-304955409D02*
X93127768Y-305031600D01*
X93127768Y-305031600D02*
X93203958Y-305069695D01*
X93203958Y-305069695D02*
X93356339Y-305069695D01*
X93356339Y-305069695D02*
X93432530Y-305031600D01*
X93432530Y-305031600D02*
X93508720Y-304955409D01*
X93508720Y-304955409D02*
X93546816Y-304803028D01*
X93546816Y-304803028D02*
X93546816Y-304536361D01*
X93546816Y-304536361D02*
X93508720Y-304383980D01*
X93508720Y-304383980D02*
X93432530Y-304307790D01*
X93432530Y-304307790D02*
X93356339Y-304269695D01*
X92784911Y-304269695D02*
X92327768Y-304269695D01*
X92556340Y-305069695D02*
X92556340Y-304269695D01*
D11*
X127460951Y-236213866D02*
X126699047Y-236213866D01*
D10*
X83758898Y-314467790D02*
X83835088Y-314429695D01*
X83835088Y-314429695D02*
X83949374Y-314429695D01*
X83949374Y-314429695D02*
X84063660Y-314467790D01*
X84063660Y-314467790D02*
X84139850Y-314543980D01*
X84139850Y-314543980D02*
X84177945Y-314620171D01*
X84177945Y-314620171D02*
X84216041Y-314772552D01*
X84216041Y-314772552D02*
X84216041Y-314886838D01*
X84216041Y-314886838D02*
X84177945Y-315039219D01*
X84177945Y-315039219D02*
X84139850Y-315115409D01*
X84139850Y-315115409D02*
X84063660Y-315191600D01*
X84063660Y-315191600D02*
X83949374Y-315229695D01*
X83949374Y-315229695D02*
X83873183Y-315229695D01*
X83873183Y-315229695D02*
X83758898Y-315191600D01*
X83758898Y-315191600D02*
X83720802Y-315153504D01*
X83720802Y-315153504D02*
X83720802Y-314886838D01*
X83720802Y-314886838D02*
X83873183Y-314886838D01*
X83377945Y-315229695D02*
X83377945Y-314429695D01*
X83377945Y-314429695D02*
X82920802Y-315229695D01*
X82920802Y-315229695D02*
X82920802Y-314429695D01*
X82539850Y-315229695D02*
X82539850Y-314429695D01*
X82539850Y-314429695D02*
X82349374Y-314429695D01*
X82349374Y-314429695D02*
X82235088Y-314467790D01*
X82235088Y-314467790D02*
X82158898Y-314543980D01*
X82158898Y-314543980D02*
X82120803Y-314620171D01*
X82120803Y-314620171D02*
X82082707Y-314772552D01*
X82082707Y-314772552D02*
X82082707Y-314886838D01*
X82082707Y-314886838D02*
X82120803Y-315039219D01*
X82120803Y-315039219D02*
X82158898Y-315115409D01*
X82158898Y-315115409D02*
X82235088Y-315191600D01*
X82235088Y-315191600D02*
X82349374Y-315229695D01*
X82349374Y-315229695D02*
X82539850Y-315229695D01*
X84254136Y-311889695D02*
X83758898Y-311889695D01*
X83758898Y-311889695D02*
X84025564Y-312194457D01*
X84025564Y-312194457D02*
X83911279Y-312194457D01*
X83911279Y-312194457D02*
X83835088Y-312232552D01*
X83835088Y-312232552D02*
X83796993Y-312270647D01*
X83796993Y-312270647D02*
X83758898Y-312346838D01*
X83758898Y-312346838D02*
X83758898Y-312537314D01*
X83758898Y-312537314D02*
X83796993Y-312613504D01*
X83796993Y-312613504D02*
X83835088Y-312651600D01*
X83835088Y-312651600D02*
X83911279Y-312689695D01*
X83911279Y-312689695D02*
X84139850Y-312689695D01*
X84139850Y-312689695D02*
X84216041Y-312651600D01*
X84216041Y-312651600D02*
X84254136Y-312613504D01*
X83530326Y-311889695D02*
X83263659Y-312689695D01*
X83263659Y-312689695D02*
X82996993Y-311889695D01*
X82806517Y-311889695D02*
X82311279Y-311889695D01*
X82311279Y-311889695D02*
X82577945Y-312194457D01*
X82577945Y-312194457D02*
X82463660Y-312194457D01*
X82463660Y-312194457D02*
X82387469Y-312232552D01*
X82387469Y-312232552D02*
X82349374Y-312270647D01*
X82349374Y-312270647D02*
X82311279Y-312346838D01*
X82311279Y-312346838D02*
X82311279Y-312537314D01*
X82311279Y-312537314D02*
X82349374Y-312613504D01*
X82349374Y-312613504D02*
X82387469Y-312651600D01*
X82387469Y-312651600D02*
X82463660Y-312689695D01*
X82463660Y-312689695D02*
X82692231Y-312689695D01*
X82692231Y-312689695D02*
X82768422Y-312651600D01*
X82768422Y-312651600D02*
X82806517Y-312613504D01*
X84292231Y-304269695D02*
X84025564Y-305069695D01*
X84025564Y-305069695D02*
X83758898Y-304269695D01*
X83035088Y-304993504D02*
X83073184Y-305031600D01*
X83073184Y-305031600D02*
X83187469Y-305069695D01*
X83187469Y-305069695D02*
X83263660Y-305069695D01*
X83263660Y-305069695D02*
X83377946Y-305031600D01*
X83377946Y-305031600D02*
X83454136Y-304955409D01*
X83454136Y-304955409D02*
X83492231Y-304879219D01*
X83492231Y-304879219D02*
X83530327Y-304726838D01*
X83530327Y-304726838D02*
X83530327Y-304612552D01*
X83530327Y-304612552D02*
X83492231Y-304460171D01*
X83492231Y-304460171D02*
X83454136Y-304383980D01*
X83454136Y-304383980D02*
X83377946Y-304307790D01*
X83377946Y-304307790D02*
X83263660Y-304269695D01*
X83263660Y-304269695D02*
X83187469Y-304269695D01*
X83187469Y-304269695D02*
X83073184Y-304307790D01*
X83073184Y-304307790D02*
X83035088Y-304345885D01*
X82235088Y-304993504D02*
X82273184Y-305031600D01*
X82273184Y-305031600D02*
X82387469Y-305069695D01*
X82387469Y-305069695D02*
X82463660Y-305069695D01*
X82463660Y-305069695D02*
X82577946Y-305031600D01*
X82577946Y-305031600D02*
X82654136Y-304955409D01*
X82654136Y-304955409D02*
X82692231Y-304879219D01*
X82692231Y-304879219D02*
X82730327Y-304726838D01*
X82730327Y-304726838D02*
X82730327Y-304612552D01*
X82730327Y-304612552D02*
X82692231Y-304460171D01*
X82692231Y-304460171D02*
X82654136Y-304383980D01*
X82654136Y-304383980D02*
X82577946Y-304307790D01*
X82577946Y-304307790D02*
X82463660Y-304269695D01*
X82463660Y-304269695D02*
X82387469Y-304269695D01*
X82387469Y-304269695D02*
X82273184Y-304307790D01*
X82273184Y-304307790D02*
X82235088Y-304345885D01*
D11*
X169460951Y-255213866D02*
X168699047Y-255213866D01*
D10*
X84292231Y-306809695D02*
X84025564Y-307609695D01*
X84025564Y-307609695D02*
X83758898Y-306809695D01*
X83035088Y-307533504D02*
X83073184Y-307571600D01*
X83073184Y-307571600D02*
X83187469Y-307609695D01*
X83187469Y-307609695D02*
X83263660Y-307609695D01*
X83263660Y-307609695D02*
X83377946Y-307571600D01*
X83377946Y-307571600D02*
X83454136Y-307495409D01*
X83454136Y-307495409D02*
X83492231Y-307419219D01*
X83492231Y-307419219D02*
X83530327Y-307266838D01*
X83530327Y-307266838D02*
X83530327Y-307152552D01*
X83530327Y-307152552D02*
X83492231Y-307000171D01*
X83492231Y-307000171D02*
X83454136Y-306923980D01*
X83454136Y-306923980D02*
X83377946Y-306847790D01*
X83377946Y-306847790D02*
X83263660Y-306809695D01*
X83263660Y-306809695D02*
X83187469Y-306809695D01*
X83187469Y-306809695D02*
X83073184Y-306847790D01*
X83073184Y-306847790D02*
X83035088Y-306885885D01*
X82235088Y-307533504D02*
X82273184Y-307571600D01*
X82273184Y-307571600D02*
X82387469Y-307609695D01*
X82387469Y-307609695D02*
X82463660Y-307609695D01*
X82463660Y-307609695D02*
X82577946Y-307571600D01*
X82577946Y-307571600D02*
X82654136Y-307495409D01*
X82654136Y-307495409D02*
X82692231Y-307419219D01*
X82692231Y-307419219D02*
X82730327Y-307266838D01*
X82730327Y-307266838D02*
X82730327Y-307152552D01*
X82730327Y-307152552D02*
X82692231Y-307000171D01*
X82692231Y-307000171D02*
X82654136Y-306923980D01*
X82654136Y-306923980D02*
X82577946Y-306847790D01*
X82577946Y-306847790D02*
X82463660Y-306809695D01*
X82463660Y-306809695D02*
X82387469Y-306809695D01*
X82387469Y-306809695D02*
X82273184Y-306847790D01*
X82273184Y-306847790D02*
X82235088Y-306885885D01*
D11*
X127460951Y-255213866D02*
X126699047Y-255213866D01*
X127079999Y-255594819D02*
X127079999Y-254832914D01*
D10*
X97318245Y-302110647D02*
X97051579Y-302110647D01*
X96937293Y-302529695D02*
X97318245Y-302529695D01*
X97318245Y-302529695D02*
X97318245Y-301729695D01*
X97318245Y-301729695D02*
X96937293Y-301729695D01*
X96708721Y-301729695D02*
X96251578Y-301729695D01*
X96480150Y-302529695D02*
X96480150Y-301729695D01*
X95984911Y-302529695D02*
X95984911Y-301729695D01*
X95984911Y-302110647D02*
X95527768Y-302110647D01*
X95527768Y-302529695D02*
X95527768Y-301729695D01*
X95337293Y-302605885D02*
X94727769Y-302605885D01*
X94080149Y-302529695D02*
X94346816Y-302148742D01*
X94537292Y-302529695D02*
X94537292Y-301729695D01*
X94537292Y-301729695D02*
X94232530Y-301729695D01*
X94232530Y-301729695D02*
X94156340Y-301767790D01*
X94156340Y-301767790D02*
X94118245Y-301805885D01*
X94118245Y-301805885D02*
X94080149Y-301882076D01*
X94080149Y-301882076D02*
X94080149Y-301996361D01*
X94080149Y-301996361D02*
X94118245Y-302072552D01*
X94118245Y-302072552D02*
X94156340Y-302110647D01*
X94156340Y-302110647D02*
X94232530Y-302148742D01*
X94232530Y-302148742D02*
X94537292Y-302148742D01*
X93813483Y-301729695D02*
X93280149Y-302529695D01*
X93280149Y-301729695D02*
X93813483Y-302529695D01*
X92975387Y-302529695D02*
X92975387Y-301729695D01*
X92975387Y-301729695D02*
X92708721Y-302301123D01*
X92708721Y-302301123D02*
X92442054Y-301729695D01*
X92442054Y-301729695D02*
X92442054Y-302529695D01*
D12*
X206394733Y-168523333D02*
X206061400Y-168290000D01*
X206394733Y-168123333D02*
X205694733Y-168123333D01*
X205694733Y-168123333D02*
X205694733Y-168390000D01*
X205694733Y-168390000D02*
X205728066Y-168456667D01*
X205728066Y-168456667D02*
X205761400Y-168490000D01*
X205761400Y-168490000D02*
X205828066Y-168523333D01*
X205828066Y-168523333D02*
X205928066Y-168523333D01*
X205928066Y-168523333D02*
X205994733Y-168490000D01*
X205994733Y-168490000D02*
X206028066Y-168456667D01*
X206028066Y-168456667D02*
X206061400Y-168390000D01*
X206061400Y-168390000D02*
X206061400Y-168123333D01*
X205694733Y-168756667D02*
X205694733Y-169190000D01*
X205694733Y-169190000D02*
X205961400Y-168956667D01*
X205961400Y-168956667D02*
X205961400Y-169056667D01*
X205961400Y-169056667D02*
X205994733Y-169123333D01*
X205994733Y-169123333D02*
X206028066Y-169156667D01*
X206028066Y-169156667D02*
X206094733Y-169190000D01*
X206094733Y-169190000D02*
X206261400Y-169190000D01*
X206261400Y-169190000D02*
X206328066Y-169156667D01*
X206328066Y-169156667D02*
X206361400Y-169123333D01*
X206361400Y-169123333D02*
X206394733Y-169056667D01*
X206394733Y-169056667D02*
X206394733Y-168856667D01*
X206394733Y-168856667D02*
X206361400Y-168790000D01*
X206361400Y-168790000D02*
X206328066Y-168756667D01*
X153696666Y-141888066D02*
X153729999Y-141921400D01*
X153729999Y-141921400D02*
X153829999Y-141954733D01*
X153829999Y-141954733D02*
X153896666Y-141954733D01*
X153896666Y-141954733D02*
X153996666Y-141921400D01*
X153996666Y-141921400D02*
X154063333Y-141854733D01*
X154063333Y-141854733D02*
X154096666Y-141788066D01*
X154096666Y-141788066D02*
X154129999Y-141654733D01*
X154129999Y-141654733D02*
X154129999Y-141554733D01*
X154129999Y-141554733D02*
X154096666Y-141421400D01*
X154096666Y-141421400D02*
X154063333Y-141354733D01*
X154063333Y-141354733D02*
X153996666Y-141288066D01*
X153996666Y-141288066D02*
X153896666Y-141254733D01*
X153896666Y-141254733D02*
X153829999Y-141254733D01*
X153829999Y-141254733D02*
X153729999Y-141288066D01*
X153729999Y-141288066D02*
X153696666Y-141321400D01*
X153429999Y-141321400D02*
X153396666Y-141288066D01*
X153396666Y-141288066D02*
X153329999Y-141254733D01*
X153329999Y-141254733D02*
X153163333Y-141254733D01*
X153163333Y-141254733D02*
X153096666Y-141288066D01*
X153096666Y-141288066D02*
X153063333Y-141321400D01*
X153063333Y-141321400D02*
X153029999Y-141388066D01*
X153029999Y-141388066D02*
X153029999Y-141454733D01*
X153029999Y-141454733D02*
X153063333Y-141554733D01*
X153063333Y-141554733D02*
X153463333Y-141954733D01*
X153463333Y-141954733D02*
X153029999Y-141954733D01*
X148613333Y-185754733D02*
X148613333Y-186321400D01*
X148613333Y-186321400D02*
X148580000Y-186388066D01*
X148580000Y-186388066D02*
X148546666Y-186421400D01*
X148546666Y-186421400D02*
X148480000Y-186454733D01*
X148480000Y-186454733D02*
X148346666Y-186454733D01*
X148346666Y-186454733D02*
X148280000Y-186421400D01*
X148280000Y-186421400D02*
X148246666Y-186388066D01*
X148246666Y-186388066D02*
X148213333Y-186321400D01*
X148213333Y-186321400D02*
X148213333Y-185754733D01*
X147913333Y-185821400D02*
X147880000Y-185788066D01*
X147880000Y-185788066D02*
X147813333Y-185754733D01*
X147813333Y-185754733D02*
X147646667Y-185754733D01*
X147646667Y-185754733D02*
X147580000Y-185788066D01*
X147580000Y-185788066D02*
X147546667Y-185821400D01*
X147546667Y-185821400D02*
X147513333Y-185888066D01*
X147513333Y-185888066D02*
X147513333Y-185954733D01*
X147513333Y-185954733D02*
X147546667Y-186054733D01*
X147546667Y-186054733D02*
X147946667Y-186454733D01*
X147946667Y-186454733D02*
X147513333Y-186454733D01*
X205530000Y-133954733D02*
X205763333Y-133621400D01*
X205930000Y-133954733D02*
X205930000Y-133254733D01*
X205930000Y-133254733D02*
X205663333Y-133254733D01*
X205663333Y-133254733D02*
X205596667Y-133288066D01*
X205596667Y-133288066D02*
X205563333Y-133321400D01*
X205563333Y-133321400D02*
X205530000Y-133388066D01*
X205530000Y-133388066D02*
X205530000Y-133488066D01*
X205530000Y-133488066D02*
X205563333Y-133554733D01*
X205563333Y-133554733D02*
X205596667Y-133588066D01*
X205596667Y-133588066D02*
X205663333Y-133621400D01*
X205663333Y-133621400D02*
X205930000Y-133621400D01*
X205296667Y-133254733D02*
X204863333Y-133254733D01*
X204863333Y-133254733D02*
X205096667Y-133521400D01*
X205096667Y-133521400D02*
X204996667Y-133521400D01*
X204996667Y-133521400D02*
X204930000Y-133554733D01*
X204930000Y-133554733D02*
X204896667Y-133588066D01*
X204896667Y-133588066D02*
X204863333Y-133654733D01*
X204863333Y-133654733D02*
X204863333Y-133821400D01*
X204863333Y-133821400D02*
X204896667Y-133888066D01*
X204896667Y-133888066D02*
X204930000Y-133921400D01*
X204930000Y-133921400D02*
X204996667Y-133954733D01*
X204996667Y-133954733D02*
X205196667Y-133954733D01*
X205196667Y-133954733D02*
X205263333Y-133921400D01*
X205263333Y-133921400D02*
X205296667Y-133888066D01*
X204263333Y-133488066D02*
X204263333Y-133954733D01*
X204430000Y-133221400D02*
X204596666Y-133721400D01*
X204596666Y-133721400D02*
X204163333Y-133721400D01*
X206394733Y-163523333D02*
X206061400Y-163290000D01*
X206394733Y-163123333D02*
X205694733Y-163123333D01*
X205694733Y-163123333D02*
X205694733Y-163390000D01*
X205694733Y-163390000D02*
X205728066Y-163456667D01*
X205728066Y-163456667D02*
X205761400Y-163490000D01*
X205761400Y-163490000D02*
X205828066Y-163523333D01*
X205828066Y-163523333D02*
X205928066Y-163523333D01*
X205928066Y-163523333D02*
X205994733Y-163490000D01*
X205994733Y-163490000D02*
X206028066Y-163456667D01*
X206028066Y-163456667D02*
X206061400Y-163390000D01*
X206061400Y-163390000D02*
X206061400Y-163123333D01*
X205761400Y-163790000D02*
X205728066Y-163823333D01*
X205728066Y-163823333D02*
X205694733Y-163890000D01*
X205694733Y-163890000D02*
X205694733Y-164056667D01*
X205694733Y-164056667D02*
X205728066Y-164123333D01*
X205728066Y-164123333D02*
X205761400Y-164156667D01*
X205761400Y-164156667D02*
X205828066Y-164190000D01*
X205828066Y-164190000D02*
X205894733Y-164190000D01*
X205894733Y-164190000D02*
X205994733Y-164156667D01*
X205994733Y-164156667D02*
X206394733Y-163756667D01*
X206394733Y-163756667D02*
X206394733Y-164190000D01*
X179530000Y-134888066D02*
X179563333Y-134921400D01*
X179563333Y-134921400D02*
X179663333Y-134954733D01*
X179663333Y-134954733D02*
X179730000Y-134954733D01*
X179730000Y-134954733D02*
X179830000Y-134921400D01*
X179830000Y-134921400D02*
X179896667Y-134854733D01*
X179896667Y-134854733D02*
X179930000Y-134788066D01*
X179930000Y-134788066D02*
X179963333Y-134654733D01*
X179963333Y-134654733D02*
X179963333Y-134554733D01*
X179963333Y-134554733D02*
X179930000Y-134421400D01*
X179930000Y-134421400D02*
X179896667Y-134354733D01*
X179896667Y-134354733D02*
X179830000Y-134288066D01*
X179830000Y-134288066D02*
X179730000Y-134254733D01*
X179730000Y-134254733D02*
X179663333Y-134254733D01*
X179663333Y-134254733D02*
X179563333Y-134288066D01*
X179563333Y-134288066D02*
X179530000Y-134321400D01*
X179263333Y-134321400D02*
X179230000Y-134288066D01*
X179230000Y-134288066D02*
X179163333Y-134254733D01*
X179163333Y-134254733D02*
X178996667Y-134254733D01*
X178996667Y-134254733D02*
X178930000Y-134288066D01*
X178930000Y-134288066D02*
X178896667Y-134321400D01*
X178896667Y-134321400D02*
X178863333Y-134388066D01*
X178863333Y-134388066D02*
X178863333Y-134454733D01*
X178863333Y-134454733D02*
X178896667Y-134554733D01*
X178896667Y-134554733D02*
X179296667Y-134954733D01*
X179296667Y-134954733D02*
X178863333Y-134954733D01*
X178596666Y-134321400D02*
X178563333Y-134288066D01*
X178563333Y-134288066D02*
X178496666Y-134254733D01*
X178496666Y-134254733D02*
X178330000Y-134254733D01*
X178330000Y-134254733D02*
X178263333Y-134288066D01*
X178263333Y-134288066D02*
X178230000Y-134321400D01*
X178230000Y-134321400D02*
X178196666Y-134388066D01*
X178196666Y-134388066D02*
X178196666Y-134454733D01*
X178196666Y-134454733D02*
X178230000Y-134554733D01*
X178230000Y-134554733D02*
X178630000Y-134954733D01*
X178630000Y-134954733D02*
X178196666Y-134954733D01*
X144196666Y-127888066D02*
X144229999Y-127921400D01*
X144229999Y-127921400D02*
X144329999Y-127954733D01*
X144329999Y-127954733D02*
X144396666Y-127954733D01*
X144396666Y-127954733D02*
X144496666Y-127921400D01*
X144496666Y-127921400D02*
X144563333Y-127854733D01*
X144563333Y-127854733D02*
X144596666Y-127788066D01*
X144596666Y-127788066D02*
X144629999Y-127654733D01*
X144629999Y-127654733D02*
X144629999Y-127554733D01*
X144629999Y-127554733D02*
X144596666Y-127421400D01*
X144596666Y-127421400D02*
X144563333Y-127354733D01*
X144563333Y-127354733D02*
X144496666Y-127288066D01*
X144496666Y-127288066D02*
X144396666Y-127254733D01*
X144396666Y-127254733D02*
X144329999Y-127254733D01*
X144329999Y-127254733D02*
X144229999Y-127288066D01*
X144229999Y-127288066D02*
X144196666Y-127321400D01*
X143596666Y-127254733D02*
X143729999Y-127254733D01*
X143729999Y-127254733D02*
X143796666Y-127288066D01*
X143796666Y-127288066D02*
X143829999Y-127321400D01*
X143829999Y-127321400D02*
X143896666Y-127421400D01*
X143896666Y-127421400D02*
X143929999Y-127554733D01*
X143929999Y-127554733D02*
X143929999Y-127821400D01*
X143929999Y-127821400D02*
X143896666Y-127888066D01*
X143896666Y-127888066D02*
X143863333Y-127921400D01*
X143863333Y-127921400D02*
X143796666Y-127954733D01*
X143796666Y-127954733D02*
X143663333Y-127954733D01*
X143663333Y-127954733D02*
X143596666Y-127921400D01*
X143596666Y-127921400D02*
X143563333Y-127888066D01*
X143563333Y-127888066D02*
X143529999Y-127821400D01*
X143529999Y-127821400D02*
X143529999Y-127654733D01*
X143529999Y-127654733D02*
X143563333Y-127588066D01*
X143563333Y-127588066D02*
X143596666Y-127554733D01*
X143596666Y-127554733D02*
X143663333Y-127521400D01*
X143663333Y-127521400D02*
X143796666Y-127521400D01*
X143796666Y-127521400D02*
X143863333Y-127554733D01*
X143863333Y-127554733D02*
X143896666Y-127588066D01*
X143896666Y-127588066D02*
X143929999Y-127654733D01*
X109613333Y-144714733D02*
X109613333Y-145281400D01*
X109613333Y-145281400D02*
X109580000Y-145348066D01*
X109580000Y-145348066D02*
X109546666Y-145381400D01*
X109546666Y-145381400D02*
X109480000Y-145414733D01*
X109480000Y-145414733D02*
X109346666Y-145414733D01*
X109346666Y-145414733D02*
X109280000Y-145381400D01*
X109280000Y-145381400D02*
X109246666Y-145348066D01*
X109246666Y-145348066D02*
X109213333Y-145281400D01*
X109213333Y-145281400D02*
X109213333Y-144714733D01*
X108580000Y-144948066D02*
X108580000Y-145414733D01*
X108746667Y-144681400D02*
X108913333Y-145181400D01*
X108913333Y-145181400D02*
X108480000Y-145181400D01*
X177530000Y-133888066D02*
X177563333Y-133921400D01*
X177563333Y-133921400D02*
X177663333Y-133954733D01*
X177663333Y-133954733D02*
X177730000Y-133954733D01*
X177730000Y-133954733D02*
X177830000Y-133921400D01*
X177830000Y-133921400D02*
X177896667Y-133854733D01*
X177896667Y-133854733D02*
X177930000Y-133788066D01*
X177930000Y-133788066D02*
X177963333Y-133654733D01*
X177963333Y-133654733D02*
X177963333Y-133554733D01*
X177963333Y-133554733D02*
X177930000Y-133421400D01*
X177930000Y-133421400D02*
X177896667Y-133354733D01*
X177896667Y-133354733D02*
X177830000Y-133288066D01*
X177830000Y-133288066D02*
X177730000Y-133254733D01*
X177730000Y-133254733D02*
X177663333Y-133254733D01*
X177663333Y-133254733D02*
X177563333Y-133288066D01*
X177563333Y-133288066D02*
X177530000Y-133321400D01*
X177263333Y-133321400D02*
X177230000Y-133288066D01*
X177230000Y-133288066D02*
X177163333Y-133254733D01*
X177163333Y-133254733D02*
X176996667Y-133254733D01*
X176996667Y-133254733D02*
X176930000Y-133288066D01*
X176930000Y-133288066D02*
X176896667Y-133321400D01*
X176896667Y-133321400D02*
X176863333Y-133388066D01*
X176863333Y-133388066D02*
X176863333Y-133454733D01*
X176863333Y-133454733D02*
X176896667Y-133554733D01*
X176896667Y-133554733D02*
X177296667Y-133954733D01*
X177296667Y-133954733D02*
X176863333Y-133954733D01*
X176430000Y-133254733D02*
X176363333Y-133254733D01*
X176363333Y-133254733D02*
X176296666Y-133288066D01*
X176296666Y-133288066D02*
X176263333Y-133321400D01*
X176263333Y-133321400D02*
X176230000Y-133388066D01*
X176230000Y-133388066D02*
X176196666Y-133521400D01*
X176196666Y-133521400D02*
X176196666Y-133688066D01*
X176196666Y-133688066D02*
X176230000Y-133821400D01*
X176230000Y-133821400D02*
X176263333Y-133888066D01*
X176263333Y-133888066D02*
X176296666Y-133921400D01*
X176296666Y-133921400D02*
X176363333Y-133954733D01*
X176363333Y-133954733D02*
X176430000Y-133954733D01*
X176430000Y-133954733D02*
X176496666Y-133921400D01*
X176496666Y-133921400D02*
X176530000Y-133888066D01*
X176530000Y-133888066D02*
X176563333Y-133821400D01*
X176563333Y-133821400D02*
X176596666Y-133688066D01*
X176596666Y-133688066D02*
X176596666Y-133521400D01*
X176596666Y-133521400D02*
X176563333Y-133388066D01*
X176563333Y-133388066D02*
X176530000Y-133321400D01*
X176530000Y-133321400D02*
X176496666Y-133288066D01*
X176496666Y-133288066D02*
X176430000Y-133254733D01*
X147894733Y-133189999D02*
X147561400Y-132956666D01*
X147894733Y-132789999D02*
X147194733Y-132789999D01*
X147194733Y-132789999D02*
X147194733Y-133056666D01*
X147194733Y-133056666D02*
X147228066Y-133123333D01*
X147228066Y-133123333D02*
X147261400Y-133156666D01*
X147261400Y-133156666D02*
X147328066Y-133189999D01*
X147328066Y-133189999D02*
X147428066Y-133189999D01*
X147428066Y-133189999D02*
X147494733Y-133156666D01*
X147494733Y-133156666D02*
X147528066Y-133123333D01*
X147528066Y-133123333D02*
X147561400Y-133056666D01*
X147561400Y-133056666D02*
X147561400Y-132789999D01*
X147894733Y-133856666D02*
X147894733Y-133456666D01*
X147894733Y-133656666D02*
X147194733Y-133656666D01*
X147194733Y-133656666D02*
X147294733Y-133589999D01*
X147294733Y-133589999D02*
X147361400Y-133523333D01*
X147361400Y-133523333D02*
X147394733Y-133456666D01*
X147894733Y-134523333D02*
X147894733Y-134123333D01*
X147894733Y-134323333D02*
X147194733Y-134323333D01*
X147194733Y-134323333D02*
X147294733Y-134256666D01*
X147294733Y-134256666D02*
X147361400Y-134190000D01*
X147361400Y-134190000D02*
X147394733Y-134123333D01*
X153113333Y-138754733D02*
X153113333Y-139321400D01*
X153113333Y-139321400D02*
X153080000Y-139388066D01*
X153080000Y-139388066D02*
X153046666Y-139421400D01*
X153046666Y-139421400D02*
X152980000Y-139454733D01*
X152980000Y-139454733D02*
X152846666Y-139454733D01*
X152846666Y-139454733D02*
X152780000Y-139421400D01*
X152780000Y-139421400D02*
X152746666Y-139388066D01*
X152746666Y-139388066D02*
X152713333Y-139321400D01*
X152713333Y-139321400D02*
X152713333Y-138754733D01*
X152013333Y-139454733D02*
X152413333Y-139454733D01*
X152213333Y-139454733D02*
X152213333Y-138754733D01*
X152213333Y-138754733D02*
X152280000Y-138854733D01*
X152280000Y-138854733D02*
X152346667Y-138921400D01*
X152346667Y-138921400D02*
X152413333Y-138954733D01*
X90030000Y-133454733D02*
X90263333Y-133121400D01*
X90430000Y-133454733D02*
X90430000Y-132754733D01*
X90430000Y-132754733D02*
X90163333Y-132754733D01*
X90163333Y-132754733D02*
X90096667Y-132788066D01*
X90096667Y-132788066D02*
X90063333Y-132821400D01*
X90063333Y-132821400D02*
X90030000Y-132888066D01*
X90030000Y-132888066D02*
X90030000Y-132988066D01*
X90030000Y-132988066D02*
X90063333Y-133054733D01*
X90063333Y-133054733D02*
X90096667Y-133088066D01*
X90096667Y-133088066D02*
X90163333Y-133121400D01*
X90163333Y-133121400D02*
X90430000Y-133121400D01*
X89363333Y-133454733D02*
X89763333Y-133454733D01*
X89563333Y-133454733D02*
X89563333Y-132754733D01*
X89563333Y-132754733D02*
X89630000Y-132854733D01*
X89630000Y-132854733D02*
X89696667Y-132921400D01*
X89696667Y-132921400D02*
X89763333Y-132954733D01*
X88763333Y-132988066D02*
X88763333Y-133454733D01*
X88930000Y-132721400D02*
X89096666Y-133221400D01*
X89096666Y-133221400D02*
X88663333Y-133221400D01*
X176530000Y-149454733D02*
X176763333Y-149121400D01*
X176930000Y-149454733D02*
X176930000Y-148754733D01*
X176930000Y-148754733D02*
X176663333Y-148754733D01*
X176663333Y-148754733D02*
X176596667Y-148788066D01*
X176596667Y-148788066D02*
X176563333Y-148821400D01*
X176563333Y-148821400D02*
X176530000Y-148888066D01*
X176530000Y-148888066D02*
X176530000Y-148988066D01*
X176530000Y-148988066D02*
X176563333Y-149054733D01*
X176563333Y-149054733D02*
X176596667Y-149088066D01*
X176596667Y-149088066D02*
X176663333Y-149121400D01*
X176663333Y-149121400D02*
X176930000Y-149121400D01*
X176263333Y-148821400D02*
X176230000Y-148788066D01*
X176230000Y-148788066D02*
X176163333Y-148754733D01*
X176163333Y-148754733D02*
X175996667Y-148754733D01*
X175996667Y-148754733D02*
X175930000Y-148788066D01*
X175930000Y-148788066D02*
X175896667Y-148821400D01*
X175896667Y-148821400D02*
X175863333Y-148888066D01*
X175863333Y-148888066D02*
X175863333Y-148954733D01*
X175863333Y-148954733D02*
X175896667Y-149054733D01*
X175896667Y-149054733D02*
X176296667Y-149454733D01*
X176296667Y-149454733D02*
X175863333Y-149454733D01*
X175430000Y-148754733D02*
X175363333Y-148754733D01*
X175363333Y-148754733D02*
X175296666Y-148788066D01*
X175296666Y-148788066D02*
X175263333Y-148821400D01*
X175263333Y-148821400D02*
X175230000Y-148888066D01*
X175230000Y-148888066D02*
X175196666Y-149021400D01*
X175196666Y-149021400D02*
X175196666Y-149188066D01*
X175196666Y-149188066D02*
X175230000Y-149321400D01*
X175230000Y-149321400D02*
X175263333Y-149388066D01*
X175263333Y-149388066D02*
X175296666Y-149421400D01*
X175296666Y-149421400D02*
X175363333Y-149454733D01*
X175363333Y-149454733D02*
X175430000Y-149454733D01*
X175430000Y-149454733D02*
X175496666Y-149421400D01*
X175496666Y-149421400D02*
X175530000Y-149388066D01*
X175530000Y-149388066D02*
X175563333Y-149321400D01*
X175563333Y-149321400D02*
X175596666Y-149188066D01*
X175596666Y-149188066D02*
X175596666Y-149021400D01*
X175596666Y-149021400D02*
X175563333Y-148888066D01*
X175563333Y-148888066D02*
X175530000Y-148821400D01*
X175530000Y-148821400D02*
X175496666Y-148788066D01*
X175496666Y-148788066D02*
X175430000Y-148754733D01*
X170030000Y-130454733D02*
X170263333Y-130121400D01*
X170430000Y-130454733D02*
X170430000Y-129754733D01*
X170430000Y-129754733D02*
X170163333Y-129754733D01*
X170163333Y-129754733D02*
X170096667Y-129788066D01*
X170096667Y-129788066D02*
X170063333Y-129821400D01*
X170063333Y-129821400D02*
X170030000Y-129888066D01*
X170030000Y-129888066D02*
X170030000Y-129988066D01*
X170030000Y-129988066D02*
X170063333Y-130054733D01*
X170063333Y-130054733D02*
X170096667Y-130088066D01*
X170096667Y-130088066D02*
X170163333Y-130121400D01*
X170163333Y-130121400D02*
X170430000Y-130121400D01*
X169796667Y-129754733D02*
X169363333Y-129754733D01*
X169363333Y-129754733D02*
X169596667Y-130021400D01*
X169596667Y-130021400D02*
X169496667Y-130021400D01*
X169496667Y-130021400D02*
X169430000Y-130054733D01*
X169430000Y-130054733D02*
X169396667Y-130088066D01*
X169396667Y-130088066D02*
X169363333Y-130154733D01*
X169363333Y-130154733D02*
X169363333Y-130321400D01*
X169363333Y-130321400D02*
X169396667Y-130388066D01*
X169396667Y-130388066D02*
X169430000Y-130421400D01*
X169430000Y-130421400D02*
X169496667Y-130454733D01*
X169496667Y-130454733D02*
X169696667Y-130454733D01*
X169696667Y-130454733D02*
X169763333Y-130421400D01*
X169763333Y-130421400D02*
X169796667Y-130388066D01*
X168696666Y-130454733D02*
X169096666Y-130454733D01*
X168896666Y-130454733D02*
X168896666Y-129754733D01*
X168896666Y-129754733D02*
X168963333Y-129854733D01*
X168963333Y-129854733D02*
X169030000Y-129921400D01*
X169030000Y-129921400D02*
X169096666Y-129954733D01*
X206394733Y-171523333D02*
X206061400Y-171290000D01*
X206394733Y-171123333D02*
X205694733Y-171123333D01*
X205694733Y-171123333D02*
X205694733Y-171390000D01*
X205694733Y-171390000D02*
X205728066Y-171456667D01*
X205728066Y-171456667D02*
X205761400Y-171490000D01*
X205761400Y-171490000D02*
X205828066Y-171523333D01*
X205828066Y-171523333D02*
X205928066Y-171523333D01*
X205928066Y-171523333D02*
X205994733Y-171490000D01*
X205994733Y-171490000D02*
X206028066Y-171456667D01*
X206028066Y-171456667D02*
X206061400Y-171390000D01*
X206061400Y-171390000D02*
X206061400Y-171123333D01*
X206394733Y-172190000D02*
X206394733Y-171790000D01*
X206394733Y-171990000D02*
X205694733Y-171990000D01*
X205694733Y-171990000D02*
X205794733Y-171923333D01*
X205794733Y-171923333D02*
X205861400Y-171856667D01*
X205861400Y-171856667D02*
X205894733Y-171790000D01*
X101030000Y-156888066D02*
X101063333Y-156921400D01*
X101063333Y-156921400D02*
X101163333Y-156954733D01*
X101163333Y-156954733D02*
X101230000Y-156954733D01*
X101230000Y-156954733D02*
X101330000Y-156921400D01*
X101330000Y-156921400D02*
X101396667Y-156854733D01*
X101396667Y-156854733D02*
X101430000Y-156788066D01*
X101430000Y-156788066D02*
X101463333Y-156654733D01*
X101463333Y-156654733D02*
X101463333Y-156554733D01*
X101463333Y-156554733D02*
X101430000Y-156421400D01*
X101430000Y-156421400D02*
X101396667Y-156354733D01*
X101396667Y-156354733D02*
X101330000Y-156288066D01*
X101330000Y-156288066D02*
X101230000Y-156254733D01*
X101230000Y-156254733D02*
X101163333Y-156254733D01*
X101163333Y-156254733D02*
X101063333Y-156288066D01*
X101063333Y-156288066D02*
X101030000Y-156321400D01*
X100430000Y-156488066D02*
X100430000Y-156954733D01*
X100596667Y-156221400D02*
X100763333Y-156721400D01*
X100763333Y-156721400D02*
X100330000Y-156721400D01*
X99930000Y-156254733D02*
X99863333Y-156254733D01*
X99863333Y-156254733D02*
X99796666Y-156288066D01*
X99796666Y-156288066D02*
X99763333Y-156321400D01*
X99763333Y-156321400D02*
X99730000Y-156388066D01*
X99730000Y-156388066D02*
X99696666Y-156521400D01*
X99696666Y-156521400D02*
X99696666Y-156688066D01*
X99696666Y-156688066D02*
X99730000Y-156821400D01*
X99730000Y-156821400D02*
X99763333Y-156888066D01*
X99763333Y-156888066D02*
X99796666Y-156921400D01*
X99796666Y-156921400D02*
X99863333Y-156954733D01*
X99863333Y-156954733D02*
X99930000Y-156954733D01*
X99930000Y-156954733D02*
X99996666Y-156921400D01*
X99996666Y-156921400D02*
X100030000Y-156888066D01*
X100030000Y-156888066D02*
X100063333Y-156821400D01*
X100063333Y-156821400D02*
X100096666Y-156688066D01*
X100096666Y-156688066D02*
X100096666Y-156521400D01*
X100096666Y-156521400D02*
X100063333Y-156388066D01*
X100063333Y-156388066D02*
X100030000Y-156321400D01*
X100030000Y-156321400D02*
X99996666Y-156288066D01*
X99996666Y-156288066D02*
X99930000Y-156254733D01*
X152746666Y-133549733D02*
X152746666Y-132849733D01*
X152746666Y-132849733D02*
X152479999Y-132849733D01*
X152479999Y-132849733D02*
X152413333Y-132883066D01*
X152413333Y-132883066D02*
X152379999Y-132916400D01*
X152379999Y-132916400D02*
X152346666Y-132983066D01*
X152346666Y-132983066D02*
X152346666Y-133083066D01*
X152346666Y-133083066D02*
X152379999Y-133149733D01*
X152379999Y-133149733D02*
X152413333Y-133183066D01*
X152413333Y-133183066D02*
X152479999Y-133216400D01*
X152479999Y-133216400D02*
X152746666Y-133216400D01*
X152079999Y-133349733D02*
X151746666Y-133349733D01*
X152146666Y-133549733D02*
X151913333Y-132849733D01*
X151913333Y-132849733D02*
X151679999Y-133549733D01*
X151446666Y-133549733D02*
X151446666Y-132849733D01*
X151446666Y-132849733D02*
X151279999Y-132849733D01*
X151279999Y-132849733D02*
X151179999Y-132883066D01*
X151179999Y-132883066D02*
X151113333Y-132949733D01*
X151113333Y-132949733D02*
X151079999Y-133016400D01*
X151079999Y-133016400D02*
X151046666Y-133149733D01*
X151046666Y-133149733D02*
X151046666Y-133249733D01*
X151046666Y-133249733D02*
X151079999Y-133383066D01*
X151079999Y-133383066D02*
X151113333Y-133449733D01*
X151113333Y-133449733D02*
X151179999Y-133516400D01*
X151179999Y-133516400D02*
X151279999Y-133549733D01*
X151279999Y-133549733D02*
X151446666Y-133549733D01*
X150379999Y-133549733D02*
X150779999Y-133549733D01*
X150579999Y-133549733D02*
X150579999Y-132849733D01*
X150579999Y-132849733D02*
X150646666Y-132949733D01*
X150646666Y-132949733D02*
X150713333Y-133016400D01*
X150713333Y-133016400D02*
X150779999Y-133049733D01*
X207530000Y-133954733D02*
X207763333Y-133621400D01*
X207930000Y-133954733D02*
X207930000Y-133254733D01*
X207930000Y-133254733D02*
X207663333Y-133254733D01*
X207663333Y-133254733D02*
X207596667Y-133288066D01*
X207596667Y-133288066D02*
X207563333Y-133321400D01*
X207563333Y-133321400D02*
X207530000Y-133388066D01*
X207530000Y-133388066D02*
X207530000Y-133488066D01*
X207530000Y-133488066D02*
X207563333Y-133554733D01*
X207563333Y-133554733D02*
X207596667Y-133588066D01*
X207596667Y-133588066D02*
X207663333Y-133621400D01*
X207663333Y-133621400D02*
X207930000Y-133621400D01*
X207296667Y-133254733D02*
X206863333Y-133254733D01*
X206863333Y-133254733D02*
X207096667Y-133521400D01*
X207096667Y-133521400D02*
X206996667Y-133521400D01*
X206996667Y-133521400D02*
X206930000Y-133554733D01*
X206930000Y-133554733D02*
X206896667Y-133588066D01*
X206896667Y-133588066D02*
X206863333Y-133654733D01*
X206863333Y-133654733D02*
X206863333Y-133821400D01*
X206863333Y-133821400D02*
X206896667Y-133888066D01*
X206896667Y-133888066D02*
X206930000Y-133921400D01*
X206930000Y-133921400D02*
X206996667Y-133954733D01*
X206996667Y-133954733D02*
X207196667Y-133954733D01*
X207196667Y-133954733D02*
X207263333Y-133921400D01*
X207263333Y-133921400D02*
X207296667Y-133888066D01*
X206230000Y-133254733D02*
X206563333Y-133254733D01*
X206563333Y-133254733D02*
X206596666Y-133588066D01*
X206596666Y-133588066D02*
X206563333Y-133554733D01*
X206563333Y-133554733D02*
X206496666Y-133521400D01*
X206496666Y-133521400D02*
X206330000Y-133521400D01*
X206330000Y-133521400D02*
X206263333Y-133554733D01*
X206263333Y-133554733D02*
X206230000Y-133588066D01*
X206230000Y-133588066D02*
X206196666Y-133654733D01*
X206196666Y-133654733D02*
X206196666Y-133821400D01*
X206196666Y-133821400D02*
X206230000Y-133888066D01*
X206230000Y-133888066D02*
X206263333Y-133921400D01*
X206263333Y-133921400D02*
X206330000Y-133954733D01*
X206330000Y-133954733D02*
X206496666Y-133954733D01*
X206496666Y-133954733D02*
X206563333Y-133921400D01*
X206563333Y-133921400D02*
X206596666Y-133888066D01*
X207030000Y-181954733D02*
X207263333Y-181621400D01*
X207430000Y-181954733D02*
X207430000Y-181254733D01*
X207430000Y-181254733D02*
X207163333Y-181254733D01*
X207163333Y-181254733D02*
X207096667Y-181288066D01*
X207096667Y-181288066D02*
X207063333Y-181321400D01*
X207063333Y-181321400D02*
X207030000Y-181388066D01*
X207030000Y-181388066D02*
X207030000Y-181488066D01*
X207030000Y-181488066D02*
X207063333Y-181554733D01*
X207063333Y-181554733D02*
X207096667Y-181588066D01*
X207096667Y-181588066D02*
X207163333Y-181621400D01*
X207163333Y-181621400D02*
X207430000Y-181621400D01*
X206763333Y-181321400D02*
X206730000Y-181288066D01*
X206730000Y-181288066D02*
X206663333Y-181254733D01*
X206663333Y-181254733D02*
X206496667Y-181254733D01*
X206496667Y-181254733D02*
X206430000Y-181288066D01*
X206430000Y-181288066D02*
X206396667Y-181321400D01*
X206396667Y-181321400D02*
X206363333Y-181388066D01*
X206363333Y-181388066D02*
X206363333Y-181454733D01*
X206363333Y-181454733D02*
X206396667Y-181554733D01*
X206396667Y-181554733D02*
X206796667Y-181954733D01*
X206796667Y-181954733D02*
X206363333Y-181954733D01*
X205963333Y-181554733D02*
X206030000Y-181521400D01*
X206030000Y-181521400D02*
X206063333Y-181488066D01*
X206063333Y-181488066D02*
X206096666Y-181421400D01*
X206096666Y-181421400D02*
X206096666Y-181388066D01*
X206096666Y-181388066D02*
X206063333Y-181321400D01*
X206063333Y-181321400D02*
X206030000Y-181288066D01*
X206030000Y-181288066D02*
X205963333Y-181254733D01*
X205963333Y-181254733D02*
X205830000Y-181254733D01*
X205830000Y-181254733D02*
X205763333Y-181288066D01*
X205763333Y-181288066D02*
X205730000Y-181321400D01*
X205730000Y-181321400D02*
X205696666Y-181388066D01*
X205696666Y-181388066D02*
X205696666Y-181421400D01*
X205696666Y-181421400D02*
X205730000Y-181488066D01*
X205730000Y-181488066D02*
X205763333Y-181521400D01*
X205763333Y-181521400D02*
X205830000Y-181554733D01*
X205830000Y-181554733D02*
X205963333Y-181554733D01*
X205963333Y-181554733D02*
X206030000Y-181588066D01*
X206030000Y-181588066D02*
X206063333Y-181621400D01*
X206063333Y-181621400D02*
X206096666Y-181688066D01*
X206096666Y-181688066D02*
X206096666Y-181821400D01*
X206096666Y-181821400D02*
X206063333Y-181888066D01*
X206063333Y-181888066D02*
X206030000Y-181921400D01*
X206030000Y-181921400D02*
X205963333Y-181954733D01*
X205963333Y-181954733D02*
X205830000Y-181954733D01*
X205830000Y-181954733D02*
X205763333Y-181921400D01*
X205763333Y-181921400D02*
X205730000Y-181888066D01*
X205730000Y-181888066D02*
X205696666Y-181821400D01*
X205696666Y-181821400D02*
X205696666Y-181688066D01*
X205696666Y-181688066D02*
X205730000Y-181621400D01*
X205730000Y-181621400D02*
X205763333Y-181588066D01*
X205763333Y-181588066D02*
X205830000Y-181554733D01*
X144530000Y-140388066D02*
X144563333Y-140421400D01*
X144563333Y-140421400D02*
X144663333Y-140454733D01*
X144663333Y-140454733D02*
X144730000Y-140454733D01*
X144730000Y-140454733D02*
X144830000Y-140421400D01*
X144830000Y-140421400D02*
X144896667Y-140354733D01*
X144896667Y-140354733D02*
X144930000Y-140288066D01*
X144930000Y-140288066D02*
X144963333Y-140154733D01*
X144963333Y-140154733D02*
X144963333Y-140054733D01*
X144963333Y-140054733D02*
X144930000Y-139921400D01*
X144930000Y-139921400D02*
X144896667Y-139854733D01*
X144896667Y-139854733D02*
X144830000Y-139788066D01*
X144830000Y-139788066D02*
X144730000Y-139754733D01*
X144730000Y-139754733D02*
X144663333Y-139754733D01*
X144663333Y-139754733D02*
X144563333Y-139788066D01*
X144563333Y-139788066D02*
X144530000Y-139821400D01*
X143863333Y-140454733D02*
X144263333Y-140454733D01*
X144063333Y-140454733D02*
X144063333Y-139754733D01*
X144063333Y-139754733D02*
X144130000Y-139854733D01*
X144130000Y-139854733D02*
X144196667Y-139921400D01*
X144196667Y-139921400D02*
X144263333Y-139954733D01*
X143630000Y-139754733D02*
X143196666Y-139754733D01*
X143196666Y-139754733D02*
X143430000Y-140021400D01*
X143430000Y-140021400D02*
X143330000Y-140021400D01*
X143330000Y-140021400D02*
X143263333Y-140054733D01*
X143263333Y-140054733D02*
X143230000Y-140088066D01*
X143230000Y-140088066D02*
X143196666Y-140154733D01*
X143196666Y-140154733D02*
X143196666Y-140321400D01*
X143196666Y-140321400D02*
X143230000Y-140388066D01*
X143230000Y-140388066D02*
X143263333Y-140421400D01*
X143263333Y-140421400D02*
X143330000Y-140454733D01*
X143330000Y-140454733D02*
X143530000Y-140454733D01*
X143530000Y-140454733D02*
X143596666Y-140421400D01*
X143596666Y-140421400D02*
X143630000Y-140388066D01*
X214530000Y-150954733D02*
X214763333Y-150621400D01*
X214930000Y-150954733D02*
X214930000Y-150254733D01*
X214930000Y-150254733D02*
X214663333Y-150254733D01*
X214663333Y-150254733D02*
X214596667Y-150288066D01*
X214596667Y-150288066D02*
X214563333Y-150321400D01*
X214563333Y-150321400D02*
X214530000Y-150388066D01*
X214530000Y-150388066D02*
X214530000Y-150488066D01*
X214530000Y-150488066D02*
X214563333Y-150554733D01*
X214563333Y-150554733D02*
X214596667Y-150588066D01*
X214596667Y-150588066D02*
X214663333Y-150621400D01*
X214663333Y-150621400D02*
X214930000Y-150621400D01*
X213863333Y-150954733D02*
X214263333Y-150954733D01*
X214063333Y-150954733D02*
X214063333Y-150254733D01*
X214063333Y-150254733D02*
X214130000Y-150354733D01*
X214130000Y-150354733D02*
X214196667Y-150421400D01*
X214196667Y-150421400D02*
X214263333Y-150454733D01*
X213463333Y-150554733D02*
X213530000Y-150521400D01*
X213530000Y-150521400D02*
X213563333Y-150488066D01*
X213563333Y-150488066D02*
X213596666Y-150421400D01*
X213596666Y-150421400D02*
X213596666Y-150388066D01*
X213596666Y-150388066D02*
X213563333Y-150321400D01*
X213563333Y-150321400D02*
X213530000Y-150288066D01*
X213530000Y-150288066D02*
X213463333Y-150254733D01*
X213463333Y-150254733D02*
X213330000Y-150254733D01*
X213330000Y-150254733D02*
X213263333Y-150288066D01*
X213263333Y-150288066D02*
X213230000Y-150321400D01*
X213230000Y-150321400D02*
X213196666Y-150388066D01*
X213196666Y-150388066D02*
X213196666Y-150421400D01*
X213196666Y-150421400D02*
X213230000Y-150488066D01*
X213230000Y-150488066D02*
X213263333Y-150521400D01*
X213263333Y-150521400D02*
X213330000Y-150554733D01*
X213330000Y-150554733D02*
X213463333Y-150554733D01*
X213463333Y-150554733D02*
X213530000Y-150588066D01*
X213530000Y-150588066D02*
X213563333Y-150621400D01*
X213563333Y-150621400D02*
X213596666Y-150688066D01*
X213596666Y-150688066D02*
X213596666Y-150821400D01*
X213596666Y-150821400D02*
X213563333Y-150888066D01*
X213563333Y-150888066D02*
X213530000Y-150921400D01*
X213530000Y-150921400D02*
X213463333Y-150954733D01*
X213463333Y-150954733D02*
X213330000Y-150954733D01*
X213330000Y-150954733D02*
X213263333Y-150921400D01*
X213263333Y-150921400D02*
X213230000Y-150888066D01*
X213230000Y-150888066D02*
X213196666Y-150821400D01*
X213196666Y-150821400D02*
X213196666Y-150688066D01*
X213196666Y-150688066D02*
X213230000Y-150621400D01*
X213230000Y-150621400D02*
X213263333Y-150588066D01*
X213263333Y-150588066D02*
X213330000Y-150554733D01*
X196965266Y-142373333D02*
X196465266Y-142373333D01*
X196465266Y-142373333D02*
X196365266Y-142406666D01*
X196365266Y-142406666D02*
X196298600Y-142473333D01*
X196298600Y-142473333D02*
X196265266Y-142573333D01*
X196265266Y-142573333D02*
X196265266Y-142640000D01*
X196965266Y-141706667D02*
X196965266Y-142040000D01*
X196965266Y-142040000D02*
X196631933Y-142073333D01*
X196631933Y-142073333D02*
X196665266Y-142040000D01*
X196665266Y-142040000D02*
X196698600Y-141973333D01*
X196698600Y-141973333D02*
X196698600Y-141806667D01*
X196698600Y-141806667D02*
X196665266Y-141740000D01*
X196665266Y-141740000D02*
X196631933Y-141706667D01*
X196631933Y-141706667D02*
X196565266Y-141673333D01*
X196565266Y-141673333D02*
X196398600Y-141673333D01*
X196398600Y-141673333D02*
X196331933Y-141706667D01*
X196331933Y-141706667D02*
X196298600Y-141740000D01*
X196298600Y-141740000D02*
X196265266Y-141806667D01*
X196265266Y-141806667D02*
X196265266Y-141973333D01*
X196265266Y-141973333D02*
X196298600Y-142040000D01*
X196298600Y-142040000D02*
X196331933Y-142073333D01*
X120398202Y-168888066D02*
X120431535Y-168921400D01*
X120431535Y-168921400D02*
X120531535Y-168954733D01*
X120531535Y-168954733D02*
X120598202Y-168954733D01*
X120598202Y-168954733D02*
X120698202Y-168921400D01*
X120698202Y-168921400D02*
X120764869Y-168854733D01*
X120764869Y-168854733D02*
X120798202Y-168788066D01*
X120798202Y-168788066D02*
X120831535Y-168654733D01*
X120831535Y-168654733D02*
X120831535Y-168554733D01*
X120831535Y-168554733D02*
X120798202Y-168421400D01*
X120798202Y-168421400D02*
X120764869Y-168354733D01*
X120764869Y-168354733D02*
X120698202Y-168288066D01*
X120698202Y-168288066D02*
X120598202Y-168254733D01*
X120598202Y-168254733D02*
X120531535Y-168254733D01*
X120531535Y-168254733D02*
X120431535Y-168288066D01*
X120431535Y-168288066D02*
X120398202Y-168321400D01*
X119731535Y-168954733D02*
X120131535Y-168954733D01*
X119931535Y-168954733D02*
X119931535Y-168254733D01*
X119931535Y-168254733D02*
X119998202Y-168354733D01*
X119998202Y-168354733D02*
X120064869Y-168421400D01*
X120064869Y-168421400D02*
X120131535Y-168454733D01*
X119131535Y-168488066D02*
X119131535Y-168954733D01*
X119298202Y-168221400D02*
X119464868Y-168721400D01*
X119464868Y-168721400D02*
X119031535Y-168721400D01*
X90030000Y-130454733D02*
X90263333Y-130121400D01*
X90430000Y-130454733D02*
X90430000Y-129754733D01*
X90430000Y-129754733D02*
X90163333Y-129754733D01*
X90163333Y-129754733D02*
X90096667Y-129788066D01*
X90096667Y-129788066D02*
X90063333Y-129821400D01*
X90063333Y-129821400D02*
X90030000Y-129888066D01*
X90030000Y-129888066D02*
X90030000Y-129988066D01*
X90030000Y-129988066D02*
X90063333Y-130054733D01*
X90063333Y-130054733D02*
X90096667Y-130088066D01*
X90096667Y-130088066D02*
X90163333Y-130121400D01*
X90163333Y-130121400D02*
X90430000Y-130121400D01*
X89363333Y-130454733D02*
X89763333Y-130454733D01*
X89563333Y-130454733D02*
X89563333Y-129754733D01*
X89563333Y-129754733D02*
X89630000Y-129854733D01*
X89630000Y-129854733D02*
X89696667Y-129921400D01*
X89696667Y-129921400D02*
X89763333Y-129954733D01*
X89130000Y-129754733D02*
X88696666Y-129754733D01*
X88696666Y-129754733D02*
X88930000Y-130021400D01*
X88930000Y-130021400D02*
X88830000Y-130021400D01*
X88830000Y-130021400D02*
X88763333Y-130054733D01*
X88763333Y-130054733D02*
X88730000Y-130088066D01*
X88730000Y-130088066D02*
X88696666Y-130154733D01*
X88696666Y-130154733D02*
X88696666Y-130321400D01*
X88696666Y-130321400D02*
X88730000Y-130388066D01*
X88730000Y-130388066D02*
X88763333Y-130421400D01*
X88763333Y-130421400D02*
X88830000Y-130454733D01*
X88830000Y-130454733D02*
X89030000Y-130454733D01*
X89030000Y-130454733D02*
X89096666Y-130421400D01*
X89096666Y-130421400D02*
X89130000Y-130388066D01*
X216696666Y-177888066D02*
X216729999Y-177921400D01*
X216729999Y-177921400D02*
X216829999Y-177954733D01*
X216829999Y-177954733D02*
X216896666Y-177954733D01*
X216896666Y-177954733D02*
X216996666Y-177921400D01*
X216996666Y-177921400D02*
X217063333Y-177854733D01*
X217063333Y-177854733D02*
X217096666Y-177788066D01*
X217096666Y-177788066D02*
X217129999Y-177654733D01*
X217129999Y-177654733D02*
X217129999Y-177554733D01*
X217129999Y-177554733D02*
X217096666Y-177421400D01*
X217096666Y-177421400D02*
X217063333Y-177354733D01*
X217063333Y-177354733D02*
X216996666Y-177288066D01*
X216996666Y-177288066D02*
X216896666Y-177254733D01*
X216896666Y-177254733D02*
X216829999Y-177254733D01*
X216829999Y-177254733D02*
X216729999Y-177288066D01*
X216729999Y-177288066D02*
X216696666Y-177321400D01*
X216063333Y-177254733D02*
X216396666Y-177254733D01*
X216396666Y-177254733D02*
X216429999Y-177588066D01*
X216429999Y-177588066D02*
X216396666Y-177554733D01*
X216396666Y-177554733D02*
X216329999Y-177521400D01*
X216329999Y-177521400D02*
X216163333Y-177521400D01*
X216163333Y-177521400D02*
X216096666Y-177554733D01*
X216096666Y-177554733D02*
X216063333Y-177588066D01*
X216063333Y-177588066D02*
X216029999Y-177654733D01*
X216029999Y-177654733D02*
X216029999Y-177821400D01*
X216029999Y-177821400D02*
X216063333Y-177888066D01*
X216063333Y-177888066D02*
X216096666Y-177921400D01*
X216096666Y-177921400D02*
X216163333Y-177954733D01*
X216163333Y-177954733D02*
X216329999Y-177954733D01*
X216329999Y-177954733D02*
X216396666Y-177921400D01*
X216396666Y-177921400D02*
X216429999Y-177888066D01*
X205961400Y-128073333D02*
X205928066Y-128006666D01*
X205928066Y-128006666D02*
X205861400Y-127940000D01*
X205861400Y-127940000D02*
X205761400Y-127840000D01*
X205761400Y-127840000D02*
X205728066Y-127773333D01*
X205728066Y-127773333D02*
X205728066Y-127706666D01*
X205894733Y-127740000D02*
X205861400Y-127673333D01*
X205861400Y-127673333D02*
X205794733Y-127606666D01*
X205794733Y-127606666D02*
X205661400Y-127573333D01*
X205661400Y-127573333D02*
X205428066Y-127573333D01*
X205428066Y-127573333D02*
X205294733Y-127606666D01*
X205294733Y-127606666D02*
X205228066Y-127673333D01*
X205228066Y-127673333D02*
X205194733Y-127740000D01*
X205194733Y-127740000D02*
X205194733Y-127873333D01*
X205194733Y-127873333D02*
X205228066Y-127940000D01*
X205228066Y-127940000D02*
X205294733Y-128006666D01*
X205294733Y-128006666D02*
X205428066Y-128040000D01*
X205428066Y-128040000D02*
X205661400Y-128040000D01*
X205661400Y-128040000D02*
X205794733Y-128006666D01*
X205794733Y-128006666D02*
X205861400Y-127940000D01*
X205861400Y-127940000D02*
X205894733Y-127873333D01*
X205894733Y-127873333D02*
X205894733Y-127740000D01*
X205194733Y-128273333D02*
X205194733Y-128706666D01*
X205194733Y-128706666D02*
X205461400Y-128473333D01*
X205461400Y-128473333D02*
X205461400Y-128573333D01*
X205461400Y-128573333D02*
X205494733Y-128639999D01*
X205494733Y-128639999D02*
X205528066Y-128673333D01*
X205528066Y-128673333D02*
X205594733Y-128706666D01*
X205594733Y-128706666D02*
X205761400Y-128706666D01*
X205761400Y-128706666D02*
X205828066Y-128673333D01*
X205828066Y-128673333D02*
X205861400Y-128639999D01*
X205861400Y-128639999D02*
X205894733Y-128573333D01*
X205894733Y-128573333D02*
X205894733Y-128373333D01*
X205894733Y-128373333D02*
X205861400Y-128306666D01*
X205861400Y-128306666D02*
X205828066Y-128273333D01*
X100746666Y-193954733D02*
X100746666Y-193254733D01*
X100746666Y-193254733D02*
X100479999Y-193254733D01*
X100479999Y-193254733D02*
X100413333Y-193288066D01*
X100413333Y-193288066D02*
X100379999Y-193321400D01*
X100379999Y-193321400D02*
X100346666Y-193388066D01*
X100346666Y-193388066D02*
X100346666Y-193488066D01*
X100346666Y-193488066D02*
X100379999Y-193554733D01*
X100379999Y-193554733D02*
X100413333Y-193588066D01*
X100413333Y-193588066D02*
X100479999Y-193621400D01*
X100479999Y-193621400D02*
X100746666Y-193621400D01*
X100079999Y-193754733D02*
X99746666Y-193754733D01*
X100146666Y-193954733D02*
X99913333Y-193254733D01*
X99913333Y-193254733D02*
X99679999Y-193954733D01*
X99446666Y-193954733D02*
X99446666Y-193254733D01*
X99446666Y-193254733D02*
X99279999Y-193254733D01*
X99279999Y-193254733D02*
X99179999Y-193288066D01*
X99179999Y-193288066D02*
X99113333Y-193354733D01*
X99113333Y-193354733D02*
X99079999Y-193421400D01*
X99079999Y-193421400D02*
X99046666Y-193554733D01*
X99046666Y-193554733D02*
X99046666Y-193654733D01*
X99046666Y-193654733D02*
X99079999Y-193788066D01*
X99079999Y-193788066D02*
X99113333Y-193854733D01*
X99113333Y-193854733D02*
X99179999Y-193921400D01*
X99179999Y-193921400D02*
X99279999Y-193954733D01*
X99279999Y-193954733D02*
X99446666Y-193954733D01*
X98813333Y-193254733D02*
X98379999Y-193254733D01*
X98379999Y-193254733D02*
X98613333Y-193521400D01*
X98613333Y-193521400D02*
X98513333Y-193521400D01*
X98513333Y-193521400D02*
X98446666Y-193554733D01*
X98446666Y-193554733D02*
X98413333Y-193588066D01*
X98413333Y-193588066D02*
X98379999Y-193654733D01*
X98379999Y-193654733D02*
X98379999Y-193821400D01*
X98379999Y-193821400D02*
X98413333Y-193888066D01*
X98413333Y-193888066D02*
X98446666Y-193921400D01*
X98446666Y-193921400D02*
X98513333Y-193954733D01*
X98513333Y-193954733D02*
X98713333Y-193954733D01*
X98713333Y-193954733D02*
X98779999Y-193921400D01*
X98779999Y-193921400D02*
X98813333Y-193888066D01*
X170030000Y-127954733D02*
X170263333Y-127621400D01*
X170430000Y-127954733D02*
X170430000Y-127254733D01*
X170430000Y-127254733D02*
X170163333Y-127254733D01*
X170163333Y-127254733D02*
X170096667Y-127288066D01*
X170096667Y-127288066D02*
X170063333Y-127321400D01*
X170063333Y-127321400D02*
X170030000Y-127388066D01*
X170030000Y-127388066D02*
X170030000Y-127488066D01*
X170030000Y-127488066D02*
X170063333Y-127554733D01*
X170063333Y-127554733D02*
X170096667Y-127588066D01*
X170096667Y-127588066D02*
X170163333Y-127621400D01*
X170163333Y-127621400D02*
X170430000Y-127621400D01*
X169796667Y-127254733D02*
X169363333Y-127254733D01*
X169363333Y-127254733D02*
X169596667Y-127521400D01*
X169596667Y-127521400D02*
X169496667Y-127521400D01*
X169496667Y-127521400D02*
X169430000Y-127554733D01*
X169430000Y-127554733D02*
X169396667Y-127588066D01*
X169396667Y-127588066D02*
X169363333Y-127654733D01*
X169363333Y-127654733D02*
X169363333Y-127821400D01*
X169363333Y-127821400D02*
X169396667Y-127888066D01*
X169396667Y-127888066D02*
X169430000Y-127921400D01*
X169430000Y-127921400D02*
X169496667Y-127954733D01*
X169496667Y-127954733D02*
X169696667Y-127954733D01*
X169696667Y-127954733D02*
X169763333Y-127921400D01*
X169763333Y-127921400D02*
X169796667Y-127888066D01*
X169096666Y-127321400D02*
X169063333Y-127288066D01*
X169063333Y-127288066D02*
X168996666Y-127254733D01*
X168996666Y-127254733D02*
X168830000Y-127254733D01*
X168830000Y-127254733D02*
X168763333Y-127288066D01*
X168763333Y-127288066D02*
X168730000Y-127321400D01*
X168730000Y-127321400D02*
X168696666Y-127388066D01*
X168696666Y-127388066D02*
X168696666Y-127454733D01*
X168696666Y-127454733D02*
X168730000Y-127554733D01*
X168730000Y-127554733D02*
X169130000Y-127954733D01*
X169130000Y-127954733D02*
X168696666Y-127954733D01*
X148930000Y-234588066D02*
X148830000Y-234621400D01*
X148830000Y-234621400D02*
X148796666Y-234654733D01*
X148796666Y-234654733D02*
X148763333Y-234721400D01*
X148763333Y-234721400D02*
X148763333Y-234821400D01*
X148763333Y-234821400D02*
X148796666Y-234888066D01*
X148796666Y-234888066D02*
X148830000Y-234921400D01*
X148830000Y-234921400D02*
X148896666Y-234954733D01*
X148896666Y-234954733D02*
X149163333Y-234954733D01*
X149163333Y-234954733D02*
X149163333Y-234254733D01*
X149163333Y-234254733D02*
X148930000Y-234254733D01*
X148930000Y-234254733D02*
X148863333Y-234288066D01*
X148863333Y-234288066D02*
X148830000Y-234321400D01*
X148830000Y-234321400D02*
X148796666Y-234388066D01*
X148796666Y-234388066D02*
X148796666Y-234454733D01*
X148796666Y-234454733D02*
X148830000Y-234521400D01*
X148830000Y-234521400D02*
X148863333Y-234554733D01*
X148863333Y-234554733D02*
X148930000Y-234588066D01*
X148930000Y-234588066D02*
X149163333Y-234588066D01*
X148496666Y-234754733D02*
X148163333Y-234754733D01*
X148563333Y-234954733D02*
X148330000Y-234254733D01*
X148330000Y-234254733D02*
X148096666Y-234954733D01*
X147963333Y-234254733D02*
X147563333Y-234254733D01*
X147763333Y-234954733D02*
X147763333Y-234254733D01*
X146963333Y-234954733D02*
X147363333Y-234954733D01*
X147163333Y-234954733D02*
X147163333Y-234254733D01*
X147163333Y-234254733D02*
X147230000Y-234354733D01*
X147230000Y-234354733D02*
X147296667Y-234421400D01*
X147296667Y-234421400D02*
X147363333Y-234454733D01*
X77853333Y-129714733D02*
X77853333Y-130214733D01*
X77853333Y-130214733D02*
X77886666Y-130314733D01*
X77886666Y-130314733D02*
X77953333Y-130381400D01*
X77953333Y-130381400D02*
X78053333Y-130414733D01*
X78053333Y-130414733D02*
X78120000Y-130414733D01*
X77153333Y-130414733D02*
X77553333Y-130414733D01*
X77353333Y-130414733D02*
X77353333Y-129714733D01*
X77353333Y-129714733D02*
X77420000Y-129814733D01*
X77420000Y-129814733D02*
X77486667Y-129881400D01*
X77486667Y-129881400D02*
X77553333Y-129914733D01*
X176196666Y-154454733D02*
X176429999Y-154121400D01*
X176596666Y-154454733D02*
X176596666Y-153754733D01*
X176596666Y-153754733D02*
X176329999Y-153754733D01*
X176329999Y-153754733D02*
X176263333Y-153788066D01*
X176263333Y-153788066D02*
X176229999Y-153821400D01*
X176229999Y-153821400D02*
X176196666Y-153888066D01*
X176196666Y-153888066D02*
X176196666Y-153988066D01*
X176196666Y-153988066D02*
X176229999Y-154054733D01*
X176229999Y-154054733D02*
X176263333Y-154088066D01*
X176263333Y-154088066D02*
X176329999Y-154121400D01*
X176329999Y-154121400D02*
X176596666Y-154121400D01*
X175863333Y-154454733D02*
X175729999Y-154454733D01*
X175729999Y-154454733D02*
X175663333Y-154421400D01*
X175663333Y-154421400D02*
X175629999Y-154388066D01*
X175629999Y-154388066D02*
X175563333Y-154288066D01*
X175563333Y-154288066D02*
X175529999Y-154154733D01*
X175529999Y-154154733D02*
X175529999Y-153888066D01*
X175529999Y-153888066D02*
X175563333Y-153821400D01*
X175563333Y-153821400D02*
X175596666Y-153788066D01*
X175596666Y-153788066D02*
X175663333Y-153754733D01*
X175663333Y-153754733D02*
X175796666Y-153754733D01*
X175796666Y-153754733D02*
X175863333Y-153788066D01*
X175863333Y-153788066D02*
X175896666Y-153821400D01*
X175896666Y-153821400D02*
X175929999Y-153888066D01*
X175929999Y-153888066D02*
X175929999Y-154054733D01*
X175929999Y-154054733D02*
X175896666Y-154121400D01*
X175896666Y-154121400D02*
X175863333Y-154154733D01*
X175863333Y-154154733D02*
X175796666Y-154188066D01*
X175796666Y-154188066D02*
X175663333Y-154188066D01*
X175663333Y-154188066D02*
X175596666Y-154154733D01*
X175596666Y-154154733D02*
X175563333Y-154121400D01*
X175563333Y-154121400D02*
X175529999Y-154054733D01*
X86463333Y-190391933D02*
X86430000Y-190358600D01*
X86430000Y-190358600D02*
X86330000Y-190325266D01*
X86330000Y-190325266D02*
X86263333Y-190325266D01*
X86263333Y-190325266D02*
X86163333Y-190358600D01*
X86163333Y-190358600D02*
X86096667Y-190425266D01*
X86096667Y-190425266D02*
X86063333Y-190491933D01*
X86063333Y-190491933D02*
X86030000Y-190625266D01*
X86030000Y-190625266D02*
X86030000Y-190725266D01*
X86030000Y-190725266D02*
X86063333Y-190858600D01*
X86063333Y-190858600D02*
X86096667Y-190925266D01*
X86096667Y-190925266D02*
X86163333Y-190991933D01*
X86163333Y-190991933D02*
X86263333Y-191025266D01*
X86263333Y-191025266D02*
X86330000Y-191025266D01*
X86330000Y-191025266D02*
X86430000Y-190991933D01*
X86430000Y-190991933D02*
X86463333Y-190958600D01*
X86696667Y-191025266D02*
X87130000Y-191025266D01*
X87130000Y-191025266D02*
X86896667Y-190758600D01*
X86896667Y-190758600D02*
X86996667Y-190758600D01*
X86996667Y-190758600D02*
X87063333Y-190725266D01*
X87063333Y-190725266D02*
X87096667Y-190691933D01*
X87096667Y-190691933D02*
X87130000Y-190625266D01*
X87130000Y-190625266D02*
X87130000Y-190458600D01*
X87130000Y-190458600D02*
X87096667Y-190391933D01*
X87096667Y-190391933D02*
X87063333Y-190358600D01*
X87063333Y-190358600D02*
X86996667Y-190325266D01*
X86996667Y-190325266D02*
X86796667Y-190325266D01*
X86796667Y-190325266D02*
X86730000Y-190358600D01*
X86730000Y-190358600D02*
X86696667Y-190391933D01*
X149530000Y-137888066D02*
X149563333Y-137921400D01*
X149563333Y-137921400D02*
X149663333Y-137954733D01*
X149663333Y-137954733D02*
X149730000Y-137954733D01*
X149730000Y-137954733D02*
X149830000Y-137921400D01*
X149830000Y-137921400D02*
X149896667Y-137854733D01*
X149896667Y-137854733D02*
X149930000Y-137788066D01*
X149930000Y-137788066D02*
X149963333Y-137654733D01*
X149963333Y-137654733D02*
X149963333Y-137554733D01*
X149963333Y-137554733D02*
X149930000Y-137421400D01*
X149930000Y-137421400D02*
X149896667Y-137354733D01*
X149896667Y-137354733D02*
X149830000Y-137288066D01*
X149830000Y-137288066D02*
X149730000Y-137254733D01*
X149730000Y-137254733D02*
X149663333Y-137254733D01*
X149663333Y-137254733D02*
X149563333Y-137288066D01*
X149563333Y-137288066D02*
X149530000Y-137321400D01*
X148863333Y-137954733D02*
X149263333Y-137954733D01*
X149063333Y-137954733D02*
X149063333Y-137254733D01*
X149063333Y-137254733D02*
X149130000Y-137354733D01*
X149130000Y-137354733D02*
X149196667Y-137421400D01*
X149196667Y-137421400D02*
X149263333Y-137454733D01*
X148196666Y-137954733D02*
X148596666Y-137954733D01*
X148396666Y-137954733D02*
X148396666Y-137254733D01*
X148396666Y-137254733D02*
X148463333Y-137354733D01*
X148463333Y-137354733D02*
X148530000Y-137421400D01*
X148530000Y-137421400D02*
X148596666Y-137454733D01*
X206394733Y-166023333D02*
X206061400Y-165790000D01*
X206394733Y-165623333D02*
X205694733Y-165623333D01*
X205694733Y-165623333D02*
X205694733Y-165890000D01*
X205694733Y-165890000D02*
X205728066Y-165956667D01*
X205728066Y-165956667D02*
X205761400Y-165990000D01*
X205761400Y-165990000D02*
X205828066Y-166023333D01*
X205828066Y-166023333D02*
X205928066Y-166023333D01*
X205928066Y-166023333D02*
X205994733Y-165990000D01*
X205994733Y-165990000D02*
X206028066Y-165956667D01*
X206028066Y-165956667D02*
X206061400Y-165890000D01*
X206061400Y-165890000D02*
X206061400Y-165623333D01*
X205694733Y-166656667D02*
X205694733Y-166323333D01*
X205694733Y-166323333D02*
X206028066Y-166290000D01*
X206028066Y-166290000D02*
X205994733Y-166323333D01*
X205994733Y-166323333D02*
X205961400Y-166390000D01*
X205961400Y-166390000D02*
X205961400Y-166556667D01*
X205961400Y-166556667D02*
X205994733Y-166623333D01*
X205994733Y-166623333D02*
X206028066Y-166656667D01*
X206028066Y-166656667D02*
X206094733Y-166690000D01*
X206094733Y-166690000D02*
X206261400Y-166690000D01*
X206261400Y-166690000D02*
X206328066Y-166656667D01*
X206328066Y-166656667D02*
X206361400Y-166623333D01*
X206361400Y-166623333D02*
X206394733Y-166556667D01*
X206394733Y-166556667D02*
X206394733Y-166390000D01*
X206394733Y-166390000D02*
X206361400Y-166323333D01*
X206361400Y-166323333D02*
X206328066Y-166290000D01*
X147530000Y-139388066D02*
X147563333Y-139421400D01*
X147563333Y-139421400D02*
X147663333Y-139454733D01*
X147663333Y-139454733D02*
X147730000Y-139454733D01*
X147730000Y-139454733D02*
X147830000Y-139421400D01*
X147830000Y-139421400D02*
X147896667Y-139354733D01*
X147896667Y-139354733D02*
X147930000Y-139288066D01*
X147930000Y-139288066D02*
X147963333Y-139154733D01*
X147963333Y-139154733D02*
X147963333Y-139054733D01*
X147963333Y-139054733D02*
X147930000Y-138921400D01*
X147930000Y-138921400D02*
X147896667Y-138854733D01*
X147896667Y-138854733D02*
X147830000Y-138788066D01*
X147830000Y-138788066D02*
X147730000Y-138754733D01*
X147730000Y-138754733D02*
X147663333Y-138754733D01*
X147663333Y-138754733D02*
X147563333Y-138788066D01*
X147563333Y-138788066D02*
X147530000Y-138821400D01*
X146863333Y-139454733D02*
X147263333Y-139454733D01*
X147063333Y-139454733D02*
X147063333Y-138754733D01*
X147063333Y-138754733D02*
X147130000Y-138854733D01*
X147130000Y-138854733D02*
X147196667Y-138921400D01*
X147196667Y-138921400D02*
X147263333Y-138954733D01*
X146263333Y-138754733D02*
X146396666Y-138754733D01*
X146396666Y-138754733D02*
X146463333Y-138788066D01*
X146463333Y-138788066D02*
X146496666Y-138821400D01*
X146496666Y-138821400D02*
X146563333Y-138921400D01*
X146563333Y-138921400D02*
X146596666Y-139054733D01*
X146596666Y-139054733D02*
X146596666Y-139321400D01*
X146596666Y-139321400D02*
X146563333Y-139388066D01*
X146563333Y-139388066D02*
X146530000Y-139421400D01*
X146530000Y-139421400D02*
X146463333Y-139454733D01*
X146463333Y-139454733D02*
X146330000Y-139454733D01*
X146330000Y-139454733D02*
X146263333Y-139421400D01*
X146263333Y-139421400D02*
X146230000Y-139388066D01*
X146230000Y-139388066D02*
X146196666Y-139321400D01*
X146196666Y-139321400D02*
X146196666Y-139154733D01*
X146196666Y-139154733D02*
X146230000Y-139088066D01*
X146230000Y-139088066D02*
X146263333Y-139054733D01*
X146263333Y-139054733D02*
X146330000Y-139021400D01*
X146330000Y-139021400D02*
X146463333Y-139021400D01*
X146463333Y-139021400D02*
X146530000Y-139054733D01*
X146530000Y-139054733D02*
X146563333Y-139088066D01*
X146563333Y-139088066D02*
X146596666Y-139154733D01*
X229246666Y-177549733D02*
X229246666Y-176849733D01*
X229246666Y-176849733D02*
X228979999Y-176849733D01*
X228979999Y-176849733D02*
X228913333Y-176883066D01*
X228913333Y-176883066D02*
X228879999Y-176916400D01*
X228879999Y-176916400D02*
X228846666Y-176983066D01*
X228846666Y-176983066D02*
X228846666Y-177083066D01*
X228846666Y-177083066D02*
X228879999Y-177149733D01*
X228879999Y-177149733D02*
X228913333Y-177183066D01*
X228913333Y-177183066D02*
X228979999Y-177216400D01*
X228979999Y-177216400D02*
X229246666Y-177216400D01*
X228579999Y-177349733D02*
X228246666Y-177349733D01*
X228646666Y-177549733D02*
X228413333Y-176849733D01*
X228413333Y-176849733D02*
X228179999Y-177549733D01*
X227946666Y-177549733D02*
X227946666Y-176849733D01*
X227946666Y-176849733D02*
X227779999Y-176849733D01*
X227779999Y-176849733D02*
X227679999Y-176883066D01*
X227679999Y-176883066D02*
X227613333Y-176949733D01*
X227613333Y-176949733D02*
X227579999Y-177016400D01*
X227579999Y-177016400D02*
X227546666Y-177149733D01*
X227546666Y-177149733D02*
X227546666Y-177249733D01*
X227546666Y-177249733D02*
X227579999Y-177383066D01*
X227579999Y-177383066D02*
X227613333Y-177449733D01*
X227613333Y-177449733D02*
X227679999Y-177516400D01*
X227679999Y-177516400D02*
X227779999Y-177549733D01*
X227779999Y-177549733D02*
X227946666Y-177549733D01*
X227279999Y-176916400D02*
X227246666Y-176883066D01*
X227246666Y-176883066D02*
X227179999Y-176849733D01*
X227179999Y-176849733D02*
X227013333Y-176849733D01*
X227013333Y-176849733D02*
X226946666Y-176883066D01*
X226946666Y-176883066D02*
X226913333Y-176916400D01*
X226913333Y-176916400D02*
X226879999Y-176983066D01*
X226879999Y-176983066D02*
X226879999Y-177049733D01*
X226879999Y-177049733D02*
X226913333Y-177149733D01*
X226913333Y-177149733D02*
X227313333Y-177549733D01*
X227313333Y-177549733D02*
X226879999Y-177549733D01*
X199246666Y-132049733D02*
X199246666Y-131349733D01*
X199246666Y-131349733D02*
X198979999Y-131349733D01*
X198979999Y-131349733D02*
X198913333Y-131383066D01*
X198913333Y-131383066D02*
X198879999Y-131416400D01*
X198879999Y-131416400D02*
X198846666Y-131483066D01*
X198846666Y-131483066D02*
X198846666Y-131583066D01*
X198846666Y-131583066D02*
X198879999Y-131649733D01*
X198879999Y-131649733D02*
X198913333Y-131683066D01*
X198913333Y-131683066D02*
X198979999Y-131716400D01*
X198979999Y-131716400D02*
X199246666Y-131716400D01*
X198579999Y-131849733D02*
X198246666Y-131849733D01*
X198646666Y-132049733D02*
X198413333Y-131349733D01*
X198413333Y-131349733D02*
X198179999Y-132049733D01*
X197946666Y-132049733D02*
X197946666Y-131349733D01*
X197946666Y-131349733D02*
X197779999Y-131349733D01*
X197779999Y-131349733D02*
X197679999Y-131383066D01*
X197679999Y-131383066D02*
X197613333Y-131449733D01*
X197613333Y-131449733D02*
X197579999Y-131516400D01*
X197579999Y-131516400D02*
X197546666Y-131649733D01*
X197546666Y-131649733D02*
X197546666Y-131749733D01*
X197546666Y-131749733D02*
X197579999Y-131883066D01*
X197579999Y-131883066D02*
X197613333Y-131949733D01*
X197613333Y-131949733D02*
X197679999Y-132016400D01*
X197679999Y-132016400D02*
X197779999Y-132049733D01*
X197779999Y-132049733D02*
X197946666Y-132049733D01*
X197313333Y-131349733D02*
X196846666Y-131349733D01*
X196846666Y-131349733D02*
X197146666Y-132049733D01*
X170030000Y-132954733D02*
X170263333Y-132621400D01*
X170430000Y-132954733D02*
X170430000Y-132254733D01*
X170430000Y-132254733D02*
X170163333Y-132254733D01*
X170163333Y-132254733D02*
X170096667Y-132288066D01*
X170096667Y-132288066D02*
X170063333Y-132321400D01*
X170063333Y-132321400D02*
X170030000Y-132388066D01*
X170030000Y-132388066D02*
X170030000Y-132488066D01*
X170030000Y-132488066D02*
X170063333Y-132554733D01*
X170063333Y-132554733D02*
X170096667Y-132588066D01*
X170096667Y-132588066D02*
X170163333Y-132621400D01*
X170163333Y-132621400D02*
X170430000Y-132621400D01*
X169763333Y-132321400D02*
X169730000Y-132288066D01*
X169730000Y-132288066D02*
X169663333Y-132254733D01*
X169663333Y-132254733D02*
X169496667Y-132254733D01*
X169496667Y-132254733D02*
X169430000Y-132288066D01*
X169430000Y-132288066D02*
X169396667Y-132321400D01*
X169396667Y-132321400D02*
X169363333Y-132388066D01*
X169363333Y-132388066D02*
X169363333Y-132454733D01*
X169363333Y-132454733D02*
X169396667Y-132554733D01*
X169396667Y-132554733D02*
X169796667Y-132954733D01*
X169796667Y-132954733D02*
X169363333Y-132954733D01*
X168696666Y-132954733D02*
X169096666Y-132954733D01*
X168896666Y-132954733D02*
X168896666Y-132254733D01*
X168896666Y-132254733D02*
X168963333Y-132354733D01*
X168963333Y-132354733D02*
X169030000Y-132421400D01*
X169030000Y-132421400D02*
X169096666Y-132454733D01*
X139530000Y-139388066D02*
X139563333Y-139421400D01*
X139563333Y-139421400D02*
X139663333Y-139454733D01*
X139663333Y-139454733D02*
X139730000Y-139454733D01*
X139730000Y-139454733D02*
X139830000Y-139421400D01*
X139830000Y-139421400D02*
X139896667Y-139354733D01*
X139896667Y-139354733D02*
X139930000Y-139288066D01*
X139930000Y-139288066D02*
X139963333Y-139154733D01*
X139963333Y-139154733D02*
X139963333Y-139054733D01*
X139963333Y-139054733D02*
X139930000Y-138921400D01*
X139930000Y-138921400D02*
X139896667Y-138854733D01*
X139896667Y-138854733D02*
X139830000Y-138788066D01*
X139830000Y-138788066D02*
X139730000Y-138754733D01*
X139730000Y-138754733D02*
X139663333Y-138754733D01*
X139663333Y-138754733D02*
X139563333Y-138788066D01*
X139563333Y-138788066D02*
X139530000Y-138821400D01*
X138863333Y-139454733D02*
X139263333Y-139454733D01*
X139063333Y-139454733D02*
X139063333Y-138754733D01*
X139063333Y-138754733D02*
X139130000Y-138854733D01*
X139130000Y-138854733D02*
X139196667Y-138921400D01*
X139196667Y-138921400D02*
X139263333Y-138954733D01*
X138230000Y-138754733D02*
X138563333Y-138754733D01*
X138563333Y-138754733D02*
X138596666Y-139088066D01*
X138596666Y-139088066D02*
X138563333Y-139054733D01*
X138563333Y-139054733D02*
X138496666Y-139021400D01*
X138496666Y-139021400D02*
X138330000Y-139021400D01*
X138330000Y-139021400D02*
X138263333Y-139054733D01*
X138263333Y-139054733D02*
X138230000Y-139088066D01*
X138230000Y-139088066D02*
X138196666Y-139154733D01*
X138196666Y-139154733D02*
X138196666Y-139321400D01*
X138196666Y-139321400D02*
X138230000Y-139388066D01*
X138230000Y-139388066D02*
X138263333Y-139421400D01*
X138263333Y-139421400D02*
X138330000Y-139454733D01*
X138330000Y-139454733D02*
X138496666Y-139454733D01*
X138496666Y-139454733D02*
X138563333Y-139421400D01*
X138563333Y-139421400D02*
X138596666Y-139388066D01*
X152746666Y-129049733D02*
X152746666Y-128349733D01*
X152746666Y-128349733D02*
X152479999Y-128349733D01*
X152479999Y-128349733D02*
X152413333Y-128383066D01*
X152413333Y-128383066D02*
X152379999Y-128416400D01*
X152379999Y-128416400D02*
X152346666Y-128483066D01*
X152346666Y-128483066D02*
X152346666Y-128583066D01*
X152346666Y-128583066D02*
X152379999Y-128649733D01*
X152379999Y-128649733D02*
X152413333Y-128683066D01*
X152413333Y-128683066D02*
X152479999Y-128716400D01*
X152479999Y-128716400D02*
X152746666Y-128716400D01*
X152079999Y-128849733D02*
X151746666Y-128849733D01*
X152146666Y-129049733D02*
X151913333Y-128349733D01*
X151913333Y-128349733D02*
X151679999Y-129049733D01*
X151446666Y-129049733D02*
X151446666Y-128349733D01*
X151446666Y-128349733D02*
X151279999Y-128349733D01*
X151279999Y-128349733D02*
X151179999Y-128383066D01*
X151179999Y-128383066D02*
X151113333Y-128449733D01*
X151113333Y-128449733D02*
X151079999Y-128516400D01*
X151079999Y-128516400D02*
X151046666Y-128649733D01*
X151046666Y-128649733D02*
X151046666Y-128749733D01*
X151046666Y-128749733D02*
X151079999Y-128883066D01*
X151079999Y-128883066D02*
X151113333Y-128949733D01*
X151113333Y-128949733D02*
X151179999Y-129016400D01*
X151179999Y-129016400D02*
X151279999Y-129049733D01*
X151279999Y-129049733D02*
X151446666Y-129049733D01*
X150413333Y-128349733D02*
X150746666Y-128349733D01*
X150746666Y-128349733D02*
X150779999Y-128683066D01*
X150779999Y-128683066D02*
X150746666Y-128649733D01*
X150746666Y-128649733D02*
X150679999Y-128616400D01*
X150679999Y-128616400D02*
X150513333Y-128616400D01*
X150513333Y-128616400D02*
X150446666Y-128649733D01*
X150446666Y-128649733D02*
X150413333Y-128683066D01*
X150413333Y-128683066D02*
X150379999Y-128749733D01*
X150379999Y-128749733D02*
X150379999Y-128916400D01*
X150379999Y-128916400D02*
X150413333Y-128983066D01*
X150413333Y-128983066D02*
X150446666Y-129016400D01*
X150446666Y-129016400D02*
X150513333Y-129049733D01*
X150513333Y-129049733D02*
X150679999Y-129049733D01*
X150679999Y-129049733D02*
X150746666Y-129016400D01*
X150746666Y-129016400D02*
X150779999Y-128983066D01*
X214530000Y-153954733D02*
X214763333Y-153621400D01*
X214930000Y-153954733D02*
X214930000Y-153254733D01*
X214930000Y-153254733D02*
X214663333Y-153254733D01*
X214663333Y-153254733D02*
X214596667Y-153288066D01*
X214596667Y-153288066D02*
X214563333Y-153321400D01*
X214563333Y-153321400D02*
X214530000Y-153388066D01*
X214530000Y-153388066D02*
X214530000Y-153488066D01*
X214530000Y-153488066D02*
X214563333Y-153554733D01*
X214563333Y-153554733D02*
X214596667Y-153588066D01*
X214596667Y-153588066D02*
X214663333Y-153621400D01*
X214663333Y-153621400D02*
X214930000Y-153621400D01*
X213863333Y-153954733D02*
X214263333Y-153954733D01*
X214063333Y-153954733D02*
X214063333Y-153254733D01*
X214063333Y-153254733D02*
X214130000Y-153354733D01*
X214130000Y-153354733D02*
X214196667Y-153421400D01*
X214196667Y-153421400D02*
X214263333Y-153454733D01*
X213530000Y-153954733D02*
X213396666Y-153954733D01*
X213396666Y-153954733D02*
X213330000Y-153921400D01*
X213330000Y-153921400D02*
X213296666Y-153888066D01*
X213296666Y-153888066D02*
X213230000Y-153788066D01*
X213230000Y-153788066D02*
X213196666Y-153654733D01*
X213196666Y-153654733D02*
X213196666Y-153388066D01*
X213196666Y-153388066D02*
X213230000Y-153321400D01*
X213230000Y-153321400D02*
X213263333Y-153288066D01*
X213263333Y-153288066D02*
X213330000Y-153254733D01*
X213330000Y-153254733D02*
X213463333Y-153254733D01*
X213463333Y-153254733D02*
X213530000Y-153288066D01*
X213530000Y-153288066D02*
X213563333Y-153321400D01*
X213563333Y-153321400D02*
X213596666Y-153388066D01*
X213596666Y-153388066D02*
X213596666Y-153554733D01*
X213596666Y-153554733D02*
X213563333Y-153621400D01*
X213563333Y-153621400D02*
X213530000Y-153654733D01*
X213530000Y-153654733D02*
X213463333Y-153688066D01*
X213463333Y-153688066D02*
X213330000Y-153688066D01*
X213330000Y-153688066D02*
X213263333Y-153654733D01*
X213263333Y-153654733D02*
X213230000Y-153621400D01*
X213230000Y-153621400D02*
X213196666Y-153554733D01*
X92696666Y-188454733D02*
X92929999Y-188121400D01*
X93096666Y-188454733D02*
X93096666Y-187754733D01*
X93096666Y-187754733D02*
X92829999Y-187754733D01*
X92829999Y-187754733D02*
X92763333Y-187788066D01*
X92763333Y-187788066D02*
X92729999Y-187821400D01*
X92729999Y-187821400D02*
X92696666Y-187888066D01*
X92696666Y-187888066D02*
X92696666Y-187988066D01*
X92696666Y-187988066D02*
X92729999Y-188054733D01*
X92729999Y-188054733D02*
X92763333Y-188088066D01*
X92763333Y-188088066D02*
X92829999Y-188121400D01*
X92829999Y-188121400D02*
X93096666Y-188121400D01*
X92096666Y-187754733D02*
X92229999Y-187754733D01*
X92229999Y-187754733D02*
X92296666Y-187788066D01*
X92296666Y-187788066D02*
X92329999Y-187821400D01*
X92329999Y-187821400D02*
X92396666Y-187921400D01*
X92396666Y-187921400D02*
X92429999Y-188054733D01*
X92429999Y-188054733D02*
X92429999Y-188321400D01*
X92429999Y-188321400D02*
X92396666Y-188388066D01*
X92396666Y-188388066D02*
X92363333Y-188421400D01*
X92363333Y-188421400D02*
X92296666Y-188454733D01*
X92296666Y-188454733D02*
X92163333Y-188454733D01*
X92163333Y-188454733D02*
X92096666Y-188421400D01*
X92096666Y-188421400D02*
X92063333Y-188388066D01*
X92063333Y-188388066D02*
X92029999Y-188321400D01*
X92029999Y-188321400D02*
X92029999Y-188154733D01*
X92029999Y-188154733D02*
X92063333Y-188088066D01*
X92063333Y-188088066D02*
X92096666Y-188054733D01*
X92096666Y-188054733D02*
X92163333Y-188021400D01*
X92163333Y-188021400D02*
X92296666Y-188021400D01*
X92296666Y-188021400D02*
X92363333Y-188054733D01*
X92363333Y-188054733D02*
X92396666Y-188088066D01*
X92396666Y-188088066D02*
X92429999Y-188154733D01*
X132696666Y-137388066D02*
X132729999Y-137421400D01*
X132729999Y-137421400D02*
X132829999Y-137454733D01*
X132829999Y-137454733D02*
X132896666Y-137454733D01*
X132896666Y-137454733D02*
X132996666Y-137421400D01*
X132996666Y-137421400D02*
X133063333Y-137354733D01*
X133063333Y-137354733D02*
X133096666Y-137288066D01*
X133096666Y-137288066D02*
X133129999Y-137154733D01*
X133129999Y-137154733D02*
X133129999Y-137054733D01*
X133129999Y-137054733D02*
X133096666Y-136921400D01*
X133096666Y-136921400D02*
X133063333Y-136854733D01*
X133063333Y-136854733D02*
X132996666Y-136788066D01*
X132996666Y-136788066D02*
X132896666Y-136754733D01*
X132896666Y-136754733D02*
X132829999Y-136754733D01*
X132829999Y-136754733D02*
X132729999Y-136788066D01*
X132729999Y-136788066D02*
X132696666Y-136821400D01*
X132296666Y-137054733D02*
X132363333Y-137021400D01*
X132363333Y-137021400D02*
X132396666Y-136988066D01*
X132396666Y-136988066D02*
X132429999Y-136921400D01*
X132429999Y-136921400D02*
X132429999Y-136888066D01*
X132429999Y-136888066D02*
X132396666Y-136821400D01*
X132396666Y-136821400D02*
X132363333Y-136788066D01*
X132363333Y-136788066D02*
X132296666Y-136754733D01*
X132296666Y-136754733D02*
X132163333Y-136754733D01*
X132163333Y-136754733D02*
X132096666Y-136788066D01*
X132096666Y-136788066D02*
X132063333Y-136821400D01*
X132063333Y-136821400D02*
X132029999Y-136888066D01*
X132029999Y-136888066D02*
X132029999Y-136921400D01*
X132029999Y-136921400D02*
X132063333Y-136988066D01*
X132063333Y-136988066D02*
X132096666Y-137021400D01*
X132096666Y-137021400D02*
X132163333Y-137054733D01*
X132163333Y-137054733D02*
X132296666Y-137054733D01*
X132296666Y-137054733D02*
X132363333Y-137088066D01*
X132363333Y-137088066D02*
X132396666Y-137121400D01*
X132396666Y-137121400D02*
X132429999Y-137188066D01*
X132429999Y-137188066D02*
X132429999Y-137321400D01*
X132429999Y-137321400D02*
X132396666Y-137388066D01*
X132396666Y-137388066D02*
X132363333Y-137421400D01*
X132363333Y-137421400D02*
X132296666Y-137454733D01*
X132296666Y-137454733D02*
X132163333Y-137454733D01*
X132163333Y-137454733D02*
X132096666Y-137421400D01*
X132096666Y-137421400D02*
X132063333Y-137388066D01*
X132063333Y-137388066D02*
X132029999Y-137321400D01*
X132029999Y-137321400D02*
X132029999Y-137188066D01*
X132029999Y-137188066D02*
X132063333Y-137121400D01*
X132063333Y-137121400D02*
X132096666Y-137088066D01*
X132096666Y-137088066D02*
X132163333Y-137054733D01*
X141530000Y-137888066D02*
X141563333Y-137921400D01*
X141563333Y-137921400D02*
X141663333Y-137954733D01*
X141663333Y-137954733D02*
X141730000Y-137954733D01*
X141730000Y-137954733D02*
X141830000Y-137921400D01*
X141830000Y-137921400D02*
X141896667Y-137854733D01*
X141896667Y-137854733D02*
X141930000Y-137788066D01*
X141930000Y-137788066D02*
X141963333Y-137654733D01*
X141963333Y-137654733D02*
X141963333Y-137554733D01*
X141963333Y-137554733D02*
X141930000Y-137421400D01*
X141930000Y-137421400D02*
X141896667Y-137354733D01*
X141896667Y-137354733D02*
X141830000Y-137288066D01*
X141830000Y-137288066D02*
X141730000Y-137254733D01*
X141730000Y-137254733D02*
X141663333Y-137254733D01*
X141663333Y-137254733D02*
X141563333Y-137288066D01*
X141563333Y-137288066D02*
X141530000Y-137321400D01*
X140863333Y-137954733D02*
X141263333Y-137954733D01*
X141063333Y-137954733D02*
X141063333Y-137254733D01*
X141063333Y-137254733D02*
X141130000Y-137354733D01*
X141130000Y-137354733D02*
X141196667Y-137421400D01*
X141196667Y-137421400D02*
X141263333Y-137454733D01*
X140430000Y-137254733D02*
X140363333Y-137254733D01*
X140363333Y-137254733D02*
X140296666Y-137288066D01*
X140296666Y-137288066D02*
X140263333Y-137321400D01*
X140263333Y-137321400D02*
X140230000Y-137388066D01*
X140230000Y-137388066D02*
X140196666Y-137521400D01*
X140196666Y-137521400D02*
X140196666Y-137688066D01*
X140196666Y-137688066D02*
X140230000Y-137821400D01*
X140230000Y-137821400D02*
X140263333Y-137888066D01*
X140263333Y-137888066D02*
X140296666Y-137921400D01*
X140296666Y-137921400D02*
X140363333Y-137954733D01*
X140363333Y-137954733D02*
X140430000Y-137954733D01*
X140430000Y-137954733D02*
X140496666Y-137921400D01*
X140496666Y-137921400D02*
X140530000Y-137888066D01*
X140530000Y-137888066D02*
X140563333Y-137821400D01*
X140563333Y-137821400D02*
X140596666Y-137688066D01*
X140596666Y-137688066D02*
X140596666Y-137521400D01*
X140596666Y-137521400D02*
X140563333Y-137388066D01*
X140563333Y-137388066D02*
X140530000Y-137321400D01*
X140530000Y-137321400D02*
X140496666Y-137288066D01*
X140496666Y-137288066D02*
X140430000Y-137254733D01*
X205013333Y-129258600D02*
X204946666Y-129291933D01*
X204946666Y-129291933D02*
X204880000Y-129358600D01*
X204880000Y-129358600D02*
X204780000Y-129458600D01*
X204780000Y-129458600D02*
X204713333Y-129491933D01*
X204713333Y-129491933D02*
X204646666Y-129491933D01*
X204680000Y-129325266D02*
X204613333Y-129358600D01*
X204613333Y-129358600D02*
X204546666Y-129425266D01*
X204546666Y-129425266D02*
X204513333Y-129558600D01*
X204513333Y-129558600D02*
X204513333Y-129791933D01*
X204513333Y-129791933D02*
X204546666Y-129925266D01*
X204546666Y-129925266D02*
X204613333Y-129991933D01*
X204613333Y-129991933D02*
X204680000Y-130025266D01*
X204680000Y-130025266D02*
X204813333Y-130025266D01*
X204813333Y-130025266D02*
X204880000Y-129991933D01*
X204880000Y-129991933D02*
X204946666Y-129925266D01*
X204946666Y-129925266D02*
X204980000Y-129791933D01*
X204980000Y-129791933D02*
X204980000Y-129558600D01*
X204980000Y-129558600D02*
X204946666Y-129425266D01*
X204946666Y-129425266D02*
X204880000Y-129358600D01*
X204880000Y-129358600D02*
X204813333Y-129325266D01*
X204813333Y-129325266D02*
X204680000Y-129325266D01*
X205246666Y-129958600D02*
X205279999Y-129991933D01*
X205279999Y-129991933D02*
X205346666Y-130025266D01*
X205346666Y-130025266D02*
X205513333Y-130025266D01*
X205513333Y-130025266D02*
X205579999Y-129991933D01*
X205579999Y-129991933D02*
X205613333Y-129958600D01*
X205613333Y-129958600D02*
X205646666Y-129891933D01*
X205646666Y-129891933D02*
X205646666Y-129825266D01*
X205646666Y-129825266D02*
X205613333Y-129725266D01*
X205613333Y-129725266D02*
X205213333Y-129325266D01*
X205213333Y-129325266D02*
X205646666Y-129325266D01*
X223818333Y-178102983D02*
X223818333Y-178602983D01*
X223818333Y-178602983D02*
X223851666Y-178702983D01*
X223851666Y-178702983D02*
X223918333Y-178769650D01*
X223918333Y-178769650D02*
X224018333Y-178802983D01*
X224018333Y-178802983D02*
X224085000Y-178802983D01*
X223185000Y-178336316D02*
X223185000Y-178802983D01*
X223351667Y-178069650D02*
X223518333Y-178569650D01*
X223518333Y-178569650D02*
X223085000Y-178569650D01*
X110030000Y-141354733D02*
X110263333Y-141021400D01*
X110430000Y-141354733D02*
X110430000Y-140654733D01*
X110430000Y-140654733D02*
X110163333Y-140654733D01*
X110163333Y-140654733D02*
X110096667Y-140688066D01*
X110096667Y-140688066D02*
X110063333Y-140721400D01*
X110063333Y-140721400D02*
X110030000Y-140788066D01*
X110030000Y-140788066D02*
X110030000Y-140888066D01*
X110030000Y-140888066D02*
X110063333Y-140954733D01*
X110063333Y-140954733D02*
X110096667Y-140988066D01*
X110096667Y-140988066D02*
X110163333Y-141021400D01*
X110163333Y-141021400D02*
X110430000Y-141021400D01*
X109363333Y-141354733D02*
X109763333Y-141354733D01*
X109563333Y-141354733D02*
X109563333Y-140654733D01*
X109563333Y-140654733D02*
X109630000Y-140754733D01*
X109630000Y-140754733D02*
X109696667Y-140821400D01*
X109696667Y-140821400D02*
X109763333Y-140854733D01*
X109130000Y-140654733D02*
X108663333Y-140654733D01*
X108663333Y-140654733D02*
X108963333Y-141354733D01*
X214530000Y-156954733D02*
X214763333Y-156621400D01*
X214930000Y-156954733D02*
X214930000Y-156254733D01*
X214930000Y-156254733D02*
X214663333Y-156254733D01*
X214663333Y-156254733D02*
X214596667Y-156288066D01*
X214596667Y-156288066D02*
X214563333Y-156321400D01*
X214563333Y-156321400D02*
X214530000Y-156388066D01*
X214530000Y-156388066D02*
X214530000Y-156488066D01*
X214530000Y-156488066D02*
X214563333Y-156554733D01*
X214563333Y-156554733D02*
X214596667Y-156588066D01*
X214596667Y-156588066D02*
X214663333Y-156621400D01*
X214663333Y-156621400D02*
X214930000Y-156621400D01*
X214263333Y-156321400D02*
X214230000Y-156288066D01*
X214230000Y-156288066D02*
X214163333Y-156254733D01*
X214163333Y-156254733D02*
X213996667Y-156254733D01*
X213996667Y-156254733D02*
X213930000Y-156288066D01*
X213930000Y-156288066D02*
X213896667Y-156321400D01*
X213896667Y-156321400D02*
X213863333Y-156388066D01*
X213863333Y-156388066D02*
X213863333Y-156454733D01*
X213863333Y-156454733D02*
X213896667Y-156554733D01*
X213896667Y-156554733D02*
X214296667Y-156954733D01*
X214296667Y-156954733D02*
X213863333Y-156954733D01*
X213596666Y-156321400D02*
X213563333Y-156288066D01*
X213563333Y-156288066D02*
X213496666Y-156254733D01*
X213496666Y-156254733D02*
X213330000Y-156254733D01*
X213330000Y-156254733D02*
X213263333Y-156288066D01*
X213263333Y-156288066D02*
X213230000Y-156321400D01*
X213230000Y-156321400D02*
X213196666Y-156388066D01*
X213196666Y-156388066D02*
X213196666Y-156454733D01*
X213196666Y-156454733D02*
X213230000Y-156554733D01*
X213230000Y-156554733D02*
X213630000Y-156954733D01*
X213630000Y-156954733D02*
X213196666Y-156954733D01*
X170030000Y-138954733D02*
X170263333Y-138621400D01*
X170430000Y-138954733D02*
X170430000Y-138254733D01*
X170430000Y-138254733D02*
X170163333Y-138254733D01*
X170163333Y-138254733D02*
X170096667Y-138288066D01*
X170096667Y-138288066D02*
X170063333Y-138321400D01*
X170063333Y-138321400D02*
X170030000Y-138388066D01*
X170030000Y-138388066D02*
X170030000Y-138488066D01*
X170030000Y-138488066D02*
X170063333Y-138554733D01*
X170063333Y-138554733D02*
X170096667Y-138588066D01*
X170096667Y-138588066D02*
X170163333Y-138621400D01*
X170163333Y-138621400D02*
X170430000Y-138621400D01*
X169763333Y-138321400D02*
X169730000Y-138288066D01*
X169730000Y-138288066D02*
X169663333Y-138254733D01*
X169663333Y-138254733D02*
X169496667Y-138254733D01*
X169496667Y-138254733D02*
X169430000Y-138288066D01*
X169430000Y-138288066D02*
X169396667Y-138321400D01*
X169396667Y-138321400D02*
X169363333Y-138388066D01*
X169363333Y-138388066D02*
X169363333Y-138454733D01*
X169363333Y-138454733D02*
X169396667Y-138554733D01*
X169396667Y-138554733D02*
X169796667Y-138954733D01*
X169796667Y-138954733D02*
X169363333Y-138954733D01*
X169030000Y-138954733D02*
X168896666Y-138954733D01*
X168896666Y-138954733D02*
X168830000Y-138921400D01*
X168830000Y-138921400D02*
X168796666Y-138888066D01*
X168796666Y-138888066D02*
X168730000Y-138788066D01*
X168730000Y-138788066D02*
X168696666Y-138654733D01*
X168696666Y-138654733D02*
X168696666Y-138388066D01*
X168696666Y-138388066D02*
X168730000Y-138321400D01*
X168730000Y-138321400D02*
X168763333Y-138288066D01*
X168763333Y-138288066D02*
X168830000Y-138254733D01*
X168830000Y-138254733D02*
X168963333Y-138254733D01*
X168963333Y-138254733D02*
X169030000Y-138288066D01*
X169030000Y-138288066D02*
X169063333Y-138321400D01*
X169063333Y-138321400D02*
X169096666Y-138388066D01*
X169096666Y-138388066D02*
X169096666Y-138554733D01*
X169096666Y-138554733D02*
X169063333Y-138621400D01*
X169063333Y-138621400D02*
X169030000Y-138654733D01*
X169030000Y-138654733D02*
X168963333Y-138688066D01*
X168963333Y-138688066D02*
X168830000Y-138688066D01*
X168830000Y-138688066D02*
X168763333Y-138654733D01*
X168763333Y-138654733D02*
X168730000Y-138621400D01*
X168730000Y-138621400D02*
X168696666Y-138554733D01*
X148613333Y-129254733D02*
X148613333Y-129821400D01*
X148613333Y-129821400D02*
X148580000Y-129888066D01*
X148580000Y-129888066D02*
X148546666Y-129921400D01*
X148546666Y-129921400D02*
X148480000Y-129954733D01*
X148480000Y-129954733D02*
X148346666Y-129954733D01*
X148346666Y-129954733D02*
X148280000Y-129921400D01*
X148280000Y-129921400D02*
X148246666Y-129888066D01*
X148246666Y-129888066D02*
X148213333Y-129821400D01*
X148213333Y-129821400D02*
X148213333Y-129254733D01*
X147946667Y-129254733D02*
X147513333Y-129254733D01*
X147513333Y-129254733D02*
X147746667Y-129521400D01*
X147746667Y-129521400D02*
X147646667Y-129521400D01*
X147646667Y-129521400D02*
X147580000Y-129554733D01*
X147580000Y-129554733D02*
X147546667Y-129588066D01*
X147546667Y-129588066D02*
X147513333Y-129654733D01*
X147513333Y-129654733D02*
X147513333Y-129821400D01*
X147513333Y-129821400D02*
X147546667Y-129888066D01*
X147546667Y-129888066D02*
X147580000Y-129921400D01*
X147580000Y-129921400D02*
X147646667Y-129954733D01*
X147646667Y-129954733D02*
X147846667Y-129954733D01*
X147846667Y-129954733D02*
X147913333Y-129921400D01*
X147913333Y-129921400D02*
X147946667Y-129888066D01*
X90030000Y-136454733D02*
X90263333Y-136121400D01*
X90430000Y-136454733D02*
X90430000Y-135754733D01*
X90430000Y-135754733D02*
X90163333Y-135754733D01*
X90163333Y-135754733D02*
X90096667Y-135788066D01*
X90096667Y-135788066D02*
X90063333Y-135821400D01*
X90063333Y-135821400D02*
X90030000Y-135888066D01*
X90030000Y-135888066D02*
X90030000Y-135988066D01*
X90030000Y-135988066D02*
X90063333Y-136054733D01*
X90063333Y-136054733D02*
X90096667Y-136088066D01*
X90096667Y-136088066D02*
X90163333Y-136121400D01*
X90163333Y-136121400D02*
X90430000Y-136121400D01*
X89363333Y-136454733D02*
X89763333Y-136454733D01*
X89563333Y-136454733D02*
X89563333Y-135754733D01*
X89563333Y-135754733D02*
X89630000Y-135854733D01*
X89630000Y-135854733D02*
X89696667Y-135921400D01*
X89696667Y-135921400D02*
X89763333Y-135954733D01*
X88730000Y-135754733D02*
X89063333Y-135754733D01*
X89063333Y-135754733D02*
X89096666Y-136088066D01*
X89096666Y-136088066D02*
X89063333Y-136054733D01*
X89063333Y-136054733D02*
X88996666Y-136021400D01*
X88996666Y-136021400D02*
X88830000Y-136021400D01*
X88830000Y-136021400D02*
X88763333Y-136054733D01*
X88763333Y-136054733D02*
X88730000Y-136088066D01*
X88730000Y-136088066D02*
X88696666Y-136154733D01*
X88696666Y-136154733D02*
X88696666Y-136321400D01*
X88696666Y-136321400D02*
X88730000Y-136388066D01*
X88730000Y-136388066D02*
X88763333Y-136421400D01*
X88763333Y-136421400D02*
X88830000Y-136454733D01*
X88830000Y-136454733D02*
X88996666Y-136454733D01*
X88996666Y-136454733D02*
X89063333Y-136421400D01*
X89063333Y-136421400D02*
X89096666Y-136388066D01*
X90030000Y-127454733D02*
X90263333Y-127121400D01*
X90430000Y-127454733D02*
X90430000Y-126754733D01*
X90430000Y-126754733D02*
X90163333Y-126754733D01*
X90163333Y-126754733D02*
X90096667Y-126788066D01*
X90096667Y-126788066D02*
X90063333Y-126821400D01*
X90063333Y-126821400D02*
X90030000Y-126888066D01*
X90030000Y-126888066D02*
X90030000Y-126988066D01*
X90030000Y-126988066D02*
X90063333Y-127054733D01*
X90063333Y-127054733D02*
X90096667Y-127088066D01*
X90096667Y-127088066D02*
X90163333Y-127121400D01*
X90163333Y-127121400D02*
X90430000Y-127121400D01*
X89363333Y-127454733D02*
X89763333Y-127454733D01*
X89563333Y-127454733D02*
X89563333Y-126754733D01*
X89563333Y-126754733D02*
X89630000Y-126854733D01*
X89630000Y-126854733D02*
X89696667Y-126921400D01*
X89696667Y-126921400D02*
X89763333Y-126954733D01*
X89096666Y-126821400D02*
X89063333Y-126788066D01*
X89063333Y-126788066D02*
X88996666Y-126754733D01*
X88996666Y-126754733D02*
X88830000Y-126754733D01*
X88830000Y-126754733D02*
X88763333Y-126788066D01*
X88763333Y-126788066D02*
X88730000Y-126821400D01*
X88730000Y-126821400D02*
X88696666Y-126888066D01*
X88696666Y-126888066D02*
X88696666Y-126954733D01*
X88696666Y-126954733D02*
X88730000Y-127054733D01*
X88730000Y-127054733D02*
X89130000Y-127454733D01*
X89130000Y-127454733D02*
X88696666Y-127454733D01*
X106530000Y-144388066D02*
X106563333Y-144421400D01*
X106563333Y-144421400D02*
X106663333Y-144454733D01*
X106663333Y-144454733D02*
X106730000Y-144454733D01*
X106730000Y-144454733D02*
X106830000Y-144421400D01*
X106830000Y-144421400D02*
X106896667Y-144354733D01*
X106896667Y-144354733D02*
X106930000Y-144288066D01*
X106930000Y-144288066D02*
X106963333Y-144154733D01*
X106963333Y-144154733D02*
X106963333Y-144054733D01*
X106963333Y-144054733D02*
X106930000Y-143921400D01*
X106930000Y-143921400D02*
X106896667Y-143854733D01*
X106896667Y-143854733D02*
X106830000Y-143788066D01*
X106830000Y-143788066D02*
X106730000Y-143754733D01*
X106730000Y-143754733D02*
X106663333Y-143754733D01*
X106663333Y-143754733D02*
X106563333Y-143788066D01*
X106563333Y-143788066D02*
X106530000Y-143821400D01*
X105863333Y-144454733D02*
X106263333Y-144454733D01*
X106063333Y-144454733D02*
X106063333Y-143754733D01*
X106063333Y-143754733D02*
X106130000Y-143854733D01*
X106130000Y-143854733D02*
X106196667Y-143921400D01*
X106196667Y-143921400D02*
X106263333Y-143954733D01*
X105530000Y-144454733D02*
X105396666Y-144454733D01*
X105396666Y-144454733D02*
X105330000Y-144421400D01*
X105330000Y-144421400D02*
X105296666Y-144388066D01*
X105296666Y-144388066D02*
X105230000Y-144288066D01*
X105230000Y-144288066D02*
X105196666Y-144154733D01*
X105196666Y-144154733D02*
X105196666Y-143888066D01*
X105196666Y-143888066D02*
X105230000Y-143821400D01*
X105230000Y-143821400D02*
X105263333Y-143788066D01*
X105263333Y-143788066D02*
X105330000Y-143754733D01*
X105330000Y-143754733D02*
X105463333Y-143754733D01*
X105463333Y-143754733D02*
X105530000Y-143788066D01*
X105530000Y-143788066D02*
X105563333Y-143821400D01*
X105563333Y-143821400D02*
X105596666Y-143888066D01*
X105596666Y-143888066D02*
X105596666Y-144054733D01*
X105596666Y-144054733D02*
X105563333Y-144121400D01*
X105563333Y-144121400D02*
X105530000Y-144154733D01*
X105530000Y-144154733D02*
X105463333Y-144188066D01*
X105463333Y-144188066D02*
X105330000Y-144188066D01*
X105330000Y-144188066D02*
X105263333Y-144154733D01*
X105263333Y-144154733D02*
X105230000Y-144121400D01*
X105230000Y-144121400D02*
X105196666Y-144054733D01*
X114030000Y-150388066D02*
X114063333Y-150421400D01*
X114063333Y-150421400D02*
X114163333Y-150454733D01*
X114163333Y-150454733D02*
X114230000Y-150454733D01*
X114230000Y-150454733D02*
X114330000Y-150421400D01*
X114330000Y-150421400D02*
X114396667Y-150354733D01*
X114396667Y-150354733D02*
X114430000Y-150288066D01*
X114430000Y-150288066D02*
X114463333Y-150154733D01*
X114463333Y-150154733D02*
X114463333Y-150054733D01*
X114463333Y-150054733D02*
X114430000Y-149921400D01*
X114430000Y-149921400D02*
X114396667Y-149854733D01*
X114396667Y-149854733D02*
X114330000Y-149788066D01*
X114330000Y-149788066D02*
X114230000Y-149754733D01*
X114230000Y-149754733D02*
X114163333Y-149754733D01*
X114163333Y-149754733D02*
X114063333Y-149788066D01*
X114063333Y-149788066D02*
X114030000Y-149821400D01*
X113363333Y-150454733D02*
X113763333Y-150454733D01*
X113563333Y-150454733D02*
X113563333Y-149754733D01*
X113563333Y-149754733D02*
X113630000Y-149854733D01*
X113630000Y-149854733D02*
X113696667Y-149921400D01*
X113696667Y-149921400D02*
X113763333Y-149954733D01*
X112963333Y-150054733D02*
X113030000Y-150021400D01*
X113030000Y-150021400D02*
X113063333Y-149988066D01*
X113063333Y-149988066D02*
X113096666Y-149921400D01*
X113096666Y-149921400D02*
X113096666Y-149888066D01*
X113096666Y-149888066D02*
X113063333Y-149821400D01*
X113063333Y-149821400D02*
X113030000Y-149788066D01*
X113030000Y-149788066D02*
X112963333Y-149754733D01*
X112963333Y-149754733D02*
X112830000Y-149754733D01*
X112830000Y-149754733D02*
X112763333Y-149788066D01*
X112763333Y-149788066D02*
X112730000Y-149821400D01*
X112730000Y-149821400D02*
X112696666Y-149888066D01*
X112696666Y-149888066D02*
X112696666Y-149921400D01*
X112696666Y-149921400D02*
X112730000Y-149988066D01*
X112730000Y-149988066D02*
X112763333Y-150021400D01*
X112763333Y-150021400D02*
X112830000Y-150054733D01*
X112830000Y-150054733D02*
X112963333Y-150054733D01*
X112963333Y-150054733D02*
X113030000Y-150088066D01*
X113030000Y-150088066D02*
X113063333Y-150121400D01*
X113063333Y-150121400D02*
X113096666Y-150188066D01*
X113096666Y-150188066D02*
X113096666Y-150321400D01*
X113096666Y-150321400D02*
X113063333Y-150388066D01*
X113063333Y-150388066D02*
X113030000Y-150421400D01*
X113030000Y-150421400D02*
X112963333Y-150454733D01*
X112963333Y-150454733D02*
X112830000Y-150454733D01*
X112830000Y-150454733D02*
X112763333Y-150421400D01*
X112763333Y-150421400D02*
X112730000Y-150388066D01*
X112730000Y-150388066D02*
X112696666Y-150321400D01*
X112696666Y-150321400D02*
X112696666Y-150188066D01*
X112696666Y-150188066D02*
X112730000Y-150121400D01*
X112730000Y-150121400D02*
X112763333Y-150088066D01*
X112763333Y-150088066D02*
X112830000Y-150054733D01*
X105746666Y-154454733D02*
X105746666Y-153754733D01*
X105746666Y-153754733D02*
X105479999Y-153754733D01*
X105479999Y-153754733D02*
X105413333Y-153788066D01*
X105413333Y-153788066D02*
X105379999Y-153821400D01*
X105379999Y-153821400D02*
X105346666Y-153888066D01*
X105346666Y-153888066D02*
X105346666Y-153988066D01*
X105346666Y-153988066D02*
X105379999Y-154054733D01*
X105379999Y-154054733D02*
X105413333Y-154088066D01*
X105413333Y-154088066D02*
X105479999Y-154121400D01*
X105479999Y-154121400D02*
X105746666Y-154121400D01*
X105079999Y-154254733D02*
X104746666Y-154254733D01*
X105146666Y-154454733D02*
X104913333Y-153754733D01*
X104913333Y-153754733D02*
X104679999Y-154454733D01*
X104446666Y-154454733D02*
X104446666Y-153754733D01*
X104446666Y-153754733D02*
X104279999Y-153754733D01*
X104279999Y-153754733D02*
X104179999Y-153788066D01*
X104179999Y-153788066D02*
X104113333Y-153854733D01*
X104113333Y-153854733D02*
X104079999Y-153921400D01*
X104079999Y-153921400D02*
X104046666Y-154054733D01*
X104046666Y-154054733D02*
X104046666Y-154154733D01*
X104046666Y-154154733D02*
X104079999Y-154288066D01*
X104079999Y-154288066D02*
X104113333Y-154354733D01*
X104113333Y-154354733D02*
X104179999Y-154421400D01*
X104179999Y-154421400D02*
X104279999Y-154454733D01*
X104279999Y-154454733D02*
X104446666Y-154454733D01*
X103446666Y-153754733D02*
X103579999Y-153754733D01*
X103579999Y-153754733D02*
X103646666Y-153788066D01*
X103646666Y-153788066D02*
X103679999Y-153821400D01*
X103679999Y-153821400D02*
X103746666Y-153921400D01*
X103746666Y-153921400D02*
X103779999Y-154054733D01*
X103779999Y-154054733D02*
X103779999Y-154321400D01*
X103779999Y-154321400D02*
X103746666Y-154388066D01*
X103746666Y-154388066D02*
X103713333Y-154421400D01*
X103713333Y-154421400D02*
X103646666Y-154454733D01*
X103646666Y-154454733D02*
X103513333Y-154454733D01*
X103513333Y-154454733D02*
X103446666Y-154421400D01*
X103446666Y-154421400D02*
X103413333Y-154388066D01*
X103413333Y-154388066D02*
X103379999Y-154321400D01*
X103379999Y-154321400D02*
X103379999Y-154154733D01*
X103379999Y-154154733D02*
X103413333Y-154088066D01*
X103413333Y-154088066D02*
X103446666Y-154054733D01*
X103446666Y-154054733D02*
X103513333Y-154021400D01*
X103513333Y-154021400D02*
X103646666Y-154021400D01*
X103646666Y-154021400D02*
X103713333Y-154054733D01*
X103713333Y-154054733D02*
X103746666Y-154088066D01*
X103746666Y-154088066D02*
X103779999Y-154154733D01*
X170030000Y-141454733D02*
X170263333Y-141121400D01*
X170430000Y-141454733D02*
X170430000Y-140754733D01*
X170430000Y-140754733D02*
X170163333Y-140754733D01*
X170163333Y-140754733D02*
X170096667Y-140788066D01*
X170096667Y-140788066D02*
X170063333Y-140821400D01*
X170063333Y-140821400D02*
X170030000Y-140888066D01*
X170030000Y-140888066D02*
X170030000Y-140988066D01*
X170030000Y-140988066D02*
X170063333Y-141054733D01*
X170063333Y-141054733D02*
X170096667Y-141088066D01*
X170096667Y-141088066D02*
X170163333Y-141121400D01*
X170163333Y-141121400D02*
X170430000Y-141121400D01*
X169763333Y-140821400D02*
X169730000Y-140788066D01*
X169730000Y-140788066D02*
X169663333Y-140754733D01*
X169663333Y-140754733D02*
X169496667Y-140754733D01*
X169496667Y-140754733D02*
X169430000Y-140788066D01*
X169430000Y-140788066D02*
X169396667Y-140821400D01*
X169396667Y-140821400D02*
X169363333Y-140888066D01*
X169363333Y-140888066D02*
X169363333Y-140954733D01*
X169363333Y-140954733D02*
X169396667Y-141054733D01*
X169396667Y-141054733D02*
X169796667Y-141454733D01*
X169796667Y-141454733D02*
X169363333Y-141454733D01*
X169130000Y-140754733D02*
X168663333Y-140754733D01*
X168663333Y-140754733D02*
X168963333Y-141454733D01*
X102030000Y-158888066D02*
X102063333Y-158921400D01*
X102063333Y-158921400D02*
X102163333Y-158954733D01*
X102163333Y-158954733D02*
X102230000Y-158954733D01*
X102230000Y-158954733D02*
X102330000Y-158921400D01*
X102330000Y-158921400D02*
X102396667Y-158854733D01*
X102396667Y-158854733D02*
X102430000Y-158788066D01*
X102430000Y-158788066D02*
X102463333Y-158654733D01*
X102463333Y-158654733D02*
X102463333Y-158554733D01*
X102463333Y-158554733D02*
X102430000Y-158421400D01*
X102430000Y-158421400D02*
X102396667Y-158354733D01*
X102396667Y-158354733D02*
X102330000Y-158288066D01*
X102330000Y-158288066D02*
X102230000Y-158254733D01*
X102230000Y-158254733D02*
X102163333Y-158254733D01*
X102163333Y-158254733D02*
X102063333Y-158288066D01*
X102063333Y-158288066D02*
X102030000Y-158321400D01*
X101430000Y-158488066D02*
X101430000Y-158954733D01*
X101596667Y-158221400D02*
X101763333Y-158721400D01*
X101763333Y-158721400D02*
X101330000Y-158721400D01*
X100696666Y-158954733D02*
X101096666Y-158954733D01*
X100896666Y-158954733D02*
X100896666Y-158254733D01*
X100896666Y-158254733D02*
X100963333Y-158354733D01*
X100963333Y-158354733D02*
X101030000Y-158421400D01*
X101030000Y-158421400D02*
X101096666Y-158454733D01*
X207030000Y-186954733D02*
X207263333Y-186621400D01*
X207430000Y-186954733D02*
X207430000Y-186254733D01*
X207430000Y-186254733D02*
X207163333Y-186254733D01*
X207163333Y-186254733D02*
X207096667Y-186288066D01*
X207096667Y-186288066D02*
X207063333Y-186321400D01*
X207063333Y-186321400D02*
X207030000Y-186388066D01*
X207030000Y-186388066D02*
X207030000Y-186488066D01*
X207030000Y-186488066D02*
X207063333Y-186554733D01*
X207063333Y-186554733D02*
X207096667Y-186588066D01*
X207096667Y-186588066D02*
X207163333Y-186621400D01*
X207163333Y-186621400D02*
X207430000Y-186621400D01*
X206796667Y-186254733D02*
X206363333Y-186254733D01*
X206363333Y-186254733D02*
X206596667Y-186521400D01*
X206596667Y-186521400D02*
X206496667Y-186521400D01*
X206496667Y-186521400D02*
X206430000Y-186554733D01*
X206430000Y-186554733D02*
X206396667Y-186588066D01*
X206396667Y-186588066D02*
X206363333Y-186654733D01*
X206363333Y-186654733D02*
X206363333Y-186821400D01*
X206363333Y-186821400D02*
X206396667Y-186888066D01*
X206396667Y-186888066D02*
X206430000Y-186921400D01*
X206430000Y-186921400D02*
X206496667Y-186954733D01*
X206496667Y-186954733D02*
X206696667Y-186954733D01*
X206696667Y-186954733D02*
X206763333Y-186921400D01*
X206763333Y-186921400D02*
X206796667Y-186888066D01*
X205930000Y-186254733D02*
X205863333Y-186254733D01*
X205863333Y-186254733D02*
X205796666Y-186288066D01*
X205796666Y-186288066D02*
X205763333Y-186321400D01*
X205763333Y-186321400D02*
X205730000Y-186388066D01*
X205730000Y-186388066D02*
X205696666Y-186521400D01*
X205696666Y-186521400D02*
X205696666Y-186688066D01*
X205696666Y-186688066D02*
X205730000Y-186821400D01*
X205730000Y-186821400D02*
X205763333Y-186888066D01*
X205763333Y-186888066D02*
X205796666Y-186921400D01*
X205796666Y-186921400D02*
X205863333Y-186954733D01*
X205863333Y-186954733D02*
X205930000Y-186954733D01*
X205930000Y-186954733D02*
X205996666Y-186921400D01*
X205996666Y-186921400D02*
X206030000Y-186888066D01*
X206030000Y-186888066D02*
X206063333Y-186821400D01*
X206063333Y-186821400D02*
X206096666Y-186688066D01*
X206096666Y-186688066D02*
X206096666Y-186521400D01*
X206096666Y-186521400D02*
X206063333Y-186388066D01*
X206063333Y-186388066D02*
X206030000Y-186321400D01*
X206030000Y-186321400D02*
X205996666Y-186288066D01*
X205996666Y-186288066D02*
X205930000Y-186254733D01*
X214530000Y-147954733D02*
X214763333Y-147621400D01*
X214930000Y-147954733D02*
X214930000Y-147254733D01*
X214930000Y-147254733D02*
X214663333Y-147254733D01*
X214663333Y-147254733D02*
X214596667Y-147288066D01*
X214596667Y-147288066D02*
X214563333Y-147321400D01*
X214563333Y-147321400D02*
X214530000Y-147388066D01*
X214530000Y-147388066D02*
X214530000Y-147488066D01*
X214530000Y-147488066D02*
X214563333Y-147554733D01*
X214563333Y-147554733D02*
X214596667Y-147588066D01*
X214596667Y-147588066D02*
X214663333Y-147621400D01*
X214663333Y-147621400D02*
X214930000Y-147621400D01*
X213863333Y-147954733D02*
X214263333Y-147954733D01*
X214063333Y-147954733D02*
X214063333Y-147254733D01*
X214063333Y-147254733D02*
X214130000Y-147354733D01*
X214130000Y-147354733D02*
X214196667Y-147421400D01*
X214196667Y-147421400D02*
X214263333Y-147454733D01*
X213263333Y-147254733D02*
X213396666Y-147254733D01*
X213396666Y-147254733D02*
X213463333Y-147288066D01*
X213463333Y-147288066D02*
X213496666Y-147321400D01*
X213496666Y-147321400D02*
X213563333Y-147421400D01*
X213563333Y-147421400D02*
X213596666Y-147554733D01*
X213596666Y-147554733D02*
X213596666Y-147821400D01*
X213596666Y-147821400D02*
X213563333Y-147888066D01*
X213563333Y-147888066D02*
X213530000Y-147921400D01*
X213530000Y-147921400D02*
X213463333Y-147954733D01*
X213463333Y-147954733D02*
X213330000Y-147954733D01*
X213330000Y-147954733D02*
X213263333Y-147921400D01*
X213263333Y-147921400D02*
X213230000Y-147888066D01*
X213230000Y-147888066D02*
X213196666Y-147821400D01*
X213196666Y-147821400D02*
X213196666Y-147654733D01*
X213196666Y-147654733D02*
X213230000Y-147588066D01*
X213230000Y-147588066D02*
X213263333Y-147554733D01*
X213263333Y-147554733D02*
X213330000Y-147521400D01*
X213330000Y-147521400D02*
X213463333Y-147521400D01*
X213463333Y-147521400D02*
X213530000Y-147554733D01*
X213530000Y-147554733D02*
X213563333Y-147588066D01*
X213563333Y-147588066D02*
X213596666Y-147654733D01*
X118530000Y-146388066D02*
X118563333Y-146421400D01*
X118563333Y-146421400D02*
X118663333Y-146454733D01*
X118663333Y-146454733D02*
X118730000Y-146454733D01*
X118730000Y-146454733D02*
X118830000Y-146421400D01*
X118830000Y-146421400D02*
X118896667Y-146354733D01*
X118896667Y-146354733D02*
X118930000Y-146288066D01*
X118930000Y-146288066D02*
X118963333Y-146154733D01*
X118963333Y-146154733D02*
X118963333Y-146054733D01*
X118963333Y-146054733D02*
X118930000Y-145921400D01*
X118930000Y-145921400D02*
X118896667Y-145854733D01*
X118896667Y-145854733D02*
X118830000Y-145788066D01*
X118830000Y-145788066D02*
X118730000Y-145754733D01*
X118730000Y-145754733D02*
X118663333Y-145754733D01*
X118663333Y-145754733D02*
X118563333Y-145788066D01*
X118563333Y-145788066D02*
X118530000Y-145821400D01*
X118263333Y-145821400D02*
X118230000Y-145788066D01*
X118230000Y-145788066D02*
X118163333Y-145754733D01*
X118163333Y-145754733D02*
X117996667Y-145754733D01*
X117996667Y-145754733D02*
X117930000Y-145788066D01*
X117930000Y-145788066D02*
X117896667Y-145821400D01*
X117896667Y-145821400D02*
X117863333Y-145888066D01*
X117863333Y-145888066D02*
X117863333Y-145954733D01*
X117863333Y-145954733D02*
X117896667Y-146054733D01*
X117896667Y-146054733D02*
X118296667Y-146454733D01*
X118296667Y-146454733D02*
X117863333Y-146454733D01*
X117630000Y-145754733D02*
X117196666Y-145754733D01*
X117196666Y-145754733D02*
X117430000Y-146021400D01*
X117430000Y-146021400D02*
X117330000Y-146021400D01*
X117330000Y-146021400D02*
X117263333Y-146054733D01*
X117263333Y-146054733D02*
X117230000Y-146088066D01*
X117230000Y-146088066D02*
X117196666Y-146154733D01*
X117196666Y-146154733D02*
X117196666Y-146321400D01*
X117196666Y-146321400D02*
X117230000Y-146388066D01*
X117230000Y-146388066D02*
X117263333Y-146421400D01*
X117263333Y-146421400D02*
X117330000Y-146454733D01*
X117330000Y-146454733D02*
X117530000Y-146454733D01*
X117530000Y-146454733D02*
X117596666Y-146421400D01*
X117596666Y-146421400D02*
X117630000Y-146388066D01*
X119030000Y-173888066D02*
X119063333Y-173921400D01*
X119063333Y-173921400D02*
X119163333Y-173954733D01*
X119163333Y-173954733D02*
X119230000Y-173954733D01*
X119230000Y-173954733D02*
X119330000Y-173921400D01*
X119330000Y-173921400D02*
X119396667Y-173854733D01*
X119396667Y-173854733D02*
X119430000Y-173788066D01*
X119430000Y-173788066D02*
X119463333Y-173654733D01*
X119463333Y-173654733D02*
X119463333Y-173554733D01*
X119463333Y-173554733D02*
X119430000Y-173421400D01*
X119430000Y-173421400D02*
X119396667Y-173354733D01*
X119396667Y-173354733D02*
X119330000Y-173288066D01*
X119330000Y-173288066D02*
X119230000Y-173254733D01*
X119230000Y-173254733D02*
X119163333Y-173254733D01*
X119163333Y-173254733D02*
X119063333Y-173288066D01*
X119063333Y-173288066D02*
X119030000Y-173321400D01*
X118363333Y-173954733D02*
X118763333Y-173954733D01*
X118563333Y-173954733D02*
X118563333Y-173254733D01*
X118563333Y-173254733D02*
X118630000Y-173354733D01*
X118630000Y-173354733D02*
X118696667Y-173421400D01*
X118696667Y-173421400D02*
X118763333Y-173454733D01*
X118096666Y-173321400D02*
X118063333Y-173288066D01*
X118063333Y-173288066D02*
X117996666Y-173254733D01*
X117996666Y-173254733D02*
X117830000Y-173254733D01*
X117830000Y-173254733D02*
X117763333Y-173288066D01*
X117763333Y-173288066D02*
X117730000Y-173321400D01*
X117730000Y-173321400D02*
X117696666Y-173388066D01*
X117696666Y-173388066D02*
X117696666Y-173454733D01*
X117696666Y-173454733D02*
X117730000Y-173554733D01*
X117730000Y-173554733D02*
X118130000Y-173954733D01*
X118130000Y-173954733D02*
X117696666Y-173954733D01*
X215696666Y-175888066D02*
X215729999Y-175921400D01*
X215729999Y-175921400D02*
X215829999Y-175954733D01*
X215829999Y-175954733D02*
X215896666Y-175954733D01*
X215896666Y-175954733D02*
X215996666Y-175921400D01*
X215996666Y-175921400D02*
X216063333Y-175854733D01*
X216063333Y-175854733D02*
X216096666Y-175788066D01*
X216096666Y-175788066D02*
X216129999Y-175654733D01*
X216129999Y-175654733D02*
X216129999Y-175554733D01*
X216129999Y-175554733D02*
X216096666Y-175421400D01*
X216096666Y-175421400D02*
X216063333Y-175354733D01*
X216063333Y-175354733D02*
X215996666Y-175288066D01*
X215996666Y-175288066D02*
X215896666Y-175254733D01*
X215896666Y-175254733D02*
X215829999Y-175254733D01*
X215829999Y-175254733D02*
X215729999Y-175288066D01*
X215729999Y-175288066D02*
X215696666Y-175321400D01*
X215096666Y-175488066D02*
X215096666Y-175954733D01*
X215263333Y-175221400D02*
X215429999Y-175721400D01*
X215429999Y-175721400D02*
X214996666Y-175721400D01*
X176530000Y-151954733D02*
X176763333Y-151621400D01*
X176930000Y-151954733D02*
X176930000Y-151254733D01*
X176930000Y-151254733D02*
X176663333Y-151254733D01*
X176663333Y-151254733D02*
X176596667Y-151288066D01*
X176596667Y-151288066D02*
X176563333Y-151321400D01*
X176563333Y-151321400D02*
X176530000Y-151388066D01*
X176530000Y-151388066D02*
X176530000Y-151488066D01*
X176530000Y-151488066D02*
X176563333Y-151554733D01*
X176563333Y-151554733D02*
X176596667Y-151588066D01*
X176596667Y-151588066D02*
X176663333Y-151621400D01*
X176663333Y-151621400D02*
X176930000Y-151621400D01*
X175863333Y-151954733D02*
X176263333Y-151954733D01*
X176063333Y-151954733D02*
X176063333Y-151254733D01*
X176063333Y-151254733D02*
X176130000Y-151354733D01*
X176130000Y-151354733D02*
X176196667Y-151421400D01*
X176196667Y-151421400D02*
X176263333Y-151454733D01*
X175430000Y-151254733D02*
X175363333Y-151254733D01*
X175363333Y-151254733D02*
X175296666Y-151288066D01*
X175296666Y-151288066D02*
X175263333Y-151321400D01*
X175263333Y-151321400D02*
X175230000Y-151388066D01*
X175230000Y-151388066D02*
X175196666Y-151521400D01*
X175196666Y-151521400D02*
X175196666Y-151688066D01*
X175196666Y-151688066D02*
X175230000Y-151821400D01*
X175230000Y-151821400D02*
X175263333Y-151888066D01*
X175263333Y-151888066D02*
X175296666Y-151921400D01*
X175296666Y-151921400D02*
X175363333Y-151954733D01*
X175363333Y-151954733D02*
X175430000Y-151954733D01*
X175430000Y-151954733D02*
X175496666Y-151921400D01*
X175496666Y-151921400D02*
X175530000Y-151888066D01*
X175530000Y-151888066D02*
X175563333Y-151821400D01*
X175563333Y-151821400D02*
X175596666Y-151688066D01*
X175596666Y-151688066D02*
X175596666Y-151521400D01*
X175596666Y-151521400D02*
X175563333Y-151388066D01*
X175563333Y-151388066D02*
X175530000Y-151321400D01*
X175530000Y-151321400D02*
X175496666Y-151288066D01*
X175496666Y-151288066D02*
X175430000Y-151254733D01*
X82113333Y-184254733D02*
X82113333Y-184754733D01*
X82113333Y-184754733D02*
X82146666Y-184854733D01*
X82146666Y-184854733D02*
X82213333Y-184921400D01*
X82213333Y-184921400D02*
X82313333Y-184954733D01*
X82313333Y-184954733D02*
X82380000Y-184954733D01*
X81846667Y-184254733D02*
X81413333Y-184254733D01*
X81413333Y-184254733D02*
X81646667Y-184521400D01*
X81646667Y-184521400D02*
X81546667Y-184521400D01*
X81546667Y-184521400D02*
X81480000Y-184554733D01*
X81480000Y-184554733D02*
X81446667Y-184588066D01*
X81446667Y-184588066D02*
X81413333Y-184654733D01*
X81413333Y-184654733D02*
X81413333Y-184821400D01*
X81413333Y-184821400D02*
X81446667Y-184888066D01*
X81446667Y-184888066D02*
X81480000Y-184921400D01*
X81480000Y-184921400D02*
X81546667Y-184954733D01*
X81546667Y-184954733D02*
X81746667Y-184954733D01*
X81746667Y-184954733D02*
X81813333Y-184921400D01*
X81813333Y-184921400D02*
X81846667Y-184888066D01*
X162696666Y-131888066D02*
X162729999Y-131921400D01*
X162729999Y-131921400D02*
X162829999Y-131954733D01*
X162829999Y-131954733D02*
X162896666Y-131954733D01*
X162896666Y-131954733D02*
X162996666Y-131921400D01*
X162996666Y-131921400D02*
X163063333Y-131854733D01*
X163063333Y-131854733D02*
X163096666Y-131788066D01*
X163096666Y-131788066D02*
X163129999Y-131654733D01*
X163129999Y-131654733D02*
X163129999Y-131554733D01*
X163129999Y-131554733D02*
X163096666Y-131421400D01*
X163096666Y-131421400D02*
X163063333Y-131354733D01*
X163063333Y-131354733D02*
X162996666Y-131288066D01*
X162996666Y-131288066D02*
X162896666Y-131254733D01*
X162896666Y-131254733D02*
X162829999Y-131254733D01*
X162829999Y-131254733D02*
X162729999Y-131288066D01*
X162729999Y-131288066D02*
X162696666Y-131321400D01*
X162029999Y-131954733D02*
X162429999Y-131954733D01*
X162229999Y-131954733D02*
X162229999Y-131254733D01*
X162229999Y-131254733D02*
X162296666Y-131354733D01*
X162296666Y-131354733D02*
X162363333Y-131421400D01*
X162363333Y-131421400D02*
X162429999Y-131454733D01*
X206394733Y-174023333D02*
X206061400Y-173790000D01*
X206394733Y-173623333D02*
X205694733Y-173623333D01*
X205694733Y-173623333D02*
X205694733Y-173890000D01*
X205694733Y-173890000D02*
X205728066Y-173956667D01*
X205728066Y-173956667D02*
X205761400Y-173990000D01*
X205761400Y-173990000D02*
X205828066Y-174023333D01*
X205828066Y-174023333D02*
X205928066Y-174023333D01*
X205928066Y-174023333D02*
X205994733Y-173990000D01*
X205994733Y-173990000D02*
X206028066Y-173956667D01*
X206028066Y-173956667D02*
X206061400Y-173890000D01*
X206061400Y-173890000D02*
X206061400Y-173623333D01*
X205994733Y-174423333D02*
X205961400Y-174356667D01*
X205961400Y-174356667D02*
X205928066Y-174323333D01*
X205928066Y-174323333D02*
X205861400Y-174290000D01*
X205861400Y-174290000D02*
X205828066Y-174290000D01*
X205828066Y-174290000D02*
X205761400Y-174323333D01*
X205761400Y-174323333D02*
X205728066Y-174356667D01*
X205728066Y-174356667D02*
X205694733Y-174423333D01*
X205694733Y-174423333D02*
X205694733Y-174556667D01*
X205694733Y-174556667D02*
X205728066Y-174623333D01*
X205728066Y-174623333D02*
X205761400Y-174656667D01*
X205761400Y-174656667D02*
X205828066Y-174690000D01*
X205828066Y-174690000D02*
X205861400Y-174690000D01*
X205861400Y-174690000D02*
X205928066Y-174656667D01*
X205928066Y-174656667D02*
X205961400Y-174623333D01*
X205961400Y-174623333D02*
X205994733Y-174556667D01*
X205994733Y-174556667D02*
X205994733Y-174423333D01*
X205994733Y-174423333D02*
X206028066Y-174356667D01*
X206028066Y-174356667D02*
X206061400Y-174323333D01*
X206061400Y-174323333D02*
X206128066Y-174290000D01*
X206128066Y-174290000D02*
X206261400Y-174290000D01*
X206261400Y-174290000D02*
X206328066Y-174323333D01*
X206328066Y-174323333D02*
X206361400Y-174356667D01*
X206361400Y-174356667D02*
X206394733Y-174423333D01*
X206394733Y-174423333D02*
X206394733Y-174556667D01*
X206394733Y-174556667D02*
X206361400Y-174623333D01*
X206361400Y-174623333D02*
X206328066Y-174656667D01*
X206328066Y-174656667D02*
X206261400Y-174690000D01*
X206261400Y-174690000D02*
X206128066Y-174690000D01*
X206128066Y-174690000D02*
X206061400Y-174656667D01*
X206061400Y-174656667D02*
X206028066Y-174623333D01*
X206028066Y-174623333D02*
X205994733Y-174556667D01*
X120398202Y-170388066D02*
X120431535Y-170421400D01*
X120431535Y-170421400D02*
X120531535Y-170454733D01*
X120531535Y-170454733D02*
X120598202Y-170454733D01*
X120598202Y-170454733D02*
X120698202Y-170421400D01*
X120698202Y-170421400D02*
X120764869Y-170354733D01*
X120764869Y-170354733D02*
X120798202Y-170288066D01*
X120798202Y-170288066D02*
X120831535Y-170154733D01*
X120831535Y-170154733D02*
X120831535Y-170054733D01*
X120831535Y-170054733D02*
X120798202Y-169921400D01*
X120798202Y-169921400D02*
X120764869Y-169854733D01*
X120764869Y-169854733D02*
X120698202Y-169788066D01*
X120698202Y-169788066D02*
X120598202Y-169754733D01*
X120598202Y-169754733D02*
X120531535Y-169754733D01*
X120531535Y-169754733D02*
X120431535Y-169788066D01*
X120431535Y-169788066D02*
X120398202Y-169821400D01*
X120064869Y-170454733D02*
X119931535Y-170454733D01*
X119931535Y-170454733D02*
X119864869Y-170421400D01*
X119864869Y-170421400D02*
X119831535Y-170388066D01*
X119831535Y-170388066D02*
X119764869Y-170288066D01*
X119764869Y-170288066D02*
X119731535Y-170154733D01*
X119731535Y-170154733D02*
X119731535Y-169888066D01*
X119731535Y-169888066D02*
X119764869Y-169821400D01*
X119764869Y-169821400D02*
X119798202Y-169788066D01*
X119798202Y-169788066D02*
X119864869Y-169754733D01*
X119864869Y-169754733D02*
X119998202Y-169754733D01*
X119998202Y-169754733D02*
X120064869Y-169788066D01*
X120064869Y-169788066D02*
X120098202Y-169821400D01*
X120098202Y-169821400D02*
X120131535Y-169888066D01*
X120131535Y-169888066D02*
X120131535Y-170054733D01*
X120131535Y-170054733D02*
X120098202Y-170121400D01*
X120098202Y-170121400D02*
X120064869Y-170154733D01*
X120064869Y-170154733D02*
X119998202Y-170188066D01*
X119998202Y-170188066D02*
X119864869Y-170188066D01*
X119864869Y-170188066D02*
X119798202Y-170154733D01*
X119798202Y-170154733D02*
X119764869Y-170121400D01*
X119764869Y-170121400D02*
X119731535Y-170054733D01*
X92696666Y-185954733D02*
X92929999Y-185621400D01*
X93096666Y-185954733D02*
X93096666Y-185254733D01*
X93096666Y-185254733D02*
X92829999Y-185254733D01*
X92829999Y-185254733D02*
X92763333Y-185288066D01*
X92763333Y-185288066D02*
X92729999Y-185321400D01*
X92729999Y-185321400D02*
X92696666Y-185388066D01*
X92696666Y-185388066D02*
X92696666Y-185488066D01*
X92696666Y-185488066D02*
X92729999Y-185554733D01*
X92729999Y-185554733D02*
X92763333Y-185588066D01*
X92763333Y-185588066D02*
X92829999Y-185621400D01*
X92829999Y-185621400D02*
X93096666Y-185621400D01*
X92096666Y-185488066D02*
X92096666Y-185954733D01*
X92263333Y-185221400D02*
X92429999Y-185721400D01*
X92429999Y-185721400D02*
X91996666Y-185721400D01*
X203530000Y-133954733D02*
X203763333Y-133621400D01*
X203930000Y-133954733D02*
X203930000Y-133254733D01*
X203930000Y-133254733D02*
X203663333Y-133254733D01*
X203663333Y-133254733D02*
X203596667Y-133288066D01*
X203596667Y-133288066D02*
X203563333Y-133321400D01*
X203563333Y-133321400D02*
X203530000Y-133388066D01*
X203530000Y-133388066D02*
X203530000Y-133488066D01*
X203530000Y-133488066D02*
X203563333Y-133554733D01*
X203563333Y-133554733D02*
X203596667Y-133588066D01*
X203596667Y-133588066D02*
X203663333Y-133621400D01*
X203663333Y-133621400D02*
X203930000Y-133621400D01*
X203296667Y-133254733D02*
X202863333Y-133254733D01*
X202863333Y-133254733D02*
X203096667Y-133521400D01*
X203096667Y-133521400D02*
X202996667Y-133521400D01*
X202996667Y-133521400D02*
X202930000Y-133554733D01*
X202930000Y-133554733D02*
X202896667Y-133588066D01*
X202896667Y-133588066D02*
X202863333Y-133654733D01*
X202863333Y-133654733D02*
X202863333Y-133821400D01*
X202863333Y-133821400D02*
X202896667Y-133888066D01*
X202896667Y-133888066D02*
X202930000Y-133921400D01*
X202930000Y-133921400D02*
X202996667Y-133954733D01*
X202996667Y-133954733D02*
X203196667Y-133954733D01*
X203196667Y-133954733D02*
X203263333Y-133921400D01*
X203263333Y-133921400D02*
X203296667Y-133888066D01*
X202630000Y-133254733D02*
X202196666Y-133254733D01*
X202196666Y-133254733D02*
X202430000Y-133521400D01*
X202430000Y-133521400D02*
X202330000Y-133521400D01*
X202330000Y-133521400D02*
X202263333Y-133554733D01*
X202263333Y-133554733D02*
X202230000Y-133588066D01*
X202230000Y-133588066D02*
X202196666Y-133654733D01*
X202196666Y-133654733D02*
X202196666Y-133821400D01*
X202196666Y-133821400D02*
X202230000Y-133888066D01*
X202230000Y-133888066D02*
X202263333Y-133921400D01*
X202263333Y-133921400D02*
X202330000Y-133954733D01*
X202330000Y-133954733D02*
X202530000Y-133954733D01*
X202530000Y-133954733D02*
X202596666Y-133921400D01*
X202596666Y-133921400D02*
X202630000Y-133888066D01*
X103696667Y-144954733D02*
X104030000Y-144954733D01*
X104030000Y-144954733D02*
X104030000Y-144254733D01*
X103096666Y-144954733D02*
X103496666Y-144954733D01*
X103296666Y-144954733D02*
X103296666Y-144254733D01*
X103296666Y-144254733D02*
X103363333Y-144354733D01*
X103363333Y-144354733D02*
X103430000Y-144421400D01*
X103430000Y-144421400D02*
X103496666Y-144454733D01*
X206394733Y-176523333D02*
X206061400Y-176290000D01*
X206394733Y-176123333D02*
X205694733Y-176123333D01*
X205694733Y-176123333D02*
X205694733Y-176390000D01*
X205694733Y-176390000D02*
X205728066Y-176456667D01*
X205728066Y-176456667D02*
X205761400Y-176490000D01*
X205761400Y-176490000D02*
X205828066Y-176523333D01*
X205828066Y-176523333D02*
X205928066Y-176523333D01*
X205928066Y-176523333D02*
X205994733Y-176490000D01*
X205994733Y-176490000D02*
X206028066Y-176456667D01*
X206028066Y-176456667D02*
X206061400Y-176390000D01*
X206061400Y-176390000D02*
X206061400Y-176123333D01*
X205694733Y-176756667D02*
X205694733Y-177223333D01*
X205694733Y-177223333D02*
X206394733Y-176923333D01*
X119530000Y-144388066D02*
X119563333Y-144421400D01*
X119563333Y-144421400D02*
X119663333Y-144454733D01*
X119663333Y-144454733D02*
X119730000Y-144454733D01*
X119730000Y-144454733D02*
X119830000Y-144421400D01*
X119830000Y-144421400D02*
X119896667Y-144354733D01*
X119896667Y-144354733D02*
X119930000Y-144288066D01*
X119930000Y-144288066D02*
X119963333Y-144154733D01*
X119963333Y-144154733D02*
X119963333Y-144054733D01*
X119963333Y-144054733D02*
X119930000Y-143921400D01*
X119930000Y-143921400D02*
X119896667Y-143854733D01*
X119896667Y-143854733D02*
X119830000Y-143788066D01*
X119830000Y-143788066D02*
X119730000Y-143754733D01*
X119730000Y-143754733D02*
X119663333Y-143754733D01*
X119663333Y-143754733D02*
X119563333Y-143788066D01*
X119563333Y-143788066D02*
X119530000Y-143821400D01*
X119263333Y-143821400D02*
X119230000Y-143788066D01*
X119230000Y-143788066D02*
X119163333Y-143754733D01*
X119163333Y-143754733D02*
X118996667Y-143754733D01*
X118996667Y-143754733D02*
X118930000Y-143788066D01*
X118930000Y-143788066D02*
X118896667Y-143821400D01*
X118896667Y-143821400D02*
X118863333Y-143888066D01*
X118863333Y-143888066D02*
X118863333Y-143954733D01*
X118863333Y-143954733D02*
X118896667Y-144054733D01*
X118896667Y-144054733D02*
X119296667Y-144454733D01*
X119296667Y-144454733D02*
X118863333Y-144454733D01*
X118196666Y-144454733D02*
X118596666Y-144454733D01*
X118396666Y-144454733D02*
X118396666Y-143754733D01*
X118396666Y-143754733D02*
X118463333Y-143854733D01*
X118463333Y-143854733D02*
X118530000Y-143921400D01*
X118530000Y-143921400D02*
X118596666Y-143954733D01*
X204198600Y-128206666D02*
X204231933Y-128273333D01*
X204231933Y-128273333D02*
X204298600Y-128340000D01*
X204298600Y-128340000D02*
X204398600Y-128440000D01*
X204398600Y-128440000D02*
X204431933Y-128506666D01*
X204431933Y-128506666D02*
X204431933Y-128573333D01*
X204265266Y-128540000D02*
X204298600Y-128606666D01*
X204298600Y-128606666D02*
X204365266Y-128673333D01*
X204365266Y-128673333D02*
X204498600Y-128706666D01*
X204498600Y-128706666D02*
X204731933Y-128706666D01*
X204731933Y-128706666D02*
X204865266Y-128673333D01*
X204865266Y-128673333D02*
X204931933Y-128606666D01*
X204931933Y-128606666D02*
X204965266Y-128540000D01*
X204965266Y-128540000D02*
X204965266Y-128406666D01*
X204965266Y-128406666D02*
X204931933Y-128340000D01*
X204931933Y-128340000D02*
X204865266Y-128273333D01*
X204865266Y-128273333D02*
X204731933Y-128240000D01*
X204731933Y-128240000D02*
X204498600Y-128240000D01*
X204498600Y-128240000D02*
X204365266Y-128273333D01*
X204365266Y-128273333D02*
X204298600Y-128340000D01*
X204298600Y-128340000D02*
X204265266Y-128406666D01*
X204265266Y-128406666D02*
X204265266Y-128540000D01*
X204265266Y-127573333D02*
X204265266Y-127973333D01*
X204265266Y-127773333D02*
X204965266Y-127773333D01*
X204965266Y-127773333D02*
X204865266Y-127840000D01*
X204865266Y-127840000D02*
X204798600Y-127906667D01*
X204798600Y-127906667D02*
X204765266Y-127973333D01*
X117398202Y-166888066D02*
X117431535Y-166921400D01*
X117431535Y-166921400D02*
X117531535Y-166954733D01*
X117531535Y-166954733D02*
X117598202Y-166954733D01*
X117598202Y-166954733D02*
X117698202Y-166921400D01*
X117698202Y-166921400D02*
X117764869Y-166854733D01*
X117764869Y-166854733D02*
X117798202Y-166788066D01*
X117798202Y-166788066D02*
X117831535Y-166654733D01*
X117831535Y-166654733D02*
X117831535Y-166554733D01*
X117831535Y-166554733D02*
X117798202Y-166421400D01*
X117798202Y-166421400D02*
X117764869Y-166354733D01*
X117764869Y-166354733D02*
X117698202Y-166288066D01*
X117698202Y-166288066D02*
X117598202Y-166254733D01*
X117598202Y-166254733D02*
X117531535Y-166254733D01*
X117531535Y-166254733D02*
X117431535Y-166288066D01*
X117431535Y-166288066D02*
X117398202Y-166321400D01*
X117164869Y-166254733D02*
X116698202Y-166254733D01*
X116698202Y-166254733D02*
X116998202Y-166954733D01*
X100746666Y-190454733D02*
X100746666Y-189754733D01*
X100746666Y-189754733D02*
X100479999Y-189754733D01*
X100479999Y-189754733D02*
X100413333Y-189788066D01*
X100413333Y-189788066D02*
X100379999Y-189821400D01*
X100379999Y-189821400D02*
X100346666Y-189888066D01*
X100346666Y-189888066D02*
X100346666Y-189988066D01*
X100346666Y-189988066D02*
X100379999Y-190054733D01*
X100379999Y-190054733D02*
X100413333Y-190088066D01*
X100413333Y-190088066D02*
X100479999Y-190121400D01*
X100479999Y-190121400D02*
X100746666Y-190121400D01*
X100079999Y-190254733D02*
X99746666Y-190254733D01*
X100146666Y-190454733D02*
X99913333Y-189754733D01*
X99913333Y-189754733D02*
X99679999Y-190454733D01*
X99446666Y-190454733D02*
X99446666Y-189754733D01*
X99446666Y-189754733D02*
X99279999Y-189754733D01*
X99279999Y-189754733D02*
X99179999Y-189788066D01*
X99179999Y-189788066D02*
X99113333Y-189854733D01*
X99113333Y-189854733D02*
X99079999Y-189921400D01*
X99079999Y-189921400D02*
X99046666Y-190054733D01*
X99046666Y-190054733D02*
X99046666Y-190154733D01*
X99046666Y-190154733D02*
X99079999Y-190288066D01*
X99079999Y-190288066D02*
X99113333Y-190354733D01*
X99113333Y-190354733D02*
X99179999Y-190421400D01*
X99179999Y-190421400D02*
X99279999Y-190454733D01*
X99279999Y-190454733D02*
X99446666Y-190454733D01*
X98446666Y-189988066D02*
X98446666Y-190454733D01*
X98613333Y-189721400D02*
X98779999Y-190221400D01*
X98779999Y-190221400D02*
X98346666Y-190221400D01*
X120398202Y-171888066D02*
X120431535Y-171921400D01*
X120431535Y-171921400D02*
X120531535Y-171954733D01*
X120531535Y-171954733D02*
X120598202Y-171954733D01*
X120598202Y-171954733D02*
X120698202Y-171921400D01*
X120698202Y-171921400D02*
X120764869Y-171854733D01*
X120764869Y-171854733D02*
X120798202Y-171788066D01*
X120798202Y-171788066D02*
X120831535Y-171654733D01*
X120831535Y-171654733D02*
X120831535Y-171554733D01*
X120831535Y-171554733D02*
X120798202Y-171421400D01*
X120798202Y-171421400D02*
X120764869Y-171354733D01*
X120764869Y-171354733D02*
X120698202Y-171288066D01*
X120698202Y-171288066D02*
X120598202Y-171254733D01*
X120598202Y-171254733D02*
X120531535Y-171254733D01*
X120531535Y-171254733D02*
X120431535Y-171288066D01*
X120431535Y-171288066D02*
X120398202Y-171321400D01*
X119731535Y-171954733D02*
X120131535Y-171954733D01*
X119931535Y-171954733D02*
X119931535Y-171254733D01*
X119931535Y-171254733D02*
X119998202Y-171354733D01*
X119998202Y-171354733D02*
X120064869Y-171421400D01*
X120064869Y-171421400D02*
X120131535Y-171454733D01*
X119498202Y-171254733D02*
X119031535Y-171254733D01*
X119031535Y-171254733D02*
X119331535Y-171954733D01*
D10*
X207080000Y-169540000D02*
X210080000Y-169540000D01*
X210080000Y-167740000D02*
X207080000Y-167740000D01*
X154680000Y-142340000D02*
X154680000Y-140940000D01*
D13*
X126580000Y-186140000D02*
X126580000Y-178140000D01*
X134580000Y-186140000D02*
X126580000Y-186140000D01*
D10*
X205980000Y-132640000D02*
X205980000Y-129640000D01*
X204180000Y-129640000D02*
X204180000Y-132640000D01*
X207080000Y-164540000D02*
X210080000Y-164540000D01*
X210080000Y-162740000D02*
X207080000Y-162740000D01*
X179580000Y-139040000D02*
X178580000Y-139040000D01*
X179580000Y-135240000D02*
X178580000Y-135240000D01*
X144580000Y-132040000D02*
X143580000Y-132040000D01*
X144580000Y-128240000D02*
X143580000Y-128240000D01*
X110604000Y-149672000D02*
X110096000Y-149672000D01*
X110604000Y-148656000D02*
X110604000Y-149672000D01*
X176380000Y-134240000D02*
X177780000Y-134240000D01*
X143580000Y-134540000D02*
X146580000Y-134540000D01*
X146580000Y-132740000D02*
X143580000Y-132740000D01*
X161280000Y-131640000D02*
X161280000Y-139640000D01*
D14*
X160580000Y-137140000D02*
X154580000Y-137140000D01*
X160580000Y-134140000D02*
X160580000Y-137140000D01*
X154580000Y-137140000D02*
X154580000Y-134140000D01*
X154580000Y-134140000D02*
X160580000Y-134140000D01*
D10*
X153880000Y-131640000D02*
X153880000Y-139640000D01*
X94080000Y-132240000D02*
X91080000Y-132240000D01*
X91080000Y-134040000D02*
X94080000Y-134040000D01*
X174580000Y-148240000D02*
X171580000Y-148240000D01*
X171580000Y-150040000D02*
X174580000Y-150040000D01*
X171080000Y-131040000D02*
X174080000Y-131040000D01*
X174080000Y-129240000D02*
X171080000Y-129240000D01*
X207080000Y-172540000D02*
X210080000Y-172540000D01*
X210080000Y-170740000D02*
X207080000Y-170740000D01*
X102180000Y-157340000D02*
X102180000Y-155940000D01*
X207980000Y-132640000D02*
X207980000Y-129640000D01*
X206180000Y-129640000D02*
X206180000Y-132640000D01*
X205680000Y-182640000D02*
X205680000Y-185640000D01*
X207480000Y-185640000D02*
X207480000Y-182640000D01*
X143580000Y-141240000D02*
X144580000Y-141240000D01*
X143580000Y-145040000D02*
X144580000Y-145040000D01*
X218580000Y-149740000D02*
X215580000Y-149740000D01*
X215580000Y-151540000D02*
X218580000Y-151540000D01*
D15*
X195580000Y-143640000D02*
X180580000Y-143640000D01*
X180580000Y-127640000D02*
X195580000Y-127640000D01*
X195580000Y-127640000D02*
X195580000Y-143640000D01*
D10*
X121680000Y-169140000D02*
X121680000Y-168140000D01*
X125480000Y-169140000D02*
X125480000Y-168140000D01*
X94080000Y-129240000D02*
X91080000Y-129240000D01*
X91080000Y-131040000D02*
X94080000Y-131040000D01*
X221480000Y-177140000D02*
X221480000Y-178140000D01*
X217680000Y-177140000D02*
X217680000Y-178140000D01*
X171080000Y-128540000D02*
X174080000Y-128540000D01*
X174080000Y-126740000D02*
X171080000Y-126740000D01*
D15*
X71270000Y-133910000D02*
X71270000Y-130100000D01*
X71270000Y-130100000D02*
X73810000Y-130100000D01*
D10*
X171580000Y-155040000D02*
X174580000Y-155040000D01*
X174580000Y-153240000D02*
X171580000Y-153240000D01*
X87280000Y-189540000D02*
X85880000Y-189540000D01*
X149780000Y-144040000D02*
X148380000Y-144040000D01*
X207080000Y-167040000D02*
X210080000Y-167040000D01*
X210080000Y-165240000D02*
X207080000Y-165240000D01*
X146580000Y-140240000D02*
X147580000Y-140240000D01*
X146580000Y-144040000D02*
X147580000Y-144040000D01*
X171080000Y-133540000D02*
X174080000Y-133540000D01*
X174080000Y-131740000D02*
X171080000Y-131740000D01*
X138580000Y-140240000D02*
X139580000Y-140240000D01*
X138580000Y-144040000D02*
X139580000Y-144040000D01*
X218580000Y-152740000D02*
X215580000Y-152740000D01*
X215580000Y-154540000D02*
X218580000Y-154540000D01*
X91080000Y-187240000D02*
X88080000Y-187240000D01*
X88080000Y-189040000D02*
X91080000Y-189040000D01*
X139480000Y-136440000D02*
X139480000Y-137840000D01*
X141780000Y-144040000D02*
X140380000Y-144040000D01*
D16*
X225005000Y-192658250D02*
X225005000Y-191058250D01*
X225005000Y-179508250D02*
X225005000Y-180058250D01*
X224555000Y-179508250D02*
X225005000Y-179508250D01*
X213005000Y-179508250D02*
X211155000Y-179508250D01*
X211155000Y-179508250D02*
X211155000Y-193658250D01*
D10*
X111080000Y-141740000D02*
X108080000Y-141740000D01*
X108080000Y-143540000D02*
X111080000Y-143540000D01*
X218580000Y-155740000D02*
X215580000Y-155740000D01*
X215580000Y-157540000D02*
X218580000Y-157540000D01*
X171080000Y-139540000D02*
X174080000Y-139540000D01*
X174080000Y-137740000D02*
X171080000Y-137740000D01*
X94080000Y-135240000D02*
X91080000Y-135240000D01*
X91080000Y-137040000D02*
X94080000Y-137040000D01*
X94080000Y-126240000D02*
X91080000Y-126240000D01*
X91080000Y-128040000D02*
X94080000Y-128040000D01*
X106780000Y-150540000D02*
X105380000Y-150540000D01*
X108180000Y-150640000D02*
X108180000Y-149640000D01*
X111980000Y-150640000D02*
X111980000Y-149640000D01*
X171080000Y-142040000D02*
X174080000Y-142040000D01*
X174080000Y-140240000D02*
X171080000Y-140240000D01*
X106980000Y-158140000D02*
X106980000Y-159140000D01*
X103180000Y-158140000D02*
X103180000Y-159140000D01*
X205680000Y-187640000D02*
X205680000Y-190640000D01*
X207480000Y-190640000D02*
X207480000Y-187640000D01*
X218580000Y-146740000D02*
X215580000Y-146740000D01*
X215580000Y-148540000D02*
X218580000Y-148540000D01*
X112680000Y-146640000D02*
X112680000Y-145640000D01*
X116480000Y-146640000D02*
X116480000Y-145640000D01*
X125480000Y-172940000D02*
X125480000Y-174340000D01*
X216680000Y-176340000D02*
X216680000Y-174940000D01*
X171580000Y-152540000D02*
X174580000Y-152540000D01*
X174580000Y-150740000D02*
X171580000Y-150740000D01*
D15*
X83080000Y-185640000D02*
X73080000Y-185640000D01*
D10*
X161880000Y-132740000D02*
X163280000Y-132740000D01*
X207080000Y-175040000D02*
X210080000Y-175040000D01*
X210080000Y-173240000D02*
X207080000Y-173240000D01*
X121680000Y-170640000D02*
X121680000Y-169640000D01*
X125480000Y-170640000D02*
X125480000Y-169640000D01*
X91080000Y-184740000D02*
X88080000Y-184740000D01*
X88080000Y-186540000D02*
X91080000Y-186540000D01*
X203980000Y-132640000D02*
X203980000Y-129640000D01*
X202180000Y-129640000D02*
X202180000Y-132640000D01*
X207080000Y-177540000D02*
X210080000Y-177540000D01*
X210080000Y-175740000D02*
X207080000Y-175740000D01*
X117480000Y-143440000D02*
X117480000Y-144840000D01*
X123980000Y-165940000D02*
X123980000Y-167340000D01*
X121680000Y-172140000D02*
X121680000Y-171140000D01*
X125480000Y-172140000D02*
X125480000Y-171140000D01*
%LPC*%
D17*
X76310000Y-205640000D03*
X76310000Y-208180000D03*
X76310000Y-210720000D03*
X76310000Y-213260000D03*
X76310000Y-215800000D03*
X76310000Y-218340000D03*
X76310000Y-220880000D03*
X76310000Y-223420000D03*
X76310000Y-225960000D03*
X76310000Y-228500000D03*
X76310000Y-231040000D03*
X76310000Y-233580000D03*
X76310000Y-236120000D03*
X76310000Y-238660000D03*
X76310000Y-241200000D03*
X76310000Y-243740000D03*
X76310000Y-246280000D03*
X76310000Y-248820000D03*
X76310000Y-251360000D03*
X76310000Y-253900000D03*
X78850000Y-253900000D03*
X78850000Y-251360000D03*
X78850000Y-248820000D03*
X78850000Y-246280000D03*
X78850000Y-243740000D03*
X78850000Y-241200000D03*
X78850000Y-238660000D03*
X78850000Y-236120000D03*
X78850000Y-233580000D03*
X78850000Y-231040000D03*
X78850000Y-228500000D03*
X78850000Y-225960000D03*
X78850000Y-223420000D03*
X78850000Y-220880000D03*
X78850000Y-218340000D03*
X78850000Y-215800000D03*
X78850000Y-213260000D03*
X78850000Y-210720000D03*
X78850000Y-208180000D03*
X78850000Y-205640000D03*
D18*
X78080000Y-200140000D03*
X78080000Y-198340000D03*
X61580000Y-225140000D03*
X59780000Y-225140000D03*
D19*
X89580000Y-244410000D03*
X89580000Y-241870000D03*
X89580000Y-239330000D03*
X89580000Y-236790000D03*
X89580000Y-234250000D03*
X89580000Y-231710000D03*
X89580000Y-229170000D03*
X89580000Y-226630000D03*
X89580000Y-224090000D03*
X89580000Y-221550000D03*
X87040000Y-221550000D03*
X87040000Y-224090000D03*
X87040000Y-226630000D03*
X87040000Y-229170000D03*
X87040000Y-231710000D03*
X87040000Y-234250000D03*
X87040000Y-236790000D03*
X87040000Y-239330000D03*
X87040000Y-241870000D03*
X87040000Y-244410000D03*
D18*
X218080000Y-200140000D03*
X218080000Y-198340000D03*
X201580000Y-200140000D03*
X201580000Y-198340000D03*
X61580000Y-217140000D03*
X59780000Y-217140000D03*
D20*
X148080000Y-267640000D03*
D21*
X207580000Y-168640000D03*
X209580000Y-168640000D03*
D22*
X155880000Y-141640000D03*
X159280000Y-141640000D03*
D23*
X128280000Y-182040000D03*
X128280000Y-181240000D03*
X128280000Y-180440000D03*
X128280000Y-179640000D03*
X128280000Y-178840000D03*
X128280000Y-178040000D03*
X128280000Y-177240000D03*
X128280000Y-176440000D03*
X128280000Y-175640000D03*
X128280000Y-174840000D03*
X128280000Y-174040000D03*
X128280000Y-173240000D03*
X128280000Y-172440000D03*
X128280000Y-171640000D03*
X128280000Y-170840000D03*
X128280000Y-170040000D03*
X128280000Y-169240000D03*
X128280000Y-168440000D03*
X128280000Y-167640000D03*
X128280000Y-166840000D03*
X128280000Y-166040000D03*
X128280000Y-165240000D03*
X128280000Y-164440000D03*
X128280000Y-163640000D03*
X128280000Y-162840000D03*
X128280000Y-162040000D03*
X128280000Y-161240000D03*
X128280000Y-160440000D03*
X128280000Y-159640000D03*
X128280000Y-158840000D03*
X128280000Y-158040000D03*
X128280000Y-157240000D03*
X128280000Y-156440000D03*
X128280000Y-155640000D03*
X128280000Y-154840000D03*
X128280000Y-154040000D03*
X128280000Y-153240000D03*
X128280000Y-152440000D03*
X128280000Y-151640000D03*
X128280000Y-150840000D03*
X128280000Y-150040000D03*
X128280000Y-149240000D03*
D24*
X130080000Y-146840000D03*
X130880000Y-146840000D03*
X131680000Y-146840000D03*
X132480000Y-146840000D03*
X133280000Y-146840000D03*
X134080000Y-146840000D03*
X134880000Y-146840000D03*
X135680000Y-146840000D03*
X136480000Y-146840000D03*
X137280000Y-146840000D03*
X138080000Y-146840000D03*
X138880000Y-146840000D03*
X139680000Y-146840000D03*
X140480000Y-146840000D03*
X141280000Y-146840000D03*
X142080000Y-146840000D03*
X142880000Y-146840000D03*
X143680000Y-146840000D03*
X144480000Y-146840000D03*
X145280000Y-146840000D03*
X146080000Y-146840000D03*
X146880000Y-146840000D03*
X147680000Y-146840000D03*
X148480000Y-146840000D03*
X149280000Y-146840000D03*
X150080000Y-146840000D03*
X150880000Y-146840000D03*
X151680000Y-146840000D03*
X152480000Y-146840000D03*
X153280000Y-146840000D03*
X154080000Y-146840000D03*
X154880000Y-146840000D03*
X155680000Y-146840000D03*
X156480000Y-146840000D03*
X157280000Y-146840000D03*
X158080000Y-146840000D03*
X158880000Y-146840000D03*
X159680000Y-146840000D03*
X160480000Y-146840000D03*
X161280000Y-146840000D03*
X162080000Y-146840000D03*
X162880000Y-146840000D03*
X163680000Y-146840000D03*
X164480000Y-146840000D03*
X165280000Y-146840000D03*
X166080000Y-146840000D03*
D23*
X167880000Y-149240000D03*
X167880000Y-150040000D03*
X167880000Y-150840000D03*
X167880000Y-151640000D03*
X167880000Y-152440000D03*
X167880000Y-153240000D03*
X167880000Y-154040000D03*
X167880000Y-154840000D03*
X167880000Y-155640000D03*
X167880000Y-156440000D03*
X167880000Y-157240000D03*
X167880000Y-158040000D03*
X167880000Y-158840000D03*
X167880000Y-159640000D03*
X167880000Y-160440000D03*
X167880000Y-161240000D03*
X167880000Y-162040000D03*
X167880000Y-162840000D03*
X167880000Y-163640000D03*
X167880000Y-164440000D03*
X167880000Y-165240000D03*
X167880000Y-166040000D03*
X167880000Y-166840000D03*
X167880000Y-167640000D03*
X167880000Y-168440000D03*
X167880000Y-169240000D03*
X167880000Y-170040000D03*
X167880000Y-170840000D03*
X167880000Y-171640000D03*
X167880000Y-172440000D03*
X167880000Y-173240000D03*
X167880000Y-174040000D03*
X167880000Y-174840000D03*
X167880000Y-175640000D03*
X167880000Y-176440000D03*
X167880000Y-177240000D03*
X167880000Y-178040000D03*
X167880000Y-178840000D03*
X167880000Y-179640000D03*
X167880000Y-180440000D03*
X167880000Y-181240000D03*
X167880000Y-182040000D03*
D24*
X166080000Y-184440000D03*
X165280000Y-184440000D03*
X164480000Y-184440000D03*
X163680000Y-184440000D03*
X162880000Y-184440000D03*
X162080000Y-184440000D03*
X161280000Y-184440000D03*
X160480000Y-184440000D03*
X159680000Y-184440000D03*
X158880000Y-184440000D03*
X158080000Y-184440000D03*
X157280000Y-184440000D03*
X156480000Y-184440000D03*
X155680000Y-184440000D03*
X154880000Y-184440000D03*
X154080000Y-184440000D03*
X153280000Y-184440000D03*
X152480000Y-184440000D03*
X151680000Y-184440000D03*
X150880000Y-184440000D03*
X150080000Y-184440000D03*
X149280000Y-184440000D03*
X148480000Y-184440000D03*
X147680000Y-184440000D03*
X146880000Y-184440000D03*
X146080000Y-184440000D03*
X145280000Y-184440000D03*
X144480000Y-184440000D03*
X143680000Y-184440000D03*
X142880000Y-184440000D03*
X142080000Y-184440000D03*
X141280000Y-184440000D03*
X140480000Y-184440000D03*
X139680000Y-184440000D03*
X138880000Y-184440000D03*
X138080000Y-184440000D03*
X137280000Y-184440000D03*
X136480000Y-184440000D03*
X135680000Y-184440000D03*
X134880000Y-184440000D03*
X134080000Y-184440000D03*
X133280000Y-184440000D03*
X132480000Y-184440000D03*
X131680000Y-184440000D03*
X130880000Y-184440000D03*
X130080000Y-184440000D03*
D21*
X205080000Y-132140000D03*
X205080000Y-130140000D03*
X207580000Y-163640000D03*
X209580000Y-163640000D03*
X179080000Y-138140000D03*
X179080000Y-136140000D03*
X144080000Y-131140000D03*
X144080000Y-129140000D03*
D25*
X110030000Y-148840000D03*
X109080000Y-148840000D03*
X108130000Y-148840000D03*
X108130000Y-146440000D03*
X109080000Y-146440000D03*
X110030000Y-146440000D03*
D26*
X177080000Y-135440000D03*
X177080000Y-138840000D03*
D21*
X144080000Y-133640000D03*
X146080000Y-133640000D03*
D27*
X159880000Y-138790000D03*
X157580000Y-138790000D03*
X155280000Y-138790000D03*
D28*
X157580000Y-132490000D03*
D21*
X93580000Y-133140000D03*
X91580000Y-133140000D03*
X174080000Y-149140000D03*
X172080000Y-149140000D03*
X171580000Y-130140000D03*
X173580000Y-130140000D03*
X207580000Y-171640000D03*
X209580000Y-171640000D03*
D22*
X103380000Y-156640000D03*
X106780000Y-156640000D03*
D29*
X151580000Y-135640000D03*
D21*
X207080000Y-132140000D03*
X207080000Y-130140000D03*
X206580000Y-183140000D03*
X206580000Y-185140000D03*
X144080000Y-142140000D03*
X144080000Y-144140000D03*
X218080000Y-150640000D03*
X216080000Y-150640000D03*
D30*
X181430000Y-132640000D03*
X181430000Y-133740000D03*
X181430000Y-134840000D03*
X181430000Y-135940000D03*
X181430000Y-137040000D03*
X181430000Y-138140000D03*
X181430000Y-139240000D03*
X181430000Y-140340000D03*
D31*
X194130000Y-134040000D03*
D32*
X181930000Y-142440000D03*
D31*
X194130000Y-138940000D03*
D21*
X194230000Y-130990000D03*
D33*
X181930000Y-129090000D03*
D21*
X122580000Y-168640000D03*
X124580000Y-168640000D03*
X93580000Y-130140000D03*
X91580000Y-130140000D03*
X220580000Y-177640000D03*
X218580000Y-177640000D03*
D34*
X209080000Y-127190000D03*
X209080000Y-129090000D03*
X207080000Y-128140000D03*
D29*
X96080000Y-193640000D03*
D21*
X171580000Y-127640000D03*
X173580000Y-127640000D03*
D35*
X175680000Y-263140000D03*
D36*
X175680000Y-245640000D03*
X120480000Y-245640000D03*
X120480000Y-228140000D03*
D37*
X189180000Y-236090000D03*
X106980000Y-236090000D03*
X189180000Y-255190000D03*
X106980000Y-255190000D03*
D38*
X75080000Y-132640000D03*
X75080000Y-135180000D03*
X75080000Y-137720000D03*
X75080000Y-140260000D03*
X75080000Y-142800000D03*
X75080000Y-145340000D03*
X75080000Y-147880000D03*
X75080000Y-150420000D03*
X75080000Y-152960000D03*
X75080000Y-155500000D03*
X75080000Y-158040000D03*
X75080000Y-160580000D03*
X75080000Y-163120000D03*
X75080000Y-165660000D03*
X75080000Y-168200000D03*
X75080000Y-170740000D03*
X75080000Y-173280000D03*
X75080000Y-175820000D03*
X75080000Y-178360000D03*
X75080000Y-180900000D03*
X80160000Y-180900000D03*
X80160000Y-178360000D03*
X80160000Y-175820000D03*
X80160000Y-173280000D03*
X80160000Y-170740000D03*
X80160000Y-168200000D03*
X80160000Y-165660000D03*
X80160000Y-163120000D03*
X80160000Y-160580000D03*
X80160000Y-158040000D03*
X80160000Y-155500000D03*
X80160000Y-152960000D03*
X80160000Y-150420000D03*
X80160000Y-147880000D03*
X80160000Y-145340000D03*
X80160000Y-142800000D03*
X80160000Y-140260000D03*
X80160000Y-137720000D03*
X80160000Y-135180000D03*
X80160000Y-132640000D03*
D21*
X172080000Y-154140000D03*
X174080000Y-154140000D03*
D26*
X86580000Y-188340000D03*
X86580000Y-184940000D03*
X149080000Y-142840000D03*
X149080000Y-139440000D03*
D21*
X207580000Y-166140000D03*
X209580000Y-166140000D03*
X147080000Y-141140000D03*
X147080000Y-143140000D03*
D29*
X228080000Y-179640000D03*
X198080000Y-134140000D03*
D21*
X171580000Y-132640000D03*
X173580000Y-132640000D03*
X139080000Y-141140000D03*
X139080000Y-143140000D03*
D29*
X151580000Y-131140000D03*
D21*
X218080000Y-153640000D03*
X216080000Y-153640000D03*
X90580000Y-188140000D03*
X88580000Y-188140000D03*
D22*
X138280000Y-137140000D03*
X134880000Y-137140000D03*
D26*
X141080000Y-142840000D03*
X141080000Y-139440000D03*
D39*
X204130000Y-126140000D03*
X206030000Y-126140000D03*
X205080000Y-128140000D03*
D40*
X215305000Y-179758250D03*
X216405000Y-179758250D03*
X217505000Y-179758250D03*
X218605000Y-179758250D03*
X219705000Y-179758250D03*
X220805000Y-179758250D03*
X221905000Y-179758250D03*
X223005000Y-179758250D03*
D41*
X224905000Y-184058250D03*
D42*
X224905000Y-194408250D03*
D43*
X211405000Y-194858250D03*
D41*
X213755000Y-179758250D03*
D44*
X224905000Y-190258250D03*
D40*
X223955000Y-179758250D03*
D21*
X110580000Y-142640000D03*
X108580000Y-142640000D03*
X218080000Y-156640000D03*
X216080000Y-156640000D03*
X171580000Y-138640000D03*
X173580000Y-138640000D03*
D45*
X145980000Y-131790000D03*
X145980000Y-131140000D03*
X145980000Y-130490000D03*
X148180000Y-130490000D03*
X148180000Y-131140000D03*
X148180000Y-131790000D03*
D21*
X93580000Y-136140000D03*
X91580000Y-136140000D03*
X93580000Y-127140000D03*
X91580000Y-127140000D03*
D26*
X106080000Y-149340000D03*
X106080000Y-145940000D03*
D21*
X109080000Y-150140000D03*
X111080000Y-150140000D03*
D29*
X107580000Y-152640000D03*
D21*
X171580000Y-141140000D03*
X173580000Y-141140000D03*
X106080000Y-158640000D03*
X104080000Y-158640000D03*
X206580000Y-188140000D03*
X206580000Y-190140000D03*
X218080000Y-147640000D03*
X216080000Y-147640000D03*
X113580000Y-146140000D03*
X115580000Y-146140000D03*
D22*
X124280000Y-173640000D03*
X120880000Y-173640000D03*
X217880000Y-175640000D03*
X221280000Y-175640000D03*
D21*
X172080000Y-151640000D03*
X174080000Y-151640000D03*
D46*
X75880000Y-191640000D03*
X80280000Y-191640000D03*
D47*
X79680000Y-188465000D03*
X76480000Y-188465000D03*
X78080000Y-188465000D03*
X78880000Y-188465000D03*
X77280000Y-188465000D03*
D48*
X73630000Y-194590000D03*
X82530000Y-194590000D03*
X73630000Y-189090000D03*
X82530000Y-189090000D03*
D26*
X162580000Y-133940000D03*
X162580000Y-137340000D03*
D21*
X207580000Y-174140000D03*
X209580000Y-174140000D03*
X122580000Y-170140000D03*
X124580000Y-170140000D03*
X90580000Y-185640000D03*
X88580000Y-185640000D03*
X203080000Y-132140000D03*
X203080000Y-130140000D03*
D49*
X103580000Y-149440000D03*
X103580000Y-145840000D03*
D21*
X207580000Y-176640000D03*
X209580000Y-176640000D03*
D22*
X116280000Y-144140000D03*
X112880000Y-144140000D03*
D34*
X201080000Y-129090000D03*
X201080000Y-127190000D03*
X203080000Y-128140000D03*
D22*
X122780000Y-166640000D03*
X119380000Y-166640000D03*
D29*
X96080000Y-190140000D03*
D21*
X122580000Y-171640000D03*
X124580000Y-171640000D03*
%LPD*%
M02*
