G04 #@! TF.GenerationSoftware,KiCad,Pcbnew,7.0.8*
G04 #@! TF.CreationDate,2023-11-01T09:31:04+09:00*
G04 #@! TF.ProjectId,a5d27_handheld_console_pcb,61356432-375f-4686-916e-6468656c645f,rev?*
G04 #@! TF.SameCoordinates,Original*
G04 #@! TF.FileFunction,Soldermask,Bot*
G04 #@! TF.FilePolarity,Negative*
%FSLAX46Y46*%
G04 Gerber Fmt 4.6, Leading zero omitted, Abs format (unit mm)*
G04 Created by KiCad (PCBNEW 7.0.8) date 2023-11-01 09:31:04*
%MOMM*%
%LPD*%
G01*
G04 APERTURE LIST*
G04 Aperture macros list*
%AMRoundRect*
0 Rectangle with rounded corners*
0 $1 Rounding radius*
0 $2 $3 $4 $5 $6 $7 $8 $9 X,Y pos of 4 corners*
0 Add a 4 corners polygon primitive as box body*
4,1,4,$2,$3,$4,$5,$6,$7,$8,$9,$2,$3,0*
0 Add four circle primitives for the rounded corners*
1,1,$1+$1,$2,$3*
1,1,$1+$1,$4,$5*
1,1,$1+$1,$6,$7*
1,1,$1+$1,$8,$9*
0 Add four rect primitives between the rounded corners*
20,1,$1+$1,$2,$3,$4,$5,0*
20,1,$1+$1,$4,$5,$6,$7,0*
20,1,$1+$1,$6,$7,$8,$9,0*
20,1,$1+$1,$8,$9,$2,$3,0*%
G04 Aperture macros list end*
%ADD10C,2.200000*%
%ADD11C,0.700000*%
%ADD12C,1.800000*%
%ADD13C,1.524000*%
%ADD14R,1.200000X1.200000*%
%ADD15R,1.800000X1.600000*%
%ADD16R,2.000000X0.600000*%
%ADD17R,0.600000X2.000000*%
%ADD18R,0.550000X0.800000*%
%ADD19R,1.600000X1.800000*%
%ADD20R,1.000000X2.300000*%
%ADD21R,3.300000X2.300000*%
%ADD22C,3.000000*%
%ADD23R,2.000000X0.700000*%
%ADD24R,1.400000X2.700000*%
%ADD25R,2.600000X1.000000*%
%ADD26R,2.600000X1.500000*%
%ADD27R,0.900000X0.800000*%
%ADD28C,3.500000*%
%ADD29C,3.200000*%
%ADD30R,10.800000X6.400000*%
%ADD31R,4.000000X1.500000*%
%ADD32R,0.800000X0.900000*%
%ADD33RoundRect,0.102000X0.350000X0.600000X-0.350000X0.600000X-0.350000X-0.600000X0.350000X-0.600000X0*%
%ADD34RoundRect,0.102000X0.500000X0.600000X-0.500000X0.600000X-0.500000X-0.600000X0.500000X-0.600000X0*%
%ADD35RoundRect,0.102000X0.500000X1.400000X-0.500000X1.400000X-0.500000X-1.400000X0.500000X-1.400000X0*%
%ADD36RoundRect,0.102000X0.650000X0.950000X-0.650000X0.950000X-0.650000X-0.950000X0.650000X-0.950000X0*%
%ADD37RoundRect,0.102000X0.500000X0.400000X-0.500000X0.400000X-0.500000X-0.400000X0.500000X-0.400000X0*%
%ADD38RoundRect,0.087500X0.412500X-0.087500X0.412500X0.087500X-0.412500X0.087500X-0.412500X-0.087500X0*%
%ADD39C,0.900000*%
%ADD40R,0.500000X2.800000*%
%ADD41R,2.000000X2.500000*%
%ADD42R,1.500000X1.400000*%
G04 APERTURE END LIST*
D10*
X76310000Y-205640000D03*
X76310000Y-208180000D03*
X76310000Y-210720000D03*
X76310000Y-213260000D03*
X76310000Y-215800000D03*
X76310000Y-218340000D03*
X76310000Y-220880000D03*
X76310000Y-223420000D03*
X76310000Y-225960000D03*
X76310000Y-228500000D03*
X76310000Y-231040000D03*
X76310000Y-233580000D03*
X76310000Y-236120000D03*
X76310000Y-238660000D03*
X76310000Y-241200000D03*
X76310000Y-243740000D03*
X76310000Y-246280000D03*
X76310000Y-248820000D03*
X76310000Y-251360000D03*
X76310000Y-253900000D03*
X78850000Y-253900000D03*
X78850000Y-251360000D03*
X78850000Y-248820000D03*
X78850000Y-246280000D03*
X78850000Y-243740000D03*
X78850000Y-241200000D03*
X78850000Y-238660000D03*
X78850000Y-236120000D03*
X78850000Y-233580000D03*
X78850000Y-231040000D03*
X78850000Y-228500000D03*
X78850000Y-225960000D03*
X78850000Y-223420000D03*
X78850000Y-220880000D03*
X78850000Y-218340000D03*
X78850000Y-215800000D03*
X78850000Y-213260000D03*
X78850000Y-210720000D03*
X78850000Y-208180000D03*
X78850000Y-205640000D03*
D11*
X78080000Y-200140000D03*
X78080000Y-198340000D03*
X61580000Y-225140000D03*
X59780000Y-225140000D03*
D12*
X89580000Y-244410000D03*
X89580000Y-241870000D03*
X89580000Y-239330000D03*
X89580000Y-236790000D03*
X89580000Y-234250000D03*
X89580000Y-231710000D03*
X89580000Y-229170000D03*
X89580000Y-226630000D03*
X89580000Y-224090000D03*
X89580000Y-221550000D03*
X87040000Y-221550000D03*
X87040000Y-224090000D03*
X87040000Y-226630000D03*
X87040000Y-229170000D03*
X87040000Y-231710000D03*
X87040000Y-234250000D03*
X87040000Y-236790000D03*
X87040000Y-239330000D03*
X87040000Y-241870000D03*
X87040000Y-244410000D03*
D11*
X218080000Y-200140000D03*
X218080000Y-198340000D03*
X201580000Y-200140000D03*
X201580000Y-198340000D03*
X61580000Y-217140000D03*
X59780000Y-217140000D03*
D13*
X148080000Y-267640000D03*
D14*
X207580000Y-168640000D03*
X209580000Y-168640000D03*
D15*
X155880000Y-141640000D03*
X159280000Y-141640000D03*
D16*
X128280000Y-182040000D03*
X128280000Y-181240000D03*
X128280000Y-180440000D03*
X128280000Y-179640000D03*
X128280000Y-178840000D03*
X128280000Y-178040000D03*
X128280000Y-177240000D03*
X128280000Y-176440000D03*
X128280000Y-175640000D03*
X128280000Y-174840000D03*
X128280000Y-174040000D03*
X128280000Y-173240000D03*
X128280000Y-172440000D03*
X128280000Y-171640000D03*
X128280000Y-170840000D03*
X128280000Y-170040000D03*
X128280000Y-169240000D03*
X128280000Y-168440000D03*
X128280000Y-167640000D03*
X128280000Y-166840000D03*
X128280000Y-166040000D03*
X128280000Y-165240000D03*
X128280000Y-164440000D03*
X128280000Y-163640000D03*
X128280000Y-162840000D03*
X128280000Y-162040000D03*
X128280000Y-161240000D03*
X128280000Y-160440000D03*
X128280000Y-159640000D03*
X128280000Y-158840000D03*
X128280000Y-158040000D03*
X128280000Y-157240000D03*
X128280000Y-156440000D03*
X128280000Y-155640000D03*
X128280000Y-154840000D03*
X128280000Y-154040000D03*
X128280000Y-153240000D03*
X128280000Y-152440000D03*
X128280000Y-151640000D03*
X128280000Y-150840000D03*
X128280000Y-150040000D03*
X128280000Y-149240000D03*
D17*
X130080000Y-146840000D03*
X130880000Y-146840000D03*
X131680000Y-146840000D03*
X132480000Y-146840000D03*
X133280000Y-146840000D03*
X134080000Y-146840000D03*
X134880000Y-146840000D03*
X135680000Y-146840000D03*
X136480000Y-146840000D03*
X137280000Y-146840000D03*
X138080000Y-146840000D03*
X138880000Y-146840000D03*
X139680000Y-146840000D03*
X140480000Y-146840000D03*
X141280000Y-146840000D03*
X142080000Y-146840000D03*
X142880000Y-146840000D03*
X143680000Y-146840000D03*
X144480000Y-146840000D03*
X145280000Y-146840000D03*
X146080000Y-146840000D03*
X146880000Y-146840000D03*
X147680000Y-146840000D03*
X148480000Y-146840000D03*
X149280000Y-146840000D03*
X150080000Y-146840000D03*
X150880000Y-146840000D03*
X151680000Y-146840000D03*
X152480000Y-146840000D03*
X153280000Y-146840000D03*
X154080000Y-146840000D03*
X154880000Y-146840000D03*
X155680000Y-146840000D03*
X156480000Y-146840000D03*
X157280000Y-146840000D03*
X158080000Y-146840000D03*
X158880000Y-146840000D03*
X159680000Y-146840000D03*
X160480000Y-146840000D03*
X161280000Y-146840000D03*
X162080000Y-146840000D03*
X162880000Y-146840000D03*
X163680000Y-146840000D03*
X164480000Y-146840000D03*
X165280000Y-146840000D03*
X166080000Y-146840000D03*
D16*
X167880000Y-149240000D03*
X167880000Y-150040000D03*
X167880000Y-150840000D03*
X167880000Y-151640000D03*
X167880000Y-152440000D03*
X167880000Y-153240000D03*
X167880000Y-154040000D03*
X167880000Y-154840000D03*
X167880000Y-155640000D03*
X167880000Y-156440000D03*
X167880000Y-157240000D03*
X167880000Y-158040000D03*
X167880000Y-158840000D03*
X167880000Y-159640000D03*
X167880000Y-160440000D03*
X167880000Y-161240000D03*
X167880000Y-162040000D03*
X167880000Y-162840000D03*
X167880000Y-163640000D03*
X167880000Y-164440000D03*
X167880000Y-165240000D03*
X167880000Y-166040000D03*
X167880000Y-166840000D03*
X167880000Y-167640000D03*
X167880000Y-168440000D03*
X167880000Y-169240000D03*
X167880000Y-170040000D03*
X167880000Y-170840000D03*
X167880000Y-171640000D03*
X167880000Y-172440000D03*
X167880000Y-173240000D03*
X167880000Y-174040000D03*
X167880000Y-174840000D03*
X167880000Y-175640000D03*
X167880000Y-176440000D03*
X167880000Y-177240000D03*
X167880000Y-178040000D03*
X167880000Y-178840000D03*
X167880000Y-179640000D03*
X167880000Y-180440000D03*
X167880000Y-181240000D03*
X167880000Y-182040000D03*
D17*
X166080000Y-184440000D03*
X165280000Y-184440000D03*
X164480000Y-184440000D03*
X163680000Y-184440000D03*
X162880000Y-184440000D03*
X162080000Y-184440000D03*
X161280000Y-184440000D03*
X160480000Y-184440000D03*
X159680000Y-184440000D03*
X158880000Y-184440000D03*
X158080000Y-184440000D03*
X157280000Y-184440000D03*
X156480000Y-184440000D03*
X155680000Y-184440000D03*
X154880000Y-184440000D03*
X154080000Y-184440000D03*
X153280000Y-184440000D03*
X152480000Y-184440000D03*
X151680000Y-184440000D03*
X150880000Y-184440000D03*
X150080000Y-184440000D03*
X149280000Y-184440000D03*
X148480000Y-184440000D03*
X147680000Y-184440000D03*
X146880000Y-184440000D03*
X146080000Y-184440000D03*
X145280000Y-184440000D03*
X144480000Y-184440000D03*
X143680000Y-184440000D03*
X142880000Y-184440000D03*
X142080000Y-184440000D03*
X141280000Y-184440000D03*
X140480000Y-184440000D03*
X139680000Y-184440000D03*
X138880000Y-184440000D03*
X138080000Y-184440000D03*
X137280000Y-184440000D03*
X136480000Y-184440000D03*
X135680000Y-184440000D03*
X134880000Y-184440000D03*
X134080000Y-184440000D03*
X133280000Y-184440000D03*
X132480000Y-184440000D03*
X131680000Y-184440000D03*
X130880000Y-184440000D03*
X130080000Y-184440000D03*
D14*
X205080000Y-132140000D03*
X205080000Y-130140000D03*
X207580000Y-163640000D03*
X209580000Y-163640000D03*
X179080000Y-138140000D03*
X179080000Y-136140000D03*
X144080000Y-131140000D03*
X144080000Y-129140000D03*
D18*
X110030000Y-148840000D03*
X109080000Y-148840000D03*
X108130000Y-148840000D03*
X108130000Y-146440000D03*
X109080000Y-146440000D03*
X110030000Y-146440000D03*
D19*
X177080000Y-135440000D03*
X177080000Y-138840000D03*
D14*
X144080000Y-133640000D03*
X146080000Y-133640000D03*
D20*
X159880000Y-138790000D03*
X157580000Y-138790000D03*
X155280000Y-138790000D03*
D21*
X157580000Y-132490000D03*
D14*
X93580000Y-133140000D03*
X91580000Y-133140000D03*
X174080000Y-149140000D03*
X172080000Y-149140000D03*
X171580000Y-130140000D03*
X173580000Y-130140000D03*
X207580000Y-171640000D03*
X209580000Y-171640000D03*
D15*
X103380000Y-156640000D03*
X106780000Y-156640000D03*
D22*
X151580000Y-135640000D03*
D14*
X207080000Y-132140000D03*
X207080000Y-130140000D03*
X206580000Y-183140000D03*
X206580000Y-185140000D03*
X144080000Y-142140000D03*
X144080000Y-144140000D03*
X218080000Y-150640000D03*
X216080000Y-150640000D03*
D23*
X181430000Y-132640000D03*
X181430000Y-133740000D03*
X181430000Y-134840000D03*
X181430000Y-135940000D03*
X181430000Y-137040000D03*
X181430000Y-138140000D03*
X181430000Y-139240000D03*
X181430000Y-140340000D03*
D24*
X194130000Y-134040000D03*
D25*
X181930000Y-142440000D03*
D24*
X194130000Y-138940000D03*
D14*
X194230000Y-130990000D03*
D26*
X181930000Y-129090000D03*
D14*
X122580000Y-168640000D03*
X124580000Y-168640000D03*
X93580000Y-130140000D03*
X91580000Y-130140000D03*
X220580000Y-177640000D03*
X218580000Y-177640000D03*
D27*
X209080000Y-127190000D03*
X209080000Y-129090000D03*
X207080000Y-128140000D03*
D22*
X96080000Y-193640000D03*
D14*
X171580000Y-127640000D03*
X173580000Y-127640000D03*
D28*
X175680000Y-263140000D03*
D29*
X175680000Y-245640000D03*
X120480000Y-245640000D03*
X120480000Y-228140000D03*
D30*
X189180000Y-236090000D03*
X106980000Y-236090000D03*
X189180000Y-255190000D03*
X106980000Y-255190000D03*
D31*
X75080000Y-132640000D03*
X75080000Y-135180000D03*
X75080000Y-137720000D03*
X75080000Y-140260000D03*
X75080000Y-142800000D03*
X75080000Y-145340000D03*
X75080000Y-147880000D03*
X75080000Y-150420000D03*
X75080000Y-152960000D03*
X75080000Y-155500000D03*
X75080000Y-158040000D03*
X75080000Y-160580000D03*
X75080000Y-163120000D03*
X75080000Y-165660000D03*
X75080000Y-168200000D03*
X75080000Y-170740000D03*
X75080000Y-173280000D03*
X75080000Y-175820000D03*
X75080000Y-178360000D03*
X75080000Y-180900000D03*
X80160000Y-180900000D03*
X80160000Y-178360000D03*
X80160000Y-175820000D03*
X80160000Y-173280000D03*
X80160000Y-170740000D03*
X80160000Y-168200000D03*
X80160000Y-165660000D03*
X80160000Y-163120000D03*
X80160000Y-160580000D03*
X80160000Y-158040000D03*
X80160000Y-155500000D03*
X80160000Y-152960000D03*
X80160000Y-150420000D03*
X80160000Y-147880000D03*
X80160000Y-145340000D03*
X80160000Y-142800000D03*
X80160000Y-140260000D03*
X80160000Y-137720000D03*
X80160000Y-135180000D03*
X80160000Y-132640000D03*
D14*
X172080000Y-154140000D03*
X174080000Y-154140000D03*
D19*
X86580000Y-188340000D03*
X86580000Y-184940000D03*
X149080000Y-142840000D03*
X149080000Y-139440000D03*
D14*
X207580000Y-166140000D03*
X209580000Y-166140000D03*
X147080000Y-141140000D03*
X147080000Y-143140000D03*
D22*
X228080000Y-179640000D03*
X198080000Y-134140000D03*
D14*
X171580000Y-132640000D03*
X173580000Y-132640000D03*
X139080000Y-141140000D03*
X139080000Y-143140000D03*
D22*
X151580000Y-131140000D03*
D14*
X218080000Y-153640000D03*
X216080000Y-153640000D03*
X90580000Y-188140000D03*
X88580000Y-188140000D03*
D15*
X138280000Y-137140000D03*
X134880000Y-137140000D03*
D19*
X141080000Y-142840000D03*
X141080000Y-139440000D03*
D32*
X204130000Y-126140000D03*
X206030000Y-126140000D03*
X205080000Y-128140000D03*
D33*
X215305000Y-179758250D03*
X216405000Y-179758250D03*
X217505000Y-179758250D03*
X218605000Y-179758250D03*
X219705000Y-179758250D03*
X220805000Y-179758250D03*
X221905000Y-179758250D03*
X223005000Y-179758250D03*
D34*
X224905000Y-184058250D03*
D35*
X224905000Y-194408250D03*
D36*
X211405000Y-194858250D03*
D34*
X213755000Y-179758250D03*
D37*
X224905000Y-190258250D03*
D33*
X223955000Y-179758250D03*
D14*
X110580000Y-142640000D03*
X108580000Y-142640000D03*
X218080000Y-156640000D03*
X216080000Y-156640000D03*
X171580000Y-138640000D03*
X173580000Y-138640000D03*
D38*
X145980000Y-131790000D03*
X145980000Y-131140000D03*
X145980000Y-130490000D03*
X148180000Y-130490000D03*
X148180000Y-131140000D03*
X148180000Y-131790000D03*
D14*
X93580000Y-136140000D03*
X91580000Y-136140000D03*
X93580000Y-127140000D03*
X91580000Y-127140000D03*
D19*
X106080000Y-149340000D03*
X106080000Y-145940000D03*
D14*
X109080000Y-150140000D03*
X111080000Y-150140000D03*
D22*
X107580000Y-152640000D03*
D14*
X171580000Y-141140000D03*
X173580000Y-141140000D03*
X106080000Y-158640000D03*
X104080000Y-158640000D03*
X206580000Y-188140000D03*
X206580000Y-190140000D03*
X218080000Y-147640000D03*
X216080000Y-147640000D03*
X113580000Y-146140000D03*
X115580000Y-146140000D03*
D15*
X124280000Y-173640000D03*
X120880000Y-173640000D03*
X217880000Y-175640000D03*
X221280000Y-175640000D03*
D14*
X172080000Y-151640000D03*
X174080000Y-151640000D03*
D39*
X75880000Y-191640000D03*
X80280000Y-191640000D03*
D40*
X79680000Y-188465000D03*
X76480000Y-188465000D03*
X78080000Y-188465000D03*
X78880000Y-188465000D03*
X77280000Y-188465000D03*
D41*
X73630000Y-194590000D03*
X82530000Y-194590000D03*
X73630000Y-189090000D03*
X82530000Y-189090000D03*
D19*
X162580000Y-133940000D03*
X162580000Y-137340000D03*
D14*
X207580000Y-174140000D03*
X209580000Y-174140000D03*
X122580000Y-170140000D03*
X124580000Y-170140000D03*
X90580000Y-185640000D03*
X88580000Y-185640000D03*
X203080000Y-132140000D03*
X203080000Y-130140000D03*
D42*
X103580000Y-149440000D03*
X103580000Y-145840000D03*
D14*
X207580000Y-176640000D03*
X209580000Y-176640000D03*
D15*
X116280000Y-144140000D03*
X112880000Y-144140000D03*
D27*
X201080000Y-129090000D03*
X201080000Y-127190000D03*
X203080000Y-128140000D03*
D15*
X122780000Y-166640000D03*
X119380000Y-166640000D03*
D22*
X96080000Y-190140000D03*
D14*
X122580000Y-171640000D03*
X124580000Y-171640000D03*
M02*
